<svg width="16" height="16" viewBox="0 0 16 16" fill="none" xmlns="http://www.w3.org/2000/svg">
<g id="Frame">
<path id="Vector" d="M2.82652 14.5325C2.53465 14.5325 2.30469 14.2937 2.30469 14.0106C2.30469 13.7188 2.54349 13.4888 2.82652 13.4888H13.6169C13.9088 13.4888 14.1387 13.7276 14.1387 14.0106C14.1387 14.3025 13.8999 14.5325 13.6169 14.5325H2.82652ZM13.3074 2.85761L11.7507 1.30096C11.5561 1.10638 11.2377 1.10638 11.0431 1.30096L9.4688 2.8753L11.733 5.13952L13.3074 3.56518C13.5019 3.3706 13.5019 3.06104 13.3074 2.85761ZM9.00004 3.34406L3.7552 8.58891C3.61369 8.73042 3.48986 9.03998 3.48986 9.03998L2.67616 11.6226C2.61425 11.8172 2.79998 11.9941 2.99457 11.941L5.5595 11.1273C5.5595 11.1273 5.86906 11.0123 6.01941 10.8531L11.2643 5.60828L9.00004 3.34406Z" fill="white" fill-opacity="0.6"/>
</g>
</svg>
