<svg width="24" height="24" viewBox="0 0 24 24" fill="none" xmlns="http://www.w3.org/2000/svg"><g stroke="#A6B6D1" stroke-linejoin="round"><path d="M17.833 5.333H6.166a.833.833 0 0 0-.833.834v11.666c0 .46.373.834.833.834h11.667c.46 0 .833-.373.833-.834V6.167a.833.833 0 0 0-.833-.834z"/><path d="M14.5 9.5h-5v5h5v-5z"/><path d="M8.212 2.833v2.5m0 13.334v2.5M12 2.833v2.5m0 13.334v2.5m3.788-18.334v2.5m0 13.334v2.5M2.833 8.212h2.5m13.334 0h2.5M2.833 12h2.5m13.334 0h2.5M2.833 15.788h2.5m13.334 0h2.5" stroke-linecap="round"/></g></svg>