<svg width="20" height="20" viewBox="0 0 20 20" fill="none" xmlns="http://www.w3.org/2000/svg"><path d="M12.8 7.612c1.122 0 2.217-.007 3.311.005.243 0 .484.038.715.114a1.886 1.886 0 0 1 1.095 2.09c-.404 2.068-.835 4.13-1.238 6.2a2.265 2.265 0 0 1-.72 1.47 1.36 1.36 0 0 1-.847.358c-2.91-.003-5.82-.003-8.731 0-.041 0-.082-.006-.154-.012-.005-.099-.015-.192-.015-.288l.007-9.108c0-.198.046-.273.241-.308 1.618-.284 2.963-1.897 3.089-3.675a4.504 4.504 0 0 1 .228-1.44 1.541 1.541 0 0 1 2.565-.537c.33.344.54.784.603 1.256a9.012 9.012 0 0 1-.137 3.724 1.31 1.31 0 0 0-.015.152l.003-.001zM5.362 9.04c0-.516-.255-.814-.717-.824-.61-.013-1.22-.015-1.831 0A.693.693 0 0 0 2.115 9c-.004 2.69-.004 5.379 0 8.069a.693.693 0 0 0 .725.777c.568.005 1.139 0 1.705 0 .567 0 .816-.269.817-.903V13.02c0-1.325.005-2.652 0-3.978z" fill="#fff"/></svg>