<svg width="20" height="20" viewBox="0 0 20 20" fill="none" xmlns="http://www.w3.org/2000/svg"><path d="M3.198 6.763h2.815a.41.41 0 0 1 .417.417c0 .208-.157.364-.417.364H3.198a.356.356 0 0 1-.364-.364c0-.209.156-.417.364-.417zm1.825-2.867 1.98 1.98a.409.409 0 0 1 0 .573.41.41 0 0 1-.573 0L4.449 4.416c-.156-.156-.156-.416 0-.52a.41.41 0 0 1 .574 0zM8.046 2.54v2.866c0 .21-.157.366-.365.366-.21 0-.417-.156-.417-.366V2.54c0-.208.208-.365.417-.365.208 0 .365.157.365.365zm9.38 10.267h-2.813a.356.356 0 0 1-.364-.364c0-.209.156-.417.364-.417h2.814c.208 0 .418.208.418.417 0 .208-.21.364-.418.364zm-1.771 2.92-2.033-1.98a.409.409 0 0 1 0-.573.41.41 0 0 1 .575 0l1.98 1.98a.409.409 0 0 1 0 .573c-.156.156-.366.156-.522 0zM12.58 17.03v-2.815a.41.41 0 0 1 .416-.417c.208 0 .365.209.365.417v2.816c0 .208-.157.416-.365.416a.41.41 0 0 1-.416-.416zm-6.204-4.223 6.412-6.41c.208-.208.625-.208.833 0 .208.208.208.625 0 .833l-6.41 6.412c-.209.209-.573.209-.835 0-.208-.26-.208-.625 0-.835zm4.587-6.983 2.033-2.033c.94-.885 2.658-1.147 3.545-.26l.312.312c.885.938.677 2.658-.26 3.545L14.56 9.421c-.73.729-1.928.937-2.868.52l-.677.73c1.148.782 2.762.626 3.753-.417l2.658-2.606c1.2-1.199 1.2-3.128 0-4.275l-.365-.417c-1.197-1.197-3.126-1.197-4.273 0l-2.658 2.66c-.939.885-1.095 2.293-.626 3.388l.73-.73c-.208-.836.104-1.825.73-2.45zm-1.928 8.339-2.033 2.085c-.886.887-2.606 1.147-3.544.208l-.313-.313c-.886-.885-.626-2.605.26-3.492l2.033-2.085c.73-.729 1.98-.937 2.867-.52l.73-.68a3.074 3.074 0 0 0-3.805.367l-2.658 2.658c-1.2 1.2-1.2 3.128 0 4.273l.417.419c1.146 1.145 3.075 1.145 4.274 0l2.606-2.66c.938-.937 1.147-2.293.626-3.386l-.73.729a2.474 2.474 0 0 1-.73 2.397z" fill="#fff"/></svg>