<svg width="220" height="29" viewBox="0 0 220 29" fill="none" xmlns="http://www.w3.org/2000/svg">
<g id="Connect Wallet">
<mask id="path-1-outside-1_1293_1062" maskUnits="userSpaceOnUse" x="0" y="0" width="220" height="29" fill="black">
<rect fill="white" width="220" height="29"/>
<path d="M11.597 27.0961C9.19771 27.0961 7.2116 26.6376 5.6387 25.7205C4.06581 24.8035 2.8928 23.6245 2.11969 22.1834C1.37323 20.7424 1 19.262 1 17.7424C1 15.8559 1.33324 13.9956 1.99972 12.1616C2.6662 10.3013 3.63926 8.62445 4.91891 7.131C6.22521 5.61135 7.81143 4.40611 9.67758 3.51528C11.5437 2.59825 13.6898 2.13974 16.1158 2.13974C17.8486 2.13974 19.2749 2.38865 20.3946 2.88646C21.5143 3.38428 22.3407 4.0393 22.8739 4.85153C23.4337 5.63755 23.7137 6.48908 23.7137 7.40611C23.7137 8.40175 23.527 9.10917 23.1538 9.52838C22.8072 9.9476 22.4074 10.1572 21.9541 10.1572C21.6076 10.1572 21.341 10.0131 21.1544 9.72489C20.9944 9.41048 20.9144 9.13537 20.9144 8.89956C20.9144 8.40175 21.0077 8.03493 21.1944 7.79913C21.381 7.56332 21.5543 7.34061 21.7142 7.131C21.9008 6.8952 21.9941 6.55458 21.9941 6.10917C21.9941 5.24454 21.421 4.52402 20.2746 3.9476C19.1283 3.34498 17.6487 3.04367 15.8359 3.04367C14.1563 3.04367 12.5434 3.37118 10.9972 4.0262C9.45097 4.68122 8.07802 5.63755 6.87836 6.8952C5.70535 8.12664 4.77228 9.63319 4.07914 11.4148C3.386 13.1965 3.03943 15.2009 3.03943 17.4279C3.03943 18.9476 3.34601 20.3755 3.95917 21.7118C4.57234 23.048 5.51874 24.1354 6.79838 24.9738C8.07802 25.786 9.71756 26.1921 11.717 26.1921C14.0897 26.1921 16.2091 25.6026 18.0752 24.4236C19.968 23.2445 21.5409 21.738 22.7939 19.9039C23.0072 19.6157 23.2071 19.4716 23.3937 19.4716C23.5537 19.4716 23.6337 19.5633 23.6337 19.7467C23.6337 19.9825 23.5804 20.1921 23.4737 20.3755C22.1141 22.7336 20.4346 24.4498 18.4351 25.524C16.4623 26.5721 14.183 27.0961 11.597 27.0961Z"/>
<path d="M31.2444 26.6638C30.258 26.6638 29.5915 26.3886 29.2449 25.8384C28.8983 25.262 28.7251 24.5284 28.7251 23.6376C28.7251 22.6943 28.8717 21.7904 29.1649 20.9258C29.4582 20.0611 29.7781 19.1965 30.1247 18.3319C29.9381 18.2009 29.7648 18.0306 29.6048 17.821C29.4715 17.6114 29.4049 17.31 29.4049 16.917C29.4049 16.4716 29.6715 15.9083 30.2047 15.2271C30.7378 14.5197 31.3377 13.9039 32.0042 13.3799C32.2974 13.1441 32.684 12.8952 33.1638 12.6332C33.6437 12.345 34.1369 12.1092 34.6434 11.9258C35.1499 11.7162 35.5632 11.6114 35.8831 11.6114C37.0028 11.6114 37.7492 12.0568 38.1224 12.9476C38.4957 13.8384 38.629 14.8996 38.5223 16.131C38.629 16.0786 38.8156 16 39.0822 15.8952C39.3754 15.7904 39.6553 15.6987 39.9219 15.6201C40.1885 15.5153 40.3485 15.4629 40.4018 15.4629C40.5351 15.4629 40.6684 15.5284 40.8017 15.6594C40.935 15.7904 41.0016 15.9214 41.0016 16.0524C41.0016 16.131 40.9616 16.1965 40.8817 16.2489L38.3624 17.1921C38.2024 18.0044 37.9358 18.9476 37.5626 20.0218C37.216 21.0961 36.7362 22.1441 36.123 23.1659C35.5365 24.1616 34.83 25 34.0036 25.6812C33.2038 26.3362 32.2841 26.6638 31.2444 26.6638ZM33.1638 17.4279C33.8303 17.4279 34.4701 17.3624 35.0833 17.2314C35.6965 17.0742 36.3629 16.8777 37.0827 16.6419C37.1094 16.5109 37.1227 16.3668 37.1227 16.2096C37.1494 16.0524 37.1627 15.9083 37.1627 15.7773C37.1627 15.4629 37.1227 15.1092 37.0427 14.7162C36.9894 14.3231 36.8561 13.9825 36.6429 13.6943C36.4562 13.3799 36.163 13.2227 35.7631 13.2227C35.3099 13.2227 34.87 13.393 34.4435 13.7336C34.0169 14.0742 33.617 14.4803 33.2438 14.952C32.8972 15.4236 32.5907 15.8821 32.3241 16.3275C32.0841 16.7729 31.9108 17.1004 31.8042 17.31C32.2841 17.3886 32.7373 17.4279 33.1638 17.4279ZM31.6043 25.6026C32.3507 25.6026 33.0039 25.3668 33.5637 24.8952C34.1502 24.3974 34.6567 23.7555 35.0833 22.9694C35.5098 22.1834 35.8697 21.3319 36.163 20.4148C36.4829 19.4978 36.7362 18.5939 36.9228 17.7031C36.123 17.9651 35.2033 18.2271 34.1636 18.4891C33.1505 18.7249 32.2174 18.7904 31.3643 18.6856C31.0977 19.393 30.8578 20.1921 30.6445 21.083C30.4579 21.9738 30.3646 22.7991 30.3646 23.559C30.3646 23.9782 30.4313 24.4236 30.5646 24.8952C30.7245 25.3668 31.0711 25.6026 31.6043 25.6026Z"/>
<path d="M42.3088 26.9782C42.0955 26.9782 41.9889 26.8996 41.9889 26.7424L42.5087 25.2489C42.642 24.9083 42.722 24.5808 42.7486 24.2664C42.802 23.9258 42.8819 23.5852 42.9886 23.2445C43.1485 22.5633 43.3218 21.8821 43.5084 21.2009C43.6951 20.5197 43.895 19.8515 44.1083 19.1965C44.1882 18.9607 44.2949 18.6201 44.4282 18.1747C44.5615 17.7293 44.6814 17.2838 44.7881 16.8384C44.9214 16.3668 44.988 16.0131 44.988 15.7773C44.988 15.6463 44.8947 15.5939 44.7081 15.6201C44.5481 15.6463 44.4548 15.6201 44.4282 15.5415C44.6148 15.0699 44.7747 14.5852 44.908 14.0873C45.0413 13.5895 45.2013 13.1048 45.3879 12.6332C45.4679 12.4236 45.6812 12.2271 46.0277 12.0437C46.3743 11.8341 46.6542 11.7293 46.8675 11.7293C47.2407 11.7293 47.4273 11.9651 47.4273 12.4367C47.4273 12.8559 47.3207 13.4978 47.1074 14.3624C46.8942 15.2271 46.6142 16.1703 46.2677 17.1921C45.9478 18.214 45.6278 19.2096 45.3079 20.179C45.0147 21.1223 44.7614 21.8952 44.5481 22.4978C45.4012 21.7118 46.2543 20.8472 47.1074 19.9039C47.9605 18.9607 48.7336 18.0175 49.4268 17.0742C50.1466 16.1048 50.7064 15.2271 51.1063 14.441C51.1063 14.1528 51.2929 13.9563 51.6662 13.8515C52.066 13.7467 52.3726 13.7205 52.5859 13.7729C52.6925 13.7205 52.7725 13.6943 52.8258 13.6943C53.0658 13.6943 53.2124 13.8777 53.2657 14.2445C53.3457 14.5852 53.3857 14.8341 53.3857 14.9913C53.3857 15.2795 53.3457 15.6856 53.2657 16.2096C53.2124 16.7074 53.0258 17.0349 52.7059 17.1921C52.6792 17.4017 52.6659 17.6245 52.6659 17.8603C52.6659 18.0699 52.6659 18.2795 52.6659 18.4891C52.6659 18.8035 52.6792 19.3275 52.7059 20.0611C52.7592 20.7686 52.8525 21.5153 52.9858 22.3013C53.1191 23.0873 53.3324 23.7686 53.6256 24.345C53.9189 24.8952 54.3187 25.1703 54.8253 25.1703C55.3051 25.1703 55.7184 25.0393 56.0649 24.7773C56.4382 24.5153 56.7581 24.214 57.0247 23.8734C57.2913 23.5328 57.5045 23.2314 57.6645 22.9694C57.8244 22.7074 57.9444 22.5764 58.0244 22.5764C58.1577 22.5764 58.2243 22.655 58.2243 22.8122C58.2243 23.179 58.0244 23.6245 57.6245 24.1485C57.2513 24.6725 56.9314 25.0655 56.6648 25.3275C56.3715 25.6419 56.0249 25.917 55.625 26.1528C55.2252 26.3886 54.7986 26.5065 54.3454 26.5065C53.5456 26.5065 52.9191 26.2314 52.4659 25.6812C52.0127 25.1048 51.6662 24.4105 51.4262 23.5983C51.2129 22.7598 51.0663 21.9214 50.9863 21.083C50.933 20.2183 50.9064 19.5109 50.9064 18.9607C50.9064 18.4629 50.9064 17.9782 50.9064 17.5066C50.933 17.0349 50.9597 16.5633 50.9863 16.0917C50.5598 16.8253 50.0666 17.5328 49.5068 18.214C48.9469 18.8952 48.4004 19.5633 47.8672 20.2183C47.0674 21.1092 46.281 22.0786 45.5079 23.1266C45.3746 23.31 45.2413 23.5328 45.108 23.7948C45.0014 24.0306 44.8547 24.2402 44.6681 24.4236L44.5881 24.5022C44.4015 25 44.2816 25.3799 44.2282 25.6419C44.1749 25.9039 43.9083 26.1921 43.4285 26.5065C43.2685 26.6114 43.0952 26.7162 42.9086 26.821C42.722 26.9258 42.522 26.9782 42.3088 26.9782Z"/>
<path d="M59.9679 26.9782C59.7546 26.9782 59.648 26.8996 59.648 26.7424L60.1678 25.2489C60.3011 24.9083 60.3811 24.5808 60.4078 24.2664C60.4611 23.9258 60.5411 23.5852 60.6477 23.2445C60.8077 22.5633 60.981 21.8821 61.1676 21.2009C61.3542 20.5197 61.5541 19.8515 61.7674 19.1965C61.8474 18.9607 61.954 18.6201 62.0873 18.1747C62.2206 17.7293 62.3406 17.2838 62.4472 16.8384C62.5805 16.3668 62.6471 16.0131 62.6471 15.7773C62.6471 15.6463 62.5538 15.5939 62.3672 15.6201C62.2073 15.6463 62.114 15.6201 62.0873 15.5415C62.2739 15.0699 62.4339 14.5852 62.5672 14.0873C62.7005 13.5895 62.8604 13.1048 63.047 12.6332C63.127 12.4236 63.3403 12.2271 63.6869 12.0437C64.0334 11.8341 64.3134 11.7293 64.5266 11.7293C64.8999 11.7293 65.0865 11.9651 65.0865 12.4367C65.0865 12.8559 64.9798 13.4978 64.7666 14.3624C64.5533 15.2271 64.2734 16.1703 63.9268 17.1921C63.6069 18.214 63.287 19.2096 62.9671 20.179C62.6738 21.1223 62.4205 21.8952 62.2073 22.4978C63.0604 21.7118 63.9135 20.8472 64.7666 19.9039C65.6197 18.9607 66.3928 18.0175 67.0859 17.0742C67.8057 16.1048 68.3656 15.2271 68.7654 14.441C68.7654 14.1528 68.9521 13.9563 69.3253 13.8515C69.7252 13.7467 70.0318 13.7205 70.245 13.7729C70.3517 13.7205 70.4316 13.6943 70.485 13.6943C70.7249 13.6943 70.8715 13.8777 70.9248 14.2445C71.0048 14.5852 71.0448 14.8341 71.0448 14.9913C71.0448 15.2795 71.0048 15.6856 70.9248 16.2096C70.8715 16.7074 70.6849 17.0349 70.365 17.1921C70.3383 17.4017 70.325 17.6245 70.325 17.8603C70.325 18.0699 70.325 18.2795 70.325 18.4891C70.325 18.8035 70.3383 19.3275 70.365 20.0611C70.4183 20.7686 70.5116 21.5153 70.6449 22.3013C70.7782 23.0873 70.9915 23.7686 71.2847 24.345C71.578 24.8952 71.9779 25.1703 72.4844 25.1703C72.9643 25.1703 73.3775 25.0393 73.7241 24.7773C74.0973 24.5153 74.4172 24.214 74.6838 23.8734C74.9504 23.5328 75.1637 23.2314 75.3236 22.9694C75.4836 22.7074 75.6035 22.5764 75.6835 22.5764C75.8168 22.5764 75.8834 22.655 75.8834 22.8122C75.8834 23.179 75.6835 23.6245 75.2836 24.1485C74.9104 24.6725 74.5905 25.0655 74.3239 25.3275C74.0306 25.6419 73.6841 25.917 73.2842 26.1528C72.8843 26.3886 72.4577 26.5065 72.0045 26.5065C71.2048 26.5065 70.5783 26.2314 70.1251 25.6812C69.6719 25.1048 69.3253 24.4105 69.0854 23.5983C68.8721 22.7598 68.7255 21.9214 68.6455 21.083C68.5922 20.2183 68.5655 19.5109 68.5655 18.9607C68.5655 18.4629 68.5655 17.9782 68.5655 17.5066C68.5922 17.0349 68.6188 16.5633 68.6455 16.0917C68.2189 16.8253 67.7257 17.5328 67.1659 18.214C66.606 18.8952 66.0595 19.5633 65.5263 20.2183C64.7266 21.1092 63.9401 22.0786 63.167 23.1266C63.0337 23.31 62.9004 23.5328 62.7671 23.7948C62.6605 24.0306 62.5139 24.2402 62.3272 24.4236L62.2473 24.5022C62.0606 25 61.9407 25.3799 61.8874 25.6419C61.834 25.9039 61.5675 26.1921 61.0876 26.5065C60.9276 26.6114 60.7543 26.7162 60.5677 26.821C60.3811 26.9258 60.1812 26.9782 59.9679 26.9782Z"/>
<path d="M86.6645 17.5852C86.5312 17.5852 86.4646 17.5197 86.4646 17.3886C86.4646 17.31 86.4779 17.2445 86.5045 17.1921C86.6645 16.7729 86.7845 16.3799 86.8644 16.0131C86.9711 15.6201 87.0244 15.214 87.0244 14.7948C87.0244 14.6376 87.0111 14.4279 86.9844 14.1659C86.9844 13.8777 86.9311 13.6157 86.8245 13.3799C86.7445 13.1441 86.5845 13.0262 86.3446 13.0262C86.238 13.0262 86.1446 13.0393 86.0647 13.0655C85.9847 13.0655 85.8914 13.0655 85.7847 13.0655C85.5182 13.0655 85.3849 12.9607 85.3849 12.7511C85.3849 12.6463 85.5048 12.5546 85.7448 12.476C86.0113 12.3974 86.2913 12.3319 86.5845 12.2795C86.8778 12.2271 87.0777 12.2009 87.1844 12.2009C87.8508 12.2009 88.2641 12.4498 88.424 12.9476C88.6106 13.4192 88.7039 13.917 88.7039 14.441C88.7039 14.9389 88.6106 15.4629 88.424 16.0131C88.2641 16.5633 87.9575 16.9825 87.5043 17.2707C87.3976 17.3493 87.2643 17.4279 87.1044 17.5066C86.9444 17.559 86.7978 17.5852 86.6645 17.5852ZM80.7062 26.5459C79.933 26.5459 79.3865 26.3624 79.0666 25.9956C78.7734 25.6288 78.6267 25.0917 78.6267 24.3843C78.6267 23.5983 78.7201 22.8122 78.9067 22.0262C79.0933 21.2402 79.3199 20.4803 79.5865 19.7467L79.2266 19.8646C79.0933 19.786 79.0266 19.655 79.0266 19.4716C79.0266 19.2358 79.1333 19.0131 79.3465 18.8035C79.5865 18.5677 79.8264 18.4367 80.0663 18.4105C80.2263 18.0175 80.4529 17.5066 80.7462 16.8777C81.0394 16.2489 81.3726 15.6201 81.7459 14.9913C82.1458 14.3624 82.5856 13.8384 83.0655 13.4192C83.5454 13 84.0652 12.7904 84.6251 12.7904C84.865 12.7904 84.985 12.8952 84.985 13.1048C84.985 13.1834 84.9317 13.2882 84.825 13.4192C84.7184 13.524 84.6384 13.6026 84.5851 13.655C84.2385 13.9694 83.9053 14.4148 83.5854 14.9913C83.2655 15.5415 82.9722 16.1179 82.7056 16.7205C82.439 17.2969 82.2124 17.8079 82.0258 18.2533C82.7723 18.1485 83.5054 18.0699 84.2252 18.0175C84.9716 17.9651 85.7181 17.9389 86.4646 17.9389C86.5445 17.9389 86.7445 17.952 87.0644 17.9782C87.3843 17.9782 87.7442 18.0044 88.1441 18.0568C88.544 18.083 88.8772 18.1354 89.1438 18.214C89.4371 18.2926 89.5837 18.3974 89.5837 18.5284C89.5837 18.6332 89.517 18.6987 89.3837 18.7249C89.2771 18.7511 89.1971 18.7642 89.1438 18.7642C88.7972 18.7642 88.464 18.738 88.1441 18.6856C87.8242 18.6332 87.4909 18.607 87.1444 18.607C86.238 18.607 85.3182 18.6725 84.3851 18.8035C83.4521 18.9345 82.5323 19.0917 81.6259 19.2751C81.3593 19.9563 81.0927 20.7293 80.8261 21.5939C80.5862 22.4585 80.4662 23.2707 80.4662 24.0306C80.4662 24.4498 80.5462 24.8559 80.7062 25.2489C80.8661 25.6157 81.1994 25.7991 81.7059 25.7991C82.4257 25.7991 83.1055 25.524 83.7453 24.9738C84.4118 24.3974 85.025 23.7555 85.5848 23.048C86.1447 22.3144 86.6112 21.7118 86.9844 21.2402H87.0244C87.131 21.2402 87.1844 21.2926 87.1844 21.3974C87.211 21.5022 87.2243 21.5808 87.2243 21.6332C87.2243 22.0786 87.1177 22.4978 86.9044 22.8908C86.6912 23.2576 86.4246 23.5983 86.1047 23.9127C85.3849 24.5677 84.5584 25.1703 83.6253 25.7205C82.7189 26.2707 81.7459 26.5459 80.7062 26.5459Z"/>
<path d="M94.6395 26.5459C93.893 26.5459 93.3598 26.3624 93.0399 25.9956C92.72 25.6288 92.56 25.0917 92.56 24.3843C92.56 24.2009 92.56 24.0306 92.56 23.8734C92.5867 23.69 92.6134 23.5066 92.64 23.3231C92.6933 22.8777 92.8 22.2751 92.9599 21.5153C93.1465 20.7555 93.3732 19.9432 93.6397 19.0786C93.933 18.1878 94.2529 17.3362 94.5995 16.524C94.9727 15.6856 95.3726 14.9913 95.7991 14.441C96.2523 13.8646 96.7322 13.5109 97.2387 13.3799C97.8786 13.2227 98.5184 12.9869 99.1582 12.6725C99.798 12.3581 100.451 12.2009 101.118 12.2009C101.757 12.2009 102.157 12.4105 102.317 12.8297C102.477 13.2489 102.557 13.7205 102.557 14.2445C102.557 14.8472 102.317 15.2795 101.837 15.5415C101.731 15.6201 101.598 15.6987 101.438 15.7773C101.304 15.8297 101.158 15.8559 100.998 15.8559C100.811 15.8559 100.718 15.7773 100.718 15.6201C100.718 15.4629 100.744 15.3057 100.798 15.1485C100.851 14.9913 100.878 14.821 100.878 14.6376C100.878 14.3493 100.811 14.0087 100.678 13.6157C100.571 13.1965 100.318 12.9869 99.918 12.9869C99.6247 12.9869 99.3048 13.1179 98.9583 13.3799C98.6117 13.6157 98.3318 13.8253 98.1185 14.0087C97.7186 14.3493 97.2921 14.9651 96.8388 15.8559C96.4123 16.7205 96.0124 17.6769 95.6392 18.7249C95.266 19.7729 94.9594 20.7817 94.7194 21.7511C94.5062 22.7205 94.3995 23.4804 94.3995 24.0306C94.3995 24.4498 94.4795 24.8559 94.6395 25.2489C94.7994 25.6157 95.1327 25.7991 95.6392 25.7991C96.359 25.7991 97.0388 25.524 97.6786 24.9738C98.3451 24.3974 98.9583 23.7555 99.5181 23.048C100.078 22.3144 100.544 21.7118 100.918 21.2402H100.958C101.064 21.2402 101.118 21.2926 101.118 21.3974C101.144 21.5022 101.158 21.5808 101.158 21.6332C101.158 22.0786 101.051 22.4978 100.838 22.8908C100.624 23.2838 100.358 23.6245 100.038 23.9127C99.3182 24.5677 98.4917 25.1703 97.5587 25.7205C96.6522 26.2707 95.6792 26.5459 94.6395 26.5459Z"/>
<path d="M106.545 26.2314C106.332 26.2314 106.118 26.1659 105.905 26.0349C105.718 25.9039 105.625 25.7074 105.625 25.4454C105.625 25.2358 105.665 25.0131 105.745 24.7773C105.825 24.5153 105.878 24.2926 105.905 24.1092C106.358 22.3799 106.838 20.6638 107.345 18.9607C107.878 17.2314 108.398 15.5153 108.904 13.8122H107.785C107.705 13.8122 107.625 13.8253 107.545 13.8515C107.465 13.8515 107.385 13.8515 107.305 13.8515H107.145C107.118 13.8515 107.105 13.8646 107.105 13.8908C106.945 13.8122 106.865 13.6943 106.865 13.5371C106.865 13.4061 106.891 13.3013 106.945 13.2227C107.025 13.1441 107.105 13.0786 107.185 13.0262C107.318 12.8952 107.478 12.8166 107.665 12.7904C107.878 12.7642 108.078 12.7511 108.264 12.7511C108.424 12.7511 108.584 12.7642 108.744 12.7904C108.931 12.7904 109.104 12.7904 109.264 12.7904C109.344 12.5546 109.451 12.2271 109.584 11.8079C109.717 11.3624 109.837 10.917 109.944 10.4716C110.051 10.0262 110.104 9.69869 110.104 9.48908C110.104 9.35808 110.011 9.30568 109.824 9.33188C109.664 9.35808 109.571 9.33188 109.544 9.25328C109.731 8.78166 109.891 8.31004 110.024 7.83843C110.184 7.34061 110.33 6.84279 110.464 6.34498C110.517 6.10917 110.717 5.91266 111.064 5.75546C111.41 5.57205 111.703 5.48035 111.943 5.48035C112.183 5.48035 112.343 5.55895 112.423 5.71616C112.503 5.84716 112.543 6.01747 112.543 6.22707C112.543 6.51528 112.463 6.9607 112.303 7.56332C112.143 8.16594 111.957 8.82096 111.743 9.52838C111.53 10.2096 111.317 10.8515 111.104 11.4541C110.917 12.0568 110.77 12.5022 110.664 12.7904H115.142C115.169 12.7904 115.222 12.8297 115.302 12.9083C115.302 13.0131 115.116 13.1048 114.743 13.1834C114.396 13.2358 114.196 13.262 114.143 13.262C113.53 13.3668 112.903 13.4585 112.263 13.5371C111.623 13.5895 110.984 13.6419 110.344 13.6943C110.184 14.1921 109.944 14.8996 109.624 15.8166C109.331 16.7336 109.011 17.7162 108.664 18.7642C108.344 19.8122 108.064 20.7948 107.825 21.7118C107.585 22.6026 107.465 23.2707 107.465 23.7162C107.465 23.952 107.505 24.2009 107.585 24.4629C107.691 24.6987 107.891 24.8166 108.184 24.8166C108.584 24.8166 108.998 24.6725 109.424 24.3843C109.877 24.0961 110.304 23.7686 110.704 23.4017C111.13 23.0349 111.49 22.7074 111.783 22.4192C112.077 22.131 112.277 21.9869 112.383 21.9869C112.517 21.9869 112.583 22.0786 112.583 22.262C112.583 22.3144 112.57 22.4323 112.543 22.6157C112.543 22.7991 112.477 22.8908 112.343 22.8908C112.077 23.1528 111.69 23.4803 111.184 23.8734C110.704 24.2402 110.171 24.607 109.584 24.9738C109.024 25.3144 108.464 25.6157 107.905 25.8777C107.371 26.1135 106.918 26.2314 106.545 26.2314Z"/>
<path d="M131.22 28C130.846 28 130.646 27.7773 130.62 27.3319C130.593 26.8865 130.553 26.4148 130.5 25.917C130.393 24.1878 130.233 22.3275 130.02 20.3362C129.833 18.3188 129.607 16.3013 129.34 14.2838C129.073 12.2402 128.794 10.3144 128.5 8.50655C128.207 6.67249 127.9 5.07424 127.581 3.71179C127.447 3.26638 127.274 3.09607 127.061 3.20087H126.981C126.874 3.20087 126.781 3.14847 126.701 3.04367C126.647 2.93886 126.674 2.84716 126.781 2.76856C127.234 2.53275 127.581 2.33624 127.821 2.17904C128.087 1.99563 128.314 1.89083 128.5 1.86463C128.58 1.83843 128.674 1.82533 128.78 1.82533C129.047 1.82533 129.22 1.93013 129.3 2.13974C129.407 2.34934 129.513 2.71616 129.62 3.24017C130.02 5.28384 130.38 7.53712 130.7 10C131.046 12.4367 131.353 14.8865 131.619 17.3493C131.886 19.8122 132.099 22.0917 132.259 24.1878C134.125 21.3319 135.832 18.5677 137.378 15.8952C138.924 13.2227 140.31 10.4716 141.537 7.64192C141.803 7.0393 141.937 6.62009 141.937 6.38428C141.937 6.12227 141.857 5.96507 141.697 5.91266C141.563 5.83406 141.497 5.67686 141.497 5.44105C141.497 5.25764 141.577 5.02183 141.737 4.73362C141.923 4.44541 142.137 4.18341 142.376 3.9476C142.616 3.71179 142.83 3.59389 143.016 3.59389C143.15 3.59389 143.256 3.64629 143.336 3.75109C143.416 3.82969 143.469 3.9214 143.496 4.0262C144.856 7.32751 146.042 10.7205 147.055 14.2052C148.068 17.69 148.828 21.0699 149.334 24.345C149.361 24.4498 149.401 24.5022 149.454 24.5022C149.561 24.5022 149.694 24.2795 149.854 23.8341C150.468 22.3668 151.147 20.7686 151.894 19.0393C152.667 17.31 153.453 15.5808 154.253 13.8515C155.053 12.1223 155.826 10.4847 156.572 8.93886C157.319 7.36681 157.999 6.00437 158.612 4.85153C159.225 3.67249 159.718 2.79476 160.091 2.21834C160.438 1.72052 160.691 1.47161 160.851 1.47161C161.065 1.47161 161.185 1.57642 161.211 1.78603C161.264 1.96943 161.291 2.11354 161.291 2.21834C161.291 2.48035 161.238 2.74236 161.131 3.00437C161.051 3.24017 160.931 3.48908 160.771 3.75109C160.451 4.30131 160.012 5.11354 159.452 6.18777C158.892 7.23581 158.265 8.45415 157.572 9.84279C156.879 11.2052 156.173 12.6332 155.453 14.1266C154.733 15.6201 154.027 17.1004 153.333 18.5677C152.667 20.0087 152.054 21.3581 151.494 22.6157C150.961 23.8472 150.534 24.8821 150.214 25.7205C150.081 26.0873 149.854 26.4673 149.534 26.8603C149.215 27.2533 148.828 27.4498 148.375 27.4498C147.948 27.4498 147.708 27.2402 147.655 26.821C147.602 26.4279 147.575 26.0873 147.575 25.7991C147.575 25.4061 147.495 24.7642 147.335 23.8734C147.175 22.9825 146.962 21.9476 146.695 20.7686C146.429 19.5633 146.122 18.3057 145.775 16.9956C145.456 15.6856 145.109 14.4279 144.736 13.2227C144.389 12.0175 144.043 10.9563 143.696 10.0393C143.376 9.12227 143.07 8.45415 142.776 8.03493C141.657 10.1834 140.604 12.2009 139.617 14.0873C138.631 15.9476 137.631 17.7817 136.618 19.5895C135.605 21.3712 134.499 23.2445 133.299 25.2096C132.899 25.8646 132.632 26.3886 132.499 26.7817C132.366 27.2009 132.219 27.5022 132.059 27.6856C131.926 27.8952 131.646 28 131.22 28Z"/>
<path d="M170.239 26.5459C169.493 26.5459 168.933 26.2838 168.559 25.7598C168.186 25.2358 167.933 24.6332 167.8 23.952C167.693 23.2445 167.64 22.6157 167.64 22.0655C167.64 21.5153 167.666 20.9782 167.72 20.4541C167.8 19.9039 167.88 19.3668 167.96 18.8428C167.693 19.1834 167.32 19.6681 166.84 20.2969C166.36 20.8996 165.814 21.5677 165.2 22.3013C164.587 23.0087 163.961 23.69 163.321 24.345C162.681 24.9738 162.055 25.4978 161.441 25.917C160.855 26.31 160.348 26.5065 159.922 26.5065C159.549 26.5065 159.309 26.3362 159.202 25.9956C159.122 25.655 159.082 25.3537 159.082 25.0917C159.082 23.9127 159.322 22.6681 159.802 21.3581C160.282 20.048 160.775 18.869 161.281 17.821C161.415 17.5328 161.615 17.1397 161.881 16.6419C162.148 16.1441 162.454 15.6332 162.801 15.1092C163.174 14.5852 163.561 14.1528 163.961 13.8122C164.361 13.4716 164.761 13.3275 165.16 13.3799C165.454 13.1965 165.734 13.0393 166 12.9083C166.293 12.7511 166.613 12.6725 166.96 12.6725C167.173 12.6725 167.52 12.738 168 12.869C168.506 13 168.866 13.0917 169.079 13.1441C169.186 12.9345 169.346 12.7773 169.559 12.6725C169.772 12.5677 169.986 12.5153 170.199 12.5153C170.412 12.5153 170.559 12.5284 170.639 12.5546C170.745 12.5022 170.825 12.476 170.879 12.476C171.039 12.476 171.145 12.5939 171.199 12.8297C171.252 13.0393 171.279 13.2096 171.279 13.3406C171.279 13.6812 171.239 13.9825 171.159 14.2445C171.079 14.5066 170.972 14.7948 170.839 15.1092C170.732 15.3712 170.639 15.6201 170.559 15.8559C170.506 16.0655 170.359 16.262 170.119 16.4454C169.932 17.3886 169.786 18.345 169.679 19.3144C169.599 20.2576 169.559 21.214 169.559 22.1834C169.559 22.524 169.572 22.9301 169.599 23.4017C169.652 23.8734 169.772 24.2926 169.959 24.6594C170.172 25.0262 170.492 25.2096 170.919 25.2096C171.585 25.2096 172.172 24.9738 172.678 24.5022C173.211 24.0044 173.651 23.5328 173.998 23.0873C174.051 23.0087 174.118 22.9301 174.198 22.8515C174.278 22.7467 174.371 22.6681 174.478 22.6157L174.598 22.8515C174.598 23.1135 174.464 23.4279 174.198 23.7948C173.931 24.1616 173.638 24.5153 173.318 24.8559C172.998 25.1703 172.732 25.4061 172.518 25.5633C172.198 25.8253 171.839 26.0611 171.439 26.2707C171.065 26.4541 170.666 26.5459 170.239 26.5459ZM161.281 24.8952C161.441 24.8952 161.615 24.8297 161.801 24.6987C161.988 24.5677 162.135 24.4498 162.241 24.345C163.494 23.2707 164.601 22.0655 165.56 20.7293C166.547 19.393 167.4 18.0044 168.12 16.5633C168.2 16.4323 168.28 16.2882 168.359 16.131C168.439 15.9738 168.493 15.8166 168.519 15.6594C168.573 15.4498 168.626 15.2271 168.679 14.9913C168.733 14.7293 168.773 14.4935 168.799 14.2838C168.773 14.1528 168.626 14.0349 168.359 13.9301C168.093 13.8253 167.8 13.7467 167.48 13.6943C167.186 13.6157 166.973 13.5764 166.84 13.5764C166.333 13.5764 165.88 13.786 165.48 14.2052C165.107 14.5983 164.787 14.9782 164.521 15.345C164.201 15.8166 163.827 16.4323 163.401 17.1921C163.001 17.952 162.601 18.7642 162.201 19.6288C161.828 20.4672 161.508 21.2795 161.241 22.0655C161.002 22.8515 160.882 23.5197 160.882 24.0699C160.882 24.2009 160.895 24.3712 160.922 24.5808C160.975 24.7904 161.095 24.8952 161.281 24.8952Z"/>
<path d="M176.768 26.2314C176.528 26.2314 176.315 26.1659 176.129 26.0349C175.969 25.9039 175.889 25.7074 175.889 25.4454C175.889 25.0786 175.915 24.6201 175.969 24.0699C176.022 23.5197 176.075 23.048 176.129 22.655C176.342 21.3974 176.582 20.1397 176.848 18.8821C177.142 17.5983 177.462 16.3406 177.808 15.1092C178.128 13.9039 178.501 12.6332 178.928 11.2969C179.354 9.9345 179.874 8.61135 180.487 7.32751C181.101 6.04367 181.847 4.89083 182.727 3.86899C183.633 2.82096 184.713 2.02183 185.966 1.47161C186.286 1.34061 186.619 1.23581 186.966 1.1572C187.312 1.0524 187.659 1 188.005 1C188.325 1 188.698 1.0655 189.125 1.19651C189.578 1.32751 189.965 1.52402 190.285 1.78603C190.605 2.02183 190.764 2.33624 190.764 2.72926C190.764 2.88646 190.724 3.00437 190.645 3.08297C190.591 3.16157 190.378 3.33188 190.005 3.59389C189.658 3.82969 189.458 3.9607 189.405 3.9869C189.352 3.9345 189.325 3.8952 189.325 3.86899C189.325 3.79039 189.365 3.71179 189.445 3.63319C189.525 3.55458 189.565 3.46288 189.565 3.35808C189.565 3.09607 189.418 2.86026 189.125 2.65065C188.832 2.41485 188.498 2.23144 188.125 2.10044C187.752 1.94323 187.445 1.86463 187.205 1.86463C186.326 1.86463 185.513 2.23144 184.766 2.96506C184.046 3.69869 183.393 4.64192 182.807 5.79476C182.22 6.9214 181.7 8.12664 181.247 9.41048C180.794 10.6681 180.407 11.8603 180.087 12.9869C179.768 14.1135 179.514 15.0175 179.328 15.6987C179.114 16.4585 178.888 17.31 178.648 18.2533C178.408 19.1965 178.195 20.1528 178.008 21.1223C177.848 22.0655 177.768 22.9432 177.768 23.7555C177.768 23.9913 177.808 24.2402 177.888 24.5022C177.995 24.738 178.195 24.8559 178.488 24.8559C178.888 24.8559 179.301 24.7249 179.728 24.4629C180.181 24.2009 180.607 23.8996 181.007 23.559C181.434 23.1921 181.794 22.8777 182.087 22.6157C182.407 22.3537 182.62 22.2227 182.727 22.2227C182.78 22.2227 182.807 22.2489 182.807 22.3013C182.807 22.4847 182.753 22.6681 182.647 22.8515C182.54 23.0349 182.42 23.1921 182.287 23.3231C181.94 23.6638 181.447 24.0699 180.807 24.5415C180.167 24.9869 179.488 25.3799 178.768 25.7205C178.048 26.0611 177.382 26.2314 176.768 26.2314Z"/>
<path d="M185.719 26.2314C185.479 26.2314 185.266 26.1659 185.079 26.0349C184.919 25.9039 184.839 25.7074 184.839 25.4454C184.839 25.0786 184.866 24.6201 184.919 24.0699C184.973 23.5197 185.026 23.048 185.079 22.655C185.292 21.3974 185.532 20.1397 185.799 18.8821C186.092 17.5983 186.412 16.3406 186.759 15.1092C187.079 13.9039 187.452 12.6332 187.878 11.2969C188.305 9.9345 188.825 8.61135 189.438 7.32751C190.051 6.04367 190.798 4.89083 191.677 3.86899C192.584 2.82096 193.663 2.02183 194.916 1.47161C195.236 1.34061 195.57 1.23581 195.916 1.1572C196.263 1.0524 196.609 1 196.956 1C197.276 1 197.649 1.0655 198.076 1.19651C198.529 1.32751 198.915 1.52402 199.235 1.78603C199.555 2.02183 199.715 2.33624 199.715 2.72926C199.715 2.88646 199.675 3.00437 199.595 3.08297C199.542 3.16157 199.329 3.33188 198.955 3.59389C198.609 3.82969 198.409 3.9607 198.355 3.9869C198.302 3.9345 198.276 3.8952 198.276 3.86899C198.276 3.79039 198.315 3.71179 198.395 3.63319C198.475 3.55458 198.515 3.46288 198.515 3.35808C198.515 3.09607 198.369 2.86026 198.076 2.65065C197.782 2.41485 197.449 2.23144 197.076 2.10044C196.703 1.94323 196.396 1.86463 196.156 1.86463C195.276 1.86463 194.463 2.23144 193.717 2.96506C192.997 3.69869 192.344 4.64192 191.757 5.79476C191.171 6.9214 190.651 8.12664 190.198 9.41048C189.745 10.6681 189.358 11.8603 189.038 12.9869C188.718 14.1135 188.465 15.0175 188.278 15.6987C188.065 16.4585 187.838 17.31 187.598 18.2533C187.359 19.1965 187.145 20.1528 186.959 21.1223C186.799 22.0655 186.719 22.9432 186.719 23.7555C186.719 23.9913 186.759 24.2402 186.839 24.5022C186.945 24.738 187.145 24.8559 187.439 24.8559C187.838 24.8559 188.252 24.7249 188.678 24.4629C189.131 24.2009 189.558 23.8996 189.958 23.559C190.384 23.1921 190.744 22.8777 191.038 22.6157C191.357 22.3537 191.571 22.2227 191.677 22.2227C191.731 22.2227 191.757 22.2489 191.757 22.3013C191.757 22.4847 191.704 22.6681 191.597 22.8515C191.491 23.0349 191.371 23.1921 191.237 23.3231C190.891 23.6638 190.398 24.0699 189.758 24.5415C189.118 24.9869 188.438 25.3799 187.718 25.7205C186.999 26.0611 186.332 26.2314 185.719 26.2314Z"/>
<path d="M202.827 17.5852C202.694 17.5852 202.627 17.5197 202.627 17.3886C202.627 17.31 202.641 17.2445 202.667 17.1921C202.827 16.7729 202.947 16.3799 203.027 16.0131C203.134 15.6201 203.187 15.214 203.187 14.7948C203.187 14.6376 203.174 14.4279 203.147 14.1659C203.147 13.8777 203.094 13.6157 202.987 13.3799C202.907 13.1441 202.747 13.0262 202.507 13.0262C202.401 13.0262 202.308 13.0393 202.228 13.0655C202.148 13.0655 202.054 13.0655 201.948 13.0655C201.681 13.0655 201.548 12.9607 201.548 12.7511C201.548 12.6463 201.668 12.5546 201.908 12.476C202.174 12.3974 202.454 12.3319 202.747 12.2795C203.041 12.2271 203.241 12.2009 203.347 12.2009C204.014 12.2009 204.427 12.4498 204.587 12.9476C204.773 13.4192 204.867 13.917 204.867 14.441C204.867 14.9389 204.773 15.4629 204.587 16.0131C204.427 16.5633 204.12 16.9825 203.667 17.2707C203.56 17.3493 203.427 17.4279 203.267 17.5066C203.107 17.559 202.961 17.5852 202.827 17.5852ZM196.869 26.5459C196.096 26.5459 195.549 26.3624 195.229 25.9956C194.936 25.6288 194.79 25.0917 194.79 24.3843C194.79 23.5983 194.883 22.8122 195.07 22.0262C195.256 21.2402 195.483 20.4803 195.749 19.7467L195.389 19.8646C195.256 19.786 195.189 19.655 195.189 19.4716C195.189 19.2358 195.296 19.0131 195.509 18.8035C195.749 18.5677 195.989 18.4367 196.229 18.4105C196.389 18.0175 196.616 17.5066 196.909 16.8777C197.202 16.2489 197.536 15.6201 197.909 14.9913C198.309 14.3624 198.749 13.8384 199.228 13.4192C199.708 13 200.228 12.7904 200.788 12.7904C201.028 12.7904 201.148 12.8952 201.148 13.1048C201.148 13.1834 201.095 13.2882 200.988 13.4192C200.881 13.524 200.801 13.6026 200.748 13.655C200.401 13.9694 200.068 14.4148 199.748 14.9913C199.428 15.5415 199.135 16.1179 198.868 16.7205C198.602 17.2969 198.375 17.8079 198.189 18.2533C198.935 18.1485 199.668 18.0699 200.388 18.0175C201.135 17.9651 201.881 17.9389 202.627 17.9389C202.707 17.9389 202.907 17.952 203.227 17.9782C203.547 17.9782 203.907 18.0044 204.307 18.0568C204.707 18.083 205.04 18.1354 205.307 18.214C205.6 18.2926 205.747 18.3974 205.747 18.5284C205.747 18.6332 205.68 18.6987 205.547 18.7249C205.44 18.7511 205.36 18.7642 205.307 18.7642C204.96 18.7642 204.627 18.738 204.307 18.6856C203.987 18.6332 203.654 18.607 203.307 18.607C202.401 18.607 201.481 18.6725 200.548 18.8035C199.615 18.9345 198.695 19.0917 197.789 19.2751C197.522 19.9563 197.256 20.7293 196.989 21.5939C196.749 22.4585 196.629 23.2707 196.629 24.0306C196.629 24.4498 196.709 24.8559 196.869 25.2489C197.029 25.6157 197.362 25.7991 197.869 25.7991C198.589 25.7991 199.268 25.524 199.908 24.9738C200.575 24.3974 201.188 23.7555 201.748 23.048C202.308 22.3144 202.774 21.7118 203.147 21.2402H203.187C203.294 21.2402 203.347 21.2926 203.347 21.3974C203.374 21.5022 203.387 21.5808 203.387 21.6332C203.387 22.0786 203.281 22.4978 203.067 22.8908C202.854 23.2576 202.587 23.5983 202.268 23.9127C201.548 24.5677 200.721 25.1703 199.788 25.7205C198.882 26.2707 197.909 26.5459 196.869 26.5459Z"/>
<path d="M210.242 26.2314C210.029 26.2314 209.816 26.1659 209.603 26.0349C209.416 25.9039 209.323 25.7074 209.323 25.4454C209.323 25.2358 209.363 25.0131 209.443 24.7773C209.523 24.5153 209.576 24.2926 209.603 24.1092C210.056 22.3799 210.536 20.6638 211.042 18.9607C211.575 17.2314 212.095 15.5153 212.602 13.8122H211.482C211.402 13.8122 211.322 13.8253 211.242 13.8515C211.162 13.8515 211.082 13.8515 211.002 13.8515H210.842C210.816 13.8515 210.802 13.8646 210.802 13.8908C210.642 13.8122 210.562 13.6943 210.562 13.5371C210.562 13.4061 210.589 13.3013 210.642 13.2227C210.722 13.1441 210.802 13.0786 210.882 13.0262C211.016 12.8952 211.176 12.8166 211.362 12.7904C211.575 12.7642 211.775 12.7511 211.962 12.7511C212.122 12.7511 212.282 12.7642 212.442 12.7904C212.628 12.7904 212.802 12.7904 212.962 12.7904C213.042 12.5546 213.148 12.2271 213.282 11.8079C213.415 11.3624 213.535 10.917 213.642 10.4716C213.748 10.0262 213.801 9.69869 213.801 9.48908C213.801 9.35808 213.708 9.30568 213.522 9.33188C213.362 9.35808 213.268 9.33188 213.242 9.25328C213.428 8.78166 213.588 8.31004 213.721 7.83843C213.881 7.34061 214.028 6.84279 214.161 6.34498C214.215 6.10917 214.415 5.91266 214.761 5.75546C215.108 5.57205 215.401 5.48035 215.641 5.48035C215.881 5.48035 216.041 5.55895 216.121 5.71616C216.201 5.84716 216.241 6.01747 216.241 6.22707C216.241 6.51528 216.161 6.9607 216.001 7.56332C215.841 8.16594 215.654 8.82096 215.441 9.52838C215.228 10.2096 215.014 10.8515 214.801 11.4541C214.615 12.0568 214.468 12.5022 214.361 12.7904H218.84C218.867 12.7904 218.92 12.8297 219 12.9083C219 13.0131 218.813 13.1048 218.44 13.1834C218.094 13.2358 217.894 13.262 217.84 13.262C217.227 13.3668 216.601 13.4585 215.961 13.5371C215.321 13.5895 214.681 13.6419 214.041 13.6943C213.881 14.1921 213.642 14.8996 213.322 15.8166C213.028 16.7336 212.708 17.7162 212.362 18.7642C212.042 19.8122 211.762 20.7948 211.522 21.7118C211.282 22.6026 211.162 23.2707 211.162 23.7162C211.162 23.952 211.202 24.2009 211.282 24.4629C211.389 24.6987 211.589 24.8166 211.882 24.8166C212.282 24.8166 212.695 24.6725 213.122 24.3843C213.575 24.0961 214.001 23.7686 214.401 23.4017C214.828 23.0349 215.188 22.7074 215.481 22.4192C215.774 22.131 215.974 21.9869 216.081 21.9869C216.214 21.9869 216.281 22.0786 216.281 22.262C216.281 22.3144 216.267 22.4323 216.241 22.6157C216.241 22.7991 216.174 22.8908 216.041 22.8908C215.774 23.1528 215.388 23.4803 214.881 23.8734C214.401 24.2402 213.868 24.607 213.282 24.9738C212.722 25.3144 212.162 25.6157 211.602 25.8777C211.069 26.1135 210.616 26.2314 210.242 26.2314Z"/>
</mask>
<path d="M11.597 27.0961C9.19771 27.0961 7.2116 26.6376 5.6387 25.7205C4.06581 24.8035 2.8928 23.6245 2.11969 22.1834C1.37323 20.7424 1 19.262 1 17.7424C1 15.8559 1.33324 13.9956 1.99972 12.1616C2.6662 10.3013 3.63926 8.62445 4.91891 7.131C6.22521 5.61135 7.81143 4.40611 9.67758 3.51528C11.5437 2.59825 13.6898 2.13974 16.1158 2.13974C17.8486 2.13974 19.2749 2.38865 20.3946 2.88646C21.5143 3.38428 22.3407 4.0393 22.8739 4.85153C23.4337 5.63755 23.7137 6.48908 23.7137 7.40611C23.7137 8.40175 23.527 9.10917 23.1538 9.52838C22.8072 9.9476 22.4074 10.1572 21.9541 10.1572C21.6076 10.1572 21.341 10.0131 21.1544 9.72489C20.9944 9.41048 20.9144 9.13537 20.9144 8.89956C20.9144 8.40175 21.0077 8.03493 21.1944 7.79913C21.381 7.56332 21.5543 7.34061 21.7142 7.131C21.9008 6.8952 21.9941 6.55458 21.9941 6.10917C21.9941 5.24454 21.421 4.52402 20.2746 3.9476C19.1283 3.34498 17.6487 3.04367 15.8359 3.04367C14.1563 3.04367 12.5434 3.37118 10.9972 4.0262C9.45097 4.68122 8.07802 5.63755 6.87836 6.8952C5.70535 8.12664 4.77228 9.63319 4.07914 11.4148C3.386 13.1965 3.03943 15.2009 3.03943 17.4279C3.03943 18.9476 3.34601 20.3755 3.95917 21.7118C4.57234 23.048 5.51874 24.1354 6.79838 24.9738C8.07802 25.786 9.71756 26.1921 11.717 26.1921C14.0897 26.1921 16.2091 25.6026 18.0752 24.4236C19.968 23.2445 21.5409 21.738 22.7939 19.9039C23.0072 19.6157 23.2071 19.4716 23.3937 19.4716C23.5537 19.4716 23.6337 19.5633 23.6337 19.7467C23.6337 19.9825 23.5804 20.1921 23.4737 20.3755C22.1141 22.7336 20.4346 24.4498 18.4351 25.524C16.4623 26.5721 14.183 27.0961 11.597 27.0961Z" fill="white"/>
<path d="M31.2444 26.6638C30.258 26.6638 29.5915 26.3886 29.2449 25.8384C28.8983 25.262 28.7251 24.5284 28.7251 23.6376C28.7251 22.6943 28.8717 21.7904 29.1649 20.9258C29.4582 20.0611 29.7781 19.1965 30.1247 18.3319C29.9381 18.2009 29.7648 18.0306 29.6048 17.821C29.4715 17.6114 29.4049 17.31 29.4049 16.917C29.4049 16.4716 29.6715 15.9083 30.2047 15.2271C30.7378 14.5197 31.3377 13.9039 32.0042 13.3799C32.2974 13.1441 32.684 12.8952 33.1638 12.6332C33.6437 12.345 34.1369 12.1092 34.6434 11.9258C35.1499 11.7162 35.5632 11.6114 35.8831 11.6114C37.0028 11.6114 37.7492 12.0568 38.1224 12.9476C38.4957 13.8384 38.629 14.8996 38.5223 16.131C38.629 16.0786 38.8156 16 39.0822 15.8952C39.3754 15.7904 39.6553 15.6987 39.9219 15.6201C40.1885 15.5153 40.3485 15.4629 40.4018 15.4629C40.5351 15.4629 40.6684 15.5284 40.8017 15.6594C40.935 15.7904 41.0016 15.9214 41.0016 16.0524C41.0016 16.131 40.9616 16.1965 40.8817 16.2489L38.3624 17.1921C38.2024 18.0044 37.9358 18.9476 37.5626 20.0218C37.216 21.0961 36.7362 22.1441 36.123 23.1659C35.5365 24.1616 34.83 25 34.0036 25.6812C33.2038 26.3362 32.2841 26.6638 31.2444 26.6638ZM33.1638 17.4279C33.8303 17.4279 34.4701 17.3624 35.0833 17.2314C35.6965 17.0742 36.3629 16.8777 37.0827 16.6419C37.1094 16.5109 37.1227 16.3668 37.1227 16.2096C37.1494 16.0524 37.1627 15.9083 37.1627 15.7773C37.1627 15.4629 37.1227 15.1092 37.0427 14.7162C36.9894 14.3231 36.8561 13.9825 36.6429 13.6943C36.4562 13.3799 36.163 13.2227 35.7631 13.2227C35.3099 13.2227 34.87 13.393 34.4435 13.7336C34.0169 14.0742 33.617 14.4803 33.2438 14.952C32.8972 15.4236 32.5907 15.8821 32.3241 16.3275C32.0841 16.7729 31.9108 17.1004 31.8042 17.31C32.2841 17.3886 32.7373 17.4279 33.1638 17.4279ZM31.6043 25.6026C32.3507 25.6026 33.0039 25.3668 33.5637 24.8952C34.1502 24.3974 34.6567 23.7555 35.0833 22.9694C35.5098 22.1834 35.8697 21.3319 36.163 20.4148C36.4829 19.4978 36.7362 18.5939 36.9228 17.7031C36.123 17.9651 35.2033 18.2271 34.1636 18.4891C33.1505 18.7249 32.2174 18.7904 31.3643 18.6856C31.0977 19.393 30.8578 20.1921 30.6445 21.083C30.4579 21.9738 30.3646 22.7991 30.3646 23.559C30.3646 23.9782 30.4313 24.4236 30.5646 24.8952C30.7245 25.3668 31.0711 25.6026 31.6043 25.6026Z" fill="white"/>
<path d="M42.3088 26.9782C42.0955 26.9782 41.9889 26.8996 41.9889 26.7424L42.5087 25.2489C42.642 24.9083 42.722 24.5808 42.7486 24.2664C42.802 23.9258 42.8819 23.5852 42.9886 23.2445C43.1485 22.5633 43.3218 21.8821 43.5084 21.2009C43.6951 20.5197 43.895 19.8515 44.1083 19.1965C44.1882 18.9607 44.2949 18.6201 44.4282 18.1747C44.5615 17.7293 44.6814 17.2838 44.7881 16.8384C44.9214 16.3668 44.988 16.0131 44.988 15.7773C44.988 15.6463 44.8947 15.5939 44.7081 15.6201C44.5481 15.6463 44.4548 15.6201 44.4282 15.5415C44.6148 15.0699 44.7747 14.5852 44.908 14.0873C45.0413 13.5895 45.2013 13.1048 45.3879 12.6332C45.4679 12.4236 45.6812 12.2271 46.0277 12.0437C46.3743 11.8341 46.6542 11.7293 46.8675 11.7293C47.2407 11.7293 47.4273 11.9651 47.4273 12.4367C47.4273 12.8559 47.3207 13.4978 47.1074 14.3624C46.8942 15.2271 46.6142 16.1703 46.2677 17.1921C45.9478 18.214 45.6278 19.2096 45.3079 20.179C45.0147 21.1223 44.7614 21.8952 44.5481 22.4978C45.4012 21.7118 46.2543 20.8472 47.1074 19.9039C47.9605 18.9607 48.7336 18.0175 49.4268 17.0742C50.1466 16.1048 50.7064 15.2271 51.1063 14.441C51.1063 14.1528 51.2929 13.9563 51.6662 13.8515C52.066 13.7467 52.3726 13.7205 52.5859 13.7729C52.6925 13.7205 52.7725 13.6943 52.8258 13.6943C53.0658 13.6943 53.2124 13.8777 53.2657 14.2445C53.3457 14.5852 53.3857 14.8341 53.3857 14.9913C53.3857 15.2795 53.3457 15.6856 53.2657 16.2096C53.2124 16.7074 53.0258 17.0349 52.7059 17.1921C52.6792 17.4017 52.6659 17.6245 52.6659 17.8603C52.6659 18.0699 52.6659 18.2795 52.6659 18.4891C52.6659 18.8035 52.6792 19.3275 52.7059 20.0611C52.7592 20.7686 52.8525 21.5153 52.9858 22.3013C53.1191 23.0873 53.3324 23.7686 53.6256 24.345C53.9189 24.8952 54.3187 25.1703 54.8253 25.1703C55.3051 25.1703 55.7184 25.0393 56.0649 24.7773C56.4382 24.5153 56.7581 24.214 57.0247 23.8734C57.2913 23.5328 57.5045 23.2314 57.6645 22.9694C57.8244 22.7074 57.9444 22.5764 58.0244 22.5764C58.1577 22.5764 58.2243 22.655 58.2243 22.8122C58.2243 23.179 58.0244 23.6245 57.6245 24.1485C57.2513 24.6725 56.9314 25.0655 56.6648 25.3275C56.3715 25.6419 56.0249 25.917 55.625 26.1528C55.2252 26.3886 54.7986 26.5065 54.3454 26.5065C53.5456 26.5065 52.9191 26.2314 52.4659 25.6812C52.0127 25.1048 51.6662 24.4105 51.4262 23.5983C51.2129 22.7598 51.0663 21.9214 50.9863 21.083C50.933 20.2183 50.9064 19.5109 50.9064 18.9607C50.9064 18.4629 50.9064 17.9782 50.9064 17.5066C50.933 17.0349 50.9597 16.5633 50.9863 16.0917C50.5598 16.8253 50.0666 17.5328 49.5068 18.214C48.9469 18.8952 48.4004 19.5633 47.8672 20.2183C47.0674 21.1092 46.281 22.0786 45.5079 23.1266C45.3746 23.31 45.2413 23.5328 45.108 23.7948C45.0014 24.0306 44.8547 24.2402 44.6681 24.4236L44.5881 24.5022C44.4015 25 44.2816 25.3799 44.2282 25.6419C44.1749 25.9039 43.9083 26.1921 43.4285 26.5065C43.2685 26.6114 43.0952 26.7162 42.9086 26.821C42.722 26.9258 42.522 26.9782 42.3088 26.9782Z" fill="white"/>
<path d="M59.9679 26.9782C59.7546 26.9782 59.648 26.8996 59.648 26.7424L60.1678 25.2489C60.3011 24.9083 60.3811 24.5808 60.4078 24.2664C60.4611 23.9258 60.5411 23.5852 60.6477 23.2445C60.8077 22.5633 60.981 21.8821 61.1676 21.2009C61.3542 20.5197 61.5541 19.8515 61.7674 19.1965C61.8474 18.9607 61.954 18.6201 62.0873 18.1747C62.2206 17.7293 62.3406 17.2838 62.4472 16.8384C62.5805 16.3668 62.6471 16.0131 62.6471 15.7773C62.6471 15.6463 62.5538 15.5939 62.3672 15.6201C62.2073 15.6463 62.114 15.6201 62.0873 15.5415C62.2739 15.0699 62.4339 14.5852 62.5672 14.0873C62.7005 13.5895 62.8604 13.1048 63.047 12.6332C63.127 12.4236 63.3403 12.2271 63.6869 12.0437C64.0334 11.8341 64.3134 11.7293 64.5266 11.7293C64.8999 11.7293 65.0865 11.9651 65.0865 12.4367C65.0865 12.8559 64.9798 13.4978 64.7666 14.3624C64.5533 15.2271 64.2734 16.1703 63.9268 17.1921C63.6069 18.214 63.287 19.2096 62.9671 20.179C62.6738 21.1223 62.4205 21.8952 62.2073 22.4978C63.0604 21.7118 63.9135 20.8472 64.7666 19.9039C65.6197 18.9607 66.3928 18.0175 67.0859 17.0742C67.8057 16.1048 68.3656 15.2271 68.7654 14.441C68.7654 14.1528 68.9521 13.9563 69.3253 13.8515C69.7252 13.7467 70.0318 13.7205 70.245 13.7729C70.3517 13.7205 70.4316 13.6943 70.485 13.6943C70.7249 13.6943 70.8715 13.8777 70.9248 14.2445C71.0048 14.5852 71.0448 14.8341 71.0448 14.9913C71.0448 15.2795 71.0048 15.6856 70.9248 16.2096C70.8715 16.7074 70.6849 17.0349 70.365 17.1921C70.3383 17.4017 70.325 17.6245 70.325 17.8603C70.325 18.0699 70.325 18.2795 70.325 18.4891C70.325 18.8035 70.3383 19.3275 70.365 20.0611C70.4183 20.7686 70.5116 21.5153 70.6449 22.3013C70.7782 23.0873 70.9915 23.7686 71.2847 24.345C71.578 24.8952 71.9779 25.1703 72.4844 25.1703C72.9643 25.1703 73.3775 25.0393 73.7241 24.7773C74.0973 24.5153 74.4172 24.214 74.6838 23.8734C74.9504 23.5328 75.1637 23.2314 75.3236 22.9694C75.4836 22.7074 75.6035 22.5764 75.6835 22.5764C75.8168 22.5764 75.8834 22.655 75.8834 22.8122C75.8834 23.179 75.6835 23.6245 75.2836 24.1485C74.9104 24.6725 74.5905 25.0655 74.3239 25.3275C74.0306 25.6419 73.6841 25.917 73.2842 26.1528C72.8843 26.3886 72.4577 26.5065 72.0045 26.5065C71.2048 26.5065 70.5783 26.2314 70.1251 25.6812C69.6719 25.1048 69.3253 24.4105 69.0854 23.5983C68.8721 22.7598 68.7255 21.9214 68.6455 21.083C68.5922 20.2183 68.5655 19.5109 68.5655 18.9607C68.5655 18.4629 68.5655 17.9782 68.5655 17.5066C68.5922 17.0349 68.6188 16.5633 68.6455 16.0917C68.2189 16.8253 67.7257 17.5328 67.1659 18.214C66.606 18.8952 66.0595 19.5633 65.5263 20.2183C64.7266 21.1092 63.9401 22.0786 63.167 23.1266C63.0337 23.31 62.9004 23.5328 62.7671 23.7948C62.6605 24.0306 62.5139 24.2402 62.3272 24.4236L62.2473 24.5022C62.0606 25 61.9407 25.3799 61.8874 25.6419C61.834 25.9039 61.5675 26.1921 61.0876 26.5065C60.9276 26.6114 60.7543 26.7162 60.5677 26.821C60.3811 26.9258 60.1812 26.9782 59.9679 26.9782Z" fill="white"/>
<path d="M86.6645 17.5852C86.5312 17.5852 86.4646 17.5197 86.4646 17.3886C86.4646 17.31 86.4779 17.2445 86.5045 17.1921C86.6645 16.7729 86.7845 16.3799 86.8644 16.0131C86.9711 15.6201 87.0244 15.214 87.0244 14.7948C87.0244 14.6376 87.0111 14.4279 86.9844 14.1659C86.9844 13.8777 86.9311 13.6157 86.8245 13.3799C86.7445 13.1441 86.5845 13.0262 86.3446 13.0262C86.238 13.0262 86.1446 13.0393 86.0647 13.0655C85.9847 13.0655 85.8914 13.0655 85.7847 13.0655C85.5182 13.0655 85.3849 12.9607 85.3849 12.7511C85.3849 12.6463 85.5048 12.5546 85.7448 12.476C86.0113 12.3974 86.2913 12.3319 86.5845 12.2795C86.8778 12.2271 87.0777 12.2009 87.1844 12.2009C87.8508 12.2009 88.2641 12.4498 88.424 12.9476C88.6106 13.4192 88.7039 13.917 88.7039 14.441C88.7039 14.9389 88.6106 15.4629 88.424 16.0131C88.2641 16.5633 87.9575 16.9825 87.5043 17.2707C87.3976 17.3493 87.2643 17.4279 87.1044 17.5066C86.9444 17.559 86.7978 17.5852 86.6645 17.5852ZM80.7062 26.5459C79.933 26.5459 79.3865 26.3624 79.0666 25.9956C78.7734 25.6288 78.6267 25.0917 78.6267 24.3843C78.6267 23.5983 78.7201 22.8122 78.9067 22.0262C79.0933 21.2402 79.3199 20.4803 79.5865 19.7467L79.2266 19.8646C79.0933 19.786 79.0266 19.655 79.0266 19.4716C79.0266 19.2358 79.1333 19.0131 79.3465 18.8035C79.5865 18.5677 79.8264 18.4367 80.0663 18.4105C80.2263 18.0175 80.4529 17.5066 80.7462 16.8777C81.0394 16.2489 81.3726 15.6201 81.7459 14.9913C82.1458 14.3624 82.5856 13.8384 83.0655 13.4192C83.5454 13 84.0652 12.7904 84.6251 12.7904C84.865 12.7904 84.985 12.8952 84.985 13.1048C84.985 13.1834 84.9317 13.2882 84.825 13.4192C84.7184 13.524 84.6384 13.6026 84.5851 13.655C84.2385 13.9694 83.9053 14.4148 83.5854 14.9913C83.2655 15.5415 82.9722 16.1179 82.7056 16.7205C82.439 17.2969 82.2124 17.8079 82.0258 18.2533C82.7723 18.1485 83.5054 18.0699 84.2252 18.0175C84.9716 17.9651 85.7181 17.9389 86.4646 17.9389C86.5445 17.9389 86.7445 17.952 87.0644 17.9782C87.3843 17.9782 87.7442 18.0044 88.1441 18.0568C88.544 18.083 88.8772 18.1354 89.1438 18.214C89.4371 18.2926 89.5837 18.3974 89.5837 18.5284C89.5837 18.6332 89.517 18.6987 89.3837 18.7249C89.2771 18.7511 89.1971 18.7642 89.1438 18.7642C88.7972 18.7642 88.464 18.738 88.1441 18.6856C87.8242 18.6332 87.4909 18.607 87.1444 18.607C86.238 18.607 85.3182 18.6725 84.3851 18.8035C83.4521 18.9345 82.5323 19.0917 81.6259 19.2751C81.3593 19.9563 81.0927 20.7293 80.8261 21.5939C80.5862 22.4585 80.4662 23.2707 80.4662 24.0306C80.4662 24.4498 80.5462 24.8559 80.7062 25.2489C80.8661 25.6157 81.1994 25.7991 81.7059 25.7991C82.4257 25.7991 83.1055 25.524 83.7453 24.9738C84.4118 24.3974 85.025 23.7555 85.5848 23.048C86.1447 22.3144 86.6112 21.7118 86.9844 21.2402H87.0244C87.131 21.2402 87.1844 21.2926 87.1844 21.3974C87.211 21.5022 87.2243 21.5808 87.2243 21.6332C87.2243 22.0786 87.1177 22.4978 86.9044 22.8908C86.6912 23.2576 86.4246 23.5983 86.1047 23.9127C85.3849 24.5677 84.5584 25.1703 83.6253 25.7205C82.7189 26.2707 81.7459 26.5459 80.7062 26.5459Z" fill="white"/>
<path d="M94.6395 26.5459C93.893 26.5459 93.3598 26.3624 93.0399 25.9956C92.72 25.6288 92.56 25.0917 92.56 24.3843C92.56 24.2009 92.56 24.0306 92.56 23.8734C92.5867 23.69 92.6134 23.5066 92.64 23.3231C92.6933 22.8777 92.8 22.2751 92.9599 21.5153C93.1465 20.7555 93.3732 19.9432 93.6397 19.0786C93.933 18.1878 94.2529 17.3362 94.5995 16.524C94.9727 15.6856 95.3726 14.9913 95.7991 14.441C96.2523 13.8646 96.7322 13.5109 97.2387 13.3799C97.8786 13.2227 98.5184 12.9869 99.1582 12.6725C99.798 12.3581 100.451 12.2009 101.118 12.2009C101.757 12.2009 102.157 12.4105 102.317 12.8297C102.477 13.2489 102.557 13.7205 102.557 14.2445C102.557 14.8472 102.317 15.2795 101.837 15.5415C101.731 15.6201 101.598 15.6987 101.438 15.7773C101.304 15.8297 101.158 15.8559 100.998 15.8559C100.811 15.8559 100.718 15.7773 100.718 15.6201C100.718 15.4629 100.744 15.3057 100.798 15.1485C100.851 14.9913 100.878 14.821 100.878 14.6376C100.878 14.3493 100.811 14.0087 100.678 13.6157C100.571 13.1965 100.318 12.9869 99.918 12.9869C99.6247 12.9869 99.3048 13.1179 98.9583 13.3799C98.6117 13.6157 98.3318 13.8253 98.1185 14.0087C97.7186 14.3493 97.2921 14.9651 96.8388 15.8559C96.4123 16.7205 96.0124 17.6769 95.6392 18.7249C95.266 19.7729 94.9594 20.7817 94.7194 21.7511C94.5062 22.7205 94.3995 23.4804 94.3995 24.0306C94.3995 24.4498 94.4795 24.8559 94.6395 25.2489C94.7994 25.6157 95.1327 25.7991 95.6392 25.7991C96.359 25.7991 97.0388 25.524 97.6786 24.9738C98.3451 24.3974 98.9583 23.7555 99.5181 23.048C100.078 22.3144 100.544 21.7118 100.918 21.2402H100.958C101.064 21.2402 101.118 21.2926 101.118 21.3974C101.144 21.5022 101.158 21.5808 101.158 21.6332C101.158 22.0786 101.051 22.4978 100.838 22.8908C100.624 23.2838 100.358 23.6245 100.038 23.9127C99.3182 24.5677 98.4917 25.1703 97.5587 25.7205C96.6522 26.2707 95.6792 26.5459 94.6395 26.5459Z" fill="white"/>
<path d="M106.545 26.2314C106.332 26.2314 106.118 26.1659 105.905 26.0349C105.718 25.9039 105.625 25.7074 105.625 25.4454C105.625 25.2358 105.665 25.0131 105.745 24.7773C105.825 24.5153 105.878 24.2926 105.905 24.1092C106.358 22.3799 106.838 20.6638 107.345 18.9607C107.878 17.2314 108.398 15.5153 108.904 13.8122H107.785C107.705 13.8122 107.625 13.8253 107.545 13.8515C107.465 13.8515 107.385 13.8515 107.305 13.8515H107.145C107.118 13.8515 107.105 13.8646 107.105 13.8908C106.945 13.8122 106.865 13.6943 106.865 13.5371C106.865 13.4061 106.891 13.3013 106.945 13.2227C107.025 13.1441 107.105 13.0786 107.185 13.0262C107.318 12.8952 107.478 12.8166 107.665 12.7904C107.878 12.7642 108.078 12.7511 108.264 12.7511C108.424 12.7511 108.584 12.7642 108.744 12.7904C108.931 12.7904 109.104 12.7904 109.264 12.7904C109.344 12.5546 109.451 12.2271 109.584 11.8079C109.717 11.3624 109.837 10.917 109.944 10.4716C110.051 10.0262 110.104 9.69869 110.104 9.48908C110.104 9.35808 110.011 9.30568 109.824 9.33188C109.664 9.35808 109.571 9.33188 109.544 9.25328C109.731 8.78166 109.891 8.31004 110.024 7.83843C110.184 7.34061 110.33 6.84279 110.464 6.34498C110.517 6.10917 110.717 5.91266 111.064 5.75546C111.41 5.57205 111.703 5.48035 111.943 5.48035C112.183 5.48035 112.343 5.55895 112.423 5.71616C112.503 5.84716 112.543 6.01747 112.543 6.22707C112.543 6.51528 112.463 6.9607 112.303 7.56332C112.143 8.16594 111.957 8.82096 111.743 9.52838C111.53 10.2096 111.317 10.8515 111.104 11.4541C110.917 12.0568 110.77 12.5022 110.664 12.7904H115.142C115.169 12.7904 115.222 12.8297 115.302 12.9083C115.302 13.0131 115.116 13.1048 114.743 13.1834C114.396 13.2358 114.196 13.262 114.143 13.262C113.53 13.3668 112.903 13.4585 112.263 13.5371C111.623 13.5895 110.984 13.6419 110.344 13.6943C110.184 14.1921 109.944 14.8996 109.624 15.8166C109.331 16.7336 109.011 17.7162 108.664 18.7642C108.344 19.8122 108.064 20.7948 107.825 21.7118C107.585 22.6026 107.465 23.2707 107.465 23.7162C107.465 23.952 107.505 24.2009 107.585 24.4629C107.691 24.6987 107.891 24.8166 108.184 24.8166C108.584 24.8166 108.998 24.6725 109.424 24.3843C109.877 24.0961 110.304 23.7686 110.704 23.4017C111.13 23.0349 111.49 22.7074 111.783 22.4192C112.077 22.131 112.277 21.9869 112.383 21.9869C112.517 21.9869 112.583 22.0786 112.583 22.262C112.583 22.3144 112.57 22.4323 112.543 22.6157C112.543 22.7991 112.477 22.8908 112.343 22.8908C112.077 23.1528 111.69 23.4803 111.184 23.8734C110.704 24.2402 110.171 24.607 109.584 24.9738C109.024 25.3144 108.464 25.6157 107.905 25.8777C107.371 26.1135 106.918 26.2314 106.545 26.2314Z" fill="white"/>
<path d="M131.22 28C130.846 28 130.646 27.7773 130.62 27.3319C130.593 26.8865 130.553 26.4148 130.5 25.917C130.393 24.1878 130.233 22.3275 130.02 20.3362C129.833 18.3188 129.607 16.3013 129.34 14.2838C129.073 12.2402 128.794 10.3144 128.5 8.50655C128.207 6.67249 127.9 5.07424 127.581 3.71179C127.447 3.26638 127.274 3.09607 127.061 3.20087H126.981C126.874 3.20087 126.781 3.14847 126.701 3.04367C126.647 2.93886 126.674 2.84716 126.781 2.76856C127.234 2.53275 127.581 2.33624 127.821 2.17904C128.087 1.99563 128.314 1.89083 128.5 1.86463C128.58 1.83843 128.674 1.82533 128.78 1.82533C129.047 1.82533 129.22 1.93013 129.3 2.13974C129.407 2.34934 129.513 2.71616 129.62 3.24017C130.02 5.28384 130.38 7.53712 130.7 10C131.046 12.4367 131.353 14.8865 131.619 17.3493C131.886 19.8122 132.099 22.0917 132.259 24.1878C134.125 21.3319 135.832 18.5677 137.378 15.8952C138.924 13.2227 140.31 10.4716 141.537 7.64192C141.803 7.0393 141.937 6.62009 141.937 6.38428C141.937 6.12227 141.857 5.96507 141.697 5.91266C141.563 5.83406 141.497 5.67686 141.497 5.44105C141.497 5.25764 141.577 5.02183 141.737 4.73362C141.923 4.44541 142.137 4.18341 142.376 3.9476C142.616 3.71179 142.83 3.59389 143.016 3.59389C143.15 3.59389 143.256 3.64629 143.336 3.75109C143.416 3.82969 143.469 3.9214 143.496 4.0262C144.856 7.32751 146.042 10.7205 147.055 14.2052C148.068 17.69 148.828 21.0699 149.334 24.345C149.361 24.4498 149.401 24.5022 149.454 24.5022C149.561 24.5022 149.694 24.2795 149.854 23.8341C150.468 22.3668 151.147 20.7686 151.894 19.0393C152.667 17.31 153.453 15.5808 154.253 13.8515C155.053 12.1223 155.826 10.4847 156.572 8.93886C157.319 7.36681 157.999 6.00437 158.612 4.85153C159.225 3.67249 159.718 2.79476 160.091 2.21834C160.438 1.72052 160.691 1.47161 160.851 1.47161C161.065 1.47161 161.185 1.57642 161.211 1.78603C161.264 1.96943 161.291 2.11354 161.291 2.21834C161.291 2.48035 161.238 2.74236 161.131 3.00437C161.051 3.24017 160.931 3.48908 160.771 3.75109C160.451 4.30131 160.012 5.11354 159.452 6.18777C158.892 7.23581 158.265 8.45415 157.572 9.84279C156.879 11.2052 156.173 12.6332 155.453 14.1266C154.733 15.6201 154.027 17.1004 153.333 18.5677C152.667 20.0087 152.054 21.3581 151.494 22.6157C150.961 23.8472 150.534 24.8821 150.214 25.7205C150.081 26.0873 149.854 26.4673 149.534 26.8603C149.215 27.2533 148.828 27.4498 148.375 27.4498C147.948 27.4498 147.708 27.2402 147.655 26.821C147.602 26.4279 147.575 26.0873 147.575 25.7991C147.575 25.4061 147.495 24.7642 147.335 23.8734C147.175 22.9825 146.962 21.9476 146.695 20.7686C146.429 19.5633 146.122 18.3057 145.775 16.9956C145.456 15.6856 145.109 14.4279 144.736 13.2227C144.389 12.0175 144.043 10.9563 143.696 10.0393C143.376 9.12227 143.07 8.45415 142.776 8.03493C141.657 10.1834 140.604 12.2009 139.617 14.0873C138.631 15.9476 137.631 17.7817 136.618 19.5895C135.605 21.3712 134.499 23.2445 133.299 25.2096C132.899 25.8646 132.632 26.3886 132.499 26.7817C132.366 27.2009 132.219 27.5022 132.059 27.6856C131.926 27.8952 131.646 28 131.22 28Z" fill="white"/>
<path d="M170.239 26.5459C169.493 26.5459 168.933 26.2838 168.559 25.7598C168.186 25.2358 167.933 24.6332 167.8 23.952C167.693 23.2445 167.64 22.6157 167.64 22.0655C167.64 21.5153 167.666 20.9782 167.72 20.4541C167.8 19.9039 167.88 19.3668 167.96 18.8428C167.693 19.1834 167.32 19.6681 166.84 20.2969C166.36 20.8996 165.814 21.5677 165.2 22.3013C164.587 23.0087 163.961 23.69 163.321 24.345C162.681 24.9738 162.055 25.4978 161.441 25.917C160.855 26.31 160.348 26.5065 159.922 26.5065C159.549 26.5065 159.309 26.3362 159.202 25.9956C159.122 25.655 159.082 25.3537 159.082 25.0917C159.082 23.9127 159.322 22.6681 159.802 21.3581C160.282 20.048 160.775 18.869 161.281 17.821C161.415 17.5328 161.615 17.1397 161.881 16.6419C162.148 16.1441 162.454 15.6332 162.801 15.1092C163.174 14.5852 163.561 14.1528 163.961 13.8122C164.361 13.4716 164.761 13.3275 165.16 13.3799C165.454 13.1965 165.734 13.0393 166 12.9083C166.293 12.7511 166.613 12.6725 166.96 12.6725C167.173 12.6725 167.52 12.738 168 12.869C168.506 13 168.866 13.0917 169.079 13.1441C169.186 12.9345 169.346 12.7773 169.559 12.6725C169.772 12.5677 169.986 12.5153 170.199 12.5153C170.412 12.5153 170.559 12.5284 170.639 12.5546C170.745 12.5022 170.825 12.476 170.879 12.476C171.039 12.476 171.145 12.5939 171.199 12.8297C171.252 13.0393 171.279 13.2096 171.279 13.3406C171.279 13.6812 171.239 13.9825 171.159 14.2445C171.079 14.5066 170.972 14.7948 170.839 15.1092C170.732 15.3712 170.639 15.6201 170.559 15.8559C170.506 16.0655 170.359 16.262 170.119 16.4454C169.932 17.3886 169.786 18.345 169.679 19.3144C169.599 20.2576 169.559 21.214 169.559 22.1834C169.559 22.524 169.572 22.9301 169.599 23.4017C169.652 23.8734 169.772 24.2926 169.959 24.6594C170.172 25.0262 170.492 25.2096 170.919 25.2096C171.585 25.2096 172.172 24.9738 172.678 24.5022C173.211 24.0044 173.651 23.5328 173.998 23.0873C174.051 23.0087 174.118 22.9301 174.198 22.8515C174.278 22.7467 174.371 22.6681 174.478 22.6157L174.598 22.8515C174.598 23.1135 174.464 23.4279 174.198 23.7948C173.931 24.1616 173.638 24.5153 173.318 24.8559C172.998 25.1703 172.732 25.4061 172.518 25.5633C172.198 25.8253 171.839 26.0611 171.439 26.2707C171.065 26.4541 170.666 26.5459 170.239 26.5459ZM161.281 24.8952C161.441 24.8952 161.615 24.8297 161.801 24.6987C161.988 24.5677 162.135 24.4498 162.241 24.345C163.494 23.2707 164.601 22.0655 165.56 20.7293C166.547 19.393 167.4 18.0044 168.12 16.5633C168.2 16.4323 168.28 16.2882 168.359 16.131C168.439 15.9738 168.493 15.8166 168.519 15.6594C168.573 15.4498 168.626 15.2271 168.679 14.9913C168.733 14.7293 168.773 14.4935 168.799 14.2838C168.773 14.1528 168.626 14.0349 168.359 13.9301C168.093 13.8253 167.8 13.7467 167.48 13.6943C167.186 13.6157 166.973 13.5764 166.84 13.5764C166.333 13.5764 165.88 13.786 165.48 14.2052C165.107 14.5983 164.787 14.9782 164.521 15.345C164.201 15.8166 163.827 16.4323 163.401 17.1921C163.001 17.952 162.601 18.7642 162.201 19.6288C161.828 20.4672 161.508 21.2795 161.241 22.0655C161.002 22.8515 160.882 23.5197 160.882 24.0699C160.882 24.2009 160.895 24.3712 160.922 24.5808C160.975 24.7904 161.095 24.8952 161.281 24.8952Z" fill="white"/>
<path d="M176.768 26.2314C176.528 26.2314 176.315 26.1659 176.129 26.0349C175.969 25.9039 175.889 25.7074 175.889 25.4454C175.889 25.0786 175.915 24.6201 175.969 24.0699C176.022 23.5197 176.075 23.048 176.129 22.655C176.342 21.3974 176.582 20.1397 176.848 18.8821C177.142 17.5983 177.462 16.3406 177.808 15.1092C178.128 13.9039 178.501 12.6332 178.928 11.2969C179.354 9.9345 179.874 8.61135 180.487 7.32751C181.101 6.04367 181.847 4.89083 182.727 3.86899C183.633 2.82096 184.713 2.02183 185.966 1.47161C186.286 1.34061 186.619 1.23581 186.966 1.1572C187.312 1.0524 187.659 1 188.005 1C188.325 1 188.698 1.0655 189.125 1.19651C189.578 1.32751 189.965 1.52402 190.285 1.78603C190.605 2.02183 190.764 2.33624 190.764 2.72926C190.764 2.88646 190.724 3.00437 190.645 3.08297C190.591 3.16157 190.378 3.33188 190.005 3.59389C189.658 3.82969 189.458 3.9607 189.405 3.9869C189.352 3.9345 189.325 3.8952 189.325 3.86899C189.325 3.79039 189.365 3.71179 189.445 3.63319C189.525 3.55458 189.565 3.46288 189.565 3.35808C189.565 3.09607 189.418 2.86026 189.125 2.65065C188.832 2.41485 188.498 2.23144 188.125 2.10044C187.752 1.94323 187.445 1.86463 187.205 1.86463C186.326 1.86463 185.513 2.23144 184.766 2.96506C184.046 3.69869 183.393 4.64192 182.807 5.79476C182.22 6.9214 181.7 8.12664 181.247 9.41048C180.794 10.6681 180.407 11.8603 180.087 12.9869C179.768 14.1135 179.514 15.0175 179.328 15.6987C179.114 16.4585 178.888 17.31 178.648 18.2533C178.408 19.1965 178.195 20.1528 178.008 21.1223C177.848 22.0655 177.768 22.9432 177.768 23.7555C177.768 23.9913 177.808 24.2402 177.888 24.5022C177.995 24.738 178.195 24.8559 178.488 24.8559C178.888 24.8559 179.301 24.7249 179.728 24.4629C180.181 24.2009 180.607 23.8996 181.007 23.559C181.434 23.1921 181.794 22.8777 182.087 22.6157C182.407 22.3537 182.62 22.2227 182.727 22.2227C182.78 22.2227 182.807 22.2489 182.807 22.3013C182.807 22.4847 182.753 22.6681 182.647 22.8515C182.54 23.0349 182.42 23.1921 182.287 23.3231C181.94 23.6638 181.447 24.0699 180.807 24.5415C180.167 24.9869 179.488 25.3799 178.768 25.7205C178.048 26.0611 177.382 26.2314 176.768 26.2314Z" fill="white"/>
<path d="M185.719 26.2314C185.479 26.2314 185.266 26.1659 185.079 26.0349C184.919 25.9039 184.839 25.7074 184.839 25.4454C184.839 25.0786 184.866 24.6201 184.919 24.0699C184.973 23.5197 185.026 23.048 185.079 22.655C185.292 21.3974 185.532 20.1397 185.799 18.8821C186.092 17.5983 186.412 16.3406 186.759 15.1092C187.079 13.9039 187.452 12.6332 187.878 11.2969C188.305 9.9345 188.825 8.61135 189.438 7.32751C190.051 6.04367 190.798 4.89083 191.677 3.86899C192.584 2.82096 193.663 2.02183 194.916 1.47161C195.236 1.34061 195.57 1.23581 195.916 1.1572C196.263 1.0524 196.609 1 196.956 1C197.276 1 197.649 1.0655 198.076 1.19651C198.529 1.32751 198.915 1.52402 199.235 1.78603C199.555 2.02183 199.715 2.33624 199.715 2.72926C199.715 2.88646 199.675 3.00437 199.595 3.08297C199.542 3.16157 199.329 3.33188 198.955 3.59389C198.609 3.82969 198.409 3.9607 198.355 3.9869C198.302 3.9345 198.276 3.8952 198.276 3.86899C198.276 3.79039 198.315 3.71179 198.395 3.63319C198.475 3.55458 198.515 3.46288 198.515 3.35808C198.515 3.09607 198.369 2.86026 198.076 2.65065C197.782 2.41485 197.449 2.23144 197.076 2.10044C196.703 1.94323 196.396 1.86463 196.156 1.86463C195.276 1.86463 194.463 2.23144 193.717 2.96506C192.997 3.69869 192.344 4.64192 191.757 5.79476C191.171 6.9214 190.651 8.12664 190.198 9.41048C189.745 10.6681 189.358 11.8603 189.038 12.9869C188.718 14.1135 188.465 15.0175 188.278 15.6987C188.065 16.4585 187.838 17.31 187.598 18.2533C187.359 19.1965 187.145 20.1528 186.959 21.1223C186.799 22.0655 186.719 22.9432 186.719 23.7555C186.719 23.9913 186.759 24.2402 186.839 24.5022C186.945 24.738 187.145 24.8559 187.439 24.8559C187.838 24.8559 188.252 24.7249 188.678 24.4629C189.131 24.2009 189.558 23.8996 189.958 23.559C190.384 23.1921 190.744 22.8777 191.038 22.6157C191.357 22.3537 191.571 22.2227 191.677 22.2227C191.731 22.2227 191.757 22.2489 191.757 22.3013C191.757 22.4847 191.704 22.6681 191.597 22.8515C191.491 23.0349 191.371 23.1921 191.237 23.3231C190.891 23.6638 190.398 24.0699 189.758 24.5415C189.118 24.9869 188.438 25.3799 187.718 25.7205C186.999 26.0611 186.332 26.2314 185.719 26.2314Z" fill="white"/>
<path d="M202.827 17.5852C202.694 17.5852 202.627 17.5197 202.627 17.3886C202.627 17.31 202.641 17.2445 202.667 17.1921C202.827 16.7729 202.947 16.3799 203.027 16.0131C203.134 15.6201 203.187 15.214 203.187 14.7948C203.187 14.6376 203.174 14.4279 203.147 14.1659C203.147 13.8777 203.094 13.6157 202.987 13.3799C202.907 13.1441 202.747 13.0262 202.507 13.0262C202.401 13.0262 202.308 13.0393 202.228 13.0655C202.148 13.0655 202.054 13.0655 201.948 13.0655C201.681 13.0655 201.548 12.9607 201.548 12.7511C201.548 12.6463 201.668 12.5546 201.908 12.476C202.174 12.3974 202.454 12.3319 202.747 12.2795C203.041 12.2271 203.241 12.2009 203.347 12.2009C204.014 12.2009 204.427 12.4498 204.587 12.9476C204.773 13.4192 204.867 13.917 204.867 14.441C204.867 14.9389 204.773 15.4629 204.587 16.0131C204.427 16.5633 204.12 16.9825 203.667 17.2707C203.56 17.3493 203.427 17.4279 203.267 17.5066C203.107 17.559 202.961 17.5852 202.827 17.5852ZM196.869 26.5459C196.096 26.5459 195.549 26.3624 195.229 25.9956C194.936 25.6288 194.79 25.0917 194.79 24.3843C194.79 23.5983 194.883 22.8122 195.07 22.0262C195.256 21.2402 195.483 20.4803 195.749 19.7467L195.389 19.8646C195.256 19.786 195.189 19.655 195.189 19.4716C195.189 19.2358 195.296 19.0131 195.509 18.8035C195.749 18.5677 195.989 18.4367 196.229 18.4105C196.389 18.0175 196.616 17.5066 196.909 16.8777C197.202 16.2489 197.536 15.6201 197.909 14.9913C198.309 14.3624 198.749 13.8384 199.228 13.4192C199.708 13 200.228 12.7904 200.788 12.7904C201.028 12.7904 201.148 12.8952 201.148 13.1048C201.148 13.1834 201.095 13.2882 200.988 13.4192C200.881 13.524 200.801 13.6026 200.748 13.655C200.401 13.9694 200.068 14.4148 199.748 14.9913C199.428 15.5415 199.135 16.1179 198.868 16.7205C198.602 17.2969 198.375 17.8079 198.189 18.2533C198.935 18.1485 199.668 18.0699 200.388 18.0175C201.135 17.9651 201.881 17.9389 202.627 17.9389C202.707 17.9389 202.907 17.952 203.227 17.9782C203.547 17.9782 203.907 18.0044 204.307 18.0568C204.707 18.083 205.04 18.1354 205.307 18.214C205.6 18.2926 205.747 18.3974 205.747 18.5284C205.747 18.6332 205.68 18.6987 205.547 18.7249C205.44 18.7511 205.36 18.7642 205.307 18.7642C204.96 18.7642 204.627 18.738 204.307 18.6856C203.987 18.6332 203.654 18.607 203.307 18.607C202.401 18.607 201.481 18.6725 200.548 18.8035C199.615 18.9345 198.695 19.0917 197.789 19.2751C197.522 19.9563 197.256 20.7293 196.989 21.5939C196.749 22.4585 196.629 23.2707 196.629 24.0306C196.629 24.4498 196.709 24.8559 196.869 25.2489C197.029 25.6157 197.362 25.7991 197.869 25.7991C198.589 25.7991 199.268 25.524 199.908 24.9738C200.575 24.3974 201.188 23.7555 201.748 23.048C202.308 22.3144 202.774 21.7118 203.147 21.2402H203.187C203.294 21.2402 203.347 21.2926 203.347 21.3974C203.374 21.5022 203.387 21.5808 203.387 21.6332C203.387 22.0786 203.281 22.4978 203.067 22.8908C202.854 23.2576 202.587 23.5983 202.268 23.9127C201.548 24.5677 200.721 25.1703 199.788 25.7205C198.882 26.2707 197.909 26.5459 196.869 26.5459Z" fill="white"/>
<path d="M210.242 26.2314C210.029 26.2314 209.816 26.1659 209.603 26.0349C209.416 25.9039 209.323 25.7074 209.323 25.4454C209.323 25.2358 209.363 25.0131 209.443 24.7773C209.523 24.5153 209.576 24.2926 209.603 24.1092C210.056 22.3799 210.536 20.6638 211.042 18.9607C211.575 17.2314 212.095 15.5153 212.602 13.8122H211.482C211.402 13.8122 211.322 13.8253 211.242 13.8515C211.162 13.8515 211.082 13.8515 211.002 13.8515H210.842C210.816 13.8515 210.802 13.8646 210.802 13.8908C210.642 13.8122 210.562 13.6943 210.562 13.5371C210.562 13.4061 210.589 13.3013 210.642 13.2227C210.722 13.1441 210.802 13.0786 210.882 13.0262C211.016 12.8952 211.176 12.8166 211.362 12.7904C211.575 12.7642 211.775 12.7511 211.962 12.7511C212.122 12.7511 212.282 12.7642 212.442 12.7904C212.628 12.7904 212.802 12.7904 212.962 12.7904C213.042 12.5546 213.148 12.2271 213.282 11.8079C213.415 11.3624 213.535 10.917 213.642 10.4716C213.748 10.0262 213.801 9.69869 213.801 9.48908C213.801 9.35808 213.708 9.30568 213.522 9.33188C213.362 9.35808 213.268 9.33188 213.242 9.25328C213.428 8.78166 213.588 8.31004 213.721 7.83843C213.881 7.34061 214.028 6.84279 214.161 6.34498C214.215 6.10917 214.415 5.91266 214.761 5.75546C215.108 5.57205 215.401 5.48035 215.641 5.48035C215.881 5.48035 216.041 5.55895 216.121 5.71616C216.201 5.84716 216.241 6.01747 216.241 6.22707C216.241 6.51528 216.161 6.9607 216.001 7.56332C215.841 8.16594 215.654 8.82096 215.441 9.52838C215.228 10.2096 215.014 10.8515 214.801 11.4541C214.615 12.0568 214.468 12.5022 214.361 12.7904H218.84C218.867 12.7904 218.92 12.8297 219 12.9083C219 13.0131 218.813 13.1048 218.44 13.1834C218.094 13.2358 217.894 13.262 217.84 13.262C217.227 13.3668 216.601 13.4585 215.961 13.5371C215.321 13.5895 214.681 13.6419 214.041 13.6943C213.881 14.1921 213.642 14.8996 213.322 15.8166C213.028 16.7336 212.708 17.7162 212.362 18.7642C212.042 19.8122 211.762 20.7948 211.522 21.7118C211.282 22.6026 211.162 23.2707 211.162 23.7162C211.162 23.952 211.202 24.2009 211.282 24.4629C211.389 24.6987 211.589 24.8166 211.882 24.8166C212.282 24.8166 212.695 24.6725 213.122 24.3843C213.575 24.0961 214.001 23.7686 214.401 23.4017C214.828 23.0349 215.188 22.7074 215.481 22.4192C215.774 22.131 215.974 21.9869 216.081 21.9869C216.214 21.9869 216.281 22.0786 216.281 22.262C216.281 22.3144 216.267 22.4323 216.241 22.6157C216.241 22.7991 216.174 22.8908 216.041 22.8908C215.774 23.1528 215.388 23.4803 214.881 23.8734C214.401 24.2402 213.868 24.607 213.282 24.9738C212.722 25.3144 212.162 25.6157 211.602 25.8777C211.069 26.1135 210.616 26.2314 210.242 26.2314Z" fill="white"/>
<path d="M11.597 27.0961C9.19771 27.0961 7.2116 26.6376 5.6387 25.7205C4.06581 24.8035 2.8928 23.6245 2.11969 22.1834C1.37323 20.7424 1 19.262 1 17.7424C1 15.8559 1.33324 13.9956 1.99972 12.1616C2.6662 10.3013 3.63926 8.62445 4.91891 7.131C6.22521 5.61135 7.81143 4.40611 9.67758 3.51528C11.5437 2.59825 13.6898 2.13974 16.1158 2.13974C17.8486 2.13974 19.2749 2.38865 20.3946 2.88646C21.5143 3.38428 22.3407 4.0393 22.8739 4.85153C23.4337 5.63755 23.7137 6.48908 23.7137 7.40611C23.7137 8.40175 23.527 9.10917 23.1538 9.52838C22.8072 9.9476 22.4074 10.1572 21.9541 10.1572C21.6076 10.1572 21.341 10.0131 21.1544 9.72489C20.9944 9.41048 20.9144 9.13537 20.9144 8.89956C20.9144 8.40175 21.0077 8.03493 21.1944 7.79913C21.381 7.56332 21.5543 7.34061 21.7142 7.131C21.9008 6.8952 21.9941 6.55458 21.9941 6.10917C21.9941 5.24454 21.421 4.52402 20.2746 3.9476C19.1283 3.34498 17.6487 3.04367 15.8359 3.04367C14.1563 3.04367 12.5434 3.37118 10.9972 4.0262C9.45097 4.68122 8.07802 5.63755 6.87836 6.8952C5.70535 8.12664 4.77228 9.63319 4.07914 11.4148C3.386 13.1965 3.03943 15.2009 3.03943 17.4279C3.03943 18.9476 3.34601 20.3755 3.95917 21.7118C4.57234 23.048 5.51874 24.1354 6.79838 24.9738C8.07802 25.786 9.71756 26.1921 11.717 26.1921C14.0897 26.1921 16.2091 25.6026 18.0752 24.4236C19.968 23.2445 21.5409 21.738 22.7939 19.9039C23.0072 19.6157 23.2071 19.4716 23.3937 19.4716C23.5537 19.4716 23.6337 19.5633 23.6337 19.7467C23.6337 19.9825 23.5804 20.1921 23.4737 20.3755C22.1141 22.7336 20.4346 24.4498 18.4351 25.524C16.4623 26.5721 14.183 27.0961 11.597 27.0961Z" stroke="white" stroke-width="2" mask="url(#path-1-outside-1_1293_1062)"/>
<path d="M31.2444 26.6638C30.258 26.6638 29.5915 26.3886 29.2449 25.8384C28.8983 25.262 28.7251 24.5284 28.7251 23.6376C28.7251 22.6943 28.8717 21.7904 29.1649 20.9258C29.4582 20.0611 29.7781 19.1965 30.1247 18.3319C29.9381 18.2009 29.7648 18.0306 29.6048 17.821C29.4715 17.6114 29.4049 17.31 29.4049 16.917C29.4049 16.4716 29.6715 15.9083 30.2047 15.2271C30.7378 14.5197 31.3377 13.9039 32.0042 13.3799C32.2974 13.1441 32.684 12.8952 33.1638 12.6332C33.6437 12.345 34.1369 12.1092 34.6434 11.9258C35.1499 11.7162 35.5632 11.6114 35.8831 11.6114C37.0028 11.6114 37.7492 12.0568 38.1224 12.9476C38.4957 13.8384 38.629 14.8996 38.5223 16.131C38.629 16.0786 38.8156 16 39.0822 15.8952C39.3754 15.7904 39.6553 15.6987 39.9219 15.6201C40.1885 15.5153 40.3485 15.4629 40.4018 15.4629C40.5351 15.4629 40.6684 15.5284 40.8017 15.6594C40.935 15.7904 41.0016 15.9214 41.0016 16.0524C41.0016 16.131 40.9616 16.1965 40.8817 16.2489L38.3624 17.1921C38.2024 18.0044 37.9358 18.9476 37.5626 20.0218C37.216 21.0961 36.7362 22.1441 36.123 23.1659C35.5365 24.1616 34.83 25 34.0036 25.6812C33.2038 26.3362 32.2841 26.6638 31.2444 26.6638ZM33.1638 17.4279C33.8303 17.4279 34.4701 17.3624 35.0833 17.2314C35.6965 17.0742 36.3629 16.8777 37.0827 16.6419C37.1094 16.5109 37.1227 16.3668 37.1227 16.2096C37.1494 16.0524 37.1627 15.9083 37.1627 15.7773C37.1627 15.4629 37.1227 15.1092 37.0427 14.7162C36.9894 14.3231 36.8561 13.9825 36.6429 13.6943C36.4562 13.3799 36.163 13.2227 35.7631 13.2227C35.3099 13.2227 34.87 13.393 34.4435 13.7336C34.0169 14.0742 33.617 14.4803 33.2438 14.952C32.8972 15.4236 32.5907 15.8821 32.3241 16.3275C32.0841 16.7729 31.9108 17.1004 31.8042 17.31C32.2841 17.3886 32.7373 17.4279 33.1638 17.4279ZM31.6043 25.6026C32.3507 25.6026 33.0039 25.3668 33.5637 24.8952C34.1502 24.3974 34.6567 23.7555 35.0833 22.9694C35.5098 22.1834 35.8697 21.3319 36.163 20.4148C36.4829 19.4978 36.7362 18.5939 36.9228 17.7031C36.123 17.9651 35.2033 18.2271 34.1636 18.4891C33.1505 18.7249 32.2174 18.7904 31.3643 18.6856C31.0977 19.393 30.8578 20.1921 30.6445 21.083C30.4579 21.9738 30.3646 22.7991 30.3646 23.559C30.3646 23.9782 30.4313 24.4236 30.5646 24.8952C30.7245 25.3668 31.0711 25.6026 31.6043 25.6026Z" stroke="white" stroke-width="2" mask="url(#path-1-outside-1_1293_1062)"/>
<path d="M42.3088 26.9782C42.0955 26.9782 41.9889 26.8996 41.9889 26.7424L42.5087 25.2489C42.642 24.9083 42.722 24.5808 42.7486 24.2664C42.802 23.9258 42.8819 23.5852 42.9886 23.2445C43.1485 22.5633 43.3218 21.8821 43.5084 21.2009C43.6951 20.5197 43.895 19.8515 44.1083 19.1965C44.1882 18.9607 44.2949 18.6201 44.4282 18.1747C44.5615 17.7293 44.6814 17.2838 44.7881 16.8384C44.9214 16.3668 44.988 16.0131 44.988 15.7773C44.988 15.6463 44.8947 15.5939 44.7081 15.6201C44.5481 15.6463 44.4548 15.6201 44.4282 15.5415C44.6148 15.0699 44.7747 14.5852 44.908 14.0873C45.0413 13.5895 45.2013 13.1048 45.3879 12.6332C45.4679 12.4236 45.6812 12.2271 46.0277 12.0437C46.3743 11.8341 46.6542 11.7293 46.8675 11.7293C47.2407 11.7293 47.4273 11.9651 47.4273 12.4367C47.4273 12.8559 47.3207 13.4978 47.1074 14.3624C46.8942 15.2271 46.6142 16.1703 46.2677 17.1921C45.9478 18.214 45.6278 19.2096 45.3079 20.179C45.0147 21.1223 44.7614 21.8952 44.5481 22.4978C45.4012 21.7118 46.2543 20.8472 47.1074 19.9039C47.9605 18.9607 48.7336 18.0175 49.4268 17.0742C50.1466 16.1048 50.7064 15.2271 51.1063 14.441C51.1063 14.1528 51.2929 13.9563 51.6662 13.8515C52.066 13.7467 52.3726 13.7205 52.5859 13.7729C52.6925 13.7205 52.7725 13.6943 52.8258 13.6943C53.0658 13.6943 53.2124 13.8777 53.2657 14.2445C53.3457 14.5852 53.3857 14.8341 53.3857 14.9913C53.3857 15.2795 53.3457 15.6856 53.2657 16.2096C53.2124 16.7074 53.0258 17.0349 52.7059 17.1921C52.6792 17.4017 52.6659 17.6245 52.6659 17.8603C52.6659 18.0699 52.6659 18.2795 52.6659 18.4891C52.6659 18.8035 52.6792 19.3275 52.7059 20.0611C52.7592 20.7686 52.8525 21.5153 52.9858 22.3013C53.1191 23.0873 53.3324 23.7686 53.6256 24.345C53.9189 24.8952 54.3187 25.1703 54.8253 25.1703C55.3051 25.1703 55.7184 25.0393 56.0649 24.7773C56.4382 24.5153 56.7581 24.214 57.0247 23.8734C57.2913 23.5328 57.5045 23.2314 57.6645 22.9694C57.8244 22.7074 57.9444 22.5764 58.0244 22.5764C58.1577 22.5764 58.2243 22.655 58.2243 22.8122C58.2243 23.179 58.0244 23.6245 57.6245 24.1485C57.2513 24.6725 56.9314 25.0655 56.6648 25.3275C56.3715 25.6419 56.0249 25.917 55.625 26.1528C55.2252 26.3886 54.7986 26.5065 54.3454 26.5065C53.5456 26.5065 52.9191 26.2314 52.4659 25.6812C52.0127 25.1048 51.6662 24.4105 51.4262 23.5983C51.2129 22.7598 51.0663 21.9214 50.9863 21.083C50.933 20.2183 50.9064 19.5109 50.9064 18.9607C50.9064 18.4629 50.9064 17.9782 50.9064 17.5066C50.933 17.0349 50.9597 16.5633 50.9863 16.0917C50.5598 16.8253 50.0666 17.5328 49.5068 18.214C48.9469 18.8952 48.4004 19.5633 47.8672 20.2183C47.0674 21.1092 46.281 22.0786 45.5079 23.1266C45.3746 23.31 45.2413 23.5328 45.108 23.7948C45.0014 24.0306 44.8547 24.2402 44.6681 24.4236L44.5881 24.5022C44.4015 25 44.2816 25.3799 44.2282 25.6419C44.1749 25.9039 43.9083 26.1921 43.4285 26.5065C43.2685 26.6114 43.0952 26.7162 42.9086 26.821C42.722 26.9258 42.522 26.9782 42.3088 26.9782Z" stroke="white" stroke-width="2" mask="url(#path-1-outside-1_1293_1062)"/>
<path d="M59.9679 26.9782C59.7546 26.9782 59.648 26.8996 59.648 26.7424L60.1678 25.2489C60.3011 24.9083 60.3811 24.5808 60.4078 24.2664C60.4611 23.9258 60.5411 23.5852 60.6477 23.2445C60.8077 22.5633 60.981 21.8821 61.1676 21.2009C61.3542 20.5197 61.5541 19.8515 61.7674 19.1965C61.8474 18.9607 61.954 18.6201 62.0873 18.1747C62.2206 17.7293 62.3406 17.2838 62.4472 16.8384C62.5805 16.3668 62.6471 16.0131 62.6471 15.7773C62.6471 15.6463 62.5538 15.5939 62.3672 15.6201C62.2073 15.6463 62.114 15.6201 62.0873 15.5415C62.2739 15.0699 62.4339 14.5852 62.5672 14.0873C62.7005 13.5895 62.8604 13.1048 63.047 12.6332C63.127 12.4236 63.3403 12.2271 63.6869 12.0437C64.0334 11.8341 64.3134 11.7293 64.5266 11.7293C64.8999 11.7293 65.0865 11.9651 65.0865 12.4367C65.0865 12.8559 64.9798 13.4978 64.7666 14.3624C64.5533 15.2271 64.2734 16.1703 63.9268 17.1921C63.6069 18.214 63.287 19.2096 62.9671 20.179C62.6738 21.1223 62.4205 21.8952 62.2073 22.4978C63.0604 21.7118 63.9135 20.8472 64.7666 19.9039C65.6197 18.9607 66.3928 18.0175 67.0859 17.0742C67.8057 16.1048 68.3656 15.2271 68.7654 14.441C68.7654 14.1528 68.9521 13.9563 69.3253 13.8515C69.7252 13.7467 70.0318 13.7205 70.245 13.7729C70.3517 13.7205 70.4316 13.6943 70.485 13.6943C70.7249 13.6943 70.8715 13.8777 70.9248 14.2445C71.0048 14.5852 71.0448 14.8341 71.0448 14.9913C71.0448 15.2795 71.0048 15.6856 70.9248 16.2096C70.8715 16.7074 70.6849 17.0349 70.365 17.1921C70.3383 17.4017 70.325 17.6245 70.325 17.8603C70.325 18.0699 70.325 18.2795 70.325 18.4891C70.325 18.8035 70.3383 19.3275 70.365 20.0611C70.4183 20.7686 70.5116 21.5153 70.6449 22.3013C70.7782 23.0873 70.9915 23.7686 71.2847 24.345C71.578 24.8952 71.9779 25.1703 72.4844 25.1703C72.9643 25.1703 73.3775 25.0393 73.7241 24.7773C74.0973 24.5153 74.4172 24.214 74.6838 23.8734C74.9504 23.5328 75.1637 23.2314 75.3236 22.9694C75.4836 22.7074 75.6035 22.5764 75.6835 22.5764C75.8168 22.5764 75.8834 22.655 75.8834 22.8122C75.8834 23.179 75.6835 23.6245 75.2836 24.1485C74.9104 24.6725 74.5905 25.0655 74.3239 25.3275C74.0306 25.6419 73.6841 25.917 73.2842 26.1528C72.8843 26.3886 72.4577 26.5065 72.0045 26.5065C71.2048 26.5065 70.5783 26.2314 70.1251 25.6812C69.6719 25.1048 69.3253 24.4105 69.0854 23.5983C68.8721 22.7598 68.7255 21.9214 68.6455 21.083C68.5922 20.2183 68.5655 19.5109 68.5655 18.9607C68.5655 18.4629 68.5655 17.9782 68.5655 17.5066C68.5922 17.0349 68.6188 16.5633 68.6455 16.0917C68.2189 16.8253 67.7257 17.5328 67.1659 18.214C66.606 18.8952 66.0595 19.5633 65.5263 20.2183C64.7266 21.1092 63.9401 22.0786 63.167 23.1266C63.0337 23.31 62.9004 23.5328 62.7671 23.7948C62.6605 24.0306 62.5139 24.2402 62.3272 24.4236L62.2473 24.5022C62.0606 25 61.9407 25.3799 61.8874 25.6419C61.834 25.9039 61.5675 26.1921 61.0876 26.5065C60.9276 26.6114 60.7543 26.7162 60.5677 26.821C60.3811 26.9258 60.1812 26.9782 59.9679 26.9782Z" stroke="white" stroke-width="2" mask="url(#path-1-outside-1_1293_1062)"/>
<path d="M86.6645 17.5852C86.5312 17.5852 86.4646 17.5197 86.4646 17.3886C86.4646 17.31 86.4779 17.2445 86.5045 17.1921C86.6645 16.7729 86.7845 16.3799 86.8644 16.0131C86.9711 15.6201 87.0244 15.214 87.0244 14.7948C87.0244 14.6376 87.0111 14.4279 86.9844 14.1659C86.9844 13.8777 86.9311 13.6157 86.8245 13.3799C86.7445 13.1441 86.5845 13.0262 86.3446 13.0262C86.238 13.0262 86.1446 13.0393 86.0647 13.0655C85.9847 13.0655 85.8914 13.0655 85.7847 13.0655C85.5182 13.0655 85.3849 12.9607 85.3849 12.7511C85.3849 12.6463 85.5048 12.5546 85.7448 12.476C86.0113 12.3974 86.2913 12.3319 86.5845 12.2795C86.8778 12.2271 87.0777 12.2009 87.1844 12.2009C87.8508 12.2009 88.2641 12.4498 88.424 12.9476C88.6106 13.4192 88.7039 13.917 88.7039 14.441C88.7039 14.9389 88.6106 15.4629 88.424 16.0131C88.2641 16.5633 87.9575 16.9825 87.5043 17.2707C87.3976 17.3493 87.2643 17.4279 87.1044 17.5066C86.9444 17.559 86.7978 17.5852 86.6645 17.5852ZM80.7062 26.5459C79.933 26.5459 79.3865 26.3624 79.0666 25.9956C78.7734 25.6288 78.6267 25.0917 78.6267 24.3843C78.6267 23.5983 78.7201 22.8122 78.9067 22.0262C79.0933 21.2402 79.3199 20.4803 79.5865 19.7467L79.2266 19.8646C79.0933 19.786 79.0266 19.655 79.0266 19.4716C79.0266 19.2358 79.1333 19.0131 79.3465 18.8035C79.5865 18.5677 79.8264 18.4367 80.0663 18.4105C80.2263 18.0175 80.4529 17.5066 80.7462 16.8777C81.0394 16.2489 81.3726 15.6201 81.7459 14.9913C82.1458 14.3624 82.5856 13.8384 83.0655 13.4192C83.5454 13 84.0652 12.7904 84.6251 12.7904C84.865 12.7904 84.985 12.8952 84.985 13.1048C84.985 13.1834 84.9317 13.2882 84.825 13.4192C84.7184 13.524 84.6384 13.6026 84.5851 13.655C84.2385 13.9694 83.9053 14.4148 83.5854 14.9913C83.2655 15.5415 82.9722 16.1179 82.7056 16.7205C82.439 17.2969 82.2124 17.8079 82.0258 18.2533C82.7723 18.1485 83.5054 18.0699 84.2252 18.0175C84.9716 17.9651 85.7181 17.9389 86.4646 17.9389C86.5445 17.9389 86.7445 17.952 87.0644 17.9782C87.3843 17.9782 87.7442 18.0044 88.1441 18.0568C88.544 18.083 88.8772 18.1354 89.1438 18.214C89.4371 18.2926 89.5837 18.3974 89.5837 18.5284C89.5837 18.6332 89.517 18.6987 89.3837 18.7249C89.2771 18.7511 89.1971 18.7642 89.1438 18.7642C88.7972 18.7642 88.464 18.738 88.1441 18.6856C87.8242 18.6332 87.4909 18.607 87.1444 18.607C86.238 18.607 85.3182 18.6725 84.3851 18.8035C83.4521 18.9345 82.5323 19.0917 81.6259 19.2751C81.3593 19.9563 81.0927 20.7293 80.8261 21.5939C80.5862 22.4585 80.4662 23.2707 80.4662 24.0306C80.4662 24.4498 80.5462 24.8559 80.7062 25.2489C80.8661 25.6157 81.1994 25.7991 81.7059 25.7991C82.4257 25.7991 83.1055 25.524 83.7453 24.9738C84.4118 24.3974 85.025 23.7555 85.5848 23.048C86.1447 22.3144 86.6112 21.7118 86.9844 21.2402H87.0244C87.131 21.2402 87.1844 21.2926 87.1844 21.3974C87.211 21.5022 87.2243 21.5808 87.2243 21.6332C87.2243 22.0786 87.1177 22.4978 86.9044 22.8908C86.6912 23.2576 86.4246 23.5983 86.1047 23.9127C85.3849 24.5677 84.5584 25.1703 83.6253 25.7205C82.7189 26.2707 81.7459 26.5459 80.7062 26.5459Z" stroke="white" stroke-width="2" mask="url(#path-1-outside-1_1293_1062)"/>
<path d="M94.6395 26.5459C93.893 26.5459 93.3598 26.3624 93.0399 25.9956C92.72 25.6288 92.56 25.0917 92.56 24.3843C92.56 24.2009 92.56 24.0306 92.56 23.8734C92.5867 23.69 92.6134 23.5066 92.64 23.3231C92.6933 22.8777 92.8 22.2751 92.9599 21.5153C93.1465 20.7555 93.3732 19.9432 93.6397 19.0786C93.933 18.1878 94.2529 17.3362 94.5995 16.524C94.9727 15.6856 95.3726 14.9913 95.7991 14.441C96.2523 13.8646 96.7322 13.5109 97.2387 13.3799C97.8786 13.2227 98.5184 12.9869 99.1582 12.6725C99.798 12.3581 100.451 12.2009 101.118 12.2009C101.757 12.2009 102.157 12.4105 102.317 12.8297C102.477 13.2489 102.557 13.7205 102.557 14.2445C102.557 14.8472 102.317 15.2795 101.837 15.5415C101.731 15.6201 101.598 15.6987 101.438 15.7773C101.304 15.8297 101.158 15.8559 100.998 15.8559C100.811 15.8559 100.718 15.7773 100.718 15.6201C100.718 15.4629 100.744 15.3057 100.798 15.1485C100.851 14.9913 100.878 14.821 100.878 14.6376C100.878 14.3493 100.811 14.0087 100.678 13.6157C100.571 13.1965 100.318 12.9869 99.918 12.9869C99.6247 12.9869 99.3048 13.1179 98.9583 13.3799C98.6117 13.6157 98.3318 13.8253 98.1185 14.0087C97.7186 14.3493 97.2921 14.9651 96.8388 15.8559C96.4123 16.7205 96.0124 17.6769 95.6392 18.7249C95.266 19.7729 94.9594 20.7817 94.7194 21.7511C94.5062 22.7205 94.3995 23.4804 94.3995 24.0306C94.3995 24.4498 94.4795 24.8559 94.6395 25.2489C94.7994 25.6157 95.1327 25.7991 95.6392 25.7991C96.359 25.7991 97.0388 25.524 97.6786 24.9738C98.3451 24.3974 98.9583 23.7555 99.5181 23.048C100.078 22.3144 100.544 21.7118 100.918 21.2402H100.958C101.064 21.2402 101.118 21.2926 101.118 21.3974C101.144 21.5022 101.158 21.5808 101.158 21.6332C101.158 22.0786 101.051 22.4978 100.838 22.8908C100.624 23.2838 100.358 23.6245 100.038 23.9127C99.3182 24.5677 98.4917 25.1703 97.5587 25.7205C96.6522 26.2707 95.6792 26.5459 94.6395 26.5459Z" stroke="white" stroke-width="2" mask="url(#path-1-outside-1_1293_1062)"/>
<path d="M106.545 26.2314C106.332 26.2314 106.118 26.1659 105.905 26.0349C105.718 25.9039 105.625 25.7074 105.625 25.4454C105.625 25.2358 105.665 25.0131 105.745 24.7773C105.825 24.5153 105.878 24.2926 105.905 24.1092C106.358 22.3799 106.838 20.6638 107.345 18.9607C107.878 17.2314 108.398 15.5153 108.904 13.8122H107.785C107.705 13.8122 107.625 13.8253 107.545 13.8515C107.465 13.8515 107.385 13.8515 107.305 13.8515H107.145C107.118 13.8515 107.105 13.8646 107.105 13.8908C106.945 13.8122 106.865 13.6943 106.865 13.5371C106.865 13.4061 106.891 13.3013 106.945 13.2227C107.025 13.1441 107.105 13.0786 107.185 13.0262C107.318 12.8952 107.478 12.8166 107.665 12.7904C107.878 12.7642 108.078 12.7511 108.264 12.7511C108.424 12.7511 108.584 12.7642 108.744 12.7904C108.931 12.7904 109.104 12.7904 109.264 12.7904C109.344 12.5546 109.451 12.2271 109.584 11.8079C109.717 11.3624 109.837 10.917 109.944 10.4716C110.051 10.0262 110.104 9.69869 110.104 9.48908C110.104 9.35808 110.011 9.30568 109.824 9.33188C109.664 9.35808 109.571 9.33188 109.544 9.25328C109.731 8.78166 109.891 8.31004 110.024 7.83843C110.184 7.34061 110.33 6.84279 110.464 6.34498C110.517 6.10917 110.717 5.91266 111.064 5.75546C111.41 5.57205 111.703 5.48035 111.943 5.48035C112.183 5.48035 112.343 5.55895 112.423 5.71616C112.503 5.84716 112.543 6.01747 112.543 6.22707C112.543 6.51528 112.463 6.9607 112.303 7.56332C112.143 8.16594 111.957 8.82096 111.743 9.52838C111.53 10.2096 111.317 10.8515 111.104 11.4541C110.917 12.0568 110.77 12.5022 110.664 12.7904H115.142C115.169 12.7904 115.222 12.8297 115.302 12.9083C115.302 13.0131 115.116 13.1048 114.743 13.1834C114.396 13.2358 114.196 13.262 114.143 13.262C113.53 13.3668 112.903 13.4585 112.263 13.5371C111.623 13.5895 110.984 13.6419 110.344 13.6943C110.184 14.1921 109.944 14.8996 109.624 15.8166C109.331 16.7336 109.011 17.7162 108.664 18.7642C108.344 19.8122 108.064 20.7948 107.825 21.7118C107.585 22.6026 107.465 23.2707 107.465 23.7162C107.465 23.952 107.505 24.2009 107.585 24.4629C107.691 24.6987 107.891 24.8166 108.184 24.8166C108.584 24.8166 108.998 24.6725 109.424 24.3843C109.877 24.0961 110.304 23.7686 110.704 23.4017C111.13 23.0349 111.49 22.7074 111.783 22.4192C112.077 22.131 112.277 21.9869 112.383 21.9869C112.517 21.9869 112.583 22.0786 112.583 22.262C112.583 22.3144 112.57 22.4323 112.543 22.6157C112.543 22.7991 112.477 22.8908 112.343 22.8908C112.077 23.1528 111.69 23.4803 111.184 23.8734C110.704 24.2402 110.171 24.607 109.584 24.9738C109.024 25.3144 108.464 25.6157 107.905 25.8777C107.371 26.1135 106.918 26.2314 106.545 26.2314Z" stroke="white" stroke-width="2" mask="url(#path-1-outside-1_1293_1062)"/>
<path d="M131.22 28C130.846 28 130.646 27.7773 130.62 27.3319C130.593 26.8865 130.553 26.4148 130.5 25.917C130.393 24.1878 130.233 22.3275 130.02 20.3362C129.833 18.3188 129.607 16.3013 129.34 14.2838C129.073 12.2402 128.794 10.3144 128.5 8.50655C128.207 6.67249 127.9 5.07424 127.581 3.71179C127.447 3.26638 127.274 3.09607 127.061 3.20087H126.981C126.874 3.20087 126.781 3.14847 126.701 3.04367C126.647 2.93886 126.674 2.84716 126.781 2.76856C127.234 2.53275 127.581 2.33624 127.821 2.17904C128.087 1.99563 128.314 1.89083 128.5 1.86463C128.58 1.83843 128.674 1.82533 128.78 1.82533C129.047 1.82533 129.22 1.93013 129.3 2.13974C129.407 2.34934 129.513 2.71616 129.62 3.24017C130.02 5.28384 130.38 7.53712 130.7 10C131.046 12.4367 131.353 14.8865 131.619 17.3493C131.886 19.8122 132.099 22.0917 132.259 24.1878C134.125 21.3319 135.832 18.5677 137.378 15.8952C138.924 13.2227 140.31 10.4716 141.537 7.64192C141.803 7.0393 141.937 6.62009 141.937 6.38428C141.937 6.12227 141.857 5.96507 141.697 5.91266C141.563 5.83406 141.497 5.67686 141.497 5.44105C141.497 5.25764 141.577 5.02183 141.737 4.73362C141.923 4.44541 142.137 4.18341 142.376 3.9476C142.616 3.71179 142.83 3.59389 143.016 3.59389C143.15 3.59389 143.256 3.64629 143.336 3.75109C143.416 3.82969 143.469 3.9214 143.496 4.0262C144.856 7.32751 146.042 10.7205 147.055 14.2052C148.068 17.69 148.828 21.0699 149.334 24.345C149.361 24.4498 149.401 24.5022 149.454 24.5022C149.561 24.5022 149.694 24.2795 149.854 23.8341C150.468 22.3668 151.147 20.7686 151.894 19.0393C152.667 17.31 153.453 15.5808 154.253 13.8515C155.053 12.1223 155.826 10.4847 156.572 8.93886C157.319 7.36681 157.999 6.00437 158.612 4.85153C159.225 3.67249 159.718 2.79476 160.091 2.21834C160.438 1.72052 160.691 1.47161 160.851 1.47161C161.065 1.47161 161.185 1.57642 161.211 1.78603C161.264 1.96943 161.291 2.11354 161.291 2.21834C161.291 2.48035 161.238 2.74236 161.131 3.00437C161.051 3.24017 160.931 3.48908 160.771 3.75109C160.451 4.30131 160.012 5.11354 159.452 6.18777C158.892 7.23581 158.265 8.45415 157.572 9.84279C156.879 11.2052 156.173 12.6332 155.453 14.1266C154.733 15.6201 154.027 17.1004 153.333 18.5677C152.667 20.0087 152.054 21.3581 151.494 22.6157C150.961 23.8472 150.534 24.8821 150.214 25.7205C150.081 26.0873 149.854 26.4673 149.534 26.8603C149.215 27.2533 148.828 27.4498 148.375 27.4498C147.948 27.4498 147.708 27.2402 147.655 26.821C147.602 26.4279 147.575 26.0873 147.575 25.7991C147.575 25.4061 147.495 24.7642 147.335 23.8734C147.175 22.9825 146.962 21.9476 146.695 20.7686C146.429 19.5633 146.122 18.3057 145.775 16.9956C145.456 15.6856 145.109 14.4279 144.736 13.2227C144.389 12.0175 144.043 10.9563 143.696 10.0393C143.376 9.12227 143.07 8.45415 142.776 8.03493C141.657 10.1834 140.604 12.2009 139.617 14.0873C138.631 15.9476 137.631 17.7817 136.618 19.5895C135.605 21.3712 134.499 23.2445 133.299 25.2096C132.899 25.8646 132.632 26.3886 132.499 26.7817C132.366 27.2009 132.219 27.5022 132.059 27.6856C131.926 27.8952 131.646 28 131.22 28Z" stroke="white" stroke-width="2" mask="url(#path-1-outside-1_1293_1062)"/>
<path d="M170.239 26.5459C169.493 26.5459 168.933 26.2838 168.559 25.7598C168.186 25.2358 167.933 24.6332 167.8 23.952C167.693 23.2445 167.64 22.6157 167.64 22.0655C167.64 21.5153 167.666 20.9782 167.72 20.4541C167.8 19.9039 167.88 19.3668 167.96 18.8428C167.693 19.1834 167.32 19.6681 166.84 20.2969C166.36 20.8996 165.814 21.5677 165.2 22.3013C164.587 23.0087 163.961 23.69 163.321 24.345C162.681 24.9738 162.055 25.4978 161.441 25.917C160.855 26.31 160.348 26.5065 159.922 26.5065C159.549 26.5065 159.309 26.3362 159.202 25.9956C159.122 25.655 159.082 25.3537 159.082 25.0917C159.082 23.9127 159.322 22.6681 159.802 21.3581C160.282 20.048 160.775 18.869 161.281 17.821C161.415 17.5328 161.615 17.1397 161.881 16.6419C162.148 16.1441 162.454 15.6332 162.801 15.1092C163.174 14.5852 163.561 14.1528 163.961 13.8122C164.361 13.4716 164.761 13.3275 165.16 13.3799C165.454 13.1965 165.734 13.0393 166 12.9083C166.293 12.7511 166.613 12.6725 166.96 12.6725C167.173 12.6725 167.52 12.738 168 12.869C168.506 13 168.866 13.0917 169.079 13.1441C169.186 12.9345 169.346 12.7773 169.559 12.6725C169.772 12.5677 169.986 12.5153 170.199 12.5153C170.412 12.5153 170.559 12.5284 170.639 12.5546C170.745 12.5022 170.825 12.476 170.879 12.476C171.039 12.476 171.145 12.5939 171.199 12.8297C171.252 13.0393 171.279 13.2096 171.279 13.3406C171.279 13.6812 171.239 13.9825 171.159 14.2445C171.079 14.5066 170.972 14.7948 170.839 15.1092C170.732 15.3712 170.639 15.6201 170.559 15.8559C170.506 16.0655 170.359 16.262 170.119 16.4454C169.932 17.3886 169.786 18.345 169.679 19.3144C169.599 20.2576 169.559 21.214 169.559 22.1834C169.559 22.524 169.572 22.9301 169.599 23.4017C169.652 23.8734 169.772 24.2926 169.959 24.6594C170.172 25.0262 170.492 25.2096 170.919 25.2096C171.585 25.2096 172.172 24.9738 172.678 24.5022C173.211 24.0044 173.651 23.5328 173.998 23.0873C174.051 23.0087 174.118 22.9301 174.198 22.8515C174.278 22.7467 174.371 22.6681 174.478 22.6157L174.598 22.8515C174.598 23.1135 174.464 23.4279 174.198 23.7948C173.931 24.1616 173.638 24.5153 173.318 24.8559C172.998 25.1703 172.732 25.4061 172.518 25.5633C172.198 25.8253 171.839 26.0611 171.439 26.2707C171.065 26.4541 170.666 26.5459 170.239 26.5459ZM161.281 24.8952C161.441 24.8952 161.615 24.8297 161.801 24.6987C161.988 24.5677 162.135 24.4498 162.241 24.345C163.494 23.2707 164.601 22.0655 165.56 20.7293C166.547 19.393 167.4 18.0044 168.12 16.5633C168.2 16.4323 168.28 16.2882 168.359 16.131C168.439 15.9738 168.493 15.8166 168.519 15.6594C168.573 15.4498 168.626 15.2271 168.679 14.9913C168.733 14.7293 168.773 14.4935 168.799 14.2838C168.773 14.1528 168.626 14.0349 168.359 13.9301C168.093 13.8253 167.8 13.7467 167.48 13.6943C167.186 13.6157 166.973 13.5764 166.84 13.5764C166.333 13.5764 165.88 13.786 165.48 14.2052C165.107 14.5983 164.787 14.9782 164.521 15.345C164.201 15.8166 163.827 16.4323 163.401 17.1921C163.001 17.952 162.601 18.7642 162.201 19.6288C161.828 20.4672 161.508 21.2795 161.241 22.0655C161.002 22.8515 160.882 23.5197 160.882 24.0699C160.882 24.2009 160.895 24.3712 160.922 24.5808C160.975 24.7904 161.095 24.8952 161.281 24.8952Z" stroke="white" stroke-width="2" mask="url(#path-1-outside-1_1293_1062)"/>
<path d="M176.768 26.2314C176.528 26.2314 176.315 26.1659 176.129 26.0349C175.969 25.9039 175.889 25.7074 175.889 25.4454C175.889 25.0786 175.915 24.6201 175.969 24.0699C176.022 23.5197 176.075 23.048 176.129 22.655C176.342 21.3974 176.582 20.1397 176.848 18.8821C177.142 17.5983 177.462 16.3406 177.808 15.1092C178.128 13.9039 178.501 12.6332 178.928 11.2969C179.354 9.9345 179.874 8.61135 180.487 7.32751C181.101 6.04367 181.847 4.89083 182.727 3.86899C183.633 2.82096 184.713 2.02183 185.966 1.47161C186.286 1.34061 186.619 1.23581 186.966 1.1572C187.312 1.0524 187.659 1 188.005 1C188.325 1 188.698 1.0655 189.125 1.19651C189.578 1.32751 189.965 1.52402 190.285 1.78603C190.605 2.02183 190.764 2.33624 190.764 2.72926C190.764 2.88646 190.724 3.00437 190.645 3.08297C190.591 3.16157 190.378 3.33188 190.005 3.59389C189.658 3.82969 189.458 3.9607 189.405 3.9869C189.352 3.9345 189.325 3.8952 189.325 3.86899C189.325 3.79039 189.365 3.71179 189.445 3.63319C189.525 3.55458 189.565 3.46288 189.565 3.35808C189.565 3.09607 189.418 2.86026 189.125 2.65065C188.832 2.41485 188.498 2.23144 188.125 2.10044C187.752 1.94323 187.445 1.86463 187.205 1.86463C186.326 1.86463 185.513 2.23144 184.766 2.96506C184.046 3.69869 183.393 4.64192 182.807 5.79476C182.22 6.9214 181.7 8.12664 181.247 9.41048C180.794 10.6681 180.407 11.8603 180.087 12.9869C179.768 14.1135 179.514 15.0175 179.328 15.6987C179.114 16.4585 178.888 17.31 178.648 18.2533C178.408 19.1965 178.195 20.1528 178.008 21.1223C177.848 22.0655 177.768 22.9432 177.768 23.7555C177.768 23.9913 177.808 24.2402 177.888 24.5022C177.995 24.738 178.195 24.8559 178.488 24.8559C178.888 24.8559 179.301 24.7249 179.728 24.4629C180.181 24.2009 180.607 23.8996 181.007 23.559C181.434 23.1921 181.794 22.8777 182.087 22.6157C182.407 22.3537 182.62 22.2227 182.727 22.2227C182.78 22.2227 182.807 22.2489 182.807 22.3013C182.807 22.4847 182.753 22.6681 182.647 22.8515C182.54 23.0349 182.42 23.1921 182.287 23.3231C181.94 23.6638 181.447 24.0699 180.807 24.5415C180.167 24.9869 179.488 25.3799 178.768 25.7205C178.048 26.0611 177.382 26.2314 176.768 26.2314Z" stroke="white" stroke-width="2" mask="url(#path-1-outside-1_1293_1062)"/>
<path d="M185.719 26.2314C185.479 26.2314 185.266 26.1659 185.079 26.0349C184.919 25.9039 184.839 25.7074 184.839 25.4454C184.839 25.0786 184.866 24.6201 184.919 24.0699C184.973 23.5197 185.026 23.048 185.079 22.655C185.292 21.3974 185.532 20.1397 185.799 18.8821C186.092 17.5983 186.412 16.3406 186.759 15.1092C187.079 13.9039 187.452 12.6332 187.878 11.2969C188.305 9.9345 188.825 8.61135 189.438 7.32751C190.051 6.04367 190.798 4.89083 191.677 3.86899C192.584 2.82096 193.663 2.02183 194.916 1.47161C195.236 1.34061 195.57 1.23581 195.916 1.1572C196.263 1.0524 196.609 1 196.956 1C197.276 1 197.649 1.0655 198.076 1.19651C198.529 1.32751 198.915 1.52402 199.235 1.78603C199.555 2.02183 199.715 2.33624 199.715 2.72926C199.715 2.88646 199.675 3.00437 199.595 3.08297C199.542 3.16157 199.329 3.33188 198.955 3.59389C198.609 3.82969 198.409 3.9607 198.355 3.9869C198.302 3.9345 198.276 3.8952 198.276 3.86899C198.276 3.79039 198.315 3.71179 198.395 3.63319C198.475 3.55458 198.515 3.46288 198.515 3.35808C198.515 3.09607 198.369 2.86026 198.076 2.65065C197.782 2.41485 197.449 2.23144 197.076 2.10044C196.703 1.94323 196.396 1.86463 196.156 1.86463C195.276 1.86463 194.463 2.23144 193.717 2.96506C192.997 3.69869 192.344 4.64192 191.757 5.79476C191.171 6.9214 190.651 8.12664 190.198 9.41048C189.745 10.6681 189.358 11.8603 189.038 12.9869C188.718 14.1135 188.465 15.0175 188.278 15.6987C188.065 16.4585 187.838 17.31 187.598 18.2533C187.359 19.1965 187.145 20.1528 186.959 21.1223C186.799 22.0655 186.719 22.9432 186.719 23.7555C186.719 23.9913 186.759 24.2402 186.839 24.5022C186.945 24.738 187.145 24.8559 187.439 24.8559C187.838 24.8559 188.252 24.7249 188.678 24.4629C189.131 24.2009 189.558 23.8996 189.958 23.559C190.384 23.1921 190.744 22.8777 191.038 22.6157C191.357 22.3537 191.571 22.2227 191.677 22.2227C191.731 22.2227 191.757 22.2489 191.757 22.3013C191.757 22.4847 191.704 22.6681 191.597 22.8515C191.491 23.0349 191.371 23.1921 191.237 23.3231C190.891 23.6638 190.398 24.0699 189.758 24.5415C189.118 24.9869 188.438 25.3799 187.718 25.7205C186.999 26.0611 186.332 26.2314 185.719 26.2314Z" stroke="white" stroke-width="2" mask="url(#path-1-outside-1_1293_1062)"/>
<path d="M202.827 17.5852C202.694 17.5852 202.627 17.5197 202.627 17.3886C202.627 17.31 202.641 17.2445 202.667 17.1921C202.827 16.7729 202.947 16.3799 203.027 16.0131C203.134 15.6201 203.187 15.214 203.187 14.7948C203.187 14.6376 203.174 14.4279 203.147 14.1659C203.147 13.8777 203.094 13.6157 202.987 13.3799C202.907 13.1441 202.747 13.0262 202.507 13.0262C202.401 13.0262 202.308 13.0393 202.228 13.0655C202.148 13.0655 202.054 13.0655 201.948 13.0655C201.681 13.0655 201.548 12.9607 201.548 12.7511C201.548 12.6463 201.668 12.5546 201.908 12.476C202.174 12.3974 202.454 12.3319 202.747 12.2795C203.041 12.2271 203.241 12.2009 203.347 12.2009C204.014 12.2009 204.427 12.4498 204.587 12.9476C204.773 13.4192 204.867 13.917 204.867 14.441C204.867 14.9389 204.773 15.4629 204.587 16.0131C204.427 16.5633 204.12 16.9825 203.667 17.2707C203.56 17.3493 203.427 17.4279 203.267 17.5066C203.107 17.559 202.961 17.5852 202.827 17.5852ZM196.869 26.5459C196.096 26.5459 195.549 26.3624 195.229 25.9956C194.936 25.6288 194.79 25.0917 194.79 24.3843C194.79 23.5983 194.883 22.8122 195.07 22.0262C195.256 21.2402 195.483 20.4803 195.749 19.7467L195.389 19.8646C195.256 19.786 195.189 19.655 195.189 19.4716C195.189 19.2358 195.296 19.0131 195.509 18.8035C195.749 18.5677 195.989 18.4367 196.229 18.4105C196.389 18.0175 196.616 17.5066 196.909 16.8777C197.202 16.2489 197.536 15.6201 197.909 14.9913C198.309 14.3624 198.749 13.8384 199.228 13.4192C199.708 13 200.228 12.7904 200.788 12.7904C201.028 12.7904 201.148 12.8952 201.148 13.1048C201.148 13.1834 201.095 13.2882 200.988 13.4192C200.881 13.524 200.801 13.6026 200.748 13.655C200.401 13.9694 200.068 14.4148 199.748 14.9913C199.428 15.5415 199.135 16.1179 198.868 16.7205C198.602 17.2969 198.375 17.8079 198.189 18.2533C198.935 18.1485 199.668 18.0699 200.388 18.0175C201.135 17.9651 201.881 17.9389 202.627 17.9389C202.707 17.9389 202.907 17.952 203.227 17.9782C203.547 17.9782 203.907 18.0044 204.307 18.0568C204.707 18.083 205.04 18.1354 205.307 18.214C205.6 18.2926 205.747 18.3974 205.747 18.5284C205.747 18.6332 205.68 18.6987 205.547 18.7249C205.44 18.7511 205.36 18.7642 205.307 18.7642C204.96 18.7642 204.627 18.738 204.307 18.6856C203.987 18.6332 203.654 18.607 203.307 18.607C202.401 18.607 201.481 18.6725 200.548 18.8035C199.615 18.9345 198.695 19.0917 197.789 19.2751C197.522 19.9563 197.256 20.7293 196.989 21.5939C196.749 22.4585 196.629 23.2707 196.629 24.0306C196.629 24.4498 196.709 24.8559 196.869 25.2489C197.029 25.6157 197.362 25.7991 197.869 25.7991C198.589 25.7991 199.268 25.524 199.908 24.9738C200.575 24.3974 201.188 23.7555 201.748 23.048C202.308 22.3144 202.774 21.7118 203.147 21.2402H203.187C203.294 21.2402 203.347 21.2926 203.347 21.3974C203.374 21.5022 203.387 21.5808 203.387 21.6332C203.387 22.0786 203.281 22.4978 203.067 22.8908C202.854 23.2576 202.587 23.5983 202.268 23.9127C201.548 24.5677 200.721 25.1703 199.788 25.7205C198.882 26.2707 197.909 26.5459 196.869 26.5459Z" stroke="white" stroke-width="2" mask="url(#path-1-outside-1_1293_1062)"/>
<path d="M210.242 26.2314C210.029 26.2314 209.816 26.1659 209.603 26.0349C209.416 25.9039 209.323 25.7074 209.323 25.4454C209.323 25.2358 209.363 25.0131 209.443 24.7773C209.523 24.5153 209.576 24.2926 209.603 24.1092C210.056 22.3799 210.536 20.6638 211.042 18.9607C211.575 17.2314 212.095 15.5153 212.602 13.8122H211.482C211.402 13.8122 211.322 13.8253 211.242 13.8515C211.162 13.8515 211.082 13.8515 211.002 13.8515H210.842C210.816 13.8515 210.802 13.8646 210.802 13.8908C210.642 13.8122 210.562 13.6943 210.562 13.5371C210.562 13.4061 210.589 13.3013 210.642 13.2227C210.722 13.1441 210.802 13.0786 210.882 13.0262C211.016 12.8952 211.176 12.8166 211.362 12.7904C211.575 12.7642 211.775 12.7511 211.962 12.7511C212.122 12.7511 212.282 12.7642 212.442 12.7904C212.628 12.7904 212.802 12.7904 212.962 12.7904C213.042 12.5546 213.148 12.2271 213.282 11.8079C213.415 11.3624 213.535 10.917 213.642 10.4716C213.748 10.0262 213.801 9.69869 213.801 9.48908C213.801 9.35808 213.708 9.30568 213.522 9.33188C213.362 9.35808 213.268 9.33188 213.242 9.25328C213.428 8.78166 213.588 8.31004 213.721 7.83843C213.881 7.34061 214.028 6.84279 214.161 6.34498C214.215 6.10917 214.415 5.91266 214.761 5.75546C215.108 5.57205 215.401 5.48035 215.641 5.48035C215.881 5.48035 216.041 5.55895 216.121 5.71616C216.201 5.84716 216.241 6.01747 216.241 6.22707C216.241 6.51528 216.161 6.9607 216.001 7.56332C215.841 8.16594 215.654 8.82096 215.441 9.52838C215.228 10.2096 215.014 10.8515 214.801 11.4541C214.615 12.0568 214.468 12.5022 214.361 12.7904H218.84C218.867 12.7904 218.92 12.8297 219 12.9083C219 13.0131 218.813 13.1048 218.44 13.1834C218.094 13.2358 217.894 13.262 217.84 13.262C217.227 13.3668 216.601 13.4585 215.961 13.5371C215.321 13.5895 214.681 13.6419 214.041 13.6943C213.881 14.1921 213.642 14.8996 213.322 15.8166C213.028 16.7336 212.708 17.7162 212.362 18.7642C212.042 19.8122 211.762 20.7948 211.522 21.7118C211.282 22.6026 211.162 23.2707 211.162 23.7162C211.162 23.952 211.202 24.2009 211.282 24.4629C211.389 24.6987 211.589 24.8166 211.882 24.8166C212.282 24.8166 212.695 24.6725 213.122 24.3843C213.575 24.0961 214.001 23.7686 214.401 23.4017C214.828 23.0349 215.188 22.7074 215.481 22.4192C215.774 22.131 215.974 21.9869 216.081 21.9869C216.214 21.9869 216.281 22.0786 216.281 22.262C216.281 22.3144 216.267 22.4323 216.241 22.6157C216.241 22.7991 216.174 22.8908 216.041 22.8908C215.774 23.1528 215.388 23.4803 214.881 23.8734C214.401 24.2402 213.868 24.607 213.282 24.9738C212.722 25.3144 212.162 25.6157 211.602 25.8777C211.069 26.1135 210.616 26.2314 210.242 26.2314Z" stroke="white" stroke-width="2" mask="url(#path-1-outside-1_1293_1062)"/>
</g>
</svg>
