<svg width="16" height="16" viewBox="0 0 16 16" fill="none" xmlns="http://www.w3.org/2000/svg"><g clip-path="url(#a)" stroke="#fff"><path clip-rule="evenodd" d="m5.994 3.99 4.601-2.657 1.537 2.663-6.138-.006z" stroke-linecap="round" stroke-linejoin="round"/><path d="M1.333 4.667C1.333 4.298 1.631 4 2 4h12c.368 0 .666.298.666.667V14a.667.667 0 0 1-.666.667H2A.667.667 0 0 1 1.333 14V4.667z" stroke-linejoin="round"/><path d="M11.75 11h2.917V7.667H11.75c-.966 0-1.75.746-1.75 1.666 0 .92.784 1.667 1.75 1.667z" stroke-linejoin="round"/><path d="M14.667 5.5v8" stroke-linecap="round"/></g><defs><clipPath id="a"><path fill="#fff" d="M0 0h16v16H0z"/></clipPath></defs></svg>