<svg width="14" height="14" viewBox="0 0 14 14" fill="none" xmlns="http://www.w3.org/2000/svg">
<path d="M7 1.31226C3.86394 1.31226 1.3125 3.8637 1.3125 6.99976C1.3125 10.1358 3.86394 12.6873 7 12.6873C10.1361 12.6873 12.6875 10.1358 12.6875 6.99976C12.6875 3.8637 10.1361 1.31226 7 1.31226ZM9.95996 5.09362L6.28496 9.46862C6.24465 9.51664 6.19449 9.55543 6.13787 9.58237C6.08126 9.6093 6.01952 9.62376 5.95684 9.62475H5.94945C5.88813 9.62473 5.8275 9.61182 5.77149 9.58685C5.71548 9.56189 5.66534 9.52543 5.62434 9.47983L4.04934 7.72983C4.00934 7.68741 3.97822 7.63742 3.95782 7.58279C3.93742 7.52817 3.92814 7.47002 3.93053 7.41176C3.93292 7.35351 3.94693 7.29631 3.97174 7.24355C3.99655 7.19078 4.03166 7.14351 4.075 7.1045C4.11835 7.0655 4.16905 7.03555 4.22413 7.01642C4.27921 6.99729 4.33756 6.98937 4.39574 6.99311C4.45393 6.99685 4.51078 7.01219 4.56296 7.03822C4.61514 7.06425 4.66158 7.10044 4.69957 7.14468L5.93797 8.52061L9.29004 4.53089C9.36523 4.44396 9.47161 4.39011 9.58618 4.38098C9.70076 4.37185 9.81432 4.40817 9.90233 4.4821C9.99034 4.55602 10.0457 4.66162 10.0565 4.77605C10.0673 4.89048 10.0326 5.00456 9.95996 5.09362V5.09362Z" fill="#01B574"/>
</svg>
