<svg width="208" height="208" viewBox="0 0 208 208" fill="none" xmlns="http://www.w3.org/2000/svg">
<g id="Frame" opacity="0.48">
<g id="Group">
<g id="Group_2">
<path id="Ellipse 46" fill-rule="evenodd" clip-rule="evenodd" d="M107.281 9.81573C55.9124 9.81573 14.2656 51.4625 14.2656 102.831C14.2656 154.2 55.9124 195.847 107.281 195.847C158.65 195.847 200.297 154.2 200.297 102.831C200.297 51.4625 158.65 9.81573 107.281 9.81573Z" fill="url(#paint0_linear_21_444)"/>
<path id="Ellipse 48" d="M188.56 49.5461C186.518 49.5461 184.863 51.2014 184.863 53.2433C184.863 55.2853 186.518 56.9406 188.56 56.9406C190.602 56.9406 192.257 55.2853 192.257 53.2433C192.257 51.2014 190.602 49.5461 188.56 49.5461ZM188.56 45.8068C192.667 45.8068 195.997 49.1363 195.997 53.2433C195.997 57.3505 192.667 60.6799 188.56 60.6799C184.453 60.6799 181.124 57.3505 181.124 53.2433C181.124 49.1363 184.453 45.8068 188.56 45.8068Z" fill="#8BB2FF"/>
<path id="Ellipse 52" d="M109.609 181.357C108.189 181.357 107.038 182.508 107.038 183.928C107.038 185.348 108.189 186.499 109.609 186.499C111.029 186.499 112.18 185.348 112.18 183.928C112.18 182.508 111.029 181.357 109.609 181.357ZM109.609 177.618C113.094 177.618 115.919 180.443 115.919 183.928C115.919 187.413 113.094 190.238 109.609 190.238C106.124 190.238 103.299 187.413 103.299 183.928C103.299 180.443 106.124 177.618 109.609 177.618Z" fill="#8BB2FF"/>
<path id="Ellipse 53" d="M175.982 93.9506C174.562 93.9506 173.411 95.1013 173.411 96.5214C173.411 97.9414 174.562 99.0921 175.982 99.0921C177.402 99.0921 178.553 97.9414 178.553 96.5214C178.553 95.1013 177.402 93.9506 175.982 93.9506ZM175.982 90.2112C179.467 90.2112 182.292 93.0363 182.292 96.5214C182.292 100.006 179.467 102.831 175.982 102.831C172.497 102.831 169.672 100.006 169.672 96.5214C169.672 93.0363 172.497 90.2112 175.982 90.2112Z" fill="#8BB2FF"/>
<path id="Ellipse 51" fill-rule="evenodd" clip-rule="evenodd" d="M17.7198 84.1348C14.6442 84.1348 12.1528 86.6262 12.1528 89.7017C12.1528 92.7773 14.6442 95.2687 17.7198 95.2687C20.7953 95.2687 23.2867 92.7773 23.2867 89.7017C23.2867 86.6262 20.7953 84.1348 17.7198 84.1348Z" fill="url(#paint1_linear_21_444)"/>
<path id="Ellipse 49" d="M103.079 162.193C101.652 162.193 100.494 163.351 100.494 164.778C100.494 166.206 101.652 167.363 103.079 167.363C104.507 167.363 105.664 166.206 105.664 164.778C105.664 163.351 104.507 162.193 103.079 162.193ZM103.079 158.454C106.572 158.454 109.403 161.286 109.403 164.778C109.403 168.271 106.572 171.102 103.079 171.102C99.5867 171.102 96.7551 168.271 96.7551 164.778C96.7551 161.286 99.5867 158.454 103.079 158.454Z" fill="#8BB2FF"/>
<g id="Star 1" filter="url(#filter0_f_21_444)">
<path id="Star 1_2" fill-rule="evenodd" clip-rule="evenodd" d="M41.5346 113.647L39.964 109.375L38.3935 113.647L34.1213 115.218L38.3935 116.789L39.964 121.061L41.5346 116.789L45.8067 115.218L41.5346 113.647Z" fill="#8BB2FF"/>
</g>
<path id="Star 2" fill-rule="evenodd" clip-rule="evenodd" d="M196.114 133.957L193.781 127.604L191.449 133.957L185.097 136.289L191.449 138.621L193.781 144.974L196.114 138.621L202.466 136.289L196.114 133.957Z" fill="#8BB2FF"/>
<path id="Rectangle 38" fill-rule="evenodd" clip-rule="evenodd" d="M58.8945 182.76H156.584C161.749 182.76 165.933 178.576 165.933 173.411V37.3932C165.933 32.2283 161.749 28.0449 156.584 28.0449H58.8945C53.7295 28.0449 49.5461 32.2283 49.5461 37.3932V173.411C49.5461 178.576 53.7295 182.76 58.8945 182.76Z" fill="url(#paint2_linear_21_444)"/>
<g id="Star 3" filter="url(#filter1_f_21_444)">
<path id="Star 3_2" fill-rule="evenodd" clip-rule="evenodd" d="M72.1736 25.8808L69.3597 18.2292L66.5459 25.8808L58.8943 28.6946L66.5459 31.5085L69.3597 39.1601L72.1736 31.5085L79.8252 28.6946L72.1736 25.8808Z" fill="#8BB2FF"/>
</g>
</g>
<path id="Rectangle 39" fill-rule="evenodd" clip-rule="evenodd" d="M68.2427 59.3618H129.474C130.217 59.3618 130.933 59.0673 131.456 58.5391C131.984 58.0156 132.279 57.3005 132.279 56.5573C132.279 55.8141 131.984 55.099 131.456 54.5755C130.933 54.0473 130.217 53.7528 129.474 53.7528H68.2427C67.4995 53.7528 66.7844 54.0473 66.2609 54.5755C65.7327 55.099 65.4382 55.8141 65.4382 56.5573C65.4382 57.3005 65.7327 58.0156 66.2609 58.5391C66.7844 59.0673 67.4995 59.3618 68.2427 59.3618Z" fill="url(#paint3_linear_21_444)"/>
<path id="Rectangle 40" fill-rule="evenodd" clip-rule="evenodd" d="M68.2427 77.1236H100.494C101.238 77.1236 101.953 76.8291 102.476 76.3009C103.004 75.7774 103.299 75.0623 103.299 74.3191C103.299 73.5759 103.004 72.8607 102.476 72.3372C101.953 71.8091 101.238 71.5146 100.494 71.5146H68.2427C67.4995 71.5146 66.7844 71.8091 66.2609 72.3372C65.7327 72.8607 65.4382 73.5759 65.4382 74.3191C65.4382 75.0623 65.7327 75.7774 66.2609 76.3009C66.7844 76.8291 67.4995 77.1236 68.2427 77.1236Z" fill="#94BAFF"/>
<path id="Rectangle 41" fill-rule="evenodd" clip-rule="evenodd" d="M68.2427 94.8854H142.094C142.838 94.8854 143.553 94.5909 144.076 94.0628C144.604 93.5393 144.899 92.8241 144.899 92.0809C144.899 91.3377 144.604 90.6226 144.076 90.0991C143.553 89.5709 142.838 89.2764 142.094 89.2764H68.2427C67.4995 89.2764 66.7844 89.5709 66.2609 90.0991C65.7327 90.6226 65.4382 91.3377 65.4382 92.0809C65.4382 92.8241 65.7327 93.5393 66.2609 94.0628C66.7844 94.5909 67.4995 94.8854 68.2427 94.8854Z" fill="url(#paint4_linear_21_444)"/>
<path id="Rectangle 42" fill-rule="evenodd" clip-rule="evenodd" d="M68.2427 112.647H126.202C126.945 112.647 127.661 112.353 128.184 111.825C128.712 111.301 129.007 110.586 129.007 109.843C129.007 109.1 128.712 108.384 128.184 107.861C127.661 107.333 126.945 107.038 126.202 107.038H68.2427C67.4995 107.038 66.7844 107.333 66.2609 107.861C65.7327 108.384 65.4382 109.1 65.4382 109.843C65.4382 110.586 65.7327 111.301 66.2609 111.825C66.7844 112.353 67.4995 112.647 68.2427 112.647Z" fill="#94BAFF"/>
<path id="Rectangle 43" fill-rule="evenodd" clip-rule="evenodd" d="M68.2427 130.409H126.202C126.945 130.409 127.661 130.115 128.184 129.586C128.712 129.063 129.007 128.348 129.007 127.605C129.007 126.861 128.712 126.146 128.184 125.623C127.661 125.095 126.945 124.8 126.202 124.8H68.2427C67.4995 124.8 66.7844 125.095 66.2609 125.623C65.7327 126.146 65.4382 126.861 65.4382 127.605C65.4382 128.348 65.7327 129.063 66.2609 129.586C66.7844 130.115 67.4995 130.409 68.2427 130.409Z" fill="#94BAFF"/>
<path id="Rectangle 44" fill-rule="evenodd" clip-rule="evenodd" d="M68.2427 148.171H105.636C106.379 148.171 107.094 147.876 107.618 147.348C108.146 146.825 108.44 146.109 108.44 145.366C108.44 144.623 108.146 143.908 107.618 143.384C107.094 142.856 106.379 142.562 105.636 142.562H68.2427C67.4995 142.562 66.7844 142.856 66.2609 143.384C65.7327 143.908 65.4382 144.623 65.4382 145.366C65.4382 146.109 65.7327 146.825 66.2609 147.348C66.7844 147.876 67.4995 148.171 68.2427 148.171Z" fill="#94BAFF"/>
<g id="Group_3">
<path id="Ellipse 52_2" fill-rule="evenodd" clip-rule="evenodd" d="M102.202 121.321C93.7726 135.922 98.7751 154.592 113.376 163.022C127.977 171.452 146.647 166.449 155.076 151.848C163.506 137.247 158.504 118.578 143.903 110.148C129.302 101.718 110.632 106.72 102.202 121.321Z" fill="#F6F9FF"/>
<path id="Ellipse 52_3" d="M107.869 124.593C101.247 136.064 105.177 150.732 116.648 157.355C128.119 163.977 142.787 160.047 149.409 148.576C156.032 137.105 152.102 122.438 140.631 115.815C129.16 109.192 114.492 113.122 107.869 124.593ZM96.5352 118.049C106.772 100.319 129.444 94.2439 147.175 104.481C164.905 114.717 170.98 137.389 160.744 155.12C150.507 172.851 127.835 178.926 110.104 168.689C92.3734 158.452 86.2984 135.78 96.5352 118.049Z" fill="#574FD3"/>
<path id="Rectangle 45" fill-rule="evenodd" clip-rule="evenodd" d="M184.389 169.031L184.613 168.642C185.775 166.63 185.085 164.057 183.073 162.896L157.097 147.899C155.086 146.737 152.513 147.426 151.351 149.438L151.127 149.827C149.965 151.839 150.655 154.412 152.666 155.573L178.642 170.57C180.654 171.732 183.227 171.043 184.389 169.031Z" fill="#574FD3"/>
<path id="Union" fill-rule="evenodd" clip-rule="evenodd" d="M137.974 142.812C138.436 143.275 138.697 143.9 138.694 144.551C138.697 145.202 138.44 145.83 137.977 146.293C137.514 146.755 136.889 147.017 136.235 147.017C135.58 147.017 134.956 146.755 134.493 146.293L128.4 140.2L122.307 146.293C121.844 146.755 121.22 147.017 120.569 147.013C119.918 147.017 119.29 146.759 118.827 146.296C118.364 145.833 118.103 145.209 118.103 144.554C118.103 143.9 118.364 143.275 118.827 142.812L124.92 136.719L118.824 130.623C118.361 130.16 118.103 129.532 118.106 128.881C118.103 128.23 118.364 127.606 118.827 127.143C119.785 126.184 121.345 126.184 122.304 127.143L128.4 133.239L134.496 127.143C134.959 126.68 135.587 126.422 136.238 126.426C136.889 126.422 137.514 126.683 137.977 127.146C138.935 128.105 138.935 129.665 137.977 130.623L131.88 136.719L137.974 142.812Z" fill="#FBB03B"/>
</g>
<path id="Polygon 6" fill-rule="evenodd" clip-rule="evenodd" d="M24.8242 148.539L26.709 155.573C26.8384 156.056 27.2156 156.434 27.7007 156.565C28.186 156.696 28.7007 156.559 29.0552 156.202L34.2079 151.052C34.5625 150.695 34.7 150.18 34.5706 149.696C34.4411 149.214 34.064 148.835 33.5788 148.704L26.5414 146.82C26.0561 146.689 25.5414 146.827 25.1869 147.183C24.8323 147.539 24.6947 148.055 24.8242 148.539Z" fill="#8CB3FF"/>
</g>
</g>
<defs>
<filter id="filter0_f_21_444" x="30.1213" y="105.375" width="19.6853" height="19.6854" filterUnits="userSpaceOnUse" color-interpolation-filters="sRGB">
<feFlood flood-opacity="0" result="BackgroundImageFix"/>
<feBlend mode="normal" in="SourceGraphic" in2="BackgroundImageFix" result="shape"/>
<feGaussianBlur stdDeviation="2" result="effect1_foregroundBlur_21_444"/>
</filter>
<filter id="filter1_f_21_444" x="54.8943" y="14.2292" width="28.9309" height="28.9308" filterUnits="userSpaceOnUse" color-interpolation-filters="sRGB">
<feFlood flood-opacity="0" result="BackgroundImageFix"/>
<feBlend mode="normal" in="SourceGraphic" in2="BackgroundImageFix" result="shape"/>
<feGaussianBlur stdDeviation="2" result="effect1_foregroundBlur_21_444"/>
</filter>
<linearGradient id="paint0_linear_21_444" x1="9315.84" y1="9.81574" x2="9501.87" y2="18613" gradientUnits="userSpaceOnUse">
<stop stop-color="white" stop-opacity="0"/>
<stop offset="1" stop-color="#D9E8FF"/>
</linearGradient>
<linearGradient id="paint1_linear_21_444" x1="568.845" y1="84.1348" x2="579.979" y2="1197.52" gradientUnits="userSpaceOnUse">
<stop stop-color="#8CB3FF"/>
<stop offset="1" stop-color="#8BB2FF"/>
</linearGradient>
<linearGradient id="paint2_linear_21_444" x1="59.427" y1="19.8091" x2="186.392" y2="146.606" gradientUnits="userSpaceOnUse">
<stop stop-color="#433E98"/>
<stop offset="0.973958" stop-color="#423F7C"/>
</linearGradient>
<linearGradient id="paint3_linear_21_444" x1="65.4382" y1="334.203" x2="6749.48" y2="334.203" gradientUnits="userSpaceOnUse">
<stop stop-color="#94BAFF"/>
<stop offset="1" stop-color="#94BAFF" stop-opacity="0"/>
</linearGradient>
<linearGradient id="paint4_linear_21_444" x1="182.292" y1="369.727" x2="8151.73" y2="369.727" gradientUnits="userSpaceOnUse">
<stop stop-color="#94BAFF"/>
<stop offset="1" stop-color="#94BAFF" stop-opacity="0"/>
</linearGradient>
</defs>
</svg>
