<svg width="39" height="40" viewBox="0 0 39 40" fill="none" xmlns="http://www.w3.org/2000/svg">
<path d="M12.4677 10.7629L21.0395 5.89142C21.1744 5.81654 21.2868 5.70661 21.3649 5.57316C21.443 5.4397 21.4839 5.28763 21.4833 5.13287V5.03544C21.4837 4.88298 21.444 4.73312 21.3682 4.60099C21.2924 4.46886 21.1833 4.35913 21.0517 4.28289C20.9201 4.20664 20.7709 4.16658 20.619 4.16675C20.467 4.16691 20.3178 4.2073 20.1864 4.28383L11.6181 9.25971C11.4871 9.33582 11.3783 9.44517 11.3027 9.57678C11.2271 9.70839 11.1873 9.85765 11.1873 10.0096C11.1873 10.1615 11.2271 10.3108 11.3027 10.4424C11.3783 10.574 11.4871 10.6833 11.6181 10.7594C11.747 10.8348 11.8933 10.8748 12.0424 10.8754C12.1916 10.876 12.3382 10.8372 12.4677 10.7629Z" fill="url(#paint0_linear_948_368)"/>
<path d="M20.0407 18.3241L31.449 11.7128C31.6822 11.5775 31.8759 11.3829 32.0106 11.1487C32.1452 10.9144 32.2161 10.6488 32.2161 10.3784C32.2161 10.108 32.1452 9.84232 32.0106 9.60809C31.8759 9.37387 31.6822 9.17931 31.449 9.04394C31.2808 8.94652 31.0901 8.89523 30.8959 8.89523C30.7017 8.89523 30.511 8.94652 30.3428 9.04394L19.5518 15.3073C19.3843 15.4047 19.1941 15.4561 19.0005 15.4561C18.8068 15.4561 18.6166 15.4047 18.4491 15.3073L16.9997 14.4652C16.8319 14.3681 16.6925 14.2284 16.5956 14.0601C16.4987 13.8919 16.4477 13.7009 16.4477 13.5066C16.4477 13.3122 16.4987 13.1213 16.5956 12.953C16.6925 12.7847 16.8319 12.645 16.9997 12.5479L25.3599 7.69384C25.5501 7.58401 25.708 7.42583 25.8178 7.23523C25.9277 7.04464 25.9855 6.82836 25.9855 6.6082C25.9855 6.38804 25.9277 6.17176 25.8178 5.98117C25.708 5.79057 25.5501 5.63239 25.3599 5.52255C25.192 5.42444 25.0012 5.37275 24.8069 5.37275C24.6126 5.37275 24.4217 5.42444 24.2538 5.52255L13.5044 11.7859C13.3362 11.8833 13.1455 11.9346 12.9513 11.9346C12.7571 11.9346 12.5664 11.8833 12.3982 11.7859L11.0112 10.9717C10.8434 10.8746 10.7041 10.7349 10.6072 10.5666C10.5103 10.3983 10.4592 10.2074 10.4592 10.013C10.4592 9.81866 10.5103 9.62773 10.6072 9.45944C10.7041 9.29116 10.8434 9.15145 11.0112 9.05438L19.5899 4.07154C19.7586 3.97471 19.8987 3.8349 19.9961 3.66625C20.0936 3.49761 20.1449 3.30612 20.1449 3.11117C20.1449 2.91622 20.0936 2.72472 19.9961 2.55608C19.8987 2.38743 19.7586 2.24761 19.5899 2.15078C19.4227 2.05431 19.2332 2.00354 19.0403 2.00354C18.8474 2.00354 18.6579 2.05431 18.4907 2.15078L7.39455 8.57071C7.07846 8.75401 6.816 9.01754 6.63352 9.33484C6.45104 9.65214 6.35498 10.012 6.35498 10.3784C6.35498 10.7447 6.45104 11.1046 6.63352 11.4219C6.816 11.7392 7.07846 12.0028 7.39455 12.1861L17.9879 18.3241C18.3009 18.5022 18.6545 18.5959 19.0143 18.5959C19.3741 18.5959 19.7278 18.5022 20.0407 18.3241Z" fill="url(#paint1_linear_948_368)"/>
<path d="M17.6274 14.2496C17.7586 14.324 17.9067 14.3631 18.0574 14.3631C18.2081 14.3631 18.3562 14.324 18.4874 14.2496L27.0731 9.36072C27.2055 9.2844 27.3156 9.17444 27.3923 9.0419C27.469 8.90936 27.5096 8.75891 27.51 8.60564V8.50821C27.5104 8.35576 27.4707 8.20591 27.3949 8.07378C27.3191 7.94164 27.2099 7.83191 27.0784 7.75567C26.9468 7.67942 26.7975 7.63936 26.6456 7.63953C26.4937 7.63969 26.3445 7.68008 26.2131 7.75661L17.6274 12.7464C17.4965 12.823 17.3878 12.9327 17.3123 13.0646C17.2368 13.1965 17.197 13.3459 17.197 13.498C17.197 13.6501 17.2368 13.7996 17.3123 13.9314C17.3878 14.0633 17.4965 14.173 17.6274 14.2496Z" fill="url(#paint2_linear_948_368)"/>
<path d="M23.0367 11.1144C23.0363 10.9815 23.0069 10.8503 22.9505 10.73C22.894 10.6098 22.812 10.5034 22.7102 10.4185C22.6083 10.3335 22.4891 10.2721 22.361 10.2384C22.2329 10.2047 22.099 10.1997 21.9687 10.2236L17.6273 12.7463C17.4282 12.8608 17.2826 13.0499 17.2224 13.2721C17.1622 13.4943 17.1925 13.7313 17.3066 13.9311C17.4206 14.1309 17.6091 14.2771 17.8305 14.3375C18.0519 14.3978 18.2882 14.3674 18.4873 14.253L22.8321 11.7755C22.9617 11.6175 23.0339 11.4199 23.0367 11.2153V11.1144Z" fill="url(#paint3_linear_948_368)"/>
<path d="M23.0367 11.1144C23.0363 10.9815 23.0069 10.8503 22.9505 10.73C22.894 10.6098 22.812 10.5034 22.7102 10.4185C22.6083 10.3335 22.4891 10.2721 22.361 10.2384C22.2329 10.2047 22.099 10.1997 21.9687 10.2236L17.6273 12.7463C17.4282 12.8608 17.2826 13.0499 17.2224 13.2721C17.1622 13.4943 17.1925 13.7313 17.3066 13.9311C17.4206 14.1309 17.6091 14.2771 17.8305 14.3375C18.0519 14.3978 18.2882 14.3674 18.4873 14.253L22.8321 11.7755C22.9617 11.6175 23.0339 11.4199 23.0367 11.2153V11.1144Z" fill="url(#paint4_linear_948_368)"/>
<path d="M17.0172 7.6279C17.0173 7.49358 16.9876 7.36092 16.9304 7.2395C16.8731 7.11807 16.7898 7.0109 16.6863 6.92569C16.5828 6.84049 16.4618 6.77939 16.3319 6.74678C16.2021 6.71416 16.0666 6.71087 15.9354 6.73711L11.594 9.25637C11.463 9.33295 11.3544 9.44266 11.2788 9.57454C11.2033 9.70642 11.1636 9.85586 11.1636 10.008C11.1636 10.1601 11.2033 10.3095 11.2788 10.4414C11.3544 10.5733 11.463 10.683 11.594 10.7596C11.7246 10.8356 11.8729 10.8757 12.024 10.8757C12.175 10.8757 12.3233 10.8356 12.4539 10.7596L16.7988 8.28555C16.9284 8.12753 17.0005 7.92996 17.0034 7.72533L17.0172 7.6279Z" fill="url(#paint5_linear_948_368)"/>
<path d="M17.0172 7.6279C17.0173 7.49358 16.9876 7.36092 16.9304 7.2395C16.8731 7.11807 16.7898 7.0109 16.6863 6.92569C16.5828 6.84049 16.4618 6.77939 16.3319 6.74678C16.2021 6.71416 16.0666 6.71087 15.9354 6.73711L11.594 9.25637C11.463 9.33295 11.3544 9.44266 11.2788 9.57454C11.2033 9.70642 11.1636 9.85586 11.1636 10.008C11.1636 10.1601 11.2033 10.3095 11.2788 10.4414C11.3544 10.5733 11.463 10.683 11.594 10.7596C11.7246 10.8356 11.8729 10.8757 12.024 10.8757C12.175 10.8757 12.3233 10.8356 12.4539 10.7596L16.7988 8.28555C16.9284 8.12753 17.0005 7.92996 17.0034 7.72533L17.0172 7.6279Z" fill="url(#paint6_linear_948_368)"/>
<path d="M18.7544 22.9764C18.7539 22.7248 18.6876 22.4777 18.5623 22.2597C18.437 22.0418 18.2569 21.8606 18.0401 21.7342L7.1208 15.4047C6.80442 15.2214 6.44552 15.1249 6.0802 15.125C5.71488 15.1251 5.35601 15.2216 5.03969 15.405C4.72337 15.5884 4.46075 15.8522 4.27824 16.1698C4.09573 16.4873 3.99977 16.8475 4 17.2141V29.8661C4.00058 30.1177 4.06683 30.3648 4.19215 30.5827C4.31748 30.8007 4.49751 30.9819 4.71432 31.1083C4.93155 31.2341 5.17797 31.3004 5.4288 31.3004C5.67964 31.3003 5.92604 31.234 6.14324 31.1081C6.36044 30.9822 6.54078 30.8011 6.66612 30.5831C6.79146 30.3651 6.85738 30.1178 6.85726 29.8661V20.1927C6.85754 20.0082 6.90653 19.8271 6.99925 19.6678C7.09196 19.5085 7.22509 19.3767 7.38507 19.2858C7.54505 19.195 7.72617 19.1482 7.90999 19.1505C8.09381 19.1527 8.27377 19.2037 8.43153 19.2984L15.8972 23.7837L16.6288 24.2047C16.8446 24.3257 17.0879 24.3885 17.3351 24.387C17.5822 24.3854 17.8247 24.3195 18.0389 24.1957C18.2531 24.072 18.4316 23.8945 18.557 23.6808C18.6825 23.4671 18.7505 23.2244 18.7544 22.9764Z" fill="url(#paint7_linear_948_368)"/>
<path d="M10.2589 34.0486L16.6288 37.9667C16.8404 38.1021 17.0846 38.1774 17.3354 38.1845C17.5863 38.1916 17.8343 38.1302 18.0532 38.007C18.272 37.8838 18.4535 37.7034 18.5782 37.4849C18.7029 37.2664 18.7662 37.018 18.7613 36.7662C18.7617 36.5215 18.6978 36.2811 18.576 36.0691C18.4543 35.8571 18.279 35.6811 18.0678 35.5588L12.8665 32.4689C12.7617 32.4081 12.6745 32.3209 12.6137 32.216C12.5529 32.111 12.5205 31.9918 12.5197 31.8704V29.4973C12.5217 29.376 12.5551 29.2574 12.6168 29.1532C12.6784 29.0489 12.7661 28.9627 12.8713 28.9029C12.9764 28.8431 13.0952 28.8119 13.216 28.8124C13.3368 28.8129 13.4554 28.8451 13.56 28.9057L16.6288 30.7812C16.8398 30.9144 17.0826 30.9882 17.3318 30.9946C17.5809 31.001 17.8272 30.94 18.0447 30.8178C18.2623 30.6957 18.443 30.517 18.5678 30.3005C18.6927 30.0841 18.7572 29.8378 18.7544 29.5877C18.7536 29.3428 18.6893 29.1023 18.5676 28.89C18.446 28.6777 18.2714 28.5008 18.0609 28.3768L12.3741 25.0016C12.1109 24.845 11.811 24.761 11.505 24.7584C11.199 24.7557 10.8978 24.8343 10.6318 24.9863C10.3659 25.1383 10.1448 25.3582 9.99102 25.6237C9.83721 25.8891 9.75616 26.1907 9.7561 26.4978V33.1648C9.7578 33.3429 9.80489 33.5177 9.8929 33.6724C9.98091 33.8271 10.1069 33.9566 10.2589 34.0486Z" fill="url(#paint8_linear_948_368)"/>
<path d="M22.1041 23.7908L29.5697 19.2985C29.7275 19.2038 29.9075 19.1528 30.0913 19.1506C30.2751 19.1484 30.4562 19.1951 30.6162 19.286C30.7762 19.3768 30.9093 19.5086 31.002 19.6679C31.0947 19.8272 31.1437 20.0083 31.144 20.1928V29.8558C31.1453 30.1054 31.2115 30.3504 31.3361 30.5666C31.4607 30.7827 31.6394 30.9624 31.8545 31.0879C32.0696 31.2134 32.3137 31.2803 32.5625 31.2821C32.8113 31.2839 33.0562 31.2204 33.2731 31.098C33.4899 30.9716 33.6699 30.7904 33.7953 30.5724C33.9206 30.3545 33.9868 30.1074 33.9874 29.8558V17.2073C33.9876 16.8407 33.8917 16.4805 33.7092 16.1629C33.5267 15.8454 33.264 15.5816 32.9477 15.3982C32.6314 15.2148 32.2725 15.1182 31.9072 15.1182C31.5419 15.1181 31.183 15.2146 30.8666 15.3979L19.9612 21.7238C19.7428 21.8512 19.5618 22.034 19.4364 22.2539C19.311 22.4739 19.2456 22.7231 19.2468 22.9765C19.2473 23.2279 19.3137 23.4748 19.4393 23.6923C19.5649 23.9099 19.7453 24.0905 19.9624 24.216C20.1795 24.3415 20.4256 24.4075 20.6762 24.4073C20.9267 24.4072 21.1728 24.341 21.3898 24.2153L22.1041 23.7908Z" fill="url(#paint9_linear_948_368)"/>
<path d="M27.6002 26.9538L21.2892 30.8336C21.0858 30.9585 20.853 31.0268 20.6146 31.0314C20.3762 31.036 20.1409 30.9767 19.9328 30.8598C19.7248 30.7428 19.5516 30.5724 19.4311 30.366C19.3105 30.1596 19.2469 29.9246 19.2468 29.6853V29.5496C19.2469 29.3157 19.3077 29.0858 19.4232 28.8827C19.5387 28.6795 19.705 28.51 19.9057 28.3909L26.2166 24.6468C26.4201 24.5257 26.652 24.4608 26.8886 24.4588C27.1252 24.4568 27.3581 24.5178 27.5636 24.6356C27.769 24.7534 27.9397 24.9237 28.0582 25.1292C28.1767 25.3347 28.2388 25.5681 28.2382 25.8056C28.2388 26.0358 28.1805 26.2623 28.0688 26.4634C27.957 26.6645 27.7957 26.8334 27.6002 26.9538Z" fill="url(#paint10_linear_948_368)"/>
<path d="M27.6002 34.1391L21.2892 38.0189C21.0858 38.1438 20.853 38.2121 20.6146 38.2167C20.3762 38.2213 20.1409 38.1621 19.9328 38.0451C19.7248 37.9282 19.5516 37.7577 19.4311 37.5513C19.3105 37.3448 19.2469 37.1099 19.2468 36.8706V36.7349C19.2469 36.501 19.3077 36.2711 19.4232 36.068C19.5387 35.8648 19.705 35.6953 19.9057 35.5762L26.2166 31.8321C26.4201 31.711 26.652 31.6461 26.8886 31.6441C27.1252 31.6421 27.3581 31.7031 27.5636 31.8209C27.769 31.9387 27.9397 32.109 28.0582 32.3145C28.1767 32.52 28.2388 32.7534 28.2382 32.9909C28.2385 33.221 28.18 33.4474 28.0683 33.6484C27.9566 33.8495 27.7954 34.0184 27.6002 34.1391Z" fill="url(#paint11_linear_948_368)"/>
<path d="M26.2166 24.6468L19.9057 28.3909C19.705 28.51 19.5387 28.6795 19.4232 28.8827C19.3077 29.0858 19.2469 29.3157 19.2468 29.5496V29.6853C19.2469 29.9246 19.3105 30.1596 19.4311 30.366C19.5516 30.5724 19.7248 30.7428 19.9328 30.8598C20.1409 30.9767 20.3762 31.036 20.6146 31.0314C20.853 31.0268 21.0858 30.9585 21.2892 30.8336L27.6002 26.9538C27.7957 26.8334 27.957 26.6645 28.0688 26.4634C28.1805 26.2623 28.2388 26.0358 28.2382 25.8056C28.2388 25.5681 28.1767 25.3347 28.0582 25.1292C27.9397 24.9237 27.769 24.7534 27.5636 24.6356C27.3581 24.5178 27.1252 24.4568 26.8886 24.4588C26.652 24.4608 26.4201 24.5257 26.2166 24.6468ZM26.4767 27.1835L22.007 29.9359C21.8631 30.0251 21.6981 30.0741 21.529 30.0779C21.3599 30.0817 21.1928 30.0402 21.0451 29.9575C20.8973 29.8749 20.7743 29.7542 20.6886 29.6078C20.6028 29.4615 20.5576 29.2949 20.5576 29.1251V29.0277C20.5562 28.8601 20.5987 28.695 20.6808 28.5491C20.763 28.4031 20.8819 28.2814 21.0257 28.1961L25.4954 25.5446C25.7106 25.4227 25.9648 25.3897 26.2039 25.4528C26.443 25.5158 26.6481 25.6699 26.7758 25.8823C26.9036 26.0947 26.9438 26.3487 26.8879 26.5903C26.832 26.832 26.6845 27.0423 26.4767 27.1765V27.1835Z" fill="url(#paint12_linear_948_368)"/>
<path d="M26.2166 31.8321L19.9057 35.5762C19.705 35.6953 19.5387 35.8648 19.4232 36.068C19.3077 36.2711 19.2469 36.501 19.2468 36.7349V36.8706C19.2469 37.1099 19.3105 37.3448 19.4311 37.5513C19.5516 37.7577 19.7248 37.9282 19.9328 38.0451C20.1409 38.1621 20.3762 38.2213 20.6146 38.2167C20.853 38.2121 21.0858 38.1438 21.2892 38.0189L27.6002 34.1391C27.7954 34.0184 27.9566 33.8495 28.0683 33.6484C28.18 33.4474 28.2385 33.221 28.2382 32.9909C28.2388 32.7534 28.1767 32.52 28.0582 32.3145C27.9397 32.109 27.769 31.9387 27.5636 31.8209C27.3581 31.7031 27.1252 31.6421 26.8886 31.6441C26.652 31.6461 26.4201 31.711 26.2166 31.8321ZM26.4767 34.3688L22.007 37.1177C21.8631 37.2069 21.6981 37.2559 21.529 37.2597C21.3599 37.2636 21.1928 37.222 21.0451 37.1393C20.8973 37.0567 20.7743 36.936 20.6886 36.7897C20.6028 36.6433 20.5576 36.4767 20.5576 36.3069V36.1991C20.558 36.0332 20.6013 35.8703 20.6834 35.7264C20.7655 35.5824 20.8834 35.4623 21.0257 35.3779L25.4954 32.7264C25.7106 32.6045 25.9648 32.5715 26.2039 32.6346C26.443 32.6977 26.6481 32.8517 26.7758 33.0641C26.9036 33.2765 26.9438 33.5305 26.8879 33.7721C26.832 34.0138 26.6845 34.2241 26.4767 34.3583V34.3688Z" fill="url(#paint13_linear_948_368)"/>
<path d="M18.0401 21.7237L7.1208 15.4047C6.80442 15.2214 6.44552 15.1249 6.0802 15.125C5.71488 15.1251 5.35601 15.2216 5.03969 15.405C4.72337 15.5884 4.46075 15.8522 4.27824 16.1698C4.09573 16.4873 3.99977 16.8475 4 17.2141V29.8661C4.00058 30.1177 4.06683 30.3648 4.19215 30.5827C4.31748 30.8007 4.49751 30.9819 4.71432 31.1083C4.86916 31.1983 5.0399 31.2574 5.21711 31.2823L5.41476 18.1049C5.42932 17.8972 5.49551 17.6965 5.60728 17.5212C5.71906 17.3458 5.87285 17.2013 6.0546 17.101C6.23635 17.0006 6.44028 16.9475 6.64773 16.9466C6.85518 16.9457 7.05955 16.997 7.24216 17.0958L18.5394 23.7071C18.6787 23.484 18.7521 23.2258 18.751 22.9625C18.7501 22.7118 18.6841 22.4656 18.5595 22.2484C18.4348 22.0311 18.2558 21.8503 18.0401 21.7237Z" fill="url(#paint14_linear_948_368)"/>
<path d="M30.8805 15.3978L19.9611 21.7168C19.7441 21.8421 19.5639 22.0226 19.4385 22.2401C19.3131 22.4575 19.247 22.7043 19.2468 22.9555C19.2485 23.22 19.3229 23.4789 19.4618 23.7037L30.7591 17.075C30.9429 16.9763 31.1485 16.9257 31.3569 16.928C31.5653 16.9303 31.7698 16.9853 31.9513 17.088C32.1329 17.1908 32.2857 17.3378 32.3955 17.5156C32.5053 17.6934 32.5686 17.8961 32.5796 18.1049L32.7772 31.2893C32.9549 31.2644 33.1259 31.204 33.28 31.1118C33.497 30.9865 33.6773 30.806 33.8027 30.5886C33.9281 30.3711 33.9942 30.1243 33.9943 29.8731V17.2072C33.9939 16.8416 33.8977 16.4826 33.7156 16.166C33.5334 15.8494 33.2716 15.5863 32.9564 15.4031C32.6411 15.2199 32.2834 15.123 31.9191 15.1221C31.5548 15.1211 31.1967 15.2162 30.8805 15.3978Z" fill="url(#paint15_linear_948_368)"/>
<path d="M32.0697 9.71197L19.375 16.8487C19.1856 16.9552 18.9707 17.0075 18.7537 17.0002C18.5367 16.9928 18.3259 16.926 18.144 16.8069L13.546 13.8005L8.46608 10.9368C8.30387 10.822 8.17276 10.6685 8.08462 10.49C7.99648 10.3116 7.95411 10.1139 7.96134 9.91487C7.96857 9.71584 8.02518 9.52176 8.12603 9.35023C8.22688 9.1787 8.36879 9.03513 8.5389 8.93253L19.8362 2.3769C19.7541 2.28579 19.6581 2.20828 19.5519 2.14724C19.3846 2.05077 19.1951 2 19.0022 2C18.8094 2 18.6199 2.05077 18.4526 2.14724L7.35647 8.56717C7.04038 8.75046 6.77791 9.014 6.59543 9.3313C6.41296 9.6486 6.31689 10.0085 6.31689 10.3748C6.31689 10.7412 6.41296 11.1011 6.59543 11.4184C6.77791 11.7357 7.04038 11.9992 7.35647 12.1825L17.9498 18.3206C18.2661 18.5038 18.6249 18.6003 18.9901 18.6003C19.3553 18.6003 19.7141 18.5038 20.0304 18.3206L31.4386 11.7093C31.7747 11.5168 32.0262 11.2045 32.1431 10.8344C32.2601 10.4643 32.2339 10.0636 32.0697 9.71197Z" fill="url(#paint16_linear_948_368)"/>
<path d="M18.7545 29.5879C18.7559 29.5728 18.7559 29.5577 18.7545 29.5426C18.7579 29.4975 18.7579 29.4521 18.7545 29.4069C18.7381 29.3058 18.7114 29.2067 18.6747 29.1112C18.6399 29.022 18.5957 28.9369 18.5429 28.8571L18.5187 28.8258L18.4944 28.7806C18.4475 28.7236 18.3977 28.669 18.3453 28.617C18.3274 28.5967 18.3076 28.5781 18.2863 28.5614C18.2272 28.5092 18.1633 28.4626 18.0956 28.4222L18.0575 28.3944L16.3237 27.3679L12.3984 25.0365C12.135 24.8772 11.834 24.7912 11.5265 24.7871C11.2189 24.7831 10.9158 24.8612 10.6483 25.0135C10.3808 25.1658 10.1585 25.3868 10.0041 25.6538C9.84977 25.9207 9.76898 26.2241 9.77003 26.5327V33.1997C9.77077 33.3781 9.81706 33.5533 9.90447 33.7087C9.99189 33.864 10.1175 33.9943 10.2694 34.087L16.6288 37.9668C16.9292 38.1557 17.2903 38.222 17.6379 38.1521C17.9855 38.0823 18.2932 37.8815 18.4979 37.591L11.8298 33.3006C11.7284 33.2363 11.6455 33.1467 11.5889 33.0406C11.5324 32.9345 11.5043 32.8155 11.5073 32.6952L11.6113 28.0533C11.6148 27.9033 11.6568 27.7567 11.7332 27.6277C11.8095 27.4987 11.9178 27.3916 12.0474 27.3167C12.1771 27.2419 12.3237 27.2018 12.4733 27.2004C12.6228 27.199 12.7702 27.2363 12.9012 27.3087L18.4979 30.3882L18.64 30.1376C18.6716 30.06 18.6959 29.9797 18.7128 29.8976V29.8767C18.7145 29.8663 18.7145 29.8557 18.7128 29.8454C18.7357 29.7612 18.7497 29.6749 18.7545 29.5879Z" fill="url(#paint17_linear_948_368)"/>
<defs>
<linearGradient id="paint0_linear_948_368" x1="1.93672" y1="8.12187" x2="32.8572" y2="6.83986" gradientUnits="userSpaceOnUse">
<stop stop-color="#25EDFF"/>
<stop offset="1" stop-color="#29ABE2"/>
</linearGradient>
<linearGradient id="paint1_linear_948_368" x1="6.32655" y1="10.3036" x2="32.2153" y2="10.3036" gradientUnits="userSpaceOnUse">
<stop stop-color="#25EDFF"/>
<stop offset="1" stop-color="#29ABE2"/>
</linearGradient>
<linearGradient id="paint2_linear_948_368" x1="18.5047" y1="11.1632" x2="24.0286" y2="10.9351" gradientUnits="userSpaceOnUse">
<stop stop-color="#25EDFF"/>
<stop offset="1" stop-color="#29ABE2"/>
</linearGradient>
<linearGradient id="paint3_linear_948_368" x1="18.5531" y1="12.3531" x2="24.0805" y2="12.1216" gradientUnits="userSpaceOnUse">
<stop stop-color="#25EDFF"/>
<stop offset="1" stop-color="#29ABE2"/>
</linearGradient>
<linearGradient id="paint4_linear_948_368" x1="18.0365" y1="12.374" x2="21.2267" y2="12.2392" gradientUnits="userSpaceOnUse">
<stop stop-color="#25EDFF"/>
<stop offset="1" stop-color="#00A2F4"/>
</linearGradient>
<linearGradient id="paint5_linear_948_368" x1="12.5372" y1="8.86317" x2="18.061" y2="8.6351" gradientUnits="userSpaceOnUse">
<stop stop-color="#25EDFF"/>
<stop offset="1" stop-color="#29ABE2"/>
</linearGradient>
<linearGradient id="paint6_linear_948_368" x1="12.017" y1="8.88753" x2="15.2107" y2="8.75276" gradientUnits="userSpaceOnUse">
<stop stop-color="#25EDFF"/>
<stop offset="1" stop-color="#00A2F4"/>
</linearGradient>
<linearGradient id="paint7_linear_948_368" x1="22.2393" y1="32.6915" x2="6.09079" y2="23.4217" gradientUnits="userSpaceOnUse">
<stop stop-color="#ED1E79"/>
<stop offset="1" stop-color="#622BFF"/>
</linearGradient>
<linearGradient id="paint8_linear_948_368" x1="20.8315" y1="35.1412" x2="4.68638" y2="25.8714" gradientUnits="userSpaceOnUse">
<stop stop-color="#ED1E79"/>
<stop offset="1" stop-color="#622BFF"/>
</linearGradient>
<linearGradient id="paint9_linear_948_368" x1="19.2468" y1="23.2027" x2="34.0013" y2="23.2027" gradientUnits="userSpaceOnUse">
<stop stop-color="#FBB03B"/>
<stop offset="1" stop-color="#F15A24"/>
</linearGradient>
<linearGradient id="paint10_linear_948_368" x1="19.2468" y1="27.7472" x2="28.2382" y2="27.7472" gradientUnits="userSpaceOnUse">
<stop stop-color="#FBB03B"/>
<stop offset="1" stop-color="#F26327"/>
</linearGradient>
<linearGradient id="paint11_linear_948_368" x1="19.2468" y1="34.9325" x2="28.2382" y2="34.9325" gradientUnits="userSpaceOnUse">
<stop stop-color="#FBB03B"/>
<stop offset="1" stop-color="#F26327"/>
</linearGradient>
<linearGradient id="paint12_linear_948_368" x1="19.2468" y1="27.7472" x2="28.2382" y2="27.7472" gradientUnits="userSpaceOnUse">
<stop offset="0.03" stop-color="#F26327"/>
<stop offset="1" stop-color="#F4742B"/>
</linearGradient>
<linearGradient id="paint13_linear_948_368" x1="19.2468" y1="34.9325" x2="28.2382" y2="34.9325" gradientUnits="userSpaceOnUse">
<stop offset="0.03" stop-color="#F26327"/>
<stop offset="1" stop-color="#F4742B"/>
</linearGradient>
<linearGradient id="paint14_linear_948_368" x1="16.5179" y1="23.2513" x2="2.26276" y2="23.1891" gradientUnits="userSpaceOnUse">
<stop stop-color="#EF59A1"/>
<stop offset="1" stop-color="#2A16B7"/>
</linearGradient>
<linearGradient id="paint15_linear_948_368" x1="22.1908" y1="27.8062" x2="37.9594" y2="20.5892" gradientUnits="userSpaceOnUse">
<stop stop-color="#F79D26"/>
<stop offset="1" stop-color="#D62D00"/>
</linearGradient>
<linearGradient id="paint16_linear_948_368" x1="6.32661" y1="10.3035" x2="32.2154" y2="10.3035" gradientUnits="userSpaceOnUse">
<stop stop-color="#00A2F4"/>
<stop offset="1" stop-color="#25EDFF"/>
</linearGradient>
<linearGradient id="paint17_linear_948_368" x1="9.75963" y1="31.4634" x2="18.7545" y2="31.4634" gradientUnits="userSpaceOnUse">
<stop stop-color="#4720B4"/>
<stop offset="1" stop-color="#EF59A1"/>
</linearGradient>
</defs>
</svg>
