<svg width="30" height="30" viewBox="0 0 30 30" fill="none" xmlns="http://www.w3.org/2000/svg">
<path d="M15 30C23.2843 30 30 23.2843 30 15C30 6.71573 23.2843 0 15 0C6.71573 0 0 6.71573 0 15C0 23.2843 6.71573 30 15 30Z" fill="#8247E5"/>
<path d="M18.3212 16.5752C18.3212 14.6513 17.1738 13.9917 14.8791 13.7169C13.2401 13.497 12.9122 13.0573 12.9122 12.2876C12.9122 11.5179 13.4586 11.0233 14.5513 11.0233C15.5347 11.0233 16.0811 11.3532 16.3543 12.1777C16.409 12.3426 16.5729 12.4525 16.7368 12.4525H17.6108C17.8294 12.4525 17.9933 12.2876 17.9933 12.0678V12.0128C17.7748 10.8034 16.7913 9.86903 15.5347 9.75913V8.43985C15.5347 8.21992 15.3708 8.05501 15.0977 8H14.2782C14.0596 8 13.8957 8.16491 13.841 8.43985V9.7041C12.2019 9.92403 11.164 11.0233 11.164 12.3976C11.164 14.2116 12.2566 14.9261 14.5513 15.2011C16.0811 15.4759 16.5729 15.8057 16.5729 16.6852C16.5729 17.5648 15.8079 18.1694 14.7699 18.1694C13.3493 18.1694 12.8576 17.5647 12.6937 16.7401C12.6391 16.5203 12.4752 16.4103 12.3113 16.4103H11.3824C11.164 16.4103 11 16.5752 11 16.7951V16.8502C11.2185 18.2243 12.0927 19.2138 13.8957 19.4887V20.808C13.8957 21.0278 14.0596 21.1927 14.3327 21.2477H15.1523C15.3708 21.2477 15.5347 21.0828 15.5894 20.808V19.4887C17.2285 19.2138 18.3212 18.0594 18.3212 16.5752Z" fill="white"/>
<path d="M12.097 22.1879C7.82197 20.6504 5.6296 15.8729 7.21912 11.6445C8.04124 9.33808 9.84991 7.58089 12.097 6.75719C12.3163 6.64741 12.4258 6.48267 12.4258 6.20801V5.43926C12.4258 5.21957 12.3163 5.05483 12.097 5C12.0421 5 11.9326 5 11.8777 5.05483C6.671 6.70223 3.82094 12.2486 5.46518 17.4653C6.45172 20.5404 8.80851 22.9018 11.8777 23.8902C12.097 24 12.3163 23.8902 12.371 23.6705C12.4258 23.6157 12.4258 23.5607 12.4258 23.451V22.6821C12.4258 22.5173 12.2614 22.2978 12.097 22.1879ZM17.9067 5.05483C17.6874 4.94504 17.4681 5.05483 17.4134 5.27452C17.3586 5.32948 17.3586 5.38431 17.3586 5.49422V6.26297C17.3586 6.48267 17.523 6.70223 17.6874 6.81215C21.9624 8.34964 24.1548 13.1271 22.5653 17.3555C21.7432 19.6619 19.9345 21.4191 17.6874 22.2428C17.4681 22.3526 17.3586 22.5173 17.3586 22.792V23.5607C17.3586 23.7804 17.4681 23.9452 17.6874 24C17.7423 24 17.8518 24 17.9067 23.9452C23.1134 22.2978 25.9635 16.7514 24.3192 11.5347C23.3327 8.4046 20.921 6.04327 17.9067 5.05483Z" fill="white"/>
</svg>
