<svg width="20" height="20" viewBox="0 0 20 20" fill="none" xmlns="http://www.w3.org/2000/svg">
    <path
        d="M14.749 3.60132C14.6185 3.60913 14.4931 3.65495 14.3884 3.73313C14.2836 3.81132 14.204 3.91846 14.1594 4.04134C14.1147 4.16422 14.107 4.29747 14.1372 4.42466C14.1674 4.55186 14.2342 4.66745 14.3292 4.75717C14.4243 4.84689 14.5436 4.90683 14.6723 4.9296C14.801 4.95237 14.9336 4.93698 15.0537 4.88531C15.1738 4.83364 15.2761 4.74797 15.3481 4.63884C15.4201 4.52972 15.4586 4.40191 15.4588 4.27118C15.4576 4.18016 15.4381 4.09033 15.4014 4.00699C15.3648 3.92366 15.3118 3.84853 15.2456 3.78606C15.1794 3.72358 15.1014 3.67504 15.0161 3.64331C14.9307 3.61158 14.8399 3.5973 14.749 3.60132ZM12.4695 3.60132C12.339 3.60913 12.2136 3.65495 12.1088 3.73313C12.0041 3.81132 11.9245 3.91846 11.8798 4.04134C11.8352 4.16422 11.8275 4.29747 11.8577 4.42466C11.8879 4.55186 11.9546 4.66745 12.0497 4.75717C12.1448 4.84689 12.2641 4.90683 12.3928 4.9296C12.5215 4.95237 12.6541 4.93698 12.7742 4.88531C12.8943 4.83364 12.9966 4.74797 13.0686 4.63884C13.1406 4.52972 13.1791 4.40191 13.1793 4.27118C13.1781 4.18016 13.1586 4.09033 13.1219 4.00699C13.0853 3.92366 13.0323 3.84853 12.9661 3.78606C12.8999 3.72358 12.8219 3.67504 12.7365 3.64331C12.6512 3.61158 12.5604 3.5973 12.4695 3.60132ZM4.34121 4.93104H8.34035V3.60132H4.34121V4.93104ZM3.26144 6.5307H2.0617V2.80149C2.06284 2.69165 2.08632 2.58319 2.13071 2.4827C2.1751 2.38222 2.23947 2.29182 2.3199 2.217C2.40033 2.14218 2.49515 2.08451 2.59857 2.04749C2.702 2.01047 2.81187 1.99488 2.92151 2.00167H17.1685C17.2775 1.99765 17.3862 2.01517 17.4884 2.0532C17.5906 2.09124 17.6843 2.14906 17.7642 2.22334C17.844 2.29763 17.9085 2.38692 17.9538 2.48613C17.9991 2.58533 18.0244 2.6925 18.0283 2.80149V6.5307H3.26144ZM14.779 15.0589C14.5916 15.0446 14.406 15.1032 14.2607 15.2224C14.1155 15.3416 14.0218 15.5122 13.9991 15.6987C14.0063 15.8777 14.08 16.0475 14.2057 16.1751C14.3314 16.3027 14.5002 16.3788 14.679 16.3886C14.8597 16.3924 15.0353 16.3291 15.172 16.2109C15.3086 16.0927 15.3966 15.928 15.4188 15.7487C15.417 15.5748 15.3504 15.4078 15.2321 15.2802C15.1138 15.1527 14.9523 15.0738 14.779 15.0589ZM12.4995 15.0589C12.3717 15.054 12.2447 15.0806 12.1296 15.1364C12.0145 15.1922 11.9149 15.2755 11.8396 15.3788C11.7766 15.4792 11.7432 15.5952 11.7432 15.7137C11.7432 15.8322 11.7766 15.9483 11.8396 16.0487C11.9196 16.175 12.0364 16.2738 12.1743 16.3316C12.3123 16.3894 12.4646 16.4034 12.6108 16.3718C12.7569 16.3402 12.8899 16.2644 12.9915 16.1548C13.0932 16.0451 13.1588 15.9069 13.1793 15.7587C13.1849 15.6671 13.1713 15.5752 13.1394 15.4891C13.1075 15.403 13.058 15.3245 12.994 15.2586C12.93 15.1927 12.853 15.1409 12.7678 15.1066C12.6827 15.0722 12.5913 15.0559 12.4995 15.0589ZM4.34121 16.3986H8.34035V15.0589H4.34121V16.3986ZM16.8285 17.9982H3.28144C2.97452 18.0064 2.6767 17.8936 2.45225 17.6841C2.2278 17.4746 2.0947 17.1852 2.08169 16.8785V13.4592H18.0783V16.8785C18.0552 17.1905 17.9121 17.4815 17.6791 17.6903C17.4461 17.8991 17.1412 18.0094 16.8285 17.9982ZM4.34121 10.5298H8.34035V9.20013H4.34121V10.5298ZM12.4395 10.5298C12.5761 10.5327 12.7107 10.4966 12.8275 10.4258C12.9444 10.3549 13.0386 10.2523 13.0993 10.1299C13.1556 10.0107 13.1724 9.87654 13.1472 9.74709C13.122 9.61763 13.0562 9.49957 12.9594 9.41008C12.8552 9.32023 12.7299 9.25839 12.5952 9.2304C12.4605 9.20241 12.3209 9.2092 12.1895 9.25012C12.062 9.29629 11.9507 9.37851 11.869 9.48678C11.7874 9.59505 11.739 9.7247 11.7296 9.85999C11.7422 10.0404 11.8222 10.2095 11.9537 10.3336C12.0852 10.4577 12.2586 10.5278 12.4395 10.5298ZM14.719 10.5298C14.8996 10.5337 15.0753 10.4704 15.212 10.3522C15.3486 10.234 15.4366 10.0693 15.4588 9.88998C15.4516 9.71102 15.378 9.54118 15.2523 9.41361C15.1266 9.28605 14.9578 9.20993 14.779 9.20013C14.5983 9.19628 14.4227 9.25958 14.286 9.37778C14.1493 9.49598 14.0614 9.66067 14.0391 9.83999C14.0416 10.0205 14.1138 10.193 14.2405 10.3215C14.3671 10.4501 14.5386 10.5247 14.719 10.5298ZM2.0617 7.60047H17.9983V12.1295H2.00171L2.0617 7.60047Z"
        fill="#BF946E" />
</svg>