<svg width="20" height="20" viewBox="0 0 20 20" fill="none" xmlns="http://www.w3.org/2000/svg">
    <path
        d="M18.2 16.1287C18.1948 16.2397 18.1794 16.3508 18.1589 16.4568C18.1384 16.5627 18.1077 16.667 18.0701 16.7678C18.0581 16.802 18.0444 16.8345 18.0308 16.8669C17.9709 17.0088 17.8958 17.1438 17.8086 17.2686C17.8035 17.2771 17.7966 17.2856 17.7915 17.2925C17.7761 17.313 17.7607 17.3352 17.7437 17.3557C17.7385 17.3608 17.7351 17.3677 17.73 17.3728C17.689 17.4241 17.6462 17.4736 17.6018 17.5215C17.6001 17.5232 17.6001 17.5232 17.5984 17.5249C17.5027 17.6257 17.3967 17.718 17.2822 17.7983C17.2583 17.8154 17.2344 17.8308 17.2105 17.8479C17.1848 17.865 17.1592 17.8804 17.1318 17.8975C17.1182 17.906 17.1028 17.9146 17.0891 17.9231C17.0686 17.9351 17.0498 17.9453 17.0293 17.9556C17.019 17.9607 17.0088 17.9658 16.9968 17.9727C16.9763 17.9829 16.9541 17.9932 16.9319 18.0034C16.8909 18.0222 16.8481 18.041 16.8054 18.0581C16.7815 18.0684 16.7559 18.0769 16.7319 18.0854C16.6943 18.0991 16.655 18.1111 16.6157 18.1213C16.5645 18.1367 16.5115 18.1487 16.4585 18.1606C16.3696 18.1794 16.2791 18.1914 16.1868 18.1982C16.1304 18.2017 16.0757 18.2051 16.0193 18.2051C15.9629 18.2051 15.9065 18.2034 15.8518 18.1982C15.7595 18.1914 15.6689 18.1777 15.5801 18.1606C15.5271 18.1504 15.4741 18.1367 15.4229 18.1213C15.3835 18.1111 15.3459 18.0974 15.3066 18.0854C15.2827 18.0769 15.2571 18.0684 15.2332 18.0581C15.1904 18.041 15.1477 18.0239 15.1067 18.0034C15.0845 17.9932 15.064 17.9829 15.0417 17.9727C15.0315 17.9675 15.0212 17.9624 15.0093 17.9556C14.9888 17.9453 14.9683 17.9333 14.9495 17.9231C14.9341 17.9146 14.9204 17.906 14.9067 17.8975C14.8811 17.8821 14.8538 17.865 14.8281 17.8479C14.8042 17.8325 14.7803 17.8154 14.7563 17.7983C14.6418 17.718 14.5359 17.6257 14.4402 17.5249C14.4385 17.5232 14.4385 17.5232 14.4368 17.5215C14.3923 17.4736 14.3496 17.4241 14.3086 17.3728C14.3035 17.3677 14.3 17.3608 14.2949 17.3557C14.2795 17.3352 14.2625 17.3147 14.2471 17.2925C14.2419 17.2839 14.2351 17.2754 14.23 17.2686C14.1428 17.1438 14.0676 17.0088 14.0078 16.8669C13.9941 16.8345 13.9805 16.8003 13.9685 16.7678C13.9309 16.667 13.9019 16.5627 13.8796 16.4568C13.8574 16.3508 13.8438 16.2397 13.8386 16.1287C13.8369 16.0911 13.8352 16.0535 13.8352 16.0159C13.8352 15.9595 13.8369 15.9031 13.842 15.8484C13.8489 15.7561 13.8625 15.6655 13.8796 15.5767C13.8899 15.5237 13.9036 15.4707 13.9189 15.4194C14.0027 15.1255 14.1462 14.8572 14.3359 14.6265C14.3479 14.6128 14.3582 14.5991 14.3701 14.5872C14.4368 14.5103 14.5103 14.4368 14.5872 14.3684L12.8918 9.44995C12.8423 9.45337 12.7927 9.45508 12.7432 9.45508C12.5039 9.45508 12.2732 9.41577 12.0579 9.3457C12.0476 9.34229 12.0374 9.33887 12.0288 9.33545C12.0049 9.3269 11.9792 9.31836 11.9553 9.30811C11.9177 9.29272 11.8801 9.27734 11.8425 9.26025L9.27222 11.8647C9.30981 11.9519 9.34229 12.0442 9.36963 12.1365C9.38501 12.1877 9.39697 12.2407 9.40894 12.2937C9.42773 12.3826 9.4397 12.4731 9.44653 12.5654C9.44995 12.6218 9.45337 12.6765 9.45337 12.7329C9.45337 12.7705 9.45166 12.8081 9.44995 12.8457C9.44482 12.9568 9.42944 13.0679 9.40894 13.1738C9.29614 13.7258 8.97485 14.2009 8.53223 14.5171C8.51855 14.5273 8.50317 14.5376 8.4895 14.5479C8.38696 14.6162 8.2793 14.6777 8.1665 14.729C8.13403 14.7444 8.10156 14.7581 8.06909 14.77C8.03662 14.782 8.00244 14.7957 7.96826 14.8076C7.7478 14.8828 7.51196 14.9221 7.26587 14.9221C7.20947 14.9221 7.15308 14.9204 7.09839 14.9153C7.0061 14.9084 6.91553 14.8948 6.82666 14.8777C6.77368 14.8674 6.7207 14.8538 6.66943 14.8384C6.63013 14.8281 6.59253 14.8145 6.55322 14.8025C6.5293 14.7939 6.50366 14.7854 6.47974 14.7751C6.43701 14.7581 6.39429 14.741 6.35327 14.7205C6.33105 14.7102 6.31055 14.7 6.28833 14.6897C6.27808 14.6846 6.26782 14.6794 6.25586 14.6726C6.23535 14.6624 6.21484 14.6504 6.19604 14.6401C6.18066 14.6316 6.16699 14.623 6.15332 14.6145C6.12769 14.5991 6.10034 14.582 6.07471 14.5649C6.05078 14.5496 6.02686 14.5325 6.00293 14.5154C5.88843 14.4351 5.78247 14.3428 5.68677 14.2419C5.68506 14.2402 5.68506 14.2402 5.68335 14.2385C5.63892 14.1907 5.59619 14.1411 5.55518 14.0898C5.55005 14.0847 5.54663 14.0779 5.5415 14.0728C5.52612 14.0522 5.50903 14.0317 5.49365 14.0095C5.48853 14.001 5.48169 13.9924 5.47656 13.9856C5.3894 13.8608 5.31421 13.7258 5.25439 13.584C5.24072 13.5515 5.22705 13.5173 5.21509 13.4849C5.17749 13.384 5.14844 13.2798 5.12622 13.1738C5.104 13.0679 5.09033 12.9568 5.0852 12.8457C5.0835 12.8081 5.08179 12.7705 5.08179 12.7329C5.08179 12.6765 5.0835 12.6201 5.08862 12.5654C5.09546 12.4731 5.10913 12.3826 5.12622 12.2937C5.13647 12.2407 5.15015 12.1877 5.16553 12.1365C5.24927 11.8425 5.39282 11.5742 5.58252 11.3435C5.59448 11.3298 5.60474 11.3162 5.6167 11.3042C5.62695 11.2922 5.63721 11.2803 5.64746 11.27L3.87354 6.17041C3.67358 6.16016 3.48047 6.12427 3.29932 6.06445C3.28906 6.06104 3.27881 6.05762 3.27026 6.0542C3.24634 6.04565 3.2207 6.03711 3.19678 6.02686C3.15405 6.00977 3.11133 5.99268 3.07031 5.97217C3.01733 5.94824 2.96436 5.9209 2.91309 5.89185C2.89771 5.8833 2.88403 5.87476 2.87036 5.86621C2.84473 5.85083 2.81738 5.83374 2.79175 5.81665C2.76782 5.80127 2.7439 5.78418 2.71997 5.76709C2.69092 5.74658 2.66357 5.72607 2.63623 5.70386C2.62256 5.6936 2.60889 5.68164 2.59521 5.67139C2.5542 5.63721 2.51489 5.60303 2.47729 5.56714C2.46533 5.55518 2.45166 5.54321 2.4397 5.53125C2.41577 5.50732 2.39014 5.48169 2.36792 5.45605C2.34399 5.43042 2.32178 5.40308 2.29956 5.37744C2.25513 5.32275 2.2124 5.26807 2.1731 5.20825C2.09448 5.09204 2.02612 4.96729 1.97144 4.8374C1.95776 4.80493 1.94409 4.77075 1.93213 4.73828C1.92017 4.7041 1.9082 4.67163 1.89795 4.63745C1.87744 4.56909 1.85864 4.49902 1.84326 4.42725C1.82788 4.35547 1.81763 4.28369 1.81079 4.21021C1.80396 4.13672 1.79883 4.06152 1.79883 3.98633C1.79883 2.77808 2.77808 1.79883 3.98633 1.79883C5.19458 1.79883 6.17383 2.77808 6.17383 3.98633C6.17383 4.06152 6.17041 4.13672 6.16187 4.21021C6.15503 4.28369 6.14307 4.35547 6.12939 4.42725C6.11572 4.49902 6.09692 4.56909 6.07471 4.63745C6.06445 4.67163 6.05249 4.70581 6.04053 4.73828C6.02856 4.77246 6.01489 4.80493 6.00122 4.8374C5.94653 4.969 5.87817 5.09204 5.79956 5.20825C5.76025 5.26636 5.71753 5.32275 5.6731 5.37744C5.65088 5.40479 5.62866 5.43042 5.60474 5.45605C5.58081 5.48169 5.55688 5.50732 5.53296 5.53125C5.521 5.54321 5.50732 5.55518 5.49536 5.56714C5.47314 5.58936 5.44922 5.60986 5.42529 5.63037L7.13086 10.5522C7.17529 10.5488 7.22144 10.5471 7.26587 10.5471C7.53076 10.5471 7.78369 10.5933 8.01782 10.6804C8.04688 10.6907 8.07422 10.7026 8.10327 10.7146L10.7009 8.07422C10.6941 8.05542 10.6873 8.03833 10.6804 8.01953C10.6685 7.98535 10.6565 7.95288 10.6462 7.9187C10.6257 7.85034 10.6069 7.78027 10.5916 7.7085C10.5762 7.63672 10.5659 7.56494 10.5591 7.49146C10.5522 7.41797 10.5471 7.34277 10.5471 7.26758C10.5471 6.05933 11.5264 5.08008 12.7346 5.08008C13.9429 5.08008 14.9221 6.05933 14.9221 7.26758C14.9221 7.34277 14.9187 7.41797 14.9102 7.49146C14.9033 7.56494 14.8914 7.63672 14.8777 7.7085C14.864 7.78027 14.8452 7.85034 14.823 7.9187C14.8127 7.95288 14.8008 7.98706 14.7888 8.01953C14.7769 8.05371 14.7632 8.08618 14.7495 8.11865C14.6948 8.25025 14.6265 8.37329 14.5479 8.4895C14.5085 8.54761 14.4658 8.604 14.4214 8.65869C14.4043 8.68091 14.3855 8.70142 14.3667 8.72192L16.1287 13.8318C16.1475 13.8335 16.1646 13.8335 16.1833 13.8352C16.2756 13.842 16.3662 13.8557 16.4551 13.8728C16.5081 13.8831 16.561 13.8967 16.6123 13.9121C16.9063 13.9958 17.1746 14.1394 17.4053 14.3291C17.4189 14.3411 17.4326 14.3513 17.4446 14.3633C17.5232 14.4316 17.5984 14.5068 17.6667 14.5854C17.6787 14.5991 17.689 14.6128 17.7009 14.6248C17.8906 14.8538 18.0342 15.1238 18.1179 15.4177C18.1333 15.469 18.1453 15.522 18.1572 15.575C18.176 15.6638 18.188 15.7544 18.1948 15.8467C18.1982 15.9031 18.2017 15.9578 18.2017 16.0142C18.2034 16.0535 18.2017 16.0911 18.2 16.1287Z"
        fill="#74BF6E" />
</svg>