<svg width="3200" height="400" viewBox="0 0 3200 400" fill="none" xmlns="http://www.w3.org/2000/svg">
<g clip-path="url(#clip0_370_909)">
<path style="mix-blend-mode:screen" d="M3199.83 0H0V0.74255H36.8924L19.6191 3.75183H0V4.49438H15.3541L0 7.11285V8.4807H74.6378L55.3173 11.998H0V12.7797H51.0949L30.0257 16.6097H0V17.3913H25.6754L2.64431 21.6121H0V22.8627L2.47371 22.3937H84.7459L60.9044 27.0054H0V27.8652H56.5115L30.3243 32.9067H0V33.7665H25.8034L0 38.7298V40.2149H84.0635L53.9098 46.3898H0V47.3278H49.3463L15.9085 54.1671H0V55.1441H11.089L0 57.4108V58.5833L16.6336 55.1441H107.35L72.2494 62.765H0V63.8202H67.5152L28.1491 72.3791H0V73.4734H23.1164L0.298551 78.5149L0 78.5931V80L29.258 73.5515H124.794L83.2958 83.2047H0V84.3771H78.2631L31.1346 95.3591H0V96.6097H25.7607L0.298551 102.511L0 102.589V104.27L32.6274 96.6097H134.263L84.0635 109.155H0V110.523H78.6469L20.728 124.983H0V126.468H14.8423L0.298551 130.103L0 130.181V132.174L22.6046 126.468H132.173L69.7757 143.312H0V144.954H63.6767L0.255901 162.071L0 162.149V164.533L71.7376 144.954H186.509L118.823 164.807H0V166.644H112.554L31.7317 190.366H0V192.477H24.5665L0 199.668V202.521L33.9495 192.438H161.431L71.9508 221.202H0V223.664H64.2738L0 244.338V247.777L74.2113 223.664H210.393L110.208 259.228H0V262.159H101.977L0.213251 298.31L0 298.388V302.609L112.511 262.198H259.441L145.736 307.298H0V310.894H136.694L0.213251 365.022L0 365.1V374.441H167.146L111.616 399.414L110.592 399.883H123.728L179.557 374.48H357.792L308.745 399.883H320.943L369.308 374.48H548.396L506.897 399.883H518.285L559.186 374.48H739L705.007 399.883H715.627L749.022 374.48H929.518L903.032 399.883H913.012L938.944 374.48H1119.99L1101.01 399.883H1110.48L1128.95 374.48H1310.38L1299.04 399.57L1298.91 399.883H1308L1319 374.48H1500.69L1496.72 399.609V399.883H1505.59L1509.09 374.48H1690.87L1694.36 399.883H1703.28L1699.27 374.48H1880.96L1891.83 399.687L1891.92 399.883H1901L1889.53 374.48H2070.96L2089.3 399.726L2089.43 399.883H2098.9L2079.92 374.48H2260.97L2286.77 399.766L2286.9 399.922H2296.88L2270.4 374.519H2450.89L2484.16 399.805L2484.33 399.922H2494.95L2460.96 374.519H2640.77L2681.5 399.844L2681.67 399.961H2693.06L2651.56 374.558H2830.65L2878.84 399.883L2879.01 399.961H2891.26L2842.21 374.558H3020.44L3076.1 399.922L3076.27 400H3089.41L3032.85 374.597H3200V365.256L3063.31 311.011H3200V307.416H3054.26L2940.56 262.316H3087.49L3199.15 302.452L3200 302.765V298.544L3098.02 262.355H3200V259.424H3089.79L2989.61 223.859H3125.79L3199.15 247.699L3199.96 247.973V244.533L3135.68 223.898H3199.96V221.436H3128.01L3038.53 192.672H3166.01L3199.96 202.755V199.902L3175.39 192.711H3199.96V190.601H3168.23L3087.4 166.878H3199.91V165.042H3081.09L3013.41 145.188H3128.18L3199.1 164.573L3199.91 164.807V162.423L3136.24 145.227H3199.91V143.586H3130.18L3067.78 126.742H3177.35L3199.91 132.447V130.454L3185.12 126.742H3199.91V125.256H3179.19L3121.27 110.796H3199.91V109.428H3115.85L3065.65 96.8832H3167.29L3199.91 104.543V102.863L3174.15 96.8832H3199.91V95.6326H3168.78L3121.65 84.6507H3199.91V83.4783H3116.62L3075.12 73.8251H3170.66L3199.91 80.2736V78.8666L3176.84 73.8251H3199.91V72.7308H3171.81L3132.44 64.172H3199.91V63.1168H3127.67L3092.56 55.4958H3183.28L3199.87 58.935V57.7626L3188.83 55.4958H3199.87V54.5188H3184.01L3150.57 47.6795H3199.91V46.7416H3146L3115.85 40.5667H3199.91V39.0816L3174.11 34.1182H3199.91V33.2584H3169.59L3143.4 28.2169H3199.91V27.3571H3139.05L3115.21 22.7455H3197.48L3199.91 23.2145V21.9638H3197.27L3174.24 17.743H3199.87V16.9614H3169.89L3148.82 13.1314H3199.87V12.3498H3144.55L3125.23 8.83244H3199.87V7.46458L3184.56 4.80703H3199.87V4.06448H3180.3L3163.02 1.0552H3199.87V0.312653L3199.83 0ZM1074.49 3.71275L1080.16 0.703469H1158.81L1153.94 3.71275H1074.49ZM1155.39 3.71275L1160.21 0.703469H1238.94L1234.94 3.71275H1155.39ZM1236.3 3.71275L1240.22 0.703469H1319.04L1315.93 3.71275H1236.3ZM1317.21 3.71275L1320.28 0.703469H1399.18L1396.96 3.71275H1317.25H1317.21ZM1398.12 3.71275L1400.29 0.703469H1479.24L1477.87 3.71275H1398.12ZM1479.07 3.71275L1480.34 0.703469H1559.33L1558.86 3.71275H1479.07ZM1640.5 0.703469H1719.48L1720.76 3.71275H1640.97L1640.5 0.703469ZM191.286 110.484L137.675 124.944H28.4477L85.7269 110.484H191.286ZM1559.46 7.69907L1559.89 4.4553H1639.9L1640.37 7.69907H1559.46ZM3012 83.2047L2973.36 73.5515H3069.23L3110.31 83.2047H3012ZM3003.55 109.155L2957.06 96.6097H3059.08L3108.73 109.155H3003.51H3003.55ZM2883.28 307.298L2782.92 262.198H2930.58L3042.88 307.298H2883.32H2883.28ZM1517.79 310.894H1682.08L1690.18 369.868H1509.65L1517.75 310.894H1517.79ZM416.948 262.198L316.592 307.298H156.995L269.293 262.198H416.948ZM309.342 144.954L247.542 164.807H127.183L194.101 144.954H309.342ZM166.336 63.8984L129.529 72.4573H34.2481L73.1877 63.8984H166.336ZM2773.8 262.198L2872.83 307.298H2712.51L2625.5 262.198H2773.8ZM2616.97 262.198L2702.78 307.298H2541.74L2468.04 262.198H2616.93H2616.97ZM2460.15 262.198L2532.7 307.298H2371.01L2310.66 262.198H2460.1H2460.15ZM2303.28 262.198L2362.56 307.298H2200.32L2153.28 262.198H2303.24H2303.28ZM2146.37 262.198L2192.39 307.298H2029.72L1996.03 262.198H2146.37ZM1989.42 262.198L2022.17 307.298H1859.16L1838.78 262.198H1989.42ZM1832.42 262.198L1851.91 307.298H1688.69L1681.61 262.198H1832.46H1832.42ZM731.749 262.198L658.092 307.298H497.045L582.857 262.198H731.749ZM574.327 262.198L487.321 307.298H326.999L426.033 262.198H574.327ZM303.882 110.523L254.536 124.983H144.883L197.897 110.523H303.84H303.882ZM189.111 84.3771H288.059L247.414 95.3591H145.693L189.111 84.3771ZM226.472 73.5515L187.831 83.2047H89.5227L130.595 73.5515H226.472ZM2907.42 83.2047L2871.64 73.5515H2967.81L3006.03 83.2047H2907.38H2907.42ZM2776.4 259.267L2697.28 223.703H2834.74L2923.29 259.267H2776.44H2776.4ZM1518.26 307.298L1524.49 262.198H1675.38L1681.61 307.298H1518.3H1518.26ZM432.132 144.954L376.217 164.807H255.347L316.464 144.954H432.174H432.132ZM351.31 96.6097L308.531 109.155H202.93L248.906 96.6097H351.31ZM1815.79 223.703L1831.14 259.267H1681.1L1675.51 223.703H1815.79ZM940.65 223.703L893.052 259.267H744.374L801.567 223.703H940.607H940.65ZM794.615 223.703L736.526 259.267H588.402L656.045 223.703H794.615ZM378.35 166.683H500.201L440.448 190.405H312.37L378.35 166.683ZM416.522 110.523L371.483 124.983H261.403L310.195 110.523H416.564H416.522ZM328.193 73.5515L292.41 83.2047H193.76L231.974 73.5515H328.193ZM176.103 62.8432L208.602 55.2223H299.873L269.293 62.8432H176.103ZM2844.25 95.3591L2806.89 84.3771H2906.18L2946.36 95.3591H2844.25ZM2620.68 192.477L2683.8 221.241H2546.43L2490.98 192.477H2620.68ZM2484.33 192.477L2539.01 221.241H2401.12L2354.16 192.477H2484.33ZM2347.98 192.477L2394.21 221.241H2255.81L2217.34 192.477H2347.93H2347.98ZM2211.58 192.477L2249.37 221.241H2110.54L2080.56 192.477H2211.54H2211.58ZM2075.19 192.477L2104.53 221.241H1965.36L1943.87 192.477H2075.19ZM1938.75 192.477L1959.65 221.241H1820.22L1807.22 192.477H1938.75ZM1524.83 259.267L1529.73 223.703H1670.05L1674.96 259.267H1524.87H1524.83ZM554.879 144.954L504.807 164.807H383.425L438.7 144.954H554.879ZM459.769 96.6097L420.701 109.155H314.716L357.025 96.6097H459.769ZM1802.27 192.477L1814.68 221.241H1675.09L1670.56 192.477H1802.27ZM1255.88 192.477L1234.38 221.241H1095.21L1124.56 192.477H1255.88ZM982.404 192.477L943.934 221.241H805.534L851.767 192.477H982.361H982.404ZM529.118 110.523L488.345 124.983H377.838L422.365 110.523H529.118ZM429.828 73.5515L396.903 83.2047H297.911L333.311 73.5515H429.828ZM274.283 62.8432L304.522 55.2223H396.092L367.772 62.8432H274.283ZM1919.98 166.644L1937.21 190.366H1806.23L1795.53 166.644H1919.98ZM1530.03 221.202L1534 192.438H1665.75L1669.71 221.202H1530.08H1530.03ZM887.763 166.644L849.037 190.366H719.423L764.504 166.644H887.763ZM758.576 166.644L712.855 190.366H583.71L635.786 166.644H758.576ZM677.669 144.954L633.483 164.807H511.631L561.063 144.954H677.669ZM568.271 96.6097L532.914 109.155H426.502L465.1 96.6097H568.228H568.271ZM2698.31 83.2047L2668.24 73.5515H2765.05L2797.6 83.2047H2698.26H2698.31ZM2638.68 144.954L2688.11 164.807H2566.26L2522.08 144.954H2638.68ZM2516.32 144.954L2559.91 164.807H2437.59L2399.29 144.954H2516.32ZM2393.95 144.954L2431.74 164.807H2309L2276.54 144.954H2393.95ZM2271.55 144.954L2303.49 164.807H2180.36L2153.79 144.954H2271.55ZM2149.14 144.954L2175.24 164.807H2051.77L2031.09 144.954H2149.14ZM2026.69 144.954L2046.95 164.807H1923.22L1908.38 144.954H2026.69ZM1791.09 166.644L1801.33 190.366H1670.22L1666.51 166.644H1791.09ZM1275.11 166.644L1257.41 190.366H1126.69L1150.87 166.644H1275.11ZM1016.91 166.644L985.176 190.366H855.136L893.265 166.644H1016.91ZM800.416 144.954L762.116 164.807H639.795L683.384 144.954H800.416ZM641.672 110.523L605.206 124.983H494.273L534.577 110.523H641.715H641.672ZM531.464 73.5515L501.395 83.2047H402.063L434.605 73.5515H531.421H531.464ZM372.464 62.8432L400.442 55.2223H492.268L466.209 62.8432H372.421H372.464ZM1904.2 144.954L1918.62 164.807H1794.68L1785.68 144.954H1904.2ZM1534.25 190.366L1537.5 166.644H1662.12L1665.36 190.366H1534.21H1534.25ZM1168.61 144.954L1147.93 164.807H1024.46L1050.56 144.954H1168.61ZM923.163 144.954L890.706 164.807H767.959L805.747 144.954H923.163ZM676.73 96.6097L645.084 109.155H538.331L573.261 96.6097H676.73ZM2627.93 95.3591L2597.05 84.3771H2696.98L2730.72 95.3591H2627.93ZM2007.8 126.468L2024.99 143.312H1907.1L1894.52 126.468H2007.8ZM1781.71 144.954L1790.28 164.807H1666.21L1663.1 144.954H1781.71ZM1291.32 144.954L1276.48 164.807H1152.75L1173.01 144.954H1291.32ZM836.071 126.468L803.572 143.312H687.009L723.987 126.468H836.071ZM754.268 110.523L722.067 124.983H610.75L646.79 110.523H754.268ZM633.142 73.5515L605.931 83.2047H506.3L536.027 73.5515H633.142ZM470.687 62.8432L496.448 55.2223H588.53L564.731 62.8432H470.687ZM2552.83 110.523L2588.87 124.983H2477.55L2445.35 110.523H2552.83ZM2440.57 110.523L2472.35 124.983H2360.64L2332.71 110.523H2440.53H2440.57ZM2328.32 110.523L2355.87 124.983H2243.83L2220.2 110.523H2328.36H2328.32ZM2216.06 110.523L2239.35 124.983H2127.01L2107.64 110.523H2216.06ZM2103.76 110.523L2122.78 124.983H2010.15L1995.05 110.523H2103.72H2103.76ZM1890.72 126.468L1902.97 143.312H1784.91L1777.28 126.468H1890.72ZM1537.71 164.807L1540.44 144.954H1659.09L1661.82 164.807H1537.71ZM1187.85 126.468L1170.28 143.312H1052.65L1074.78 126.468H1187.81H1187.85ZM953.317 126.468L925.807 143.312H808.861L840.933 126.468H953.359H953.317ZM785.147 96.6097L757.211 109.155H650.074L681.337 96.6097H785.147ZM2490.09 46.4289L2472.73 40.254H2561.19L2580.17 46.4289H2490.09ZM1991.46 110.484L2006.22 124.944H1893.37L1882.54 110.484H1991.42H1991.46ZM1773.65 126.429L1780.94 143.273H1662.76L1660.12 126.429H1773.65ZM1305.1 126.429L1292.51 143.273H1174.63L1191.82 126.429H1305.1ZM1091.97 110.484L1072.61 124.944H960.269L983.556 110.484H1092.02H1091.97ZM734.82 73.5125L710.467 83.1656H610.495L637.364 73.5125H734.777H734.82ZM568.953 62.8041L592.454 55.1832H684.791L663.296 62.8041H568.953ZM2563.4 72.4182L2539.26 63.8593H2633.86L2660.22 72.4182H2563.36H2563.4ZM2085.51 96.5706L2102.01 109.116H1993.68L1980.59 96.5706H2085.51ZM1879.17 110.484L1889.66 124.944H1776.64L1770.11 110.484H1879.17ZM1540.69 143.273L1543 126.429H1656.58L1658.88 143.273H1540.65H1540.69ZM1204.53 110.484L1189.43 124.944H1076.79L1095.81 110.484H1204.48H1204.53ZM2487.83 84.3381L2515.12 95.32H2411.65L2387.26 84.3381H2487.83ZM2383.25 84.3381L2407.35 95.32H2303.58L2282.42 84.3381H2383.29H2383.25ZM2278.67 84.3381L2299.53 95.32H2195.46L2177.55 84.3381H2278.67ZM2174.09 84.3381L2191.75 95.32H2087.43L2072.76 84.3381H2174.14H2174.09ZM1977.35 96.5706L1990.14 109.116H1881.6L1872.21 96.5706H1977.3H1977.35ZM1766.83 110.484L1773.1 124.944H1659.94L1657.68 110.484H1766.83ZM1317.08 110.484L1306.25 124.944H1193.39L1208.15 110.484H1317.04H1317.08ZM1110.61 96.5706L1093.81 109.116H985.731L1005.9 96.5706H1110.57H1110.61ZM836.498 73.5125L815.002 83.1656H714.732L738.786 73.5125H836.498ZM667.177 62.8041L688.459 55.1832H781.053L761.775 62.8041H667.177ZM2462.07 72.4182L2440.49 63.8593H2535.38L2559.22 72.4182H2462.11H2462.07ZM2460.87 73.5125L2484.93 83.1656H2384.66L2363.16 73.5125H2460.87ZM2069.47 84.3381L2083.89 95.32H1979.31L1967.88 84.3381H2069.47ZM1869.06 96.5706L1878.19 109.116H1769.51L1763.84 96.5706H1869.1H1869.06ZM1543.21 124.944L1545.22 110.484H1654.4L1656.4 124.944H1543.25H1543.21ZM1218.98 96.5706L1205.89 109.116H1097.56L1114.07 96.5706H1218.98ZM1022.07 84.3381L1004.16 95.32H900.089L920.945 84.3381H1022.07ZM762.798 63.8202H857.951L838.886 72.3791H741.473L762.798 63.8202ZM1453.39 62.765L1456.67 55.1441H1550.63L1549.44 62.765H1453.39ZM1449.25 72.3791L1452.96 63.8202H1549.31L1547.95 72.3791H1449.25ZM1550.42 72.3791L1551.61 63.8202H1647.96L1649.15 72.3791H1550.42ZM1648.9 55.1441H1742.86L1746.14 62.765H1650.09L1648.9 55.1441ZM2156.61 73.4734L2172.13 83.1265H2071.09L2058.17 73.4734H2156.61ZM1964.81 84.299L1975.98 95.2809H1871.23L1863.04 84.299H1964.81ZM1760.77 96.5315L1766.19 109.077H1657.39L1655.42 96.5315H1760.77ZM1327.4 96.5315L1318.02 109.077H1209.47L1222.27 96.5315H1327.36H1327.4ZM1126.9 84.299L1112.23 95.2809H1007.91L1025.57 84.299H1126.95H1126.9ZM1246.92 72.3791L1255.66 63.8202H1351.84L1345.44 72.3791H1246.92ZM1651.63 72.3791L1650.26 63.8202H1746.61L1750.32 72.3791H1651.63ZM1752.88 72.3791L1749 63.8202H1845.26L1851.49 72.3791H1752.88ZM1854.13 72.3791L1847.73 63.8202H1943.91L1952.65 72.3791H1854.13ZM1860.14 84.299L1868.12 95.2809H1763.24L1758.3 84.299H1860.19H1860.14ZM1963.57 83.1265H1862.15L1854.94 73.4734H1953.76L1963.61 83.1265H1963.57ZM1545.34 109.077L1547.09 96.5315H1652.44L1654.14 109.077H1545.34ZM1231.69 84.299L1220.26 95.2809H1115.69L1130.1 84.299H1231.69ZM1039.73 73.4734L1023.95 83.1265H923.12L941.503 73.4734H1039.73ZM861.32 63.8202H956.729L940.18 72.3791H842.512L861.32 63.8202ZM863.581 62.765L880.342 55.1441H973.405L958.648 62.765H863.538H863.581ZM961.847 62.765L976.39 55.1441H1069.67L1057.17 62.765H961.847ZM1060.11 62.765L1072.4 55.1441H1165.89L1155.65 62.765H1060.11ZM1145.75 72.3791L1157.01 63.8202H1253.02L1244.11 72.3791H1145.75ZM1242.95 73.4734L1232.89 83.1265H1131.64L1144.35 73.4734H1243H1242.95ZM1142.81 72.3791H1044.67L1058.45 63.8202H1154.28L1142.81 72.3791ZM1141.36 73.4734L1128.44 83.1265H1027.4L1042.92 73.4734H1141.36ZM943.592 72.3791L959.885 63.8202H1055.51L1041.52 72.3791H943.592ZM1336.49 84.299L1328.3 95.2809H1223.55L1234.72 84.299H1336.49ZM1235.92 83.1265L1245.77 73.4734H1344.55L1337.34 83.1265H1235.87H1235.92ZM1441.28 84.299L1436.33 95.2809H1331.45L1339.43 84.299H1441.32H1441.28ZM1441.79 83.1265H1340.24L1347.23 73.4734H1446.14L1441.79 83.1265ZM1439.32 95.2809L1444.05 84.299H1546.03L1544.32 95.2809H1439.32ZM1547.22 95.2809L1548.71 84.299H1650.73L1652.23 95.2809H1547.22ZM1653.29 83.1265L1651.76 73.4734H1750.75L1754.93 83.1265H1653.29ZM1753.31 73.4734H1852.21L1859.21 83.1265H1757.66L1753.31 73.4734ZM1755.44 84.299L1760.17 95.2809H1655.17L1653.46 84.299H1755.44ZM1444.56 83.1265L1448.74 73.4734H1547.73L1546.2 83.1265H1444.56ZM1254.13 62.765H1158.42L1168.49 55.1441H1262.15L1254.17 62.765H1254.13ZM1435.73 96.5315L1430.06 109.077H1321.39L1330.51 96.5315H1435.78H1435.73ZM1544.11 96.5315L1542.14 109.077H1433.34L1438.76 96.5315H1544.11ZM2045.2 63.8202H2141.04L2154.81 72.3791H2056.68L2045.2 63.8202ZM2043.84 62.765L2033.6 55.1441H2127.09L2139.38 62.765H2043.84ZM1955.38 72.3791L1946.47 63.8202H2042.47L2053.73 72.3791H1955.38ZM2055.14 73.4734L2067.85 83.1265H1966.6L1956.53 73.4734H2055.18H2055.14ZM2142.28 62.765L2129.78 55.1441H2223.05L2237.6 62.765H2142.28ZM2255.9 72.3791H2157.97L2143.98 63.8202H2239.6L2255.9 72.3791ZM2240.75 62.765L2226 55.1441H2319.06L2335.82 62.765H2240.71H2240.75ZM2356.98 72.3791H2259.31L2242.76 63.8202H2338.17L2356.98 72.3791ZM2341.58 63.8202H2436.73L2458.06 72.3791H2360.64L2341.58 63.8202ZM2339.28 62.765L2322.26 55.1441H2415.11L2434.13 62.765H2339.28ZM1945.36 62.765L1937.38 55.1441H2031.04L2041.11 62.765H1945.4H1945.36ZM1846.92 62.765L1841.21 55.1441H1935L1942.8 62.765H1846.92ZM1748.49 62.765L1745.03 55.1441H1838.9L1844.45 62.765H1748.49ZM1548.93 83.1265L1550.25 73.4734H1649.28L1650.6 83.1265H1548.93ZM1348.09 72.3791L1354.31 63.8202H1450.58L1446.69 72.3791H1348.09ZM1451.04 62.765H1355.08L1360.63 55.1441H1454.5L1451.04 62.765ZM1352.61 62.765H1256.73L1264.53 55.1441H1358.32L1352.61 62.765ZM1167.25 54.128H1074.02L1085.02 47.2887H1176.38L1167.21 54.128H1167.25ZM1071.33 54.128H978.31L991.318 47.2887H1082.5L1071.33 54.128ZM975.409 54.128H882.603L897.616 47.2887H988.588L975.409 54.128ZM786.896 54.128L803.956 47.2887H894.715L879.489 54.128H786.896ZM877.271 55.105L860.254 62.7259H765.4L784.422 55.105H877.271ZM938.133 73.4343L919.495 83.0874H818.969L840.166 73.4343H938.133ZM2258.03 73.4343L2276.41 83.0874H2175.59L2159.8 73.4343H2258.03ZM2359.45 73.4343L2380.65 83.0874H2280.12L2261.48 73.4343H2359.45ZM2320.13 54.0889L2304.9 47.2496H2395.66L2412.72 54.0889H2320.13ZM2224.16 54.0889L2210.99 47.2496H2301.96L2316.97 54.0889H2224.16ZM2128.24 54.0889L2117.07 47.2496H2208.26L2221.26 54.0889H2128.24ZM2032.32 54.0889L2023.15 47.2496H2114.51L2125.51 54.0889H2032.32ZM1936.4 54.0889L1929.28 47.2496H2020.81L2029.81 54.0889H1936.45H1936.4ZM1840.53 54.0889L1835.41 47.2496H1927.06L1934.06 54.0889H1840.53ZM1551.78 62.7259L1552.85 55.105H1646.81L1647.87 62.7259H1551.78ZM1265.6 54.0889L1272.6 47.2496H1364.25L1359.13 54.0889H1265.6ZM1263.21 54.0889H1169.85L1178.85 47.2496H1270.38L1263.26 54.0889H1263.21ZM993.152 46.3117L1004.88 40.1368H1094.15L1084.08 46.3117H993.152ZM899.705 46.3117L913.226 40.1368H1002.32L990.422 46.3117H899.705ZM806.259 46.3117L821.613 40.1368H910.496L896.763 46.3117H806.259ZM816.367 84.2599H917.235L896.08 95.2418H792.312L816.41 84.2599H816.367ZM1429.51 110.405L1422.98 124.866H1309.96L1320.45 110.405H1429.51ZM1541.97 110.405L1539.71 124.866H1426.56L1432.83 110.405H1541.97ZM2489.15 83.0874L2464.8 73.4343H2562.21L2589.08 83.0874H2489.11H2489.15ZM2437.84 62.7259L2418.56 55.105H2511.16L2532.44 62.7259H2437.84ZM2302.81 46.3117L2289.08 40.1368H2377.96L2393.31 46.3117H2302.81ZM2209.15 46.3117L2197.25 40.1368H2286.35L2299.87 46.3117H2209.15ZM2115.53 46.3117L2105.47 40.1368H2194.74L2206.46 46.3117H2115.53ZM1744.65 54.0889L1741.53 47.2496H1833.28L1838.22 54.0889H1744.61H1744.65ZM1648.77 54.0889L1647.7 47.2496H1739.49L1742.43 54.0889H1648.73H1648.77ZM1550.8 54.0889H1457.1L1460.04 47.2496H1551.87L1550.8 54.0889ZM1454.93 54.0889H1361.31L1366.26 47.2496H1458L1454.88 54.0889H1454.93ZM1177.66 46.3117H1086.56L1096.49 40.1368H1185.93L1177.7 46.3117H1177.66ZM818.627 40.1368L803.103 46.3117H712.812L729.958 40.1368H818.627ZM800.714 47.2496L783.484 54.0889H691.146L710.211 47.2496H800.757H800.714ZM664.234 63.7421H759.13L737.549 72.3009H640.435L664.276 63.7421H664.234ZM1002.07 96.4533L981.551 108.999H873.774L897.658 96.4533H1002.07ZM2416.05 54.0889L2398.82 47.2496H2489.36L2508.43 54.0889H2416.09H2416.05ZM2396.43 46.3117L2380.9 40.1368H2469.57L2486.72 46.3117H2396.43ZM2021.87 46.3117L2013.64 40.1368H2103.08L2113.02 46.3117H2021.92H2021.87ZM1928.26 46.3117L1921.82 40.1368H2011.38L2019.49 46.3117H1928.21H1928.26ZM1834.64 46.3117L1830.03 40.1368H1919.73L1926.04 46.3117H1834.64ZM1741.07 46.3117L1738.29 40.1368H1828.07L1832.55 46.3117H1741.07ZM1552.89 54.0889L1553.83 47.2496H1645.66L1646.6 54.0889H1552.89ZM1366.94 46.3117L1371.42 40.1368H1461.2L1458.42 46.3117H1366.94ZM1364.85 46.3117H1273.45L1279.76 40.1368H1369.45L1364.85 46.3117ZM1271.23 46.3117H1179.96L1188.06 40.1368H1277.63L1271.19 46.3117H1271.23ZM1095.56 39.2379H1006.54L1017.16 33.6492H1104.68L1095.6 39.2379H1095.56ZM1004.03 39.2379H915.187L927.428 33.6492H1014.78L1004.03 39.2379ZM912.458 39.2379H823.788L837.649 33.6492H924.826L912.415 39.2379H912.458ZM820.888 39.2379H732.431L747.956 33.6492H834.92L820.888 39.2379ZM619.366 46.3117L638.345 40.1368H726.802L709.443 46.3117H619.366ZM711.746 84.2599H812.315L787.919 95.2418H684.45L711.746 84.2599ZM893.606 96.4924L869.381 109.038H761.903L789.455 96.4924H893.564H893.606ZM979.376 110.405L955.748 124.866H843.706L871.258 110.405H979.419H979.376ZM1422.26 126.351L1414.62 143.195H1296.57L1308.81 126.351H1422.26ZM1539.42 126.351L1536.77 143.195H1418.59L1425.88 126.351H1539.42ZM2193.67 96.4924L2213.84 109.038H2105.77L2088.96 96.4924H2193.63H2193.67ZM2301.87 96.4924L2325.76 109.038H2217.98L2197.46 96.4924H2301.87ZM2410.03 96.4924L2437.59 109.038H2330.11L2305.88 96.4924H2409.99H2410.03ZM2518.19 96.4924L2549.46 109.038H2442.32L2414.38 96.4924H2518.19ZM2519.73 95.2418L2492.09 84.2599H2592.36L2622.9 95.2418H2519.77H2519.73ZM2536.32 62.7259L2514.82 55.105H2607.16L2630.66 62.7259H2536.32ZM2378.64 39.2379L2364.61 33.6492H2451.57L2467.1 39.2379H2378.64ZM2287.07 39.2379L2274.66 33.6492H2361.84L2375.7 39.2379H2287.03H2287.07ZM2195.5 39.2379L2184.76 33.6492H2272.1L2284.34 39.2379H2195.5ZM2103.98 39.2379L2094.89 33.6492H2182.41L2193.03 39.2379H2104.02H2103.98ZM2012.45 39.2379L2004.98 33.6492H2092.67L2101.63 39.2379H2012.45ZM1920.92 39.2379L1915.12 33.6492H2002.94L2010.27 39.2379H1920.92ZM1647.53 46.3117L1646.55 40.1368H1736.42L1739.06 46.3117H1647.53ZM1554 46.3117L1554.85 40.1368H1644.72L1645.57 46.3117H1554ZM1552.04 46.3117H1460.51L1463.16 40.1368H1553.02L1552.04 46.3117ZM1189.34 39.2379L1196.68 33.6492H1284.5L1278.69 39.2379H1189.34ZM1187.17 39.2379H1097.99L1106.94 33.6492H1194.63L1187.17 39.2379ZM929.39 32.7894L940.479 27.7479H1026.25L1016.48 32.7894H929.347H929.39ZM839.91 32.7894L852.492 27.7479H938.091L926.831 32.7894H839.867H839.91ZM750.43 32.7894L764.504 27.7479H849.933L837.18 32.7894H750.43ZM660.992 32.7894L676.56 27.7479H761.817L747.572 32.7894H661.035H660.992ZM745.099 33.6492L729.403 39.2379H641.16L658.305 33.6492H745.099ZM706.841 47.2496L687.564 54.0889H595.482L616.551 47.2496H706.841ZM565.755 63.7421H660.353L636.213 72.3009H539.354L565.712 63.7421H565.755ZM866.865 110.366L838.929 124.827H727.228L759.003 110.366H866.822H866.865ZM2554.57 108.999L2522.93 96.4533H2626.4L2661.33 108.999H2554.57ZM2593.73 83.0484L2566.52 73.3952H2663.63L2693.36 83.0484H2593.73ZM2512.1 54.0498L2492.82 47.2106H2583.15L2604.22 54.0498H2512.14H2512.1ZM2470.26 39.1988L2454.56 33.6102H2541.35L2558.5 39.1988H2470.26ZM2452.13 32.7504L2437.88 27.7088H2523.14L2538.71 32.7504H2452.17H2452.13ZM2362.48 32.7504L2349.73 27.7088H2435.15L2449.23 32.7504H2362.48ZM2272.83 32.7504L2261.57 27.7088H2347.17L2359.75 32.7504H2272.79H2272.83ZM2183.18 32.7504L2173.41 27.7088H2259.18L2270.27 32.7504H2183.13H2183.18ZM1829.48 39.1988L1825.3 33.6102H1913.24L1918.92 39.1988H1829.48ZM1737.99 39.1988L1735.48 33.6102H1823.51L1827.56 39.1988H1737.99ZM1646.51 39.1988L1645.66 33.6102H1733.73L1736.16 39.1988H1646.55H1646.51ZM1463.63 39.1988L1466.01 33.6102H1554.09L1553.19 39.1988H1463.58H1463.63ZM1461.75 39.1988H1372.18L1376.24 33.6102H1464.27L1461.75 39.1988ZM1370.26 39.1988H1280.78L1286.46 33.6102H1374.4L1370.22 39.1988H1370.26ZM1106.22 32.7504H1018.91L1028.51 27.7088H1114.45L1106.17 32.7504H1106.22ZM549.889 39.1988L568.655 33.6102H655.235L637.876 39.1988H549.846H549.889ZM635.104 40.0977L615.911 46.2726H526.09L546.861 40.0977H635.104ZM607.338 84.2208H707.609L679.972 95.2027H576.844L607.381 84.2208H607.338ZM1070.73 126.312L1048.17 143.156H930.84L957.923 126.312H1070.69H1070.73ZM1414.07 144.797L1405.11 164.651H1281.17L1295.58 144.797H1414.11H1414.07ZM1536.69 144.797L1533.57 164.651H1409.5L1418.08 144.797H1536.69ZM2665.21 110.366L2705.51 124.827H2594.58L2558.11 110.366H2665.25H2665.21ZM2583.92 46.3117L2564.73 40.1368H2652.97L2673.74 46.3117H2583.92ZM2561.91 39.2379L2544.55 33.6492H2631.13L2649.9 39.2379H2561.87H2561.91ZM2093.61 32.7894L2085.34 27.7479H2171.28L2180.87 32.7894H2093.57H2093.61ZM2004 32.7894L1997.22 27.7479H2083.29L2091.44 32.7894H2004ZM1914.4 32.7894L1909.11 27.7479H1995.3L2001.96 32.7894H1914.35H1914.4ZM1824.79 32.7894L1820.99 27.7479H1907.32L1912.48 32.7894H1824.79ZM1555.2 39.2379L1555.96 33.6492H1644.04L1644.8 39.2379H1555.2ZM1287.52 32.7894L1292.68 27.7479H1379.01L1375.21 32.7894H1287.52ZM1285.6 32.7894H1198L1204.65 27.7479H1290.85L1285.56 32.7894H1285.6ZM1196 32.7894H1108.56L1116.71 27.7479H1202.78L1196 32.7894ZM1028.08 26.8881H942.526L952.634 22.2765H1036.95L1028.08 26.8881ZM940.18 26.8881H854.795L866.225 22.2765H950.374L940.138 26.8881H940.18ZM852.278 26.8881H767.063L779.858 22.2765H863.879L852.278 26.8881ZM764.376 26.8881H679.332L693.492 22.2765H777.299L764.334 26.8881H764.376ZM676.474 26.8881H591.643L607.125 22.2765H690.762L676.432 26.8881H676.474ZM673.873 27.7479L658.135 32.7894H571.768L588.828 27.7479H673.873ZM613.139 47.2496L591.856 54.0889H500.031L523.104 47.2496H613.182H613.139ZM467.446 63.7421H561.788L535.132 72.3009H438.614L467.489 63.7421H467.446ZM1046.12 144.797L1019.55 164.651H896.421L928.366 144.797H1046.12ZM2125 126.312L2147.14 143.156H2029.51L2011.94 126.312H2124.96H2125ZM2241.99 126.312L2269.07 143.156H2151.79L2129.22 126.312H2241.99ZM2358.94 126.312L2390.97 143.156H2274.02L2246.51 126.312H2358.94ZM2475.89 126.312L2512.91 143.156H2396.34L2363.84 126.312H2475.93H2475.89ZM2592.83 126.312L2634.76 143.156H2518.58L2481.09 126.312H2592.79H2592.83ZM2667 108.999L2631.64 96.4533H2734.77L2773.37 108.999H2666.96H2667ZM2665 72.3009L2638.34 63.7421H2732.68L2761.56 72.3009H2665ZM2635.1 62.6869L2611.3 55.066H2703.38L2729.14 62.6869H2635.1ZM2608.27 54.0498L2586.99 47.2106H2677.07L2700.14 54.0498H2608.31H2608.27ZM2541.99 32.7504L2526.26 27.7088H2611.3L2628.36 32.7504H2541.99ZM2523.65 26.849L2509.32 22.2374H2592.96L2608.44 26.849H2523.61H2523.65ZM2435.75 26.849L2422.79 22.2374H2506.59L2520.75 26.849H2435.75ZM2347.85 26.849L2336.25 22.2374H2420.23L2433.02 26.849H2347.81H2347.85ZM2259.95 26.849L2249.71 22.2374H2333.86L2345.29 26.849H2259.9H2259.95ZM2172.05 26.849L2163.17 22.2374H2247.49L2257.6 26.849H2172.05ZM2084.14 26.849L2076.64 22.2374H2161.13L2169.87 26.849H2084.14ZM1996.24 26.849L1990.1 22.2374H2074.72L2082.1 26.849H1996.24ZM1735.31 32.7504L1733 27.7088H1819.41L1823.08 32.7504H1735.31ZM1645.74 32.7504L1644.93 27.7088H1731.38L1733.56 32.7504H1645.74ZM1556.18 32.7504L1556.86 27.7088H1643.31L1643.99 32.7504H1556.13H1556.18ZM1554.47 32.7504H1466.65L1468.83 27.7088H1555.28L1554.47 32.7504ZM1464.91 32.7504H1377.13L1380.8 27.7088H1467.21L1464.91 32.7504ZM1118.12 26.849L1125.5 22.2374H1210.11L1203.97 26.849H1118.12ZM1116.07 26.849H1030.34L1039.09 22.2374H1123.58L1116.07 26.849ZM604.268 22.2374L588.615 26.849H503.997L520.844 22.2374H604.31H604.268ZM482.373 32.7504L500.884 27.7088H585.715L568.484 32.7504H482.331H482.373ZM565.541 33.6102L546.562 39.1988H458.788L479.217 33.6102H565.584H565.541ZM543.491 40.0977L522.465 46.2726H432.857L455.461 40.0977H543.491ZM502.974 84.2208H602.903L572.024 95.2027H469.237L502.974 84.2208ZM607.338 126.312H719.039L681.55 143.156H565.371L607.296 126.312H607.338ZM1404.43 166.488L1393.72 190.21H1262.79L1280.02 166.488H1404.47H1404.43ZM1533.44 166.488L1529.73 190.21H1398.63L1408.86 166.488H1533.44ZM2709.78 126.312L2756.69 143.156H2640.94L2598.46 126.312H2709.78ZM2711.61 124.827L2670.84 110.366H2777.59L2822.12 124.827H2711.61ZM2677.71 46.2726L2656.68 40.0977H2744.71L2767.27 46.2726H2677.66H2677.71ZM2653.61 39.1988L2634.63 33.6102H2721L2741.43 39.1988H2653.65H2653.61ZM2631.64 32.7504L2614.41 27.7088H2699.24L2717.75 32.7504H2631.6H2631.64ZM2611.56 26.849L2595.9 22.2374H2679.37L2696.22 26.849H2611.6H2611.56ZM1908.34 26.849L1903.56 22.2374H1988.31L1994.36 26.849H1908.38H1908.34ZM1820.48 26.849L1817.03 22.2374H1901.86L1906.55 26.849H1820.48ZM1732.62 26.849L1730.53 22.2374H1815.45L1818.77 26.849H1732.62ZM1644.76 26.849L1644.04 22.2374H1729L1731 26.849H1644.8H1644.76ZM1469.13 26.849L1471.13 22.2374H1556.09L1555.37 26.849H1469.17H1469.13ZM1381.35 26.849L1384.68 22.2374H1469.6L1467.51 26.849H1381.35ZM1379.65 26.849H1293.58L1298.27 22.2374H1383.1L1379.65 26.849ZM1291.79 26.849H1205.81L1211.86 22.2374H1296.61L1291.83 26.849H1291.79ZM1038.57 21.4167H954.468L963.681 17.1959H1046.68L1038.57 21.4167ZM952.25 21.4167H868.315L878.764 17.1959H961.591L952.25 21.4167ZM865.926 21.4167H782.162L793.848 17.1959H876.546L865.969 21.4167H865.926ZM779.603 21.4167H695.966L708.889 17.1959H791.417L779.603 21.4167ZM693.279 21.4167H609.855L624.015 17.1959H706.372L693.279 21.4167ZM606.955 21.4167H523.702L539.098 17.1959H621.285L606.955 21.4167ZM437.591 21.4167L454.224 17.1959H536.241L520.673 21.4167H437.633H437.591ZM519.138 47.1715L495.808 54.0107H404.238L429.317 47.1715H519.138ZM368.839 63.6639H462.882L433.667 72.2228H337.448L368.839 63.6639ZM1146.18 166.448L1121.44 190.171H991.019L1022.2 166.448H1146.18ZM2736.22 95.1246L2702.1 84.1427H2801.73L2838.71 95.1246H2736.26H2736.22ZM2766.33 72.2228L2737.12 63.6639H2831.16L2862.55 72.2228H2766.33ZM2733.58 62.6087L2707.52 54.9878H2799.34L2827.32 62.6087H2733.53H2733.58ZM2704.19 53.9717L2680.86 47.1324H2770.68L2795.76 53.9717H2704.19ZM2679.37 21.3776L2663.8 17.1568H2745.82L2762.45 21.3776H2679.41H2679.37ZM2593.05 21.3776L2578.71 17.1568H2660.9L2676.3 21.3776H2593.05ZM2506.72 21.3776L2493.63 17.1568H2575.99L2590.15 21.3776H2506.72ZM2420.4 21.3776L2408.58 17.1568H2491.11L2504.03 21.3776H2420.44H2420.4ZM2334.07 21.3776L2323.5 17.1568H2406.19L2417.88 21.3776H2334.07ZM2247.75 21.3776L2238.41 17.1568H2321.24L2331.69 21.3776H2247.75ZM2161.47 21.3776L2153.36 17.1568H2236.36L2245.57 21.3776H2161.47ZM2075.19 21.3776L2068.32 17.1568H2151.45L2159.42 21.3776H2075.19ZM1988.91 21.3776L1983.28 17.1568H2066.53L2073.27 21.3776H1988.86H1988.91ZM1902.62 21.3776L1898.23 17.1568H1981.61L1987.16 21.3776H1902.67H1902.62ZM1556.9 26.81L1557.54 22.1983H1642.5L1643.14 26.81H1556.9ZM1212.89 21.3776L1218.39 17.1568H1301.77L1297.38 21.3776H1212.89ZM1211.09 21.3776H1126.69L1133.43 17.1568H1216.68L1211.05 21.3776H1211.09ZM1124.81 21.3776H1040.54L1048.51 17.1568H1131.64L1124.77 21.3776H1124.81ZM517.645 22.1983L500.628 26.81H416.18L434.392 22.1983H517.645ZM497.472 27.6307L478.748 32.6722H392.808L412.811 27.6307H497.472ZM475.507 33.5711L454.864 39.1597H367.303L389.353 33.5711H475.507ZM451.537 40.0586L428.72 46.2335H339.367L363.763 40.0586H451.537ZM398.31 84.1817H497.941L463.821 95.1637H361.375L398.353 84.1817H398.31ZM490.306 126.273H601.623L559.144 143.117H443.391L490.306 126.273ZM507.196 166.448H629.559L576.801 190.171H448.168L507.196 166.448ZM1119.31 192.242L1089.33 221.006H950.502L988.29 192.242H1119.27H1119.31ZM1392.7 192.242L1379.69 221.006H1240.27L1261.17 192.242H1392.7ZM1529.35 192.242L1524.83 221.006H1385.24L1397.65 192.242H1529.31H1529.35ZM2049.04 166.448L2073.23 190.171H1942.5L1924.8 166.448H2049.04ZM2177.85 166.448L2209.02 190.171H2078.6L2053.86 166.448H2177.85ZM2306.65 166.448L2344.78 190.171H2214.74L2183.01 166.448H2306.65ZM2435.41 166.448L2480.49 190.171H2350.88L2312.15 166.448H2435.37H2435.41ZM2564.17 166.448L2616.25 190.171H2487.1L2441.38 166.448H2564.17ZM2692.89 166.448L2751.92 190.171H2623.28L2570.53 166.448H2692.89ZM2761.21 144.758L2816.49 164.612H2695.11L2645.04 144.758H2761.21ZM2763.22 143.117L2715.75 126.273H2826.64L2878.46 143.117H2763.18H2763.22ZM2779.21 108.959L2740.15 96.4143H2842.93L2885.24 108.959H2779.26H2779.21ZM2771.37 46.2335L2748.55 40.0586H2836.32L2860.72 46.2335H2771.37ZM2745.18 39.1597L2724.54 33.5711H2810.69L2832.74 39.1597H2745.18ZM2721.29 32.7113L2702.57 27.6698H2787.19L2807.19 32.7113H2721.25H2721.29ZM2699.46 26.81L2682.44 22.1983H2765.69L2783.9 26.81H2699.5H2699.46ZM1816.39 21.3776L1813.23 17.1568H1896.7L1901 21.3776H1816.39ZM1730.15 21.3776L1728.23 17.1568H1811.74L1814.76 21.3776H1730.1H1730.15ZM1643.91 21.3776L1643.23 17.1568H1726.78L1728.61 21.3776H1643.91ZM1556.18 21.3776H1471.47L1473.31 17.1568H1556.86L1556.18 21.3776ZM1469.94 21.3776H1385.28L1388.31 17.1568H1471.81L1469.9 21.3776H1469.94ZM1383.7 21.3776H1299.08L1303.39 17.1568H1386.86L1383.7 21.3776ZM1048.21 16.3752H965.429L973.874 12.5452H1055.63L1048.21 16.3752ZM963.382 16.3752H880.769L890.322 12.5452H971.912L963.339 16.3752H963.382ZM878.551 16.3752H796.065L806.771 12.5452H888.233L878.551 16.3752ZM793.72 16.3752H711.405L723.219 12.5452H804.51L793.677 16.3752H793.72ZM708.889 16.3752H626.744L639.71 12.5452H720.873L708.889 16.3752ZM624.057 16.3752H542.084L556.158 12.5452H637.151L624.057 16.3752ZM539.226 16.3752H457.423L472.649 12.5452H553.471L539.226 16.3752ZM454.395 16.3752H372.763L389.098 12.5452H469.749L454.352 16.3752H454.395ZM451.239 17.1568L434.435 21.3776H351.565L369.436 17.1568H451.239ZM328.534 26.7709L348.068 22.1593H431.151L412.768 26.7709H328.534ZM425.308 47.1324L399.973 53.9717H308.659L335.742 47.1324H425.308ZM270.402 63.6248H364.147L332.415 72.1837H236.495L270.402 63.6248ZM709.017 192.203L653.571 220.967H516.195L579.317 192.203H709.017ZM845.838 192.203L798.88 220.967H660.992L715.67 192.203H845.838ZM2828.56 124.709L2783.52 110.249H2889.89L2938.68 124.709H2828.6H2828.56ZM2803.1 82.9311L2770.17 73.278H2866.69L2902.09 82.9311H2803.1ZM2803.91 54.9096H2895.48L2925.72 62.5305H2832.23L2803.91 54.9096ZM2800.24 53.9326L2774.91 47.0933H2864.47L2891.55 53.9326H2800.24ZM2787.44 26.7318L2769.06 22.1202H2852.15L2871.68 26.7318H2787.44ZM2765.78 21.2995L2748.97 17.0787H2830.78L2848.65 21.2995H2765.78ZM2745.82 16.297L2730.42 12.467H2811.07L2827.41 16.297H2745.78H2745.82ZM2660.99 16.297L2646.74 12.467H2727.56L2742.79 16.297H2660.99ZM2576.16 16.297L2563.06 12.467H2644.05L2658.13 16.297H2576.16ZM2491.32 16.297L2479.34 12.467H2560.5L2573.47 16.297H2491.32ZM2406.49 16.297L2395.66 12.467H2476.95L2488.77 16.297H2406.45H2406.49ZM2321.66 16.297L2311.98 12.467H2393.44L2404.15 16.297H2321.66ZM2236.83 16.297L2228.26 12.467H2309.85L2319.44 16.297H2236.83ZM2152 16.297L2144.58 12.467H2226.34L2234.78 16.297H2152ZM2067.17 16.297L2060.9 12.467H2142.79L2150.08 16.297H2067.17ZM1982.34 16.297L1977.18 12.467H2059.19L2065.38 16.297H1982.34ZM1897.55 16.297L1893.54 12.467H1975.64L1980.72 16.297H1897.55ZM1812.76 16.297L1809.9 12.467H1892.09L1896.01 16.297H1812.76ZM1727.97 16.297L1726.22 12.467H1808.45L1811.23 16.297H1727.93H1727.97ZM1557.75 21.2995L1558.35 17.0787H1641.95L1642.54 21.2995H1557.8H1557.75ZM1388.99 16.297L1391.76 12.467H1474.03L1472.28 16.297H1388.99ZM1304.28 16.297L1308.21 12.467H1390.4L1387.54 16.297H1304.28ZM1302.75 16.297H1219.58L1224.66 12.467H1306.76L1302.75 16.297ZM1217.96 16.297H1134.92L1141.11 12.467H1223.12L1217.96 16.297ZM1133.17 16.297H1050.26L1057.55 12.467H1139.44L1133.17 16.297ZM386.197 12.467L369.692 16.297H288.273L305.759 12.467H386.24H386.197ZM409.527 27.5525L389.311 32.594H303.627L325.122 27.5525H409.57H409.527ZM385.813 33.4929L363.507 39.0816H276.203L299.873 33.4929H385.813ZM359.925 39.9805L335.273 46.1554H246.177L272.364 39.9805H359.925ZM293.988 84.1036H393.277L355.916 95.0855H253.811L293.988 84.1036ZM484.506 126.194L437.036 143.039H321.753L373.573 126.194H484.463H484.506ZM443.135 192.203H572.323L508.347 220.967H371.568L443.135 192.203ZM1086.94 223.429L1049.88 258.994H900.729L947.474 223.429H1086.94ZM1232.89 223.429L1206.32 258.994H1056.74L1093.04 223.429H1232.89ZM1378.79 223.429L1362.72 258.994H1212.89L1238.73 223.429H1378.84H1378.79ZM1524.62 223.429L1519.03 258.994H1368.99L1384.34 223.429H1524.62ZM2757.33 192.203L2828.9 220.967H2692.12L2628.15 192.203H2757.33ZM2821.78 166.409L2887.76 190.132H2759.68L2699.93 166.409H2821.78ZM2823.95 164.573L2768.04 144.719H2883.75L2944.87 164.573H2824H2823.95ZM2867.88 72.2228L2836.15 63.6639H2929.9L2963.8 72.2228H2867.88ZM2865.2 46.1944L2840.54 40.0195H2928.11L2954.29 46.1944H2865.2ZM2836.92 39.1207L2814.61 33.532H2900.55L2924.22 39.1207H2836.92ZM2811.16 32.6722L2790.94 27.6307H2875.39L2896.89 32.6722H2811.2H2811.16ZM2830.78 16.3752L2814.27 12.5452H2894.75L2912.24 16.3752H2830.82H2830.78ZM1643.31 16.3752L1642.71 12.5452H1724.99L1726.65 16.3752H1643.31ZM1558.57 16.3752L1559.08 12.5452H1641.39L1641.9 16.3752H1558.52H1558.57ZM1557.16 16.3752H1473.82L1475.48 12.5452H1557.75L1557.16 16.3752ZM1057.3 11.7636H975.751L983.513 8.24621H1064.12L1057.34 11.7636H1057.3ZM973.831 11.7636H892.412L901.198 8.24621H981.679L973.831 11.7636ZM890.365 11.7636H809.117L818.926 8.24621H899.279L890.408 11.7636H890.365ZM806.899 11.7636H725.778L736.611 8.24621H816.793L806.856 11.7636H806.899ZM723.432 11.7636H642.482L654.382 8.24621H734.436L723.475 11.7636H723.432ZM639.966 11.7636H559.186L572.109 8.24621H651.993L639.966 11.7636ZM556.499 11.7636H475.891L489.837 8.24621H569.593L556.542 11.7636H556.499ZM473.033 11.7636H392.552L407.522 8.24621H487.108L472.99 11.7636H473.033ZM389.567 11.7636H309.256L325.293 8.24621H404.708L389.567 11.7636ZM225.961 11.7636L243.021 8.24621H322.265L306.058 11.7636H225.918H225.961ZM366.322 17.1959L348.281 21.4167H265.625L284.733 17.1959H366.365H366.322ZM344.784 22.1983L325.037 26.81H241.016L261.915 22.1983H344.784ZM331.562 47.1324L304.181 53.9717H213.166L242.253 47.1324H331.562ZM172.093 63.6248H265.54L231.249 72.1837H135.628L172.051 63.6248H172.093ZM649.008 223.429L580.384 258.994H432.857L510.949 223.429H648.965H649.008ZM1961.87 223.429L1987.71 258.994H1837.88L1821.8 223.429H1961.91H1961.87ZM2107.47 223.429L2143.77 258.994H1994.19L1967.62 223.429H2107.47ZM2253.04 223.429L2299.78 258.994H2150.64L2113.57 223.429H2253.04ZM2398.6 223.429L2455.8 258.994H2307.12L2259.52 223.429H2398.56H2398.6ZM2544.13 223.429L2611.77 258.994H2463.64L2405.56 223.429H2544.13ZM2689.61 223.429L2767.7 258.994H2620.17L2551.55 223.429H2689.56H2689.61ZM2885.75 143.039L2833.34 126.194H2943.8L3000.57 143.039H2885.75ZM2891.64 108.881L2848.86 96.3361H2951.26L2997.24 108.881H2891.64ZM2900.3 54.9487H2991.57L3024.03 62.5696H2930.83L2900.25 54.9487H2900.3ZM2896.37 53.9717L2868.99 47.1324H2958.3L2987.39 53.9717H2896.37ZM2875.52 26.7709L2855.77 22.1593H2938.64L2959.54 26.7709H2875.52ZM2852.23 21.3385L2834.19 17.1177H2915.82L2934.93 21.3385H2852.27H2852.23ZM2894.41 11.7245L2878.2 8.20713H2957.45L2974.51 11.7245H2894.37H2894.41ZM2810.95 11.7245L2795.8 8.20713H2875.22L2891.26 11.7245H2810.95ZM2727.48 11.7245L2713.36 8.20713H2792.95L2807.92 11.7245H2727.44H2727.48ZM2644.01 11.7245L2630.96 8.20713H2710.72L2724.66 11.7245H2644.05H2644.01ZM2560.55 11.7245L2548.52 8.20713H2628.4L2641.33 11.7245H2560.55ZM2477.08 11.7245L2466.12 8.20713H2546.17L2558.07 11.7245H2477.12H2477.08ZM2393.61 11.7245L2383.68 8.20713H2463.86L2474.69 11.7245H2393.57H2393.61ZM2310.15 11.7245L2301.28 8.20713H2381.63L2391.44 11.7245H2310.19H2310.15ZM2226.68 11.7245L2218.83 8.20713H2299.31L2308.1 11.7245H2226.68ZM2143.21 11.7245L2136.43 8.20713H2217.04L2224.8 11.7245H2143.26H2143.21ZM2059.75 11.7245L2053.99 8.20713H2134.73L2141.42 11.7245H2059.75ZM1976.28 11.7245L1971.55 8.20713H2052.37L2058.04 11.7245H1976.24H1976.28ZM1892.86 11.7245L1889.19 8.20713H1970.14L1974.79 11.7245H1892.9H1892.86ZM1809.43 11.7245L1806.79 8.20713H1887.82L1891.41 11.7245H1809.43ZM1726.01 11.7245L1724.43 8.20713H1805.51L1808.07 11.7245H1726.01ZM1642.63 11.7245L1642.07 8.20713H1723.2L1724.73 11.7245H1642.67H1642.63ZM1475.87 11.7245L1477.4 8.20713H1558.52L1557.97 11.7245H1475.87ZM1474.54 11.7245H1392.53L1395.09 8.20713H1476.17L1474.59 11.7245H1474.54ZM1391.12 11.7245H1309.15L1312.73 8.20713H1393.77L1391.12 11.7245ZM1307.7 11.7245H1225.81L1230.46 8.20713H1311.41L1307.74 11.7245H1307.7ZM1224.27 11.7245H1142.47L1148.14 8.20713H1228.96L1224.23 11.7245H1224.27ZM1140.85 11.7245H1059.17L1065.87 8.20713H1146.61L1140.85 11.7245ZM302.603 12.5061L284.946 16.3361H203.697L222.293 12.5061H302.603ZM179.515 21.3385L199.816 17.1177H281.278L262 21.3385H179.515ZM321.454 27.5916L299.745 32.6331H214.274L237.22 27.5916H321.454ZM295.992 33.532L272.065 39.1207H184.974L210.308 33.532H295.992ZM268.184 40.0195L241.699 46.1944H152.858L180.879 40.0195H268.184ZM367.261 126.234L314.844 143.078H200.029L256.797 126.234H367.261ZM371.398 166.409L304.608 190.132H177.084L250.015 166.409H371.355H371.398ZM306.911 192.203H435.544L363.081 220.967H226.899L306.911 192.203ZM502.931 223.429L423.772 258.994H276.928L365.469 223.429H502.931ZM889.555 261.925L829.205 307.025H667.518L740.066 261.925H889.512H889.555ZM1046.89 261.925L999.848 307.025H837.607L896.891 261.925H1046.85H1046.89ZM1204.19 261.925L1170.49 307.025H1007.82L1053.84 261.925H1204.19ZM1361.44 261.925L1341.05 307.025H1178.04L1210.8 261.925H1361.44ZM1518.64 261.925L1511.56 307.025H1348.3L1367.79 261.925H1518.64ZM2893.69 192.203L2973.7 220.967H2837.52L2765.05 192.203H2893.69ZM2950.58 166.409L3023.51 190.132H2895.99L2829.2 166.409H2950.54H2950.58ZM3002.27 110.249L3055.29 124.709H2945.63L2896.29 110.249H3002.23H3002.27ZM2952.8 95.0855L2912.15 84.1036H3011.1L3054.52 95.0855H2952.8ZM2969.35 72.1837L2935.06 63.6248H3028.5L3064.93 72.1837H2969.31H2969.35ZM2958.94 46.1554L2932.46 39.9805H3019.76L3047.78 46.1554H2958.94ZM2928.57 39.0816L2904.65 33.4929H2990.33L3015.67 39.0816H2928.57ZM2900.89 32.6331L2879.19 27.5916H2963.42L2986.41 32.6331H2900.94H2900.89ZM2938.6 21.3385L2919.32 17.1177H3000.78L3021.08 21.3385H2938.6ZM2915.65 16.3361L2897.99 12.5061H2978.3L2996.9 16.3361H2915.65ZM1559.25 11.7245L1559.72 8.20713H1640.84L1641.31 11.7245H1559.21H1559.25ZM1065.61 7.4255H985.219L992.342 4.18173H1071.88L1065.61 7.4255ZM983.428 7.4255H903.16L911.221 4.18173H990.636L983.428 7.4255ZM901.241 7.4255H821.101L830.143 4.18173H909.43L901.241 7.4255ZM819.054 7.4255H739.042L749.022 4.18173H828.181L819.054 7.4255ZM736.867 7.4255H657.026L667.944 4.18173H746.975L736.867 7.4255ZM654.68 7.4255H574.967L586.866 4.18173H665.727L654.68 7.4255ZM572.493 7.4255H492.951L505.788 4.18173H584.521L572.493 7.4255ZM490.264 7.4255H410.892L424.668 4.18173H503.229L490.264 7.4255ZM408.077 7.4255H328.833L343.59 4.18173H422.023L408.077 7.4255ZM325.89 7.4255H246.817L262.512 4.18173H340.775L325.89 7.4255ZM243.66 7.4255H164.758L181.391 4.18173H259.526L243.66 7.4255ZM239.95 8.16805L222.719 11.6854H142.75L160.834 8.16805H239.907H239.95ZM175.591 22.1202H258.247L237.135 26.7318H153.327L175.591 22.1202ZM237.647 47.0542L208.261 53.8935H117.501L148.593 47.0542H237.647ZM203.996 54.8705L171.155 62.4915H78.2631L112.98 54.8705H203.996ZM2952.71 164.494L2890.91 144.641H3006.16L3073.07 164.494H2952.71ZM3029.44 62.5305L2996.6 54.9096H3087.62L3122.33 62.5305H3029.44ZM2992.38 53.8935L2962.99 47.0542H3052.05L3083.14 53.8935H2992.38ZM2963.46 26.6927L2942.35 22.0811H3025.01L3047.27 26.6927H2963.46ZM2977.92 11.6463L2960.69 8.12897H3039.76L3057.85 11.6463H2977.88H2977.92ZM2956.98 7.34734L2941.11 4.10357H3019.25L3035.88 7.34734H2956.98ZM2874.75 7.34734L2859.86 4.10357H2938.13L2953.82 7.34734H2874.75ZM2792.56 7.34734L2778.62 4.10357H2857.05L2871.76 7.34734H2792.52H2792.56ZM2710.38 7.34734L2697.41 4.10357H2775.97L2789.75 7.34734H2710.38ZM2628.19 7.34734L2616.16 4.10357H2694.89L2707.73 7.34734H2628.19ZM2546 7.34734L2534.96 4.10357H2613.82L2625.72 7.34734H2546ZM2463.82 7.34734L2453.71 4.10357H2532.7L2543.61 7.34734H2463.77H2463.82ZM2381.63 7.34734L2372.5 4.10357H2451.66L2461.64 7.34734H2381.63ZM2299.44 7.34734L2291.25 4.10357H2370.54L2379.58 7.34734H2299.44ZM2217.25 7.34734L2210.05 4.10357H2289.46L2297.52 7.34734H2217.25ZM2135.07 7.34734L2128.8 4.10357H2208.34L2215.46 7.34734H2135.07ZM2052.88 7.34734L2047.59 4.10357H2127.22L2133.4 7.34734H2052.88ZM1970.69 7.34734L1966.34 4.10357H2046.1L2051.3 7.34734H1970.65H1970.69ZM1888.51 7.34734L1885.14 4.10357H1964.98L1969.24 7.34734H1888.51ZM1806.36 7.34734L1803.93 4.10357H1883.86L1887.18 7.34734H1806.36ZM1724.22 7.34734L1722.77 4.10357H1802.74L1805.08 7.34734H1724.22ZM1642.07 7.34734L1641.56 4.10357H1721.57L1722.98 7.34734H1642.07ZM1558.74 7.34734H1477.83L1479.24 4.10357H1559.25L1558.74 7.34734ZM1476.59 7.34734H1395.73L1398.07 4.10357H1478.04L1476.59 7.34734ZM1394.45 7.34734H1313.63L1316.95 4.10357H1396.88L1394.45 7.34734ZM1312.3 7.34734H1231.57L1235.83 4.10357H1315.67L1312.3 7.34734ZM1230.12 7.34734H1149.46L1154.67 4.10357H1234.42L1230.07 7.34734H1230.12ZM1147.93 7.34734H1067.41L1073.59 4.10357H1153.22L1147.93 7.34734ZM177.851 4.4553L161.047 7.69907H82.3148L99.8867 4.4553H177.851ZM218.54 12.7406L199.731 16.5706H118.653L138.4 12.7406H218.54ZM195.85 17.3913L175.292 21.6121H93.02L114.558 17.3913H195.807H195.85ZM232.913 27.8652L209.711 32.9067H124.453L148.892 27.8652H232.913ZM205.702 33.8056L180.112 39.3942H93.2759L120.231 33.8056H205.702ZM175.975 40.2931L147.655 46.468H59.0278L88.8403 40.2931H175.889H175.975ZM183.225 84.4162L139.338 95.3981H37.9587L84.5753 84.4162H183.183H183.225ZM91.1434 109.194L140.788 96.6488H242.807L196.319 109.194H91.1008H91.1434ZM249.546 126.507L192.139 143.351H77.7939L139.509 126.507H249.546ZM241.784 166.683L167.999 190.405H41.0295L120.956 166.683H241.784ZM298.295 192.477L217.345 221.241H81.803L170.259 192.477H298.338H298.295ZM356.47 223.703L266.82 259.267H120.657L219.648 223.703H356.47ZM480.412 310.894L366.664 369.868H189.623L319.109 310.894H480.412ZM652.249 310.894L555.945 369.868H378.094L490.264 310.894H652.249ZM824.044 310.894L745.141 369.868H566.565L661.419 310.894H824.044ZM995.796 310.894L934.337 369.868H755.079L832.574 310.894H995.796ZM1167.46 310.894L1123.41 369.868H943.635L1003.81 310.894H1167.46ZM1339.09 310.894L1312.43 369.868H1132.23L1175.06 310.894H1339.09ZM1510.63 310.894L1501.37 369.868H1320.92L1346.38 310.894H1510.63ZM1853.49 310.894L1878.95 369.868H1698.5L1689.25 310.894H1853.49ZM2024.82 310.894L2067.64 369.868H1887.44L1860.78 310.894H2024.82ZM2196.1 310.894L2256.28 369.868H2076.51L2032.45 310.894H2196.1ZM2367.3 310.894L2444.79 369.868H2265.53L2204.08 310.894H2367.3ZM2538.45 310.894L2633.31 369.868H2454.73L2375.83 310.894H2538.45ZM2709.61 310.894L2821.78 369.868H2643.93L2547.62 310.894H2709.61ZM2880.72 310.894L3010.21 369.868H2833.21L2719.46 310.894H2880.76H2880.72ZM2980.18 223.703L3079.17 259.267H2933.01L2843.36 223.703H2980.18ZM3029.61 192.477L3118.07 221.241H2982.53L2901.58 192.477H3029.66H3029.61ZM3078.92 166.683L3158.84 190.405H3031.87L2958.09 166.683H3078.92ZM3060.36 126.507L3122.08 143.351H3007.73L2950.33 126.507H3060.36ZM3114.1 110.562L3171.38 125.022H3062.15L3008.54 110.562H3114.1ZM3115.25 84.4162L3161.87 95.3981H3060.53L3016.65 84.4162H3115.25ZM3126.64 63.8984L3165.58 72.4573H3070.3L3033.49 63.8984H3126.64ZM3052.22 46.468L3023.9 40.2931H3110.95L3140.76 46.468H3052.17H3052.22ZM3019.76 39.3942L2994.17 33.8056H3079.64L3106.6 39.3942H3019.76ZM2990.16 32.9458L2966.96 27.9042H3050.98L3075.42 32.9458H2990.16ZM3024.54 21.6512L3003.98 17.4304H3085.23L3106.77 21.6512H3024.49H3024.54ZM3000.1 16.6488L2981.29 12.8188H3061.43L3081.18 16.6488H3000.1ZM3038.78 7.73815L3021.98 4.49438H3099.94L3117.51 7.73815H3038.78ZM3018.14 3.75183L3002.66 0.74255H3079.73L3095.93 3.75183H3018.14ZM2937.1 3.75183L2922.48 0.74255H2999.71L3015.07 3.75183H2937.15H2937.1ZM2856.07 3.75183L2842.34 0.74255H2919.7L2934.16 3.75183H2856.07ZM2775.03 3.75183L2762.2 0.74255H2839.69L2853.3 3.75183H2775.03ZM2694 3.75183L2682.06 0.74255H2759.68L2772.39 3.75183H2694ZM2612.96 3.75183L2601.87 0.74255H2679.67L2691.52 3.75183H2612.96ZM2531.93 3.75183L2521.73 0.74255H2599.66L2610.62 3.75183H2531.93ZM2450.89 3.75183L2441.59 0.74255H2519.64L2529.71 3.75183H2450.89ZM2369.86 3.75183L2361.45 0.74255H2439.63L2448.85 3.75183H2369.9H2369.86ZM2288.82 3.75183L2281.27 0.74255H2359.58L2367.9 3.75183H2288.82ZM2207.79 3.75183L2201.13 0.74255H2279.57L2287.03 3.75183H2207.83H2207.79ZM2126.75 3.75183L2120.99 0.74255H2199.51L2206.08 3.75183H2126.75ZM2045.76 3.75183L2040.85 0.74255H2119.5L2125.17 3.75183H2045.72H2045.76ZM1964.77 3.75183L1960.76 0.74255H2039.49L2044.31 3.75183H1964.77ZM1883.77 3.75183L1880.66 0.74255H1959.48L1963.4 3.75183H1883.77ZM1802.78 3.75183L1800.56 0.74255H1879.47L1882.54 3.75183H1802.82H1802.78ZM1721.79 3.75183L1720.42 0.74255H1799.37L1801.54 3.75183H1721.79ZM1072.78 3.75183H993.45L1000.02 0.74255H1078.54L1072.78 3.75183ZM991.745 3.75183H912.543L920.007 0.74255H998.441L991.787 3.75183H991.745ZM910.709 3.75183H831.636L839.953 0.74255H918.258L910.709 3.75183ZM829.674 3.75183H750.728L759.941 0.74255H838.119L829.716 3.75183H829.674ZM748.639 3.75183H669.821L679.886 0.74255H757.936L748.639 3.75183ZM667.603 3.75183H588.914L599.875 0.74255H677.797L667.603 3.75183ZM586.568 3.75183H508.049L519.863 0.74255H597.657L586.568 3.75183ZM505.533 3.75183H427.142L439.851 0.74255H517.475L505.533 3.75183ZM424.497 3.75183H346.234L359.84 0.74255H437.335L424.497 3.75183ZM343.462 3.75183H265.369L279.828 0.74255H357.195L343.462 3.75183ZM262.427 3.75183H184.505L199.859 0.74255H277.098L262.469 3.75183H262.427ZM181.391 3.75183H103.597L119.804 0.74255H196.873L181.391 3.75183ZM22.9884 3.71275L40.0912 0.74255H117.032L100.654 3.75183H22.9884V3.71275ZM78.1351 8.44162H157.081L138.784 11.959H59.0278L78.1351 8.44162ZM33.9495 16.5706L54.8055 12.7406H134.775L114.857 16.5706H33.9922H33.9495ZM6.86668 21.573L29.6419 17.3522H110.72L88.9256 21.573H6.86668ZM88.7977 22.3937H171.283L148.806 27.0054H65.2121L88.7977 22.3937ZM34.9305 32.9067L60.8618 27.8652H144.669L119.975 32.9067H34.9731H34.9305ZM143.262 47.3669L111.829 54.2062H21.3677L54.4643 47.3669H143.262ZM3087.96 54.2062L3056.52 47.3669H3145.32L3178.42 54.2062H3087.96ZM3079.85 32.9067L3055.16 27.8652H3138.97L3164.9 32.9067H3079.85ZM3051.02 27.0054L3028.55 22.3937H3111.03L3134.62 27.0054H3051.02ZM3110.86 21.573L3089.07 17.3522H3170.14L3192.92 21.573H3110.82H3110.86ZM3084.97 16.5706L3065.05 12.7406H3145.02L3165.88 16.5706H3085.02H3084.97ZM3061 11.959L3042.71 8.44162H3121.65L3140.76 11.959H3061ZM3099.18 3.67367L3082.8 0.664387H3159.74L3176.84 3.67367H3099.22H3099.18ZM1559.97 3.67367L1560.4 0.664387H1639.39L1639.81 3.67367H1560.02H1559.97ZM30.4949 33.7665H115.753L88.4991 39.3552H1.91926L30.4949 33.7665ZM148.039 310.855H308.574L177.382 369.829H1.23686L148.039 310.855ZM3022.45 369.829L2891.26 310.855H3051.79L3198.59 369.829H3022.45ZM3111.33 39.3552L3084.08 33.7665H3169.33L3197.91 39.3552H3111.33ZM18.7661 4.4553H96.56L78.7749 7.69907H0.255901L18.8087 4.4553H18.7661ZM3121.01 7.69907L3103.23 4.4553H3181.02L3199.53 7.69907H3120.97H3121.01Z" fill="url(#paint0_linear_370_909)" fill-opacity="0.24"/>
</g>
<defs>
<linearGradient id="paint0_linear_370_909" x1="1599.89" y1="-0.0273571" x2="1599.89" y2="399.121" gradientUnits="userSpaceOnUse">
<stop/>
<stop offset="1" stop-color="#6D4A83" stop-opacity="0.24"/>
</linearGradient>
<clipPath id="clip0_370_909">
<rect width="3200" height="400" fill="white"/>
</clipPath>
</defs>
</svg>
