<svg width="3200" height="420" viewBox="0 0 3200 420" fill="none" xmlns="http://www.w3.org/2000/svg">
<g clip-path="url(#clip0_370_909)">
<path style="mix-blend-mode:screen" d="M3199.83 420H0V419.22H36.8924L19.6191 416.061H0V415.281H15.3541L0 412.532V411.095H74.6378L55.3173 407.402H0V406.581H51.0949L30.0257 402.56H0V401.739H25.6754L2.64431 397.307H0V395.994L2.47371 396.487H84.7459L60.9044 391.644H0V390.742H56.5115L30.3243 385.448H0V384.545H25.8034L0 379.334V377.774H84.0635L53.9098 371.291H0V370.306H49.3463L15.9085 363.125H0V362.099H11.089L0 359.719V358.488L16.6336 362.099H107.35L72.2494 354.097H0V352.989H67.5152L28.1491 344.002H0V342.853H23.1164L0.298551 337.559L0 337.477V336L29.258 342.771H124.794L83.2958 332.635H0V331.404H78.2631L31.1346 319.873H0V318.56H25.7607L0.298551 312.363L0 312.281V310.517L32.6274 318.56H134.263L84.0635 305.387H0V303.951H78.6469L20.728 288.768H0V287.209H14.8423L0.298551 283.392L0 283.31V281.217L22.6046 287.209H132.173L69.7757 269.522H0V267.799H63.6767L0.255901 249.825L0 249.743V247.24L71.7376 267.799H186.509L118.823 246.953H0V245.024H112.554L31.7317 220.115H0V217.899H24.5665L0 210.349V207.353L33.9495 217.94H161.431L71.9508 187.738H0V185.153H64.2738L0 163.445V159.834L74.2113 185.153H210.393L110.208 147.81H0V144.733H101.977L0.213251 106.775L0 106.693V102.261L112.511 144.692H259.441L145.736 97.3366H0V93.5613H136.694L0.213251 36.7269L0 36.6449V26.8373H167.146L111.616 0.61555L110.592 0.123111H123.728L179.557 26.7963H357.792L308.745 0.123111H320.943L369.308 26.7963H548.396L506.897 0.123111H518.285L559.186 26.7963H739L705.007 0.123111H715.627L749.022 26.7963H929.518L903.032 0.123111H913.012L938.944 26.7963H1119.99L1101.01 0.123111H1110.48L1128.95 26.7963H1310.38L1299.04 0.451404L1298.91 0.123111H1308L1319 26.7963H1500.69L1496.72 0.410359V0.123111H1505.59L1509.09 26.7963H1690.87L1694.36 0.123111H1703.28L1699.27 26.7963H1880.96L1891.83 0.328302L1891.92 0.123111H1901L1889.53 26.7963H2070.96L2089.3 0.287257L2089.43 0.123111H2098.9L2079.92 26.7963H2260.97L2286.77 0.246213L2286.9 0.0820663H2296.88L2270.4 26.7552H2450.89L2484.16 0.205168L2484.33 0.0820663H2494.95L2460.96 26.7552H2640.77L2681.5 0.164155L2681.67 0.0410532H2693.06L2651.56 26.7142H2830.65L2878.84 0.123111L2879.01 0.0410532H2891.26L2842.21 26.7142H3020.44L3076.1 0.0820663L3076.27 8.78878e-06H3089.41L3032.85 26.6732H3200V36.4807L3063.31 93.4382H3200V97.2135H3054.26L2940.56 144.569H3087.49L3199.15 102.425L3200 102.097V106.529L3098.02 144.528H3200V147.605H3089.79L2989.61 184.948H3125.79L3199.15 159.916L3199.96 159.629V163.24L3135.68 184.907H3199.96V187.492H3128.01L3038.53 217.694H3166.01L3199.96 207.107V210.103L3175.39 217.653H3199.96V219.869H3168.23L3087.4 244.778H3199.91V246.706H3081.09L3013.41 267.553H3128.18L3199.1 247.199L3199.91 246.953V249.456L3136.24 267.511H3199.91V269.235H3130.18L3067.78 286.921H3177.35L3199.91 280.93V283.023L3185.12 286.921H3199.91V288.481H3179.19L3121.27 303.664H3199.91V305.1H3115.85L3065.65 318.273H3167.29L3199.91 310.23V311.994L3174.15 318.273H3199.91V319.586H3168.78L3121.65 331.117H3199.91V332.348H3116.62L3075.12 342.484H3170.66L3199.91 335.713V337.19L3176.84 342.484H3199.91V343.633H3171.81L3132.44 352.619H3199.91V353.727H3127.67L3092.56 361.729H3183.28L3199.87 358.118V359.349L3188.83 361.729H3199.87V362.755H3184.01L3150.57 369.936H3199.91V370.921H3146L3115.85 377.405H3199.91V378.964L3174.11 384.176H3199.91V385.079H3169.59L3143.4 390.372H3199.91V391.275H3139.05L3115.21 396.117H3197.48L3199.91 395.625V396.938H3197.27L3174.24 401.37H3199.87V402.191H3169.89L3148.82 406.212H3199.87V407.033H3144.55L3125.23 410.726H3199.87V412.162L3184.56 414.953H3199.87V415.732H3180.3L3163.02 418.892H3199.87V419.672L3199.83 420ZM1074.49 416.102L1080.16 419.261H1158.81L1153.94 416.102H1074.49ZM1155.39 416.102L1160.21 419.261H1238.94L1234.94 416.102H1155.39ZM1236.3 416.102L1240.22 419.261H1319.04L1315.93 416.102H1236.3ZM1317.21 416.102L1320.28 419.261H1399.18L1396.96 416.102H1317.25H1317.21ZM1398.12 416.102L1400.29 419.261H1479.24L1477.87 416.102H1398.12ZM1479.07 416.102L1480.34 419.261H1559.33L1558.86 416.102H1479.07ZM1640.5 419.261H1719.48L1720.76 416.102H1640.97L1640.5 419.261ZM191.286 303.992L137.675 288.809H28.4477L85.7269 303.992H191.286ZM1559.46 411.916L1559.89 415.322H1639.9L1640.37 411.916H1559.46ZM3012 332.635L2973.36 342.771H3069.23L3110.31 332.635H3012ZM3003.55 305.387L2957.06 318.56H3059.08L3108.73 305.387H3003.51H3003.55ZM2883.28 97.3366L2782.92 144.692H2930.58L3042.88 97.3366H2883.32H2883.28ZM1517.79 93.5613H1682.08L1690.18 31.6385H1509.65L1517.75 93.5613H1517.79ZM416.948 144.692L316.592 97.3366H156.995L269.293 144.692H416.948ZM309.342 267.799L247.542 246.953H127.183L194.101 267.799H309.342ZM166.336 352.907L129.529 343.92H34.2481L73.1877 352.907H166.336ZM2773.8 144.692L2872.83 97.3366H2712.51L2625.5 144.692H2773.8ZM2616.97 144.692L2702.78 97.3366H2541.74L2468.04 144.692H2616.93H2616.97ZM2460.15 144.692L2532.7 97.3366H2371.01L2310.66 144.692H2460.1H2460.15ZM2303.28 144.692L2362.56 97.3366H2200.32L2153.28 144.692H2303.24H2303.28ZM2146.37 144.692L2192.39 97.3366H2029.72L1996.03 144.692H2146.37ZM1989.42 144.692L2022.17 97.3366H1859.16L1838.78 144.692H1989.42ZM1832.42 144.692L1851.91 97.3366H1688.69L1681.61 144.692H1832.46H1832.42ZM731.749 144.692L658.092 97.3366H497.045L582.857 144.692H731.749ZM574.327 144.692L487.321 97.3366H326.999L426.033 144.692H574.327ZM303.882 303.951L254.536 288.768H144.883L197.897 303.951H303.84H303.882ZM189.111 331.404H288.059L247.414 319.873H145.693L189.111 331.404ZM226.472 342.771L187.831 332.635H89.5227L130.595 342.771H226.472ZM2907.42 332.635L2871.64 342.771H2967.81L3006.03 332.635H2907.38H2907.42ZM2776.4 147.769L2697.28 185.112H2834.74L2923.29 147.769H2776.44H2776.4ZM1518.26 97.3366L1524.49 144.692H1675.38L1681.61 97.3366H1518.3H1518.26ZM432.132 267.799L376.217 246.953H255.347L316.464 267.799H432.174H432.132ZM351.31 318.56L308.531 305.387H202.93L248.906 318.56H351.31ZM1815.79 185.112L1831.14 147.769H1681.1L1675.51 185.112H1815.79ZM940.65 185.112L893.052 147.769H744.374L801.567 185.112H940.607H940.65ZM794.615 185.112L736.526 147.769H588.402L656.045 185.112H794.615ZM378.35 244.983H500.201L440.448 220.074H312.37L378.35 244.983ZM416.522 303.951L371.483 288.768H261.403L310.195 303.951H416.564H416.522ZM328.193 342.771L292.41 332.635H193.76L231.974 342.771H328.193ZM176.103 354.015L208.602 362.017H299.873L269.293 354.015H176.103ZM2844.25 319.873L2806.89 331.404H2906.18L2946.36 319.873H2844.25ZM2620.68 217.899L2683.8 187.697H2546.43L2490.98 217.899H2620.68ZM2484.33 217.899L2539.01 187.697H2401.12L2354.16 217.899H2484.33ZM2347.98 217.899L2394.21 187.697H2255.81L2217.34 217.899H2347.93H2347.98ZM2211.58 217.899L2249.37 187.697H2110.54L2080.56 217.899H2211.54H2211.58ZM2075.19 217.899L2104.53 187.697H1965.36L1943.87 217.899H2075.19ZM1938.75 217.899L1959.65 187.697H1820.22L1807.22 217.899H1938.75ZM1524.83 147.769L1529.73 185.112H1670.05L1674.96 147.769H1524.87H1524.83ZM554.879 267.799L504.807 246.953H383.425L438.7 267.799H554.879ZM459.769 318.56L420.701 305.387H314.716L357.025 318.56H459.769ZM1802.27 217.899L1814.68 187.697H1675.09L1670.56 217.899H1802.27ZM1255.88 217.899L1234.38 187.697H1095.21L1124.56 217.899H1255.88ZM982.404 217.899L943.934 187.697H805.534L851.767 217.899H982.361H982.404ZM529.118 303.951L488.345 288.768H377.838L422.365 303.951H529.118ZM429.828 342.771L396.903 332.635H297.911L333.311 342.771H429.828ZM274.283 354.015L304.522 362.017H396.092L367.772 354.015H274.283ZM1919.98 245.024L1937.21 220.115H1806.23L1795.53 245.024H1919.98ZM1530.03 187.738L1534 217.94H1665.75L1669.71 187.738H1530.08H1530.03ZM887.763 245.024L849.037 220.115H719.423L764.504 245.024H887.763ZM758.576 245.024L712.855 220.115H583.71L635.786 245.024H758.576ZM677.669 267.799L633.483 246.953H511.631L561.063 267.799H677.669ZM568.271 318.56L532.914 305.387H426.502L465.1 318.56H568.228H568.271ZM2698.31 332.635L2668.24 342.771H2765.05L2797.6 332.635H2698.26H2698.31ZM2638.68 267.799L2688.11 246.953H2566.26L2522.08 267.799H2638.68ZM2516.32 267.799L2559.91 246.953H2437.59L2399.29 267.799H2516.32ZM2393.95 267.799L2431.74 246.953H2309L2276.54 267.799H2393.95ZM2271.55 267.799L2303.49 246.953H2180.36L2153.79 267.799H2271.55ZM2149.14 267.799L2175.24 246.953H2051.77L2031.09 267.799H2149.14ZM2026.69 267.799L2046.95 246.953H1923.22L1908.38 267.799H2026.69ZM1791.09 245.024L1801.33 220.115H1670.22L1666.51 245.024H1791.09ZM1275.11 245.024L1257.41 220.115H1126.69L1150.87 245.024H1275.11ZM1016.91 245.024L985.176 220.115H855.136L893.265 245.024H1016.91ZM800.416 267.799L762.116 246.953H639.795L683.384 267.799H800.416ZM641.672 303.951L605.206 288.768H494.273L534.577 303.951H641.715H641.672ZM531.464 342.771L501.395 332.635H402.063L434.605 342.771H531.421H531.464ZM372.464 354.015L400.442 362.017H492.268L466.209 354.015H372.421H372.464ZM1904.2 267.799L1918.62 246.953H1794.68L1785.68 267.799H1904.2ZM1534.25 220.115L1537.5 245.024H1662.12L1665.36 220.115H1534.21H1534.25ZM1168.61 267.799L1147.93 246.953H1024.46L1050.56 267.799H1168.61ZM923.163 267.799L890.706 246.953H767.959L805.747 267.799H923.163ZM676.73 318.56L645.084 305.387H538.331L573.261 318.56H676.73ZM2627.93 319.873L2597.05 331.404H2696.98L2730.72 319.873H2627.93ZM2007.8 287.209L2024.99 269.522H1907.1L1894.52 287.209H2007.8ZM1781.71 267.799L1790.28 246.953H1666.21L1663.1 267.799H1781.71ZM1291.32 267.799L1276.48 246.953H1152.75L1173.01 267.799H1291.32ZM836.071 287.209L803.572 269.522H687.009L723.987 287.209H836.071ZM754.268 303.951L722.067 288.768H610.75L646.79 303.951H754.268ZM633.142 342.771L605.931 332.635H506.3L536.027 342.771H633.142ZM470.687 354.015L496.448 362.017H588.53L564.731 354.015H470.687ZM2552.83 303.951L2588.87 288.768H2477.55L2445.35 303.951H2552.83ZM2440.57 303.951L2472.35 288.768H2360.64L2332.71 303.951H2440.53H2440.57ZM2328.32 303.951L2355.87 288.768H2243.83L2220.2 303.951H2328.36H2328.32ZM2216.06 303.951L2239.35 288.768H2127.01L2107.64 303.951H2216.06ZM2103.76 303.951L2122.78 288.768H2010.15L1995.05 303.951H2103.72H2103.76ZM1890.72 287.209L1902.97 269.522H1784.91L1777.28 287.209H1890.72ZM1537.71 246.953L1540.44 267.799H1659.09L1661.82 246.953H1537.71ZM1187.85 287.209L1170.28 269.522H1052.65L1074.78 287.209H1187.81H1187.85ZM953.317 287.209L925.807 269.522H808.861L840.933 287.209H953.359H953.317ZM785.147 318.56L757.211 305.387H650.074L681.337 318.56H785.147ZM2490.09 371.25L2472.73 377.733H2561.19L2580.17 371.25H2490.09ZM1991.46 303.992L2006.22 288.809H1893.37L1882.54 303.992H1991.42H1991.46ZM1773.65 287.25L1780.94 269.563H1662.76L1660.12 287.25H1773.65ZM1305.1 287.25L1292.51 269.563H1174.63L1191.82 287.25H1305.1ZM1091.97 303.992L1072.61 288.809H960.269L983.556 303.992H1092.02H1091.97ZM734.82 342.812L710.467 332.676H610.495L637.364 342.812H734.777H734.82ZM568.953 354.056L592.454 362.058H684.791L663.296 354.056H568.953ZM2563.4 343.961L2539.26 352.948H2633.86L2660.22 343.961H2563.36H2563.4ZM2085.51 318.601L2102.01 305.428H1993.68L1980.59 318.601H2085.51ZM1879.17 303.992L1889.66 288.809H1776.64L1770.11 303.992H1879.17ZM1540.69 269.563L1543 287.25H1656.58L1658.88 269.563H1540.65H1540.69ZM1204.53 303.992L1189.43 288.809H1076.79L1095.81 303.992H1204.48H1204.53ZM2487.83 331.445L2515.12 319.914H2411.65L2387.26 331.445H2487.83ZM2383.25 331.445L2407.35 319.914H2303.58L2282.42 331.445H2383.29H2383.25ZM2278.67 331.445L2299.53 319.914H2195.46L2177.55 331.445H2278.67ZM2174.09 331.445L2191.75 319.914H2087.43L2072.76 331.445H2174.14H2174.09ZM1977.35 318.601L1990.14 305.428H1881.6L1872.21 318.601H1977.3H1977.35ZM1766.83 303.992L1773.1 288.809H1659.94L1657.68 303.992H1766.83ZM1317.08 303.992L1306.25 288.809H1193.39L1208.15 303.992H1317.04H1317.08ZM1110.61 318.601L1093.81 305.428H985.731L1005.9 318.601H1110.57H1110.61ZM836.498 342.812L815.002 332.676H714.732L738.786 342.812H836.498ZM667.177 354.056L688.459 362.058H781.053L761.775 354.056H667.177ZM2462.07 343.961L2440.49 352.948H2535.38L2559.22 343.961H2462.11H2462.07ZM2460.87 342.812L2484.93 332.676H2384.66L2363.16 342.812H2460.87ZM2069.47 331.445L2083.89 319.914H1979.31L1967.88 331.445H2069.47ZM1869.06 318.601L1878.19 305.428H1769.51L1763.84 318.601H1869.1H1869.06ZM1543.21 288.809L1545.22 303.992H1654.4L1656.4 288.809H1543.25H1543.21ZM1218.98 318.601L1205.89 305.428H1097.56L1114.07 318.601H1218.98ZM1022.07 331.445L1004.16 319.914H900.089L920.945 331.445H1022.07ZM762.798 352.989H857.951L838.886 344.002H741.473L762.798 352.989ZM1453.39 354.097L1456.67 362.099H1550.63L1549.44 354.097H1453.39ZM1449.25 344.002L1452.96 352.989H1549.31L1547.95 344.002H1449.25ZM1550.42 344.002L1551.61 352.989H1647.96L1649.15 344.002H1550.42ZM1648.9 362.099H1742.86L1746.14 354.097H1650.09L1648.9 362.099ZM2156.61 342.853L2172.13 332.717H2071.09L2058.17 342.853H2156.61ZM1964.81 331.486L1975.98 319.955H1871.23L1863.04 331.486H1964.81ZM1760.77 318.642L1766.19 305.469H1657.39L1655.42 318.642H1760.77ZM1327.4 318.642L1318.02 305.469H1209.47L1222.27 318.642H1327.36H1327.4ZM1126.9 331.486L1112.23 319.955H1007.91L1025.57 331.486H1126.95H1126.9ZM1246.92 344.002L1255.66 352.989H1351.84L1345.44 344.002H1246.92ZM1651.63 344.002L1650.26 352.989H1746.61L1750.32 344.002H1651.63ZM1752.88 344.002L1749 352.989H1845.26L1851.49 344.002H1752.88ZM1854.13 344.002L1847.73 352.989H1943.91L1952.65 344.002H1854.13ZM1860.14 331.486L1868.12 319.955H1763.24L1758.3 331.486H1860.19H1860.14ZM1963.57 332.717H1862.15L1854.94 342.853H1953.76L1963.61 332.717H1963.57ZM1545.34 305.469L1547.09 318.642H1652.44L1654.14 305.469H1545.34ZM1231.69 331.486L1220.26 319.955H1115.69L1130.1 331.486H1231.69ZM1039.73 342.853L1023.95 332.717H923.12L941.503 342.853H1039.73ZM861.32 352.989H956.729L940.18 344.002H842.512L861.32 352.989ZM863.581 354.097L880.342 362.099H973.405L958.648 354.097H863.538H863.581ZM961.847 354.097L976.39 362.099H1069.67L1057.17 354.097H961.847ZM1060.11 354.097L1072.4 362.099H1165.89L1155.65 354.097H1060.11ZM1145.75 344.002L1157.01 352.989H1253.02L1244.11 344.002H1145.75ZM1242.95 342.853L1232.89 332.717H1131.64L1144.35 342.853H1243H1242.95ZM1142.81 344.002H1044.67L1058.45 352.989H1154.28L1142.81 344.002ZM1141.36 342.853L1128.44 332.717H1027.4L1042.92 342.853H1141.36ZM943.592 344.002L959.885 352.989H1055.51L1041.52 344.002H943.592ZM1336.49 331.486L1328.3 319.955H1223.55L1234.72 331.486H1336.49ZM1235.92 332.717L1245.77 342.853H1344.55L1337.34 332.717H1235.87H1235.92ZM1441.28 331.486L1436.33 319.955H1331.45L1339.43 331.486H1441.32H1441.28ZM1441.79 332.717H1340.24L1347.23 342.853H1446.14L1441.79 332.717ZM1439.32 319.955L1444.05 331.486H1546.03L1544.32 319.955H1439.32ZM1547.22 319.955L1548.71 331.486H1650.73L1652.23 319.955H1547.22ZM1653.29 332.717L1651.76 342.853H1750.75L1754.93 332.717H1653.29ZM1753.31 342.853H1852.21L1859.21 332.717H1757.66L1753.31 342.853ZM1755.44 331.486L1760.17 319.955H1655.17L1653.46 331.486H1755.44ZM1444.56 332.717L1448.74 342.853H1547.73L1546.2 332.717H1444.56ZM1254.13 354.097H1158.42L1168.49 362.099H1262.15L1254.17 354.097H1254.13ZM1435.73 318.642L1430.06 305.469H1321.39L1330.51 318.642H1435.78H1435.73ZM1544.11 318.642L1542.14 305.469H1433.34L1438.76 318.642H1544.11ZM2045.2 352.989H2141.04L2154.81 344.002H2056.68L2045.2 352.989ZM2043.84 354.097L2033.6 362.099H2127.09L2139.38 354.097H2043.84ZM1955.38 344.002L1946.47 352.989H2042.47L2053.73 344.002H1955.38ZM2055.14 342.853L2067.85 332.717H1966.6L1956.53 342.853H2055.18H2055.14ZM2142.28 354.097L2129.78 362.099H2223.05L2237.6 354.097H2142.28ZM2255.9 344.002H2157.97L2143.98 352.989H2239.6L2255.9 344.002ZM2240.75 354.097L2226 362.099H2319.06L2335.82 354.097H2240.71H2240.75ZM2356.98 344.002H2259.31L2242.76 352.989H2338.17L2356.98 344.002ZM2341.58 352.989H2436.73L2458.06 344.002H2360.64L2341.58 352.989ZM2339.28 354.097L2322.26 362.099H2415.11L2434.13 354.097H2339.28ZM1945.36 354.097L1937.38 362.099H2031.04L2041.11 354.097H1945.4H1945.36ZM1846.92 354.097L1841.21 362.099H1935L1942.8 354.097H1846.92ZM1748.49 354.097L1745.03 362.099H1838.9L1844.45 354.097H1748.49ZM1548.93 332.717L1550.25 342.853H1649.28L1650.6 332.717H1548.93ZM1348.09 344.002L1354.31 352.989H1450.58L1446.69 344.002H1348.09ZM1451.04 354.097H1355.08L1360.63 362.099H1454.5L1451.04 354.097ZM1352.61 354.097H1256.73L1264.53 362.099H1358.32L1352.61 354.097ZM1167.25 363.166H1074.02L1085.02 370.347H1176.38L1167.21 363.166H1167.25ZM1071.33 363.166H978.31L991.318 370.347H1082.5L1071.33 363.166ZM975.409 363.166H882.603L897.616 370.347H988.588L975.409 363.166ZM786.896 363.166L803.956 370.347H894.715L879.489 363.166H786.896ZM877.271 362.14L860.254 354.138H765.4L784.422 362.14H877.271ZM938.133 342.894L919.495 332.758H818.969L840.166 342.894H938.133ZM2258.03 342.894L2276.41 332.758H2175.59L2159.8 342.894H2258.03ZM2359.45 342.894L2380.65 332.758H2280.12L2261.48 342.894H2359.45ZM2320.13 363.207L2304.9 370.388H2395.66L2412.72 363.207H2320.13ZM2224.16 363.207L2210.99 370.388H2301.96L2316.97 363.207H2224.16ZM2128.24 363.207L2117.07 370.388H2208.26L2221.26 363.207H2128.24ZM2032.32 363.207L2023.15 370.388H2114.51L2125.51 363.207H2032.32ZM1936.4 363.207L1929.28 370.388H2020.81L2029.81 363.207H1936.45H1936.4ZM1840.53 363.207L1835.41 370.388H1927.06L1934.06 363.207H1840.53ZM1551.78 354.138L1552.85 362.14H1646.81L1647.87 354.138H1551.78ZM1265.6 363.207L1272.6 370.388H1364.25L1359.13 363.207H1265.6ZM1263.21 363.207H1169.85L1178.85 370.388H1270.38L1263.26 363.207H1263.21ZM993.152 371.373L1004.88 377.856H1094.15L1084.08 371.373H993.152ZM899.705 371.373L913.226 377.856H1002.32L990.422 371.373H899.705ZM806.259 371.373L821.613 377.856H910.496L896.763 371.373H806.259ZM816.367 331.527H917.235L896.08 319.996H792.312L816.41 331.527H816.367ZM1429.51 304.074L1422.98 288.891H1309.96L1320.45 304.074H1429.51ZM1541.97 304.074L1539.71 288.891H1426.56L1432.83 304.074H1541.97ZM2489.15 332.758L2464.8 342.894H2562.21L2589.08 332.758H2489.11H2489.15ZM2437.84 354.138L2418.56 362.14H2511.16L2532.44 354.138H2437.84ZM2302.81 371.373L2289.08 377.856H2377.96L2393.31 371.373H2302.81ZM2209.15 371.373L2197.25 377.856H2286.35L2299.87 371.373H2209.15ZM2115.53 371.373L2105.47 377.856H2194.74L2206.46 371.373H2115.53ZM1744.65 363.207L1741.53 370.388H1833.28L1838.22 363.207H1744.61H1744.65ZM1648.77 363.207L1647.7 370.388H1739.49L1742.43 363.207H1648.73H1648.77ZM1550.8 363.207H1457.1L1460.04 370.388H1551.87L1550.8 363.207ZM1454.93 363.207H1361.31L1366.26 370.388H1458L1454.88 363.207H1454.93ZM1177.66 371.373H1086.56L1096.49 377.856H1185.93L1177.7 371.373H1177.66ZM818.627 377.856L803.103 371.373H712.812L729.958 377.856H818.627ZM800.714 370.388L783.484 363.207H691.146L710.211 370.388H800.757H800.714ZM664.234 353.071H759.13L737.549 344.084H640.435L664.276 353.071H664.234ZM1002.07 318.724L981.551 305.552H873.774L897.658 318.724H1002.07ZM2416.05 363.207L2398.82 370.388H2489.36L2508.43 363.207H2416.09H2416.05ZM2396.43 371.373L2380.9 377.856H2469.57L2486.72 371.373H2396.43ZM2021.87 371.373L2013.64 377.856H2103.08L2113.02 371.373H2021.92H2021.87ZM1928.26 371.373L1921.82 377.856H2011.38L2019.49 371.373H1928.21H1928.26ZM1834.64 371.373L1830.03 377.856H1919.73L1926.04 371.373H1834.64ZM1741.07 371.373L1738.29 377.856H1828.07L1832.55 371.373H1741.07ZM1552.89 363.207L1553.83 370.388H1645.66L1646.6 363.207H1552.89ZM1366.94 371.373L1371.42 377.856H1461.2L1458.42 371.373H1366.94ZM1364.85 371.373H1273.45L1279.76 377.856H1369.45L1364.85 371.373ZM1271.23 371.373H1179.96L1188.06 377.856H1277.63L1271.19 371.373H1271.23ZM1095.56 378.8H1006.54L1017.16 384.668H1104.68L1095.6 378.8H1095.56ZM1004.03 378.8H915.187L927.428 384.668H1014.78L1004.03 378.8ZM912.458 378.8H823.788L837.649 384.668H924.826L912.415 378.8H912.458ZM820.888 378.8H732.431L747.956 384.668H834.92L820.888 378.8ZM619.366 371.373L638.345 377.856H726.802L709.443 371.373H619.366ZM711.746 331.527H812.315L787.919 319.996H684.45L711.746 331.527ZM893.606 318.683L869.381 305.511H761.903L789.455 318.683H893.564H893.606ZM979.376 304.074L955.748 288.891H843.706L871.258 304.074H979.419H979.376ZM1422.26 287.332L1414.62 269.645H1296.57L1308.81 287.332H1422.26ZM1539.42 287.332L1536.77 269.645H1418.59L1425.88 287.332H1539.42ZM2193.67 318.683L2213.84 305.511H2105.77L2088.96 318.683H2193.63H2193.67ZM2301.87 318.683L2325.76 305.511H2217.98L2197.46 318.683H2301.87ZM2410.03 318.683L2437.59 305.511H2330.11L2305.88 318.683H2409.99H2410.03ZM2518.19 318.683L2549.46 305.511H2442.32L2414.38 318.683H2518.19ZM2519.73 319.996L2492.09 331.527H2592.36L2622.9 319.996H2519.77H2519.73ZM2536.32 354.138L2514.82 362.14H2607.16L2630.66 354.138H2536.32ZM2378.64 378.8L2364.61 384.668H2451.57L2467.1 378.8H2378.64ZM2287.07 378.8L2274.66 384.668H2361.84L2375.7 378.8H2287.03H2287.07ZM2195.5 378.8L2184.76 384.668H2272.1L2284.34 378.8H2195.5ZM2103.98 378.8L2094.89 384.668H2182.41L2193.03 378.8H2104.02H2103.98ZM2012.45 378.8L2004.98 384.668H2092.67L2101.63 378.8H2012.45ZM1920.92 378.8L1915.12 384.668H2002.94L2010.27 378.8H1920.92ZM1647.53 371.373L1646.55 377.856H1736.42L1739.06 371.373H1647.53ZM1554 371.373L1554.85 377.856H1644.72L1645.57 371.373H1554ZM1552.04 371.373H1460.51L1463.16 377.856H1553.02L1552.04 371.373ZM1189.34 378.8L1196.68 384.668H1284.5L1278.69 378.8H1189.34ZM1187.17 378.8H1097.99L1106.94 384.668H1194.63L1187.17 378.8ZM929.39 385.571L940.479 390.865H1026.25L1016.48 385.571H929.347H929.39ZM839.91 385.571L852.492 390.865H938.091L926.831 385.571H839.867H839.91ZM750.43 385.571L764.504 390.865H849.933L837.18 385.571H750.43ZM660.992 385.571L676.56 390.865H761.817L747.572 385.571H661.035H660.992ZM745.099 384.668L729.403 378.8H641.16L658.305 384.668H745.099ZM706.841 370.388L687.564 363.207H595.482L616.551 370.388H706.841ZM565.755 353.071H660.353L636.213 344.084H539.354L565.712 353.071H565.755ZM866.865 304.115L838.929 288.932H727.228L759.003 304.115H866.822H866.865ZM2554.57 305.552L2522.93 318.724H2626.4L2661.33 305.552H2554.57ZM2593.73 332.799L2566.52 342.935H2663.63L2693.36 332.799H2593.73ZM2512.1 363.248L2492.82 370.429H2583.15L2604.22 363.248H2512.14H2512.1ZM2470.26 378.841L2454.56 384.709H2541.35L2558.5 378.841H2470.26ZM2452.13 385.612L2437.88 390.906H2523.14L2538.71 385.612H2452.17H2452.13ZM2362.48 385.612L2349.73 390.906H2435.15L2449.23 385.612H2362.48ZM2272.83 385.612L2261.57 390.906H2347.17L2359.75 385.612H2272.79H2272.83ZM2183.18 385.612L2173.41 390.906H2259.18L2270.27 385.612H2183.13H2183.18ZM1829.48 378.841L1825.3 384.709H1913.24L1918.92 378.841H1829.48ZM1737.99 378.841L1735.48 384.709H1823.51L1827.56 378.841H1737.99ZM1646.51 378.841L1645.66 384.709H1733.73L1736.16 378.841H1646.55H1646.51ZM1463.63 378.841L1466.01 384.709H1554.09L1553.19 378.841H1463.58H1463.63ZM1461.75 378.841H1372.18L1376.24 384.709H1464.27L1461.75 378.841ZM1370.26 378.841H1280.78L1286.46 384.709H1374.4L1370.22 378.841H1370.26ZM1106.22 385.612H1018.91L1028.51 390.906H1114.45L1106.17 385.612H1106.22ZM549.889 378.841L568.655 384.709H655.235L637.876 378.841H549.846H549.889ZM635.104 377.897L615.911 371.414H526.09L546.861 377.897H635.104ZM607.338 331.568H707.609L679.972 320.037H576.844L607.381 331.568H607.338ZM1070.73 287.373L1048.17 269.686H930.84L957.923 287.373H1070.69H1070.73ZM1414.07 267.963L1405.11 247.117H1281.17L1295.58 267.963H1414.11H1414.07ZM1536.69 267.963L1533.57 247.117H1409.5L1418.08 267.963H1536.69ZM2665.21 304.115L2705.51 288.932H2594.58L2558.11 304.115H2665.25H2665.21ZM2583.92 371.373L2564.73 377.856H2652.97L2673.74 371.373H2583.92ZM2561.91 378.8L2544.55 384.668H2631.13L2649.9 378.8H2561.87H2561.91ZM2093.61 385.571L2085.34 390.865H2171.28L2180.87 385.571H2093.57H2093.61ZM2004 385.571L1997.22 390.865H2083.29L2091.44 385.571H2004ZM1914.4 385.571L1909.11 390.865H1995.3L2001.96 385.571H1914.35H1914.4ZM1824.79 385.571L1820.99 390.865H1907.32L1912.48 385.571H1824.79ZM1555.2 378.8L1555.96 384.668H1644.04L1644.8 378.8H1555.2ZM1287.52 385.571L1292.68 390.865H1379.01L1375.21 385.571H1287.52ZM1285.6 385.571H1198L1204.65 390.865H1290.85L1285.56 385.571H1285.6ZM1196 385.571H1108.56L1116.71 390.865H1202.78L1196 385.571ZM1028.08 391.767H942.526L952.634 396.61H1036.95L1028.08 391.767ZM940.18 391.767H854.795L866.225 396.61H950.374L940.138 391.767H940.18ZM852.278 391.767H767.063L779.858 396.61H863.879L852.278 391.767ZM764.376 391.767H679.332L693.492 396.61H777.299L764.334 391.767H764.376ZM676.474 391.767H591.643L607.125 396.61H690.762L676.432 391.767H676.474ZM673.873 390.865L658.135 385.571H571.768L588.828 390.865H673.873ZM613.139 370.388L591.856 363.207H500.031L523.104 370.388H613.182H613.139ZM467.446 353.071H561.788L535.132 344.084H438.614L467.489 353.071H467.446ZM1046.12 267.963L1019.55 247.117H896.421L928.366 267.963H1046.12ZM2125 287.373L2147.14 269.686H2029.51L2011.94 287.373H2124.96H2125ZM2241.99 287.373L2269.07 269.686H2151.79L2129.22 287.373H2241.99ZM2358.94 287.373L2390.97 269.686H2274.02L2246.51 287.373H2358.94ZM2475.89 287.373L2512.91 269.686H2396.34L2363.84 287.373H2475.93H2475.89ZM2592.83 287.373L2634.76 269.686H2518.58L2481.09 287.373H2592.79H2592.83ZM2667 305.552L2631.64 318.724H2734.77L2773.37 305.552H2666.96H2667ZM2665 344.084L2638.34 353.071H2732.68L2761.56 344.084H2665ZM2635.1 354.179L2611.3 362.181H2703.38L2729.14 354.179H2635.1ZM2608.27 363.248L2586.99 370.429H2677.07L2700.14 363.248H2608.31H2608.27ZM2541.99 385.612L2526.26 390.906H2611.3L2628.36 385.612H2541.99ZM2523.65 391.809L2509.32 396.651H2592.96L2608.44 391.809H2523.61H2523.65ZM2435.75 391.809L2422.79 396.651H2506.59L2520.75 391.809H2435.75ZM2347.85 391.809L2336.25 396.651H2420.23L2433.02 391.809H2347.81H2347.85ZM2259.95 391.809L2249.71 396.651H2333.86L2345.29 391.809H2259.9H2259.95ZM2172.05 391.809L2163.17 396.651H2247.49L2257.6 391.809H2172.05ZM2084.14 391.809L2076.64 396.651H2161.13L2169.87 391.809H2084.14ZM1996.24 391.809L1990.1 396.651H2074.72L2082.1 391.809H1996.24ZM1735.31 385.612L1733 390.906H1819.41L1823.08 385.612H1735.31ZM1645.74 385.612L1644.93 390.906H1731.38L1733.56 385.612H1645.74ZM1556.18 385.612L1556.86 390.906H1643.31L1643.99 385.612H1556.13H1556.18ZM1554.47 385.612H1466.65L1468.83 390.906H1555.28L1554.47 385.612ZM1464.91 385.612H1377.13L1380.8 390.906H1467.21L1464.91 385.612ZM1118.12 391.809L1125.5 396.651H1210.11L1203.97 391.809H1118.12ZM1116.07 391.809H1030.34L1039.09 396.651H1123.58L1116.07 391.809ZM604.268 396.651L588.615 391.809H503.997L520.844 396.651H604.31H604.268ZM482.373 385.612L500.884 390.906H585.715L568.484 385.612H482.331H482.373ZM565.541 384.709L546.562 378.841H458.788L479.217 384.709H565.584H565.541ZM543.491 377.897L522.465 371.414H432.857L455.461 377.897H543.491ZM502.974 331.568H602.903L572.024 320.037H469.237L502.974 331.568ZM607.338 287.373H719.039L681.55 269.686H565.371L607.296 287.373H607.338ZM1404.43 245.188L1393.72 220.279H1262.79L1280.02 245.188H1404.47H1404.43ZM1533.44 245.188L1529.73 220.279H1398.63L1408.86 245.188H1533.44ZM2709.78 287.373L2756.69 269.686H2640.94L2598.46 287.373H2709.78ZM2711.61 288.932L2670.84 304.115H2777.59L2822.12 288.932H2711.61ZM2677.71 371.414L2656.68 377.897H2744.71L2767.27 371.414H2677.66H2677.71ZM2653.61 378.841L2634.63 384.709H2721L2741.43 378.841H2653.65H2653.61ZM2631.64 385.612L2614.41 390.906H2699.24L2717.75 385.612H2631.6H2631.64ZM2611.56 391.809L2595.9 396.651H2679.37L2696.22 391.809H2611.6H2611.56ZM1908.34 391.809L1903.56 396.651H1988.31L1994.36 391.809H1908.38H1908.34ZM1820.48 391.809L1817.03 396.651H1901.86L1906.55 391.809H1820.48ZM1732.62 391.809L1730.53 396.651H1815.45L1818.77 391.809H1732.62ZM1644.76 391.809L1644.04 396.651H1729L1731 391.809H1644.8H1644.76ZM1469.13 391.809L1471.13 396.651H1556.09L1555.37 391.809H1469.17H1469.13ZM1381.35 391.809L1384.68 396.651H1469.6L1467.51 391.809H1381.35ZM1379.65 391.809H1293.58L1298.27 396.651H1383.1L1379.65 391.809ZM1291.79 391.809H1205.81L1211.86 396.651H1296.61L1291.83 391.809H1291.79ZM1038.57 397.512H954.468L963.681 401.944H1046.68L1038.57 397.512ZM952.25 397.512H868.315L878.764 401.944H961.591L952.25 397.512ZM865.926 397.512H782.162L793.848 401.944H876.546L865.969 397.512H865.926ZM779.603 397.512H695.966L708.889 401.944H791.417L779.603 397.512ZM693.279 397.512H609.855L624.015 401.944H706.372L693.279 397.512ZM606.955 397.512H523.702L539.098 401.944H621.285L606.955 397.512ZM437.591 397.512L454.224 401.944H536.241L520.673 397.512H437.633H437.591ZM519.138 370.47L495.808 363.289H404.238L429.317 370.47H519.138ZM368.839 353.153H462.882L433.667 344.166H337.448L368.839 353.153ZM1146.18 245.229L1121.44 220.32H991.019L1022.2 245.229H1146.18ZM2736.22 320.119L2702.1 331.65H2801.73L2838.71 320.119H2736.26H2736.22ZM2766.33 344.166L2737.12 353.153H2831.16L2862.55 344.166H2766.33ZM2733.58 354.261L2707.52 362.263H2799.34L2827.32 354.261H2733.53H2733.58ZM2704.19 363.33L2680.86 370.511H2770.68L2795.76 363.33H2704.19ZM2679.37 397.553L2663.8 401.985H2745.82L2762.45 397.553H2679.41H2679.37ZM2593.05 397.553L2578.71 401.985H2660.9L2676.3 397.553H2593.05ZM2506.72 397.553L2493.63 401.985H2575.99L2590.15 397.553H2506.72ZM2420.4 397.553L2408.58 401.985H2491.11L2504.03 397.553H2420.44H2420.4ZM2334.07 397.553L2323.5 401.985H2406.19L2417.88 397.553H2334.07ZM2247.75 397.553L2238.41 401.985H2321.24L2331.69 397.553H2247.75ZM2161.47 397.553L2153.36 401.985H2236.36L2245.57 397.553H2161.47ZM2075.19 397.553L2068.32 401.985H2151.45L2159.42 397.553H2075.19ZM1988.91 397.553L1983.28 401.985H2066.53L2073.27 397.553H1988.86H1988.91ZM1902.62 397.553L1898.23 401.985H1981.61L1987.16 397.553H1902.67H1902.62ZM1556.9 391.85L1557.54 396.692H1642.5L1643.14 391.85H1556.9ZM1212.89 397.553L1218.39 401.985H1301.77L1297.38 397.553H1212.89ZM1211.09 397.553H1126.69L1133.43 401.985H1216.68L1211.05 397.553H1211.09ZM1124.81 397.553H1040.54L1048.51 401.985H1131.64L1124.77 397.553H1124.81ZM517.645 396.692L500.628 391.85H416.18L434.392 396.692H517.645ZM497.472 390.988L478.748 385.694H392.808L412.811 390.988H497.472ZM475.507 384.75L454.864 378.882H367.303L389.353 384.75H475.507ZM451.537 377.938L428.72 371.455H339.367L363.763 377.938H451.537ZM398.31 331.609H497.941L463.821 320.078H361.375L398.353 331.609H398.31ZM490.306 287.414H601.623L559.144 269.727H443.391L490.306 287.414ZM507.196 245.229H629.559L576.801 220.32H448.168L507.196 245.229ZM1119.31 218.146L1089.33 187.943H950.502L988.29 218.146H1119.27H1119.31ZM1392.7 218.146L1379.69 187.943H1240.27L1261.17 218.146H1392.7ZM1529.35 218.146L1524.83 187.943H1385.24L1397.65 218.146H1529.31H1529.35ZM2049.04 245.229L2073.23 220.32H1942.5L1924.8 245.229H2049.04ZM2177.85 245.229L2209.02 220.32H2078.6L2053.86 245.229H2177.85ZM2306.65 245.229L2344.78 220.32H2214.74L2183.01 245.229H2306.65ZM2435.41 245.229L2480.49 220.32H2350.88L2312.15 245.229H2435.37H2435.41ZM2564.17 245.229L2616.25 220.32H2487.1L2441.38 245.229H2564.17ZM2692.89 245.229L2751.92 220.32H2623.28L2570.53 245.229H2692.89ZM2761.21 268.004L2816.49 247.158H2695.11L2645.04 268.004H2761.21ZM2763.22 269.727L2715.75 287.414H2826.64L2878.46 269.727H2763.18H2763.22ZM2779.21 305.593L2740.15 318.765H2842.93L2885.24 305.593H2779.26H2779.21ZM2771.37 371.455L2748.55 377.938H2836.32L2860.72 371.455H2771.37ZM2745.18 378.882L2724.54 384.75H2810.69L2832.74 378.882H2745.18ZM2721.29 385.653L2702.57 390.947H2787.19L2807.19 385.653H2721.25H2721.29ZM2699.46 391.85L2682.44 396.692H2765.69L2783.9 391.85H2699.5H2699.46ZM1816.39 397.553L1813.23 401.985H1896.7L1901 397.553H1816.39ZM1730.15 397.553L1728.23 401.985H1811.74L1814.76 397.553H1730.1H1730.15ZM1643.91 397.553L1643.23 401.985H1726.78L1728.61 397.553H1643.91ZM1556.18 397.553H1471.47L1473.31 401.985H1556.86L1556.18 397.553ZM1469.94 397.553H1385.28L1388.31 401.985H1471.81L1469.9 397.553H1469.94ZM1383.7 397.553H1299.08L1303.39 401.985H1386.86L1383.7 397.553ZM1048.21 402.806H965.429L973.874 406.828H1055.63L1048.21 402.806ZM963.382 402.806H880.769L890.322 406.828H971.912L963.339 402.806H963.382ZM878.551 402.806H796.065L806.771 406.828H888.233L878.551 402.806ZM793.72 402.806H711.405L723.219 406.828H804.51L793.677 402.806H793.72ZM708.889 402.806H626.744L639.71 406.828H720.873L708.889 402.806ZM624.057 402.806H542.084L556.158 406.828H637.151L624.057 402.806ZM539.226 402.806H457.423L472.649 406.828H553.471L539.226 402.806ZM454.395 402.806H372.763L389.098 406.828H469.749L454.352 402.806H454.395ZM451.239 401.985L434.435 397.553H351.565L369.436 401.985H451.239ZM328.534 391.891L348.068 396.733H431.151L412.768 391.891H328.534ZM425.308 370.511L399.973 363.33H308.659L335.742 370.511H425.308ZM270.402 353.194H364.147L332.415 344.207H236.495L270.402 353.194ZM709.017 218.187L653.571 187.984H516.195L579.317 218.187H709.017ZM845.838 218.187L798.88 187.984H660.992L715.67 218.187H845.838ZM2828.56 289.055L2783.52 304.238H2889.89L2938.68 289.055H2828.6H2828.56ZM2803.1 332.922L2770.17 343.058H2866.69L2902.09 332.922H2803.1ZM2803.91 362.345H2895.48L2925.72 354.343H2832.23L2803.91 362.345ZM2800.24 363.371L2774.91 370.552H2864.47L2891.55 363.371H2800.24ZM2787.44 391.932L2769.06 396.774H2852.15L2871.68 391.932H2787.44ZM2765.78 397.636L2748.97 402.067H2830.78L2848.65 397.636H2765.78ZM2745.82 402.888L2730.42 406.91H2811.07L2827.41 402.888H2745.78H2745.82ZM2660.99 402.888L2646.74 406.91H2727.56L2742.79 402.888H2660.99ZM2576.16 402.888L2563.06 406.91H2644.05L2658.13 402.888H2576.16ZM2491.32 402.888L2479.34 406.91H2560.5L2573.47 402.888H2491.32ZM2406.49 402.888L2395.66 406.91H2476.95L2488.77 402.888H2406.45H2406.49ZM2321.66 402.888L2311.98 406.91H2393.44L2404.15 402.888H2321.66ZM2236.83 402.888L2228.26 406.91H2309.85L2319.44 402.888H2236.83ZM2152 402.888L2144.58 406.91H2226.34L2234.78 402.888H2152ZM2067.17 402.888L2060.9 406.91H2142.79L2150.08 402.888H2067.17ZM1982.34 402.888L1977.18 406.91H2059.19L2065.38 402.888H1982.34ZM1897.55 402.888L1893.54 406.91H1975.64L1980.72 402.888H1897.55ZM1812.76 402.888L1809.9 406.91H1892.09L1896.01 402.888H1812.76ZM1727.97 402.888L1726.22 406.91H1808.45L1811.23 402.888H1727.93H1727.97ZM1557.75 397.636L1558.35 402.067H1641.95L1642.54 397.636H1557.8H1557.75ZM1388.99 402.888L1391.76 406.91H1474.03L1472.28 402.888H1388.99ZM1304.28 402.888L1308.21 406.91H1390.4L1387.54 402.888H1304.28ZM1302.75 402.888H1219.58L1224.66 406.91H1306.76L1302.75 402.888ZM1217.96 402.888H1134.92L1141.11 406.91H1223.12L1217.96 402.888ZM1133.17 402.888H1050.26L1057.55 406.91H1139.44L1133.17 402.888ZM386.197 406.91L369.692 402.888H288.273L305.759 406.91H386.24H386.197ZM409.527 391.07L389.311 385.776H303.627L325.122 391.07H409.57H409.527ZM385.813 384.832L363.507 378.964H276.203L299.873 384.832H385.813ZM359.925 378.021L335.273 371.537H246.177L272.364 378.021H359.925ZM293.988 331.691H393.277L355.916 320.16H253.811L293.988 331.691ZM484.506 287.496L437.036 269.809H321.753L373.573 287.496H484.463H484.506ZM443.135 218.187H572.323L508.347 187.984H371.568L443.135 218.187ZM1086.94 185.399L1049.88 148.057H900.729L947.474 185.399H1086.94ZM1232.89 185.399L1206.32 148.057H1056.74L1093.04 185.399H1232.89ZM1378.79 185.399L1362.72 148.057H1212.89L1238.73 185.399H1378.84H1378.79ZM1524.62 185.399L1519.03 148.057H1368.99L1384.34 185.399H1524.62ZM2757.33 218.187L2828.9 187.984H2692.12L2628.15 218.187H2757.33ZM2821.78 245.27L2887.76 220.361H2759.68L2699.93 245.27H2821.78ZM2823.95 247.199L2768.04 268.045H2883.75L2944.87 247.199H2824H2823.95ZM2867.88 344.166L2836.15 353.153H2929.9L2963.8 344.166H2867.88ZM2865.2 371.496L2840.54 377.979H2928.11L2954.29 371.496H2865.2ZM2836.92 378.923L2814.61 384.791H2900.55L2924.22 378.923H2836.92ZM2811.16 385.694L2790.94 390.988H2875.39L2896.89 385.694H2811.2H2811.16ZM2830.78 402.806L2814.27 406.828H2894.75L2912.24 402.806H2830.82H2830.78ZM1643.31 402.806L1642.71 406.828H1724.99L1726.65 402.806H1643.31ZM1558.57 402.806L1559.08 406.828H1641.39L1641.9 402.806H1558.52H1558.57ZM1557.16 402.806H1473.82L1475.48 406.828H1557.75L1557.16 402.806ZM1057.3 407.648H975.751L983.513 411.341H1064.12L1057.34 407.648H1057.3ZM973.831 407.648H892.412L901.198 411.341H981.679L973.831 407.648ZM890.365 407.648H809.117L818.926 411.341H899.279L890.408 407.648H890.365ZM806.899 407.648H725.778L736.611 411.341H816.793L806.856 407.648H806.899ZM723.432 407.648H642.482L654.382 411.341H734.436L723.475 407.648H723.432ZM639.966 407.648H559.186L572.109 411.341H651.993L639.966 407.648ZM556.499 407.648H475.891L489.837 411.341H569.593L556.542 407.648H556.499ZM473.033 407.648H392.552L407.522 411.341H487.108L472.99 407.648H473.033ZM389.567 407.648H309.256L325.293 411.341H404.708L389.567 407.648ZM225.961 407.648L243.021 411.341H322.265L306.058 407.648H225.918H225.961ZM366.322 401.944L348.281 397.512H265.625L284.733 401.944H366.365H366.322ZM344.784 396.692L325.037 391.85H241.016L261.915 396.692H344.784ZM331.562 370.511L304.181 363.33H213.166L242.253 370.511H331.562ZM172.093 353.194H265.54L231.249 344.207H135.628L172.051 353.194H172.093ZM649.008 185.399L580.384 148.057H432.857L510.949 185.399H648.965H649.008ZM1961.87 185.399L1987.71 148.057H1837.88L1821.8 185.399H1961.91H1961.87ZM2107.47 185.399L2143.77 148.057H1994.19L1967.62 185.399H2107.47ZM2253.04 185.399L2299.78 148.057H2150.64L2113.57 185.399H2253.04ZM2398.6 185.399L2455.8 148.057H2307.12L2259.52 185.399H2398.56H2398.6ZM2544.13 185.399L2611.77 148.057H2463.64L2405.56 185.399H2544.13ZM2689.61 185.399L2767.7 148.057H2620.17L2551.55 185.399H2689.56H2689.61ZM2885.75 269.809L2833.34 287.496H2943.8L3000.57 269.809H2885.75ZM2891.64 305.675L2848.86 318.847H2951.26L2997.24 305.675H2891.64ZM2900.3 362.304H2991.57L3024.03 354.302H2930.83L2900.25 362.304H2900.3ZM2896.37 363.33L2868.99 370.511H2958.3L2987.39 363.33H2896.37ZM2875.52 391.891L2855.77 396.733H2938.64L2959.54 391.891H2875.52ZM2852.23 397.595L2834.19 402.026H2915.82L2934.93 397.595H2852.27H2852.23ZM2894.41 407.689L2878.2 411.383H2957.45L2974.51 407.689H2894.37H2894.41ZM2810.95 407.689L2795.8 411.383H2875.22L2891.26 407.689H2810.95ZM2727.48 407.689L2713.36 411.383H2792.95L2807.92 407.689H2727.44H2727.48ZM2644.01 407.689L2630.96 411.383H2710.72L2724.66 407.689H2644.05H2644.01ZM2560.55 407.689L2548.52 411.383H2628.4L2641.33 407.689H2560.55ZM2477.08 407.689L2466.12 411.383H2546.17L2558.07 407.689H2477.12H2477.08ZM2393.61 407.689L2383.68 411.383H2463.86L2474.69 407.689H2393.57H2393.61ZM2310.15 407.689L2301.28 411.383H2381.63L2391.44 407.689H2310.19H2310.15ZM2226.68 407.689L2218.83 411.383H2299.31L2308.1 407.689H2226.68ZM2143.21 407.689L2136.43 411.383H2217.04L2224.8 407.689H2143.26H2143.21ZM2059.75 407.689L2053.99 411.383H2134.73L2141.42 407.689H2059.75ZM1976.28 407.689L1971.55 411.383H2052.37L2058.04 407.689H1976.24H1976.28ZM1892.86 407.689L1889.19 411.383H1970.14L1974.79 407.689H1892.9H1892.86ZM1809.43 407.689L1806.79 411.383H1887.82L1891.41 407.689H1809.43ZM1726.01 407.689L1724.43 411.383H1805.51L1808.07 407.689H1726.01ZM1642.63 407.689L1642.07 411.383H1723.2L1724.73 407.689H1642.67H1642.63ZM1475.87 407.689L1477.4 411.383H1558.52L1557.97 407.689H1475.87ZM1474.54 407.689H1392.53L1395.09 411.383H1476.17L1474.59 407.689H1474.54ZM1391.12 407.689H1309.15L1312.73 411.383H1393.77L1391.12 407.689ZM1307.7 407.689H1225.81L1230.46 411.383H1311.41L1307.74 407.689H1307.7ZM1224.27 407.689H1142.47L1148.14 411.383H1228.96L1224.23 407.689H1224.27ZM1140.85 407.689H1059.17L1065.87 411.383H1146.61L1140.85 407.689ZM302.603 406.869L284.946 402.847H203.697L222.293 406.869H302.603ZM179.515 397.595L199.816 402.026H281.278L262 397.595H179.515ZM321.454 391.029L299.745 385.735H214.274L237.22 391.029H321.454ZM295.992 384.791L272.065 378.923H184.974L210.308 384.791H295.992ZM268.184 377.979L241.699 371.496H152.858L180.879 377.979H268.184ZM367.261 287.455L314.844 269.768H200.029L256.797 287.455H367.261ZM371.398 245.27L304.608 220.361H177.084L250.015 245.27H371.355H371.398ZM306.911 218.187H435.544L363.081 187.984H226.899L306.911 218.187ZM502.931 185.399L423.772 148.057H276.928L365.469 185.399H502.931ZM889.555 144.979L829.205 97.6239H667.518L740.066 144.979H889.512H889.555ZM1046.89 144.979L999.848 97.6239H837.607L896.891 144.979H1046.85H1046.89ZM1204.19 144.979L1170.49 97.6239H1007.82L1053.84 144.979H1204.19ZM1361.44 144.979L1341.05 97.6239H1178.04L1210.8 144.979H1361.44ZM1518.64 144.979L1511.56 97.6239H1348.3L1367.79 144.979H1518.64ZM2893.69 218.187L2973.7 187.984H2837.52L2765.05 218.187H2893.69ZM2950.58 245.27L3023.51 220.361H2895.99L2829.2 245.27H2950.54H2950.58ZM3002.27 304.238L3055.29 289.055H2945.63L2896.29 304.238H3002.23H3002.27ZM2952.8 320.16L2912.15 331.691H3011.1L3054.52 320.16H2952.8ZM2969.35 344.207L2935.06 353.194H3028.5L3064.93 344.207H2969.31H2969.35ZM2958.94 371.537L2932.46 378.021H3019.76L3047.78 371.537H2958.94ZM2928.57 378.964L2904.65 384.832H2990.33L3015.67 378.964H2928.57ZM2900.89 385.735L2879.19 391.029H2963.42L2986.41 385.735H2900.94H2900.89ZM2938.6 397.595L2919.32 402.026H3000.78L3021.08 397.595H2938.6ZM2915.65 402.847L2897.99 406.869H2978.3L2996.9 402.847H2915.65ZM1559.25 407.689L1559.72 411.383H1640.84L1641.31 407.689H1559.21H1559.25ZM1065.61 412.203H985.219L992.342 415.609H1071.88L1065.61 412.203ZM983.428 412.203H903.16L911.221 415.609H990.636L983.428 412.203ZM901.241 412.203H821.101L830.143 415.609H909.43L901.241 412.203ZM819.054 412.203H739.042L749.022 415.609H828.181L819.054 412.203ZM736.867 412.203H657.026L667.944 415.609H746.975L736.867 412.203ZM654.68 412.203H574.967L586.866 415.609H665.727L654.68 412.203ZM572.493 412.203H492.951L505.788 415.609H584.521L572.493 412.203ZM490.264 412.203H410.892L424.668 415.609H503.229L490.264 412.203ZM408.077 412.203H328.833L343.59 415.609H422.023L408.077 412.203ZM325.89 412.203H246.817L262.512 415.609H340.775L325.89 412.203ZM243.66 412.203H164.758L181.391 415.609H259.526L243.66 412.203ZM239.95 411.424L222.719 407.73H142.75L160.834 411.424H239.907H239.95ZM175.591 396.774H258.247L237.135 391.932H153.327L175.591 396.774ZM237.647 370.593L208.261 363.412H117.501L148.593 370.593H237.647ZM203.996 362.386L171.155 354.384H78.2631L112.98 362.386H203.996ZM2952.71 247.281L2890.91 268.127H3006.16L3073.07 247.281H2952.71ZM3029.44 354.343L2996.6 362.345H3087.62L3122.33 354.343H3029.44ZM2992.38 363.412L2962.99 370.593H3052.05L3083.14 363.412H2992.38ZM2963.46 391.973L2942.35 396.815H3025.01L3047.27 391.973H2963.46ZM2977.92 407.771L2960.69 411.465H3039.76L3057.85 407.771H2977.88H2977.92ZM2956.98 412.285L2941.11 415.691H3019.25L3035.88 412.285H2956.98ZM2874.75 412.285L2859.86 415.691H2938.13L2953.82 412.285H2874.75ZM2792.56 412.285L2778.62 415.691H2857.05L2871.76 412.285H2792.52H2792.56ZM2710.38 412.285L2697.41 415.691H2775.97L2789.75 412.285H2710.38ZM2628.19 412.285L2616.16 415.691H2694.89L2707.73 412.285H2628.19ZM2546 412.285L2534.96 415.691H2613.82L2625.72 412.285H2546ZM2463.82 412.285L2453.71 415.691H2532.7L2543.61 412.285H2463.77H2463.82ZM2381.63 412.285L2372.5 415.691H2451.66L2461.64 412.285H2381.63ZM2299.44 412.285L2291.25 415.691H2370.54L2379.58 412.285H2299.44ZM2217.25 412.285L2210.05 415.691H2289.46L2297.52 412.285H2217.25ZM2135.07 412.285L2128.8 415.691H2208.34L2215.46 412.285H2135.07ZM2052.88 412.285L2047.59 415.691H2127.22L2133.4 412.285H2052.88ZM1970.69 412.285L1966.34 415.691H2046.1L2051.3 412.285H1970.65H1970.69ZM1888.51 412.285L1885.14 415.691H1964.98L1969.24 412.285H1888.51ZM1806.36 412.285L1803.93 415.691H1883.86L1887.18 412.285H1806.36ZM1724.22 412.285L1722.77 415.691H1802.74L1805.08 412.285H1724.22ZM1642.07 412.285L1641.56 415.691H1721.57L1722.98 412.285H1642.07ZM1558.74 412.285H1477.83L1479.24 415.691H1559.25L1558.74 412.285ZM1476.59 412.285H1395.73L1398.07 415.691H1478.04L1476.59 412.285ZM1394.45 412.285H1313.63L1316.95 415.691H1396.88L1394.45 412.285ZM1312.3 412.285H1231.57L1235.83 415.691H1315.67L1312.3 412.285ZM1230.12 412.285H1149.46L1154.67 415.691H1234.42L1230.07 412.285H1230.12ZM1147.93 412.285H1067.41L1073.59 415.691H1153.22L1147.93 412.285ZM177.851 415.322L161.047 411.916H82.3148L99.8867 415.322H177.851ZM218.54 406.622L199.731 402.601H118.653L138.4 406.622H218.54ZM195.85 401.739L175.292 397.307H93.02L114.558 401.739H195.807H195.85ZM232.913 390.742L209.711 385.448H124.453L148.892 390.742H232.913ZM205.702 384.504L180.112 378.636H93.2759L120.231 384.504H205.702ZM175.975 377.692L147.655 371.209H59.0278L88.8403 377.692H175.889H175.975ZM183.225 331.363L139.338 319.832H37.9587L84.5753 331.363H183.183H183.225ZM91.1434 305.346L140.788 318.519H242.807L196.319 305.346H91.1008H91.1434ZM249.546 287.168L192.139 269.481H77.7939L139.509 287.168H249.546ZM241.784 244.983L167.999 220.074H41.0295L120.956 244.983H241.784ZM298.295 217.899L217.345 187.697H81.803L170.259 217.899H298.338H298.295ZM356.47 185.112L266.82 147.769H120.657L219.648 185.112H356.47ZM480.412 93.5613L366.664 31.6385H189.623L319.109 93.5613H480.412ZM652.249 93.5613L555.945 31.6385H378.094L490.264 93.5613H652.249ZM824.044 93.5613L745.141 31.6385H566.565L661.419 93.5613H824.044ZM995.796 93.5613L934.337 31.6385H755.079L832.574 93.5613H995.796ZM1167.46 93.5613L1123.41 31.6385H943.635L1003.81 93.5613H1167.46ZM1339.09 93.5613L1312.43 31.6385H1132.23L1175.06 93.5613H1339.09ZM1510.63 93.5613L1501.37 31.6385H1320.92L1346.38 93.5613H1510.63ZM1853.49 93.5613L1878.95 31.6385H1698.5L1689.25 93.5613H1853.49ZM2024.82 93.5613L2067.64 31.6385H1887.44L1860.78 93.5613H2024.82ZM2196.1 93.5613L2256.28 31.6385H2076.51L2032.45 93.5613H2196.1ZM2367.3 93.5613L2444.79 31.6385H2265.53L2204.08 93.5613H2367.3ZM2538.45 93.5613L2633.31 31.6385H2454.73L2375.83 93.5613H2538.45ZM2709.61 93.5613L2821.78 31.6385H2643.93L2547.62 93.5613H2709.61ZM2880.72 93.5613L3010.21 31.6385H2833.21L2719.46 93.5613H2880.76H2880.72ZM2980.18 185.112L3079.17 147.769H2933.01L2843.36 185.112H2980.18ZM3029.61 217.899L3118.07 187.697H2982.53L2901.58 217.899H3029.66H3029.61ZM3078.92 244.983L3158.84 220.074H3031.87L2958.09 244.983H3078.92ZM3060.36 287.168L3122.08 269.481H3007.73L2950.33 287.168H3060.36ZM3114.1 303.91L3171.38 288.727H3062.15L3008.54 303.91H3114.1ZM3115.25 331.363L3161.87 319.832H3060.53L3016.65 331.363H3115.25ZM3126.64 352.907L3165.58 343.92H3070.3L3033.49 352.907H3126.64ZM3052.22 371.209L3023.9 377.692H3110.95L3140.76 371.209H3052.17H3052.22ZM3019.76 378.636L2994.17 384.504H3079.64L3106.6 378.636H3019.76ZM2990.16 385.407L2966.96 390.701H3050.98L3075.42 385.407H2990.16ZM3024.54 397.266L3003.98 401.698H3085.23L3106.77 397.266H3024.49H3024.54ZM3000.1 402.519L2981.29 406.54H3061.43L3081.18 402.519H3000.1ZM3038.78 411.875L3021.98 415.281H3099.94L3117.51 411.875H3038.78ZM3018.14 416.061L3002.66 419.22H3079.73L3095.93 416.061H3018.14ZM2937.1 416.061L2922.48 419.22H2999.71L3015.07 416.061H2937.15H2937.1ZM2856.07 416.061L2842.34 419.22H2919.7L2934.16 416.061H2856.07ZM2775.03 416.061L2762.2 419.22H2839.69L2853.3 416.061H2775.03ZM2694 416.061L2682.06 419.22H2759.68L2772.39 416.061H2694ZM2612.96 416.061L2601.87 419.22H2679.67L2691.52 416.061H2612.96ZM2531.93 416.061L2521.73 419.22H2599.66L2610.62 416.061H2531.93ZM2450.89 416.061L2441.59 419.22H2519.64L2529.71 416.061H2450.89ZM2369.86 416.061L2361.45 419.22H2439.63L2448.85 416.061H2369.9H2369.86ZM2288.82 416.061L2281.27 419.22H2359.58L2367.9 416.061H2288.82ZM2207.79 416.061L2201.13 419.22H2279.57L2287.03 416.061H2207.83H2207.79ZM2126.75 416.061L2120.99 419.22H2199.51L2206.08 416.061H2126.75ZM2045.76 416.061L2040.85 419.22H2119.5L2125.17 416.061H2045.72H2045.76ZM1964.77 416.061L1960.76 419.22H2039.49L2044.31 416.061H1964.77ZM1883.77 416.061L1880.66 419.22H1959.48L1963.4 416.061H1883.77ZM1802.78 416.061L1800.56 419.22H1879.47L1882.54 416.061H1802.82H1802.78ZM1721.79 416.061L1720.42 419.22H1799.37L1801.54 416.061H1721.79ZM1072.78 416.061H993.45L1000.02 419.22H1078.54L1072.78 416.061ZM991.745 416.061H912.543L920.007 419.22H998.441L991.787 416.061H991.745ZM910.709 416.061H831.636L839.953 419.22H918.258L910.709 416.061ZM829.674 416.061H750.728L759.941 419.22H838.119L829.716 416.061H829.674ZM748.639 416.061H669.821L679.886 419.22H757.936L748.639 416.061ZM667.603 416.061H588.914L599.875 419.22H677.797L667.603 416.061ZM586.568 416.061H508.049L519.863 419.22H597.657L586.568 416.061ZM505.533 416.061H427.142L439.851 419.22H517.475L505.533 416.061ZM424.497 416.061H346.234L359.84 419.22H437.335L424.497 416.061ZM343.462 416.061H265.369L279.828 419.22H357.195L343.462 416.061ZM262.427 416.061H184.505L199.859 419.22H277.098L262.469 416.061H262.427ZM181.391 416.061H103.597L119.804 419.22H196.873L181.391 416.061ZM22.9884 416.102L40.0912 419.22H117.032L100.654 416.061H22.9884V416.102ZM78.1351 411.136H157.081L138.784 407.443H59.0278L78.1351 411.136ZM33.9495 402.601L54.8055 406.622H134.775L114.857 402.601H33.9922H33.9495ZM6.86668 397.348L29.6419 401.78H110.72L88.9256 397.348H6.86668ZM88.7977 396.487H171.283L148.806 391.644H65.2121L88.7977 396.487ZM34.9305 385.448L60.8618 390.742H144.669L119.975 385.448H34.9731H34.9305ZM143.262 370.265L111.829 363.084H21.3677L54.4643 370.265H143.262ZM3087.96 363.084L3056.52 370.265H3145.32L3178.42 363.084H3087.96ZM3079.85 385.448L3055.16 390.742H3138.97L3164.9 385.448H3079.85ZM3051.02 391.644L3028.55 396.487H3111.03L3134.62 391.644H3051.02ZM3110.86 397.348L3089.07 401.78H3170.14L3192.92 397.348H3110.82H3110.86ZM3084.97 402.601L3065.05 406.622H3145.02L3165.88 402.601H3085.02H3084.97ZM3061 407.443L3042.71 411.136H3121.65L3140.76 407.443H3061ZM3099.18 416.143L3082.8 419.302H3159.74L3176.84 416.143H3099.22H3099.18ZM1559.97 416.143L1560.4 419.302H1639.39L1639.81 416.143H1560.02H1559.97ZM30.4949 384.545H115.753L88.4991 378.677H1.91926L30.4949 384.545ZM148.039 93.6023H308.574L177.382 31.6795H1.23686L148.039 93.6023ZM3022.45 31.6795L2891.26 93.6023H3051.79L3198.59 31.6795H3022.45ZM3111.33 378.677L3084.08 384.545H3169.33L3197.91 378.677H3111.33ZM18.7661 415.322H96.56L78.7749 411.916H0.255901L18.8087 415.322H18.7661ZM3121.01 411.916L3103.23 415.322H3181.02L3199.53 411.916H3120.97H3121.01Z" fill="url(#paint0_linear_370_909)" fill-opacity="0.24"/>
</g>
<defs>
<linearGradient id="paint0_linear_370_909" x1="1599.89" y1="420.029" x2="1599.89" y2="0.923281" gradientUnits="userSpaceOnUse">
<stop/>
<stop offset="1" stop-color="#6D4A83" stop-opacity="0.24"/>
</linearGradient>
<clipPath id="clip0_370_909">
<rect width="3200" height="420" fill="white" transform="matrix(1 0 0 -1 0 420)"/>
</clipPath>
</defs>
</svg>
