<svg width="16" height="16" viewBox="0 0 16 16" fill="none" xmlns="http://www.w3.org/2000/svg">
    <path
        d="M14.3635 14.156L12.193 11.9855C13.3095 10.8175 14 9.2395 14 7.5C14 3.916 11.084 1 7.5 1C3.916 1 1 3.916 1 7.5C1 11.084 3.916 14 7.5 14C8.9845 14 10.3505 13.494 11.446 12.653L13.656 14.863C13.7023 14.9096 13.7574 14.9466 13.8181 14.9718C13.8787 14.997 13.9438 15.01 14.0095 15.01C14.0752 15.01 14.1403 14.997 14.2009 14.9718C14.2616 14.9466 14.3167 14.9096 14.363 14.863C14.4568 14.7693 14.5096 14.6422 14.5096 14.5096C14.5097 14.377 14.4572 14.2498 14.3635 14.156ZM2 7.5C2 4.4675 4.4675 2 7.5 2C10.5325 2 13 4.4675 13 7.5C13 10.5325 10.5325 13 7.5 13C4.4675 13 2 10.5325 2 7.5Z"
        fill="white" />
    <path
        d="M9.778 7H5.25C5.11739 7 4.99021 7.05268 4.89645 7.14645C4.80268 7.24021 4.75 7.36739 4.75 7.5C4.75 7.63261 4.80268 7.75979 4.89645 7.85355C4.99021 7.94732 5.11739 8 5.25 8H9.778C9.91061 8 10.0378 7.94732 10.1316 7.85355C10.2253 7.75979 10.278 7.63261 10.278 7.5C10.278 7.36739 10.2253 7.24021 10.1316 7.14645C10.0378 7.05268 9.91061 7 9.778 7Z"
        fill="white" />
</svg>