<svg width="220" height="29" viewBox="0 0 220 29" fill="none" xmlns="http://www.w3.org/2000/svg"><mask id="a" maskUnits="userSpaceOnUse" x="0" y="0" width="220" height="29" fill="#000"><path fill="#fff" d="M0 0h220v29H0z"/><path d="M11.597 27.096c-2.4 0-4.385-.458-5.958-1.375-1.573-.918-2.746-2.096-3.52-3.538C1.374 20.743 1 19.262 1 17.743c0-1.887.333-3.747 1-5.581A15.917 15.917 0 0 1 4.919 7.13c1.306-1.52 2.892-2.725 4.759-3.616 1.866-.917 4.012-1.375 6.438-1.375 1.733 0 3.159.249 4.279.746 1.12.498 1.946 1.153 2.479 1.966.56.786.84 1.637.84 2.554 0 .996-.187 1.703-.56 2.122-.347.42-.747.63-1.2.63a.898.898 0 0 1-.8-.433c-.16-.315-.24-.59-.24-.825 0-.498.094-.865.28-1.1.187-.237.36-.46.52-.669.187-.236.28-.576.28-1.022 0-.864-.573-1.585-1.72-2.161-1.146-.603-2.625-.904-4.438-.904a12.282 12.282 0 0 0-8.958 3.851c-1.173 1.232-2.106 2.738-2.799 4.52-.693 1.782-1.04 3.786-1.04 6.013 0 1.52.307 2.947.92 4.284.613 1.336 1.56 2.423 2.84 3.262 1.279.812 2.919 1.218 4.918 1.218 2.373 0 4.492-.59 6.358-1.768a15.715 15.715 0 0 0 4.719-4.52c.213-.288.413-.432.6-.432.16 0 .24.091.24.275 0 .236-.054.445-.16.628-1.36 2.359-3.04 4.075-5.039 5.149-1.973 1.048-4.252 1.572-6.838 1.572zm19.647-.432c-.986 0-1.652-.275-2-.826-.346-.576-.519-1.31-.519-2.2 0-.944.147-1.848.44-2.712.293-.865.613-1.73.96-2.594a2.381 2.381 0 0 1-.52-.511c-.134-.21-.2-.511-.2-.904 0-.445.267-1.009.8-1.69a9.958 9.958 0 0 1 1.8-1.847 7.868 7.868 0 0 1 1.159-.747c.48-.288.973-.524 1.48-.707.506-.21.92-.315 1.24-.315 1.119 0 1.865.446 2.238 1.337.374.89.507 1.952.4 3.183.107-.052.294-.131.56-.236.293-.105.573-.196.84-.275.267-.105.427-.157.48-.157.133 0 .266.065.4.196.133.131.2.262.2.393 0 .079-.04.145-.12.197l-2.52.943c-.16.812-.426 1.756-.8 2.83a15.13 15.13 0 0 1-1.439 3.144 9.409 9.409 0 0 1-2.12 2.515 4.23 4.23 0 0 1-2.759.983zm1.92-9.236a9.18 9.18 0 0 0 1.92-.197 31.317 31.317 0 0 0 1.999-.59c.026-.13.04-.274.04-.431a2.69 2.69 0 0 0 .04-.433c0-.314-.04-.668-.12-1.06a2.178 2.178 0 0 0-.4-1.023c-.187-.314-.48-.471-.88-.471-.453 0-.893.17-1.32.51a7.583 7.583 0 0 0-1.2 1.219 17.8 17.8 0 0 0-.919 1.376c-.24.445-.413.772-.52.982.48.079.933.118 1.36.118zm-1.56 8.175c.747 0 1.4-.236 1.96-.708.586-.498 1.093-1.14 1.52-1.926.426-.786.786-1.637 1.079-2.554.32-.917.573-1.821.76-2.712-.8.262-1.72.524-2.76.786-1.012.236-1.946.301-2.799.197a20.09 20.09 0 0 0-.72 2.397 12.13 12.13 0 0 0-.28 2.476c0 .42.067.865.2 1.336.16.472.507.708 1.04.708zm10.705 1.375c-.213 0-.32-.078-.32-.236l.52-1.493a3.53 3.53 0 0 0 .24-.983 7.09 7.09 0 0 1 .24-1.021c.16-.682.333-1.363.52-2.044.186-.681.386-1.35.6-2.005.08-.235.186-.576.32-1.021.133-.446.252-.891.36-1.337.132-.471.199-.825.199-1.06 0-.132-.093-.184-.28-.158-.16.026-.253 0-.28-.079.187-.471.347-.956.48-1.454s.293-.982.48-1.454c.08-.21.293-.406.64-.59.346-.209.626-.314.84-.314.373 0 .56.236.56.708 0 .419-.107 1.06-.32 1.925a34.883 34.883 0 0 1-.84 2.83 204.25 204.25 0 0 1-.96 2.987 65.058 65.058 0 0 1-.76 2.319 40.063 40.063 0 0 0 2.56-2.594 36.072 36.072 0 0 0 2.319-2.83c.72-.97 1.28-1.847 1.68-2.633 0-.288.186-.485.56-.59.399-.104.706-.13.919-.078a.621.621 0 0 1 .24-.079c.24 0 .386.184.44.55.08.341.12.59.12.747 0 .289-.04.695-.12 1.219-.054.497-.24.825-.56.982a5.25 5.25 0 0 0-.04.668v.63c0 .314.013.838.04 1.571.053.708.146 1.454.28 2.24.133.786.346 1.468.64 2.044.293.55.693.825 1.2.825.48 0 .892-.13 1.239-.393.373-.262.693-.563.96-.904.266-.34.48-.642.64-.904.16-.262.28-.393.36-.393.133 0 .2.079.2.236 0 .367-.2.813-.6 1.336-.374.524-.694.918-.96 1.18-.294.314-.64.589-1.04.825s-.826.354-1.28.354c-.8 0-1.426-.276-1.88-.826-.452-.576-.799-1.27-1.039-2.083a16.578 16.578 0 0 1-.44-2.515 35.845 35.845 0 0 1-.08-2.122v-1.454l.08-1.415c-.426.733-.92 1.44-1.48 2.122-.56.681-1.106 1.35-1.639 2.004-.8.891-1.586 1.86-2.36 2.909a4.994 4.994 0 0 0-.399.668 2.071 2.071 0 0 1-.44.629l-.08.078c-.187.498-.306.878-.36 1.14-.053.262-.32.55-.8.864a8.88 8.88 0 0 1-.52.315 1.206 1.206 0 0 1-.6.157zm17.659 0c-.213 0-.32-.078-.32-.236l.52-1.493a3.53 3.53 0 0 0 .24-.983 7.09 7.09 0 0 1 .24-1.021c.16-.682.333-1.363.52-2.044a44.1 44.1 0 0 1 .6-2.005 31.76 31.76 0 0 0 .68-2.358c.133-.471.2-.825.2-1.06 0-.132-.094-.184-.28-.158-.16.026-.254 0-.28-.079.186-.471.346-.956.48-1.454.133-.498.292-.982.479-1.454.08-.21.293-.406.64-.59.346-.209.626-.314.84-.314.373 0 .56.236.56.708 0 .419-.107 1.06-.32 1.925a34.886 34.886 0 0 1-.84 2.83 202.31 202.31 0 0 1-.96 2.987 65.47 65.47 0 0 1-.76 2.319 40.063 40.063 0 0 0 2.56-2.594 36.048 36.048 0 0 0 2.319-2.83c.72-.97 1.28-1.847 1.68-2.633 0-.288.186-.485.56-.59.4-.104.706-.13.919-.078a.622.622 0 0 1 .24-.079c.24 0 .386.184.44.55.08.341.12.59.12.747 0 .289-.04.695-.12 1.219-.053.497-.24.825-.56.982a5.25 5.25 0 0 0-.04.668v.63c0 .314.013.838.04 1.571.053.708.147 1.454.28 2.24.133.786.347 1.468.64 2.044.293.55.693.825 1.2.825.48 0 .892-.13 1.24-.393a4.47 4.47 0 0 0 .959-.904c.266-.34.48-.642.64-.904.16-.262.28-.393.36-.393.133 0 .2.079.2.236 0 .367-.2.813-.6 1.336-.374.524-.694.918-.96 1.18-.293.314-.64.589-1.04.825s-.826.354-1.28.354c-.8 0-1.426-.276-1.879-.826-.453-.576-.8-1.27-1.04-2.083a16.578 16.578 0 0 1-.44-2.515 35.858 35.858 0 0 1-.08-2.122v-1.454l.08-1.415c-.426.733-.92 1.44-1.48 2.122-.559.681-1.106 1.35-1.639 2.004-.8.891-1.586 1.86-2.359 2.909a4.994 4.994 0 0 0-.4.668 2.07 2.07 0 0 1-.44.629l-.08.078c-.186.498-.306.878-.36 1.14-.053.262-.32.55-.8.864a8.88 8.88 0 0 1-.52.315 1.205 1.205 0 0 1-.6.157zm26.697-9.393c-.134 0-.2-.065-.2-.196 0-.079.013-.145.04-.197.16-.42.28-.812.36-1.179.106-.393.16-.799.16-1.218 0-.157-.014-.367-.04-.63 0-.287-.054-.55-.16-.785-.08-.236-.24-.354-.48-.354a.9.9 0 0 0-.28.04h-.28c-.267 0-.4-.105-.4-.315 0-.105.12-.196.36-.275a7.85 7.85 0 0 1 .84-.197 4.16 4.16 0 0 1 .6-.078c.666 0 1.08.249 1.239.747.187.471.28.969.28 1.493 0 .498-.093 1.022-.28 1.572-.16.55-.467.97-.92 1.258-.106.078-.24.157-.4.236a1.43 1.43 0 0 1-.44.078zm-5.959 8.96c-.773 0-1.32-.183-1.64-.55-.293-.366-.44-.903-.44-1.61 0-.787.094-1.573.28-2.359a20.85 20.85 0 0 1 .68-2.28l-.36.119c-.133-.079-.2-.21-.2-.393 0-.236.107-.459.32-.669.24-.235.48-.366.72-.393.16-.393.387-.903.68-1.532.293-.63.627-1.258 1-1.887a7.18 7.18 0 0 1 1.32-1.572c.48-.419 1-.629 1.56-.629.239 0 .359.105.359.315 0 .078-.053.183-.16.314l-.24.236c-.346.314-.68.76-1 1.336-.32.55-.613 1.127-.88 1.73a46.599 46.599 0 0 0-.68 1.532 33.43 33.43 0 0 1 2.2-.236 31.968 31.968 0 0 1 2.24-.078c.08 0 .28.013.6.04.32 0 .68.025 1.08.078.399.026.732.078.999.157.293.079.44.183.44.314 0 .105-.067.17-.2.197-.107.026-.187.04-.24.04a6.11 6.11 0 0 1-1-.08 6.179 6.179 0 0 0-1-.078c-.906 0-1.826.066-2.759.197a46.54 46.54 0 0 0-2.76.471 33.453 33.453 0 0 0-.799 2.319c-.24.864-.36 1.677-.36 2.437 0 .419.08.825.24 1.218.16.367.493.55 1 .55.72 0 1.4-.275 2.04-.825a14.128 14.128 0 0 0 1.839-1.926c.56-.734 1.026-1.336 1.4-1.808h.04c.106 0 .16.053.16.157.026.105.04.184.04.236a2.6 2.6 0 0 1-.32 1.258c-.214.367-.48.707-.8 1.022a14.95 14.95 0 0 1-2.48 1.808 5.53 5.53 0 0 1-2.919.825zm13.934.001c-.747 0-1.28-.184-1.6-.55-.32-.367-.48-.904-.48-1.612v-.51l.08-.55c.053-.446.16-1.049.32-1.809.187-.76.413-1.572.68-2.436.293-.891.613-1.743.96-2.555.373-.838.773-1.533 1.2-2.083.452-.576.932-.93 1.439-1.061a9.479 9.479 0 0 0 1.92-.708 4.398 4.398 0 0 1 1.959-.471c.639 0 1.039.21 1.199.629.16.419.24.89.24 1.415 0 .602-.24 1.035-.72 1.296a2.597 2.597 0 0 1-.399.236c-.134.053-.28.079-.44.079-.187 0-.28-.079-.28-.236 0-.157.026-.314.08-.471a1.59 1.59 0 0 0 .08-.511c0-.289-.067-.63-.2-1.022-.107-.42-.36-.63-.76-.63-.293 0-.613.132-.96.394a9.58 9.58 0 0 0-.84.629c-.4.34-.826.956-1.28 1.847a26.867 26.867 0 0 0-1.199 2.869 31.88 31.88 0 0 0-.92 3.026c-.213.97-.32 1.73-.32 2.28 0 .419.08.825.24 1.218.16.367.494.55 1 .55.72 0 1.4-.275 2.04-.825a14.128 14.128 0 0 0 1.84-1.926c.559-.734 1.025-1.336 1.399-1.808h.04c.106 0 .16.053.16.157.026.105.04.184.04.236a2.6 2.6 0 0 1-.32 1.258 3.82 3.82 0 0 1-.8 1.022 14.953 14.953 0 0 1-2.48 1.808 5.528 5.528 0 0 1-2.919.825zm11.905-.315c-.213 0-.427-.065-.64-.196-.187-.131-.28-.328-.28-.59 0-.21.04-.432.12-.668.08-.262.133-.484.16-.668a160.7 160.7 0 0 1 1.44-5.148c.533-1.73 1.053-3.446 1.559-5.149h-1.119c-.08 0-.16.013-.24.04h-.4c-.027 0-.04.013-.04.039-.16-.079-.24-.197-.24-.354 0-.13.026-.236.08-.314a1.6 1.6 0 0 1 .24-.197.83.83 0 0 1 .48-.236c.213-.026.413-.039.599-.039.16 0 .32.013.48.04h.52c.08-.236.187-.564.32-.983.133-.446.253-.891.36-1.336.107-.446.16-.773.16-.983 0-.13-.093-.183-.28-.157-.16.026-.253 0-.28-.079.187-.471.347-.943.48-1.415.16-.497.306-.995.44-1.493.053-.236.253-.432.6-.59.346-.183.639-.275.879-.275s.4.079.48.236a.97.97 0 0 1 .12.511c0 .288-.08.734-.24 1.336-.16.603-.346 1.258-.56 1.965a55.383 55.383 0 0 1-.639 1.926 29.882 29.882 0 0 1-.44 1.336h4.478c.027 0 .08.04.16.118 0 .105-.186.197-.559.275a7.657 7.657 0 0 1-.6.079c-.613.105-1.24.197-1.88.275l-1.919.157c-.16.498-.4 1.206-.72 2.123a288.7 288.7 0 0 1-.96 2.947c-.32 1.048-.6 2.03-.839 2.948-.24.89-.36 1.559-.36 2.004 0 .236.04.485.12.747.106.236.306.354.599.354.4 0 .814-.145 1.24-.433.453-.288.88-.615 1.28-.982.426-.367.786-.695 1.079-.983.294-.288.494-.432.6-.432.134 0 .2.092.2.275 0 .052-.013.17-.04.354 0 .183-.066.275-.2.275-.266.262-.653.59-1.159.982a20.44 20.44 0 0 1-1.6 1.1c-.56.341-1.12.643-1.679.905-.534.235-.987.353-1.36.353zM131.22 28c-.374 0-.574-.223-.6-.668a31.27 31.27 0 0 0-.12-1.415 125.63 125.63 0 0 0-.48-5.58 155.567 155.567 0 0 0-.68-6.053 186.62 186.62 0 0 0-.84-5.777 69.178 69.178 0 0 0-.919-4.795c-.134-.446-.307-.616-.52-.511h-.08c-.107 0-.2-.053-.28-.157-.054-.105-.027-.197.08-.275.453-.236.8-.433 1.04-.59.266-.183.493-.288.679-.314a.904.904 0 0 1 .28-.04c.267 0 .44.105.52.315.107.21.213.576.32 1.1.4 2.044.76 4.297 1.08 6.76.346 2.437.653 4.886.919 7.35.267 2.462.48 4.742.64 6.838a179.83 179.83 0 0 0 5.119-8.293 80.13 80.13 0 0 0 4.159-8.253c.266-.603.4-1.022.4-1.258 0-.262-.08-.419-.24-.471-.134-.079-.2-.236-.2-.472 0-.183.08-.42.24-.707.186-.289.4-.55.639-.786.24-.236.454-.354.64-.354a.38.38 0 0 1 .32.157c.08.079.133.17.16.275a99.945 99.945 0 0 1 3.559 10.18c1.013 3.484 1.773 6.864 2.279 10.139.027.105.067.157.12.157.107 0 .24-.223.4-.668a456.042 456.042 0 0 1 2.04-4.795 448.046 448.046 0 0 1 2.359-5.188c.8-1.729 1.573-3.366 2.319-4.912a102.826 102.826 0 0 1 2.04-4.087c.613-1.18 1.106-2.057 1.479-2.634.347-.497.6-.746.76-.746.214 0 .334.104.36.314.053.183.08.328.08.432 0 .262-.053.524-.16.786-.08.236-.2.485-.36.747a65.13 65.13 0 0 0-1.319 2.437 149.434 149.434 0 0 0-1.88 3.655 224.662 224.662 0 0 0-2.119 4.284 662.924 662.924 0 0 0-2.12 4.44 318.691 318.691 0 0 0-1.839 4.049 79.05 79.05 0 0 0-1.28 3.105c-.133.366-.36.746-.68 1.14-.319.392-.706.589-1.159.589-.427 0-.667-.21-.72-.629a7.802 7.802 0 0 1-.08-1.022c0-.393-.08-1.035-.24-1.926-.16-.89-.373-1.925-.64-3.104a93.286 93.286 0 0 0-.92-3.773 63.898 63.898 0 0 0-1.039-3.773 41.632 41.632 0 0 0-1.04-3.184c-.32-.917-.626-1.585-.92-2.004a3658.135 3658.135 0 0 1-3.159 6.052 268.05 268.05 0 0 1-2.999 5.503 209.411 209.411 0 0 1-3.319 5.62c-.4.655-.667 1.179-.8 1.572-.133.419-.28.72-.44.904-.133.21-.413.314-.839.314zm39.019-1.454c-.746 0-1.306-.262-1.68-.786a4.593 4.593 0 0 1-.759-1.808 12.765 12.765 0 0 1-.16-1.887c0-.55.026-1.087.08-1.61.08-.551.16-1.088.24-1.612-.267.34-.64.825-1.12 1.454-.48.603-1.026 1.27-1.64 2.004a46.432 46.432 0 0 1-1.879 2.044 13.887 13.887 0 0 1-1.88 1.572c-.586.393-1.093.59-1.519.59-.373 0-.613-.17-.72-.511a4.01 4.01 0 0 1-.12-.904c0-1.18.24-2.424.72-3.734s.973-2.489 1.479-3.537a26 26 0 0 1 .6-1.18c.267-.497.573-1.008.92-1.532a7.11 7.11 0 0 1 1.16-1.297c.4-.34.8-.484 1.199-.432.294-.184.574-.34.84-.472a2 2 0 0 1 .96-.236c.213 0 .56.066 1.04.197.506.131.866.223 1.079.275a1.04 1.04 0 0 1 .48-.472 1.44 1.44 0 0 1 .64-.157c.213 0 .36.013.44.04a.615.615 0 0 1 .24-.079c.16 0 .266.118.32.354.053.21.08.38.08.51 0 .341-.04.643-.12.905a8.96 8.96 0 0 1-.32.864c-.107.262-.2.511-.28.747-.053.21-.2.406-.44.59a33.83 33.83 0 0 0-.44 2.868c-.08.944-.12 1.9-.12 2.87 0 .34.013.746.04 1.218.053.471.173.89.36 1.257.213.367.533.55.96.55.666 0 1.253-.235 1.759-.707.533-.498.973-.97 1.32-1.415.053-.078.12-.157.2-.235a.787.787 0 0 1 .28-.236l.12.236c0 .261-.134.576-.4.943-.267.367-.56.72-.88 1.06-.32.315-.586.551-.8.708-.32.262-.679.498-1.079.708a2.686 2.686 0 0 1-1.2.275zm-8.958-1.65c.16 0 .334-.066.52-.197a3.47 3.47 0 0 0 .44-.354 20.47 20.47 0 0 0 3.319-3.616 28.278 28.278 0 0 0 2.56-4.166c.08-.13.16-.275.239-.432.08-.157.134-.314.16-.472.054-.21.107-.432.16-.668a9.12 9.12 0 0 0 .12-.707c-.026-.131-.173-.25-.44-.354a4.281 4.281 0 0 0-.879-.236c-.294-.078-.507-.118-.64-.118-.507 0-.96.21-1.36.63a11.23 11.23 0 0 0-.959 1.139 26.22 26.22 0 0 0-1.12 1.847 53 53 0 0 0-1.2 2.437c-.373.838-.693 1.65-.96 2.436-.239.787-.359 1.455-.359 2.005 0 .13.013.301.04.51.053.21.173.315.359.315zm15.487 1.335c-.24 0-.453-.065-.639-.196-.16-.131-.24-.328-.24-.59 0-.366.026-.825.08-1.375.053-.55.106-1.022.16-1.415.213-1.258.453-2.515.719-3.773a79.8 79.8 0 0 1 .96-3.773 80 80 0 0 1 1.12-3.812 29.934 29.934 0 0 1 1.559-3.97 15.542 15.542 0 0 1 2.24-3.458 9.037 9.037 0 0 1 3.239-2.397 6.36 6.36 0 0 1 1-.315A3.571 3.571 0 0 1 188.005 1c.32 0 .693.065 1.12.197a3.2 3.2 0 0 1 1.16.589c.32.236.479.55.479.943 0 .157-.04.275-.119.354-.054.079-.267.249-.64.51a10.33 10.33 0 0 1-.6.394c-.053-.053-.08-.092-.08-.118 0-.079.04-.157.12-.236.08-.078.12-.17.12-.275 0-.262-.147-.498-.44-.707a3.354 3.354 0 0 0-1-.55c-.373-.158-.68-.236-.92-.236-.879 0-1.692.366-2.439 1.1-.72.734-1.373 1.677-1.959 2.83a27.92 27.92 0 0 0-1.56 3.615 54.692 54.692 0 0 0-1.16 3.577c-.319 1.127-.573 2.03-.759 2.712-.214.76-.44 1.611-.68 2.554-.24.944-.453 1.9-.64 2.87-.16.942-.24 1.82-.24 2.633 0 .235.04.484.12.746.107.236.307.354.6.354.4 0 .813-.131 1.24-.393a8.645 8.645 0 0 0 1.279-.904c.427-.367.787-.681 1.08-.943.32-.262.533-.393.64-.393.053 0 .08.026.08.078 0 .184-.054.367-.16.55a2.231 2.231 0 0 1-.36.472c-.347.34-.84.747-1.48 1.218-.64.446-1.319.839-2.039 1.18-.72.34-1.386.51-2 .51zm8.951 0c-.24 0-.453-.065-.64-.196-.16-.131-.24-.328-.24-.59 0-.366.027-.825.08-1.375.054-.55.107-1.022.16-1.415.213-1.258.453-2.515.72-3.773.293-1.284.613-2.541.96-3.773a81.12 81.12 0 0 1 1.119-3.812 30.077 30.077 0 0 1 1.56-3.97 15.539 15.539 0 0 1 2.239-3.458 9.046 9.046 0 0 1 3.239-2.397 6.35 6.35 0 0 1 1-.315 3.578 3.578 0 0 1 1.04-.157c.32 0 .693.065 1.12.197.453.13.839.327 1.159.589.32.236.48.55.48.943 0 .157-.04.275-.12.354-.053.079-.266.249-.64.51a9.608 9.608 0 0 1-.6.394c-.053-.053-.079-.092-.079-.118 0-.079.039-.157.119-.236.08-.078.12-.17.12-.275 0-.262-.146-.498-.439-.707a3.367 3.367 0 0 0-1-.55c-.373-.158-.68-.236-.92-.236-.88 0-1.693.366-2.439 1.1-.72.734-1.373 1.677-1.96 2.83a28.056 28.056 0 0 0-1.559 3.615 54.692 54.692 0 0 0-1.16 3.577c-.32 1.127-.573 2.03-.76 2.712-.213.76-.44 1.611-.68 2.554-.239.944-.453 1.9-.639 2.87-.16.942-.24 1.82-.24 2.633 0 .235.04.484.12.746.106.236.306.354.6.354.399 0 .813-.131 1.239-.393.453-.262.88-.563 1.28-.904a86.89 86.89 0 0 0 1.08-.943c.319-.262.533-.393.639-.393.054 0 .08.026.08.078 0 .184-.053.367-.16.55a2.167 2.167 0 0 1-.36.472c-.346.34-.839.747-1.479 1.218-.64.446-1.32.839-2.04 1.18-.719.34-1.386.51-1.999.51zm17.108-8.646c-.133 0-.2-.065-.2-.196a.44.44 0 0 1 .04-.197c.16-.42.28-.812.36-1.179.107-.393.16-.799.16-1.218 0-.157-.013-.367-.04-.63 0-.287-.053-.55-.16-.785-.08-.236-.24-.354-.48-.354a.897.897 0 0 0-.279.04h-.28c-.267 0-.4-.105-.4-.315 0-.105.12-.196.36-.275a7.82 7.82 0 0 1 .839-.197c.294-.052.494-.078.6-.078.667 0 1.08.249 1.24.747.186.471.28.969.28 1.493a4.91 4.91 0 0 1-.28 1.572c-.16.55-.467.97-.92 1.258-.107.078-.24.157-.4.236a1.42 1.42 0 0 1-.44.078zm-5.958 8.96c-.773 0-1.32-.183-1.64-.55-.293-.366-.439-.903-.439-1.61 0-.787.093-1.573.28-2.359a20.63 20.63 0 0 1 .679-2.28l-.36.119c-.133-.079-.2-.21-.2-.393 0-.236.107-.459.32-.669.24-.235.48-.366.72-.393.16-.393.387-.903.68-1.532.293-.63.627-1.258 1-1.887.4-.629.84-1.153 1.319-1.572.48-.419 1-.629 1.56-.629.24 0 .36.105.36.315 0 .078-.053.183-.16.314a78.49 78.49 0 0 0-.24.236c-.347.314-.68.76-1 1.336-.32.55-.613 1.127-.88 1.73a46.427 46.427 0 0 0-.679 1.532 33.057 33.057 0 0 1 2.199-.236 31.98 31.98 0 0 1 2.239-.078c.08 0 .28.013.6.04.32 0 .68.025 1.08.078.4.026.733.078 1 .157.293.079.44.183.44.314 0 .105-.067.17-.2.197-.107.026-.187.04-.24.04a6.11 6.11 0 0 1-1-.08 6.179 6.179 0 0 0-1-.078c-.906 0-1.826.066-2.759.197-.933.13-1.853.288-2.759.471a33.448 33.448 0 0 0-.8 2.319c-.24.864-.36 1.677-.36 2.437 0 .419.08.825.24 1.218.16.367.493.55 1 .55.72 0 1.399-.275 2.039-.825a14.113 14.113 0 0 0 1.84-1.926 138.25 138.25 0 0 1 1.399-1.808h.04c.107 0 .16.053.16.157.027.105.04.184.04.236 0 .446-.106.865-.32 1.258-.213.367-.48.707-.799 1.022a14.967 14.967 0 0 1-2.48 1.808 5.526 5.526 0 0 1-2.919.825zm13.373-.314a1.21 1.21 0 0 1-.639-.196c-.187-.131-.28-.328-.28-.59 0-.21.04-.432.12-.668.08-.262.133-.484.16-.668.453-1.73.933-3.445 1.439-5.148a565.75 565.75 0 0 0 1.56-5.149h-1.12c-.08 0-.16.013-.24.04h-.4c-.026 0-.04.013-.04.039-.16-.079-.24-.197-.24-.354 0-.13.027-.236.08-.314a1.6 1.6 0 0 1 .24-.197.837.837 0 0 1 .48-.236c.213-.026.413-.039.6-.039.16 0 .32.013.48.04h.52c.08-.236.186-.564.32-.983.133-.446.253-.891.36-1.336.106-.446.159-.773.159-.983 0-.13-.093-.183-.279-.157-.16.026-.254 0-.28-.079.186-.471.346-.943.479-1.415.16-.497.307-.995.44-1.493.054-.236.254-.432.6-.59.347-.183.64-.275.88-.275s.4.079.48.236a.97.97 0 0 1 .12.511c0 .288-.08.734-.24 1.336-.16.603-.347 1.258-.56 1.965a55.322 55.322 0 0 1-.64 1.926 27.452 27.452 0 0 1-.44 1.336h4.479c.027 0 .08.04.16.118 0 .105-.187.197-.56.275a7.53 7.53 0 0 1-.6.079c-.613.105-1.239.197-1.879.275l-1.92.157c-.16.498-.399 1.206-.719 2.123-.294.917-.614 1.9-.96 2.947-.32 1.048-.6 2.03-.84 2.948-.24.89-.36 1.559-.36 2.004 0 .236.04.485.12.747.107.236.307.354.6.354.4 0 .813-.145 1.24-.433a9.174 9.174 0 0 0 1.279-.982c.427-.367.787-.695 1.08-.983.293-.288.493-.432.6-.432.133 0 .2.092.2.275 0 .052-.014.17-.04.354 0 .183-.067.275-.2.275-.267.262-.653.59-1.16.982-.48.367-1.013.734-1.599 1.1-.56.341-1.12.643-1.68.905-.533.235-.986.353-1.36.353z"/></mask><path d="M11.597 27.096c-2.4 0-4.385-.458-5.958-1.375-1.573-.918-2.746-2.096-3.52-3.538C1.374 20.743 1 19.262 1 17.743c0-1.887.333-3.747 1-5.581A15.917 15.917 0 0 1 4.919 7.13c1.306-1.52 2.892-2.725 4.759-3.616 1.866-.917 4.012-1.375 6.438-1.375 1.733 0 3.159.249 4.279.746 1.12.498 1.946 1.153 2.479 1.966.56.786.84 1.637.84 2.554 0 .996-.187 1.703-.56 2.122-.347.42-.747.63-1.2.63a.898.898 0 0 1-.8-.433c-.16-.315-.24-.59-.24-.825 0-.498.094-.865.28-1.1.187-.237.36-.46.52-.669.187-.236.28-.576.28-1.022 0-.864-.573-1.585-1.72-2.161-1.146-.603-2.625-.904-4.438-.904a12.282 12.282 0 0 0-8.958 3.851c-1.173 1.232-2.106 2.738-2.799 4.52-.693 1.782-1.04 3.786-1.04 6.013 0 1.52.307 2.947.92 4.284.613 1.336 1.56 2.423 2.84 3.262 1.279.812 2.919 1.218 4.918 1.218 2.373 0 4.492-.59 6.358-1.768a15.715 15.715 0 0 0 4.719-4.52c.213-.288.413-.432.6-.432.16 0 .24.091.24.275 0 .236-.054.445-.16.628-1.36 2.359-3.04 4.075-5.039 5.149-1.973 1.048-4.252 1.572-6.838 1.572zm19.647-.432c-.986 0-1.652-.275-2-.826-.346-.576-.519-1.31-.519-2.2 0-.944.147-1.848.44-2.712.293-.865.613-1.73.96-2.594a2.381 2.381 0 0 1-.52-.511c-.134-.21-.2-.511-.2-.904 0-.445.267-1.009.8-1.69a9.958 9.958 0 0 1 1.8-1.847 7.868 7.868 0 0 1 1.159-.747c.48-.288.973-.524 1.48-.707.506-.21.92-.315 1.24-.315 1.119 0 1.865.446 2.238 1.337.374.89.507 1.952.4 3.183.107-.052.294-.131.56-.236.293-.105.573-.196.84-.275.267-.105.427-.157.48-.157.133 0 .266.065.4.196.133.131.2.262.2.393 0 .079-.04.145-.12.197l-2.52.943c-.16.812-.426 1.756-.8 2.83a15.13 15.13 0 0 1-1.439 3.144 9.409 9.409 0 0 1-2.12 2.515 4.23 4.23 0 0 1-2.759.983zm1.92-9.236a9.18 9.18 0 0 0 1.92-.197 31.317 31.317 0 0 0 1.999-.59c.026-.13.04-.274.04-.431a2.69 2.69 0 0 0 .04-.433c0-.314-.04-.668-.12-1.06a2.178 2.178 0 0 0-.4-1.023c-.187-.314-.48-.471-.88-.471-.453 0-.893.17-1.32.51a7.583 7.583 0 0 0-1.2 1.219 17.8 17.8 0 0 0-.919 1.376c-.24.445-.413.772-.52.982.48.079.933.118 1.36.118zm-1.56 8.175c.747 0 1.4-.236 1.96-.708.586-.498 1.093-1.14 1.52-1.926.426-.786.786-1.637 1.079-2.554.32-.917.573-1.821.76-2.712-.8.262-1.72.524-2.76.786-1.012.236-1.946.301-2.799.197a20.09 20.09 0 0 0-.72 2.397 12.13 12.13 0 0 0-.28 2.476c0 .42.067.865.2 1.336.16.472.507.708 1.04.708zm10.705 1.375c-.213 0-.32-.078-.32-.236l.52-1.493a3.53 3.53 0 0 0 .24-.983 7.09 7.09 0 0 1 .24-1.021c.16-.682.333-1.363.52-2.044.186-.681.386-1.35.6-2.005.08-.235.186-.576.32-1.021.133-.446.252-.891.36-1.337.132-.471.199-.825.199-1.06 0-.132-.093-.184-.28-.158-.16.026-.253 0-.28-.079.187-.471.347-.956.48-1.454s.293-.982.48-1.454c.08-.21.293-.406.64-.59.346-.209.626-.314.84-.314.373 0 .56.236.56.708 0 .419-.107 1.06-.32 1.925a34.883 34.883 0 0 1-.84 2.83 204.25 204.25 0 0 1-.96 2.987 65.058 65.058 0 0 1-.76 2.319 40.063 40.063 0 0 0 2.56-2.594 36.072 36.072 0 0 0 2.319-2.83c.72-.97 1.28-1.847 1.68-2.633 0-.288.186-.485.56-.59.399-.104.706-.13.919-.078a.621.621 0 0 1 .24-.079c.24 0 .386.184.44.55.08.341.12.59.12.747 0 .289-.04.695-.12 1.219-.054.497-.24.825-.56.982a5.25 5.25 0 0 0-.04.668v.63c0 .314.013.838.04 1.571.053.708.146 1.454.28 2.24.133.786.346 1.468.64 2.044.293.55.693.825 1.2.825.48 0 .892-.13 1.239-.393.373-.262.693-.563.96-.904.266-.34.48-.642.64-.904.16-.262.28-.393.36-.393.133 0 .2.079.2.236 0 .367-.2.813-.6 1.336-.374.524-.694.918-.96 1.18-.294.314-.64.589-1.04.825s-.826.354-1.28.354c-.8 0-1.426-.276-1.88-.826-.452-.576-.799-1.27-1.039-2.083a16.578 16.578 0 0 1-.44-2.515 35.845 35.845 0 0 1-.08-2.122v-1.454l.08-1.415c-.426.733-.92 1.44-1.48 2.122-.56.681-1.106 1.35-1.639 2.004-.8.891-1.586 1.86-2.36 2.909a4.994 4.994 0 0 0-.399.668 2.071 2.071 0 0 1-.44.629l-.08.078c-.187.498-.306.878-.36 1.14-.053.262-.32.55-.8.864a8.88 8.88 0 0 1-.52.315 1.206 1.206 0 0 1-.6.157zm17.659 0c-.213 0-.32-.078-.32-.236l.52-1.493a3.53 3.53 0 0 0 .24-.983 7.09 7.09 0 0 1 .24-1.021c.16-.682.333-1.363.52-2.044a44.1 44.1 0 0 1 .6-2.005 31.76 31.76 0 0 0 .68-2.358c.133-.471.2-.825.2-1.06 0-.132-.094-.184-.28-.158-.16.026-.254 0-.28-.079.186-.471.346-.956.48-1.454.133-.498.292-.982.479-1.454.08-.21.293-.406.64-.59.346-.209.626-.314.84-.314.373 0 .56.236.56.708 0 .419-.107 1.06-.32 1.925a34.886 34.886 0 0 1-.84 2.83 202.31 202.31 0 0 1-.96 2.987 65.47 65.47 0 0 1-.76 2.319 40.063 40.063 0 0 0 2.56-2.594 36.048 36.048 0 0 0 2.319-2.83c.72-.97 1.28-1.847 1.68-2.633 0-.288.186-.485.56-.59.4-.104.706-.13.919-.078a.622.622 0 0 1 .24-.079c.24 0 .386.184.44.55.08.341.12.59.12.747 0 .289-.04.695-.12 1.219-.053.497-.24.825-.56.982a5.25 5.25 0 0 0-.04.668v.63c0 .314.013.838.04 1.571.053.708.147 1.454.28 2.24.133.786.347 1.468.64 2.044.293.55.693.825 1.2.825.48 0 .892-.13 1.24-.393a4.47 4.47 0 0 0 .959-.904c.266-.34.48-.642.64-.904.16-.262.28-.393.36-.393.133 0 .2.079.2.236 0 .367-.2.813-.6 1.336-.374.524-.694.918-.96 1.18-.293.314-.64.589-1.04.825s-.826.354-1.28.354c-.8 0-1.426-.276-1.879-.826-.453-.576-.8-1.27-1.04-2.083a16.578 16.578 0 0 1-.44-2.515 35.858 35.858 0 0 1-.08-2.122v-1.454l.08-1.415c-.426.733-.92 1.44-1.48 2.122-.559.681-1.106 1.35-1.639 2.004-.8.891-1.586 1.86-2.359 2.909a4.994 4.994 0 0 0-.4.668 2.07 2.07 0 0 1-.44.629l-.08.078c-.186.498-.306.878-.36 1.14-.053.262-.32.55-.8.864a8.88 8.88 0 0 1-.52.315 1.205 1.205 0 0 1-.6.157zm26.697-9.393c-.134 0-.2-.065-.2-.196 0-.079.013-.145.04-.197.16-.42.28-.812.36-1.179.106-.393.16-.799.16-1.218 0-.157-.014-.367-.04-.63 0-.287-.054-.55-.16-.785-.08-.236-.24-.354-.48-.354a.9.9 0 0 0-.28.04h-.28c-.267 0-.4-.105-.4-.315 0-.105.12-.196.36-.275a7.85 7.85 0 0 1 .84-.197 4.16 4.16 0 0 1 .6-.078c.666 0 1.08.249 1.239.747.187.471.28.969.28 1.493 0 .498-.093 1.022-.28 1.572-.16.55-.467.97-.92 1.258-.106.078-.24.157-.4.236a1.43 1.43 0 0 1-.44.078zm-5.959 8.96c-.773 0-1.32-.183-1.64-.55-.293-.366-.44-.903-.44-1.61 0-.787.094-1.573.28-2.359a20.85 20.85 0 0 1 .68-2.28l-.36.119c-.133-.079-.2-.21-.2-.393 0-.236.107-.459.32-.669.24-.235.48-.366.72-.393.16-.393.387-.903.68-1.532.293-.63.627-1.258 1-1.887a7.18 7.18 0 0 1 1.32-1.572c.48-.419 1-.629 1.56-.629.239 0 .359.105.359.315 0 .078-.053.183-.16.314l-.24.236c-.346.314-.68.76-1 1.336-.32.55-.613 1.127-.88 1.73a46.599 46.599 0 0 0-.68 1.532 33.43 33.43 0 0 1 2.2-.236 31.968 31.968 0 0 1 2.24-.078c.08 0 .28.013.6.04.32 0 .68.025 1.08.078.399.026.732.078.999.157.293.079.44.183.44.314 0 .105-.067.17-.2.197-.107.026-.187.04-.24.04a6.11 6.11 0 0 1-1-.08 6.179 6.179 0 0 0-1-.078c-.906 0-1.826.066-2.759.197a46.54 46.54 0 0 0-2.76.471 33.453 33.453 0 0 0-.799 2.319c-.24.864-.36 1.677-.36 2.437 0 .419.08.825.24 1.218.16.367.493.55 1 .55.72 0 1.4-.275 2.04-.825a14.128 14.128 0 0 0 1.839-1.926c.56-.734 1.026-1.336 1.4-1.808h.04c.106 0 .16.053.16.157.026.105.04.184.04.236a2.6 2.6 0 0 1-.32 1.258c-.214.367-.48.707-.8 1.022a14.95 14.95 0 0 1-2.48 1.808 5.53 5.53 0 0 1-2.919.825zm13.934.001c-.747 0-1.28-.184-1.6-.55-.32-.367-.48-.904-.48-1.612v-.51l.08-.55c.053-.446.16-1.049.32-1.809.187-.76.413-1.572.68-2.436.293-.891.613-1.743.96-2.555.373-.838.773-1.533 1.2-2.083.452-.576.932-.93 1.439-1.061a9.479 9.479 0 0 0 1.92-.708 4.398 4.398 0 0 1 1.959-.471c.639 0 1.039.21 1.199.629.16.419.24.89.24 1.415 0 .602-.24 1.035-.72 1.296a2.597 2.597 0 0 1-.399.236c-.134.053-.28.079-.44.079-.187 0-.28-.079-.28-.236 0-.157.026-.314.08-.471a1.59 1.59 0 0 0 .08-.511c0-.289-.067-.63-.2-1.022-.107-.42-.36-.63-.76-.63-.293 0-.613.132-.96.394a9.58 9.58 0 0 0-.84.629c-.4.34-.826.956-1.28 1.847a26.867 26.867 0 0 0-1.199 2.869 31.88 31.88 0 0 0-.92 3.026c-.213.97-.32 1.73-.32 2.28 0 .419.08.825.24 1.218.16.367.494.55 1 .55.72 0 1.4-.275 2.04-.825a14.128 14.128 0 0 0 1.84-1.926c.559-.734 1.025-1.336 1.399-1.808h.04c.106 0 .16.053.16.157.026.105.04.184.04.236a2.6 2.6 0 0 1-.32 1.258 3.82 3.82 0 0 1-.8 1.022 14.953 14.953 0 0 1-2.48 1.808 5.528 5.528 0 0 1-2.919.825zm11.905-.315c-.213 0-.427-.065-.64-.196-.187-.131-.28-.328-.28-.59 0-.21.04-.432.12-.668.08-.262.133-.484.16-.668a160.7 160.7 0 0 1 1.44-5.148c.533-1.73 1.053-3.446 1.559-5.149h-1.119c-.08 0-.16.013-.24.04h-.4c-.027 0-.04.013-.04.039-.16-.079-.24-.197-.24-.354 0-.13.026-.236.08-.314a1.6 1.6 0 0 1 .24-.197.83.83 0 0 1 .48-.236c.213-.026.413-.039.599-.039.16 0 .32.013.48.04h.52c.08-.236.187-.564.32-.983.133-.446.253-.891.36-1.336.107-.446.16-.773.16-.983 0-.13-.093-.183-.28-.157-.16.026-.253 0-.28-.079.187-.471.347-.943.48-1.415.16-.497.306-.995.44-1.493.053-.236.253-.432.6-.59.346-.183.639-.275.879-.275s.4.079.48.236a.97.97 0 0 1 .12.511c0 .288-.08.734-.24 1.336-.16.603-.346 1.258-.56 1.965a55.383 55.383 0 0 1-.639 1.926 29.882 29.882 0 0 1-.44 1.336h4.478c.027 0 .08.04.16.118 0 .105-.186.197-.559.275a7.657 7.657 0 0 1-.6.079c-.613.105-1.24.197-1.88.275l-1.919.157c-.16.498-.4 1.206-.72 2.123a288.7 288.7 0 0 1-.96 2.947c-.32 1.048-.6 2.03-.839 2.948-.24.89-.36 1.559-.36 2.004 0 .236.04.485.12.747.106.236.306.354.599.354.4 0 .814-.145 1.24-.433.453-.288.88-.615 1.28-.982.426-.367.786-.695 1.079-.983.294-.288.494-.432.6-.432.134 0 .2.092.2.275 0 .052-.013.17-.04.354 0 .183-.066.275-.2.275-.266.262-.653.59-1.159.982a20.44 20.44 0 0 1-1.6 1.1c-.56.341-1.12.643-1.679.905-.534.235-.987.353-1.36.353zM131.22 28c-.374 0-.574-.223-.6-.668a31.27 31.27 0 0 0-.12-1.415 125.63 125.63 0 0 0-.48-5.58 155.567 155.567 0 0 0-.68-6.053 186.62 186.62 0 0 0-.84-5.777 69.178 69.178 0 0 0-.919-4.795c-.134-.446-.307-.616-.52-.511h-.08c-.107 0-.2-.053-.28-.157-.054-.105-.027-.197.08-.275.453-.236.8-.433 1.04-.59.266-.183.493-.288.679-.314a.904.904 0 0 1 .28-.04c.267 0 .44.105.52.315.107.21.213.576.32 1.1.4 2.044.76 4.297 1.08 6.76.346 2.437.653 4.886.919 7.35.267 2.462.48 4.742.64 6.838a179.83 179.83 0 0 0 5.119-8.293 80.13 80.13 0 0 0 4.159-8.253c.266-.603.4-1.022.4-1.258 0-.262-.08-.419-.24-.471-.134-.079-.2-.236-.2-.472 0-.183.08-.42.24-.707.186-.289.4-.55.639-.786.24-.236.454-.354.64-.354a.38.38 0 0 1 .32.157c.08.079.133.17.16.275a99.945 99.945 0 0 1 3.559 10.18c1.013 3.484 1.773 6.864 2.279 10.139.027.105.067.157.12.157.107 0 .24-.223.4-.668a456.042 456.042 0 0 1 2.04-4.795 448.046 448.046 0 0 1 2.359-5.188c.8-1.729 1.573-3.366 2.319-4.912a102.826 102.826 0 0 1 2.04-4.087c.613-1.18 1.106-2.057 1.479-2.634.347-.497.6-.746.76-.746.214 0 .334.104.36.314.053.183.08.328.08.432 0 .262-.053.524-.16.786-.08.236-.2.485-.36.747a65.13 65.13 0 0 0-1.319 2.437 149.434 149.434 0 0 0-1.88 3.655 224.662 224.662 0 0 0-2.119 4.284 662.924 662.924 0 0 0-2.12 4.44 318.691 318.691 0 0 0-1.839 4.049 79.05 79.05 0 0 0-1.28 3.105c-.133.366-.36.746-.68 1.14-.319.392-.706.589-1.159.589-.427 0-.667-.21-.72-.629a7.802 7.802 0 0 1-.08-1.022c0-.393-.08-1.035-.24-1.926-.16-.89-.373-1.925-.64-3.104a93.286 93.286 0 0 0-.92-3.773 63.898 63.898 0 0 0-1.039-3.773 41.632 41.632 0 0 0-1.04-3.184c-.32-.917-.626-1.585-.92-2.004a3658.135 3658.135 0 0 1-3.159 6.052 268.05 268.05 0 0 1-2.999 5.503 209.411 209.411 0 0 1-3.319 5.62c-.4.655-.667 1.179-.8 1.572-.133.419-.28.72-.44.904-.133.21-.413.314-.839.314zm39.019-1.454c-.746 0-1.306-.262-1.68-.786a4.593 4.593 0 0 1-.759-1.808 12.765 12.765 0 0 1-.16-1.887c0-.55.026-1.087.08-1.61.08-.551.16-1.088.24-1.612-.267.34-.64.825-1.12 1.454-.48.603-1.026 1.27-1.64 2.004a46.432 46.432 0 0 1-1.879 2.044 13.887 13.887 0 0 1-1.88 1.572c-.586.393-1.093.59-1.519.59-.373 0-.613-.17-.72-.511a4.01 4.01 0 0 1-.12-.904c0-1.18.24-2.424.72-3.734s.973-2.489 1.479-3.537a26 26 0 0 1 .6-1.18c.267-.497.573-1.008.92-1.532a7.11 7.11 0 0 1 1.16-1.297c.4-.34.8-.484 1.199-.432.294-.184.574-.34.84-.472a2 2 0 0 1 .96-.236c.213 0 .56.066 1.04.197.506.131.866.223 1.079.275a1.04 1.04 0 0 1 .48-.472 1.44 1.44 0 0 1 .64-.157c.213 0 .36.013.44.04a.615.615 0 0 1 .24-.079c.16 0 .266.118.32.354.053.21.08.38.08.51 0 .341-.04.643-.12.905a8.96 8.96 0 0 1-.32.864c-.107.262-.2.511-.28.747-.053.21-.2.406-.44.59a33.83 33.83 0 0 0-.44 2.868c-.08.944-.12 1.9-.12 2.87 0 .34.013.746.04 1.218.053.471.173.89.36 1.257.213.367.533.55.96.55.666 0 1.253-.235 1.759-.707.533-.498.973-.97 1.32-1.415.053-.078.12-.157.2-.235a.787.787 0 0 1 .28-.236l.12.236c0 .261-.134.576-.4.943-.267.367-.56.72-.88 1.06-.32.315-.586.551-.8.708-.32.262-.679.498-1.079.708a2.686 2.686 0 0 1-1.2.275zm-8.958-1.65c.16 0 .334-.066.52-.197a3.47 3.47 0 0 0 .44-.354 20.47 20.47 0 0 0 3.319-3.616 28.278 28.278 0 0 0 2.56-4.166c.08-.13.16-.275.239-.432.08-.157.134-.314.16-.472.054-.21.107-.432.16-.668a9.12 9.12 0 0 0 .12-.707c-.026-.131-.173-.25-.44-.354a4.281 4.281 0 0 0-.879-.236c-.294-.078-.507-.118-.64-.118-.507 0-.96.21-1.36.63a11.23 11.23 0 0 0-.959 1.139 26.22 26.22 0 0 0-1.12 1.847 53 53 0 0 0-1.2 2.437c-.373.838-.693 1.65-.96 2.436-.239.787-.359 1.455-.359 2.005 0 .13.013.301.04.51.053.21.173.315.359.315zm15.487 1.335c-.24 0-.453-.065-.639-.196-.16-.131-.24-.328-.24-.59 0-.366.026-.825.08-1.375.053-.55.106-1.022.16-1.415.213-1.258.453-2.515.719-3.773a79.8 79.8 0 0 1 .96-3.773 80 80 0 0 1 1.12-3.812 29.934 29.934 0 0 1 1.559-3.97 15.542 15.542 0 0 1 2.24-3.458 9.037 9.037 0 0 1 3.239-2.397 6.36 6.36 0 0 1 1-.315A3.571 3.571 0 0 1 188.005 1c.32 0 .693.065 1.12.197a3.2 3.2 0 0 1 1.16.589c.32.236.479.55.479.943 0 .157-.04.275-.119.354-.054.079-.267.249-.64.51a10.33 10.33 0 0 1-.6.394c-.053-.053-.08-.092-.08-.118 0-.079.04-.157.12-.236.08-.078.12-.17.12-.275 0-.262-.147-.498-.44-.707a3.354 3.354 0 0 0-1-.55c-.373-.158-.68-.236-.92-.236-.879 0-1.692.366-2.439 1.1-.72.734-1.373 1.677-1.959 2.83a27.92 27.92 0 0 0-1.56 3.615 54.692 54.692 0 0 0-1.16 3.577c-.319 1.127-.573 2.03-.759 2.712-.214.76-.44 1.611-.68 2.554-.24.944-.453 1.9-.64 2.87-.16.942-.24 1.82-.24 2.633 0 .235.04.484.12.746.107.236.307.354.6.354.4 0 .813-.131 1.24-.393a8.645 8.645 0 0 0 1.279-.904c.427-.367.787-.681 1.08-.943.32-.262.533-.393.64-.393.053 0 .08.026.08.078 0 .184-.054.367-.16.55a2.231 2.231 0 0 1-.36.472c-.347.34-.84.747-1.48 1.218-.64.446-1.319.839-2.039 1.18-.72.34-1.386.51-2 .51zm8.951 0c-.24 0-.453-.065-.64-.196-.16-.131-.24-.328-.24-.59 0-.366.027-.825.08-1.375.054-.55.107-1.022.16-1.415.213-1.258.453-2.515.72-3.773.293-1.284.613-2.541.96-3.773a81.12 81.12 0 0 1 1.119-3.812 30.077 30.077 0 0 1 1.56-3.97 15.539 15.539 0 0 1 2.239-3.458 9.046 9.046 0 0 1 3.239-2.397 6.35 6.35 0 0 1 1-.315 3.578 3.578 0 0 1 1.04-.157c.32 0 .693.065 1.12.197.453.13.839.327 1.159.589.32.236.48.55.48.943 0 .157-.04.275-.12.354-.053.079-.266.249-.64.51a9.608 9.608 0 0 1-.6.394c-.053-.053-.079-.092-.079-.118 0-.079.039-.157.119-.236.08-.078.12-.17.12-.275 0-.262-.146-.498-.439-.707a3.367 3.367 0 0 0-1-.55c-.373-.158-.68-.236-.92-.236-.88 0-1.693.366-2.439 1.1-.72.734-1.373 1.677-1.96 2.83a28.056 28.056 0 0 0-1.559 3.615 54.692 54.692 0 0 0-1.16 3.577c-.32 1.127-.573 2.03-.76 2.712-.213.76-.44 1.611-.68 2.554-.239.944-.453 1.9-.639 2.87-.16.942-.24 1.82-.24 2.633 0 .235.04.484.12.746.106.236.306.354.6.354.399 0 .813-.131 1.239-.393.453-.262.88-.563 1.28-.904a86.89 86.89 0 0 0 1.08-.943c.319-.262.533-.393.639-.393.054 0 .08.026.08.078 0 .184-.053.367-.16.55a2.167 2.167 0 0 1-.36.472c-.346.34-.839.747-1.479 1.218-.64.446-1.32.839-2.04 1.18-.719.34-1.386.51-1.999.51zm17.108-8.646c-.133 0-.2-.065-.2-.196a.44.44 0 0 1 .04-.197c.16-.42.28-.812.36-1.179.107-.393.16-.799.16-1.218 0-.157-.013-.367-.04-.63 0-.287-.053-.55-.16-.785-.08-.236-.24-.354-.48-.354a.897.897 0 0 0-.279.04h-.28c-.267 0-.4-.105-.4-.315 0-.105.12-.196.36-.275a7.82 7.82 0 0 1 .839-.197c.294-.052.494-.078.6-.078.667 0 1.08.249 1.24.747.186.471.28.969.28 1.493a4.91 4.91 0 0 1-.28 1.572c-.16.55-.467.97-.92 1.258-.107.078-.24.157-.4.236a1.42 1.42 0 0 1-.44.078zm-5.958 8.96c-.773 0-1.32-.183-1.64-.55-.293-.366-.439-.903-.439-1.61 0-.787.093-1.573.28-2.359a20.63 20.63 0 0 1 .679-2.28l-.36.119c-.133-.079-.2-.21-.2-.393 0-.236.107-.459.32-.669.24-.235.48-.366.72-.393.16-.393.387-.903.68-1.532.293-.63.627-1.258 1-1.887.4-.629.84-1.153 1.319-1.572.48-.419 1-.629 1.56-.629.24 0 .36.105.36.315 0 .078-.053.183-.16.314a78.49 78.49 0 0 0-.24.236c-.347.314-.68.76-1 1.336-.32.55-.613 1.127-.88 1.73a46.427 46.427 0 0 0-.679 1.532 33.057 33.057 0 0 1 2.199-.236 31.98 31.98 0 0 1 2.239-.078c.08 0 .28.013.6.04.32 0 .68.025 1.08.078.4.026.733.078 1 .157.293.079.44.183.44.314 0 .105-.067.17-.2.197-.107.026-.187.04-.24.04a6.11 6.11 0 0 1-1-.08 6.179 6.179 0 0 0-1-.078c-.906 0-1.826.066-2.759.197-.933.13-1.853.288-2.759.471a33.448 33.448 0 0 0-.8 2.319c-.24.864-.36 1.677-.36 2.437 0 .419.08.825.24 1.218.16.367.493.55 1 .55.72 0 1.399-.275 2.039-.825a14.113 14.113 0 0 0 1.84-1.926 138.25 138.25 0 0 1 1.399-1.808h.04c.107 0 .16.053.16.157.027.105.04.184.04.236 0 .446-.106.865-.32 1.258-.213.367-.48.707-.799 1.022a14.967 14.967 0 0 1-2.48 1.808 5.526 5.526 0 0 1-2.919.825zm13.373-.314a1.21 1.21 0 0 1-.639-.196c-.187-.131-.28-.328-.28-.59 0-.21.04-.432.12-.668.08-.262.133-.484.16-.668.453-1.73.933-3.445 1.439-5.148a565.75 565.75 0 0 0 1.56-5.149h-1.12c-.08 0-.16.013-.24.04h-.4c-.026 0-.04.013-.04.039-.16-.079-.24-.197-.24-.354 0-.13.027-.236.08-.314a1.6 1.6 0 0 1 .24-.197.837.837 0 0 1 .48-.236c.213-.026.413-.039.6-.039.16 0 .32.013.48.04h.52c.08-.236.186-.564.32-.983.133-.446.253-.891.36-1.336.106-.446.159-.773.159-.983 0-.13-.093-.183-.279-.157-.16.026-.254 0-.28-.079.186-.471.346-.943.479-1.415.16-.497.307-.995.44-1.493.054-.236.254-.432.6-.59.347-.183.64-.275.88-.275s.4.079.48.236a.97.97 0 0 1 .12.511c0 .288-.08.734-.24 1.336-.16.603-.347 1.258-.56 1.965a55.322 55.322 0 0 1-.64 1.926 27.452 27.452 0 0 1-.44 1.336h4.479c.027 0 .08.04.16.118 0 .105-.187.197-.56.275a7.53 7.53 0 0 1-.6.079c-.613.105-1.239.197-1.879.275l-1.92.157c-.16.498-.399 1.206-.719 2.123-.294.917-.614 1.9-.96 2.947-.32 1.048-.6 2.03-.84 2.948-.24.89-.36 1.559-.36 2.004 0 .236.04.485.12.747.107.236.307.354.6.354.4 0 .813-.145 1.24-.433a9.174 9.174 0 0 0 1.279-.982c.427-.367.787-.695 1.08-.983.293-.288.493-.432.6-.432.133 0 .2.092.2.275 0 .052-.014.17-.04.354 0 .183-.067.275-.2.275-.267.262-.653.59-1.16.982-.48.367-1.013.734-1.599 1.1-.56.341-1.12.643-1.68.905-.533.235-.986.353-1.36.353z" fill="#fff"/><path d="M11.597 27.096c-2.4 0-4.385-.458-5.958-1.375-1.573-.918-2.746-2.096-3.52-3.538C1.374 20.743 1 19.262 1 17.743c0-1.887.333-3.747 1-5.581A15.917 15.917 0 0 1 4.919 7.13c1.306-1.52 2.892-2.725 4.759-3.616 1.866-.917 4.012-1.375 6.438-1.375 1.733 0 3.159.249 4.279.746 1.12.498 1.946 1.153 2.479 1.966.56.786.84 1.637.84 2.554 0 .996-.187 1.703-.56 2.122-.347.42-.747.63-1.2.63a.898.898 0 0 1-.8-.433c-.16-.315-.24-.59-.24-.825 0-.498.094-.865.28-1.1.187-.237.36-.46.52-.669.187-.236.28-.576.28-1.022 0-.864-.573-1.585-1.72-2.161-1.146-.603-2.625-.904-4.438-.904a12.282 12.282 0 0 0-8.958 3.851c-1.173 1.232-2.106 2.738-2.799 4.52-.693 1.782-1.04 3.786-1.04 6.013 0 1.52.307 2.947.92 4.284.613 1.336 1.56 2.423 2.84 3.262 1.279.812 2.919 1.218 4.918 1.218 2.373 0 4.492-.59 6.358-1.768a15.715 15.715 0 0 0 4.719-4.52c.213-.288.413-.432.6-.432.16 0 .24.091.24.275 0 .236-.054.445-.16.628-1.36 2.359-3.04 4.075-5.039 5.149-1.973 1.048-4.252 1.572-6.838 1.572zm19.647-.432c-.986 0-1.652-.275-2-.826-.346-.576-.519-1.31-.519-2.2 0-.944.147-1.848.44-2.712.293-.865.613-1.73.96-2.594a2.381 2.381 0 0 1-.52-.511c-.134-.21-.2-.511-.2-.904 0-.445.267-1.009.8-1.69a9.958 9.958 0 0 1 1.8-1.847 7.868 7.868 0 0 1 1.159-.747c.48-.288.973-.524 1.48-.707.506-.21.92-.315 1.24-.315 1.119 0 1.865.446 2.238 1.337.374.89.507 1.952.4 3.183.107-.052.294-.131.56-.236.293-.105.573-.196.84-.275.267-.105.427-.157.48-.157.133 0 .266.065.4.196.133.131.2.262.2.393 0 .079-.04.145-.12.197l-2.52.943c-.16.812-.426 1.756-.8 2.83a15.13 15.13 0 0 1-1.439 3.144 9.409 9.409 0 0 1-2.12 2.515 4.23 4.23 0 0 1-2.759.983zm1.92-9.236a9.18 9.18 0 0 0 1.92-.197 31.317 31.317 0 0 0 1.999-.59c.026-.13.04-.274.04-.431a2.69 2.69 0 0 0 .04-.433c0-.314-.04-.668-.12-1.06a2.178 2.178 0 0 0-.4-1.023c-.187-.314-.48-.471-.88-.471-.453 0-.893.17-1.32.51a7.583 7.583 0 0 0-1.2 1.219 17.8 17.8 0 0 0-.919 1.376c-.24.445-.413.772-.52.982.48.079.933.118 1.36.118zm-1.56 8.175c.747 0 1.4-.236 1.96-.708.586-.498 1.093-1.14 1.52-1.926.426-.786.786-1.637 1.079-2.554.32-.917.573-1.821.76-2.712-.8.262-1.72.524-2.76.786-1.012.236-1.946.301-2.799.197a20.09 20.09 0 0 0-.72 2.397 12.13 12.13 0 0 0-.28 2.476c0 .42.067.865.2 1.336.16.472.507.708 1.04.708zm10.705 1.375c-.213 0-.32-.078-.32-.236l.52-1.493a3.53 3.53 0 0 0 .24-.983 7.09 7.09 0 0 1 .24-1.021c.16-.682.333-1.363.52-2.044.186-.681.386-1.35.6-2.005.08-.235.186-.576.32-1.021.133-.446.252-.891.36-1.337.132-.471.199-.825.199-1.06 0-.132-.093-.184-.28-.158-.16.026-.253 0-.28-.079.187-.471.347-.956.48-1.454s.293-.982.48-1.454c.08-.21.293-.406.64-.59.346-.209.626-.314.84-.314.373 0 .56.236.56.708 0 .419-.107 1.06-.32 1.925a34.883 34.883 0 0 1-.84 2.83 204.25 204.25 0 0 1-.96 2.987 65.058 65.058 0 0 1-.76 2.319 40.063 40.063 0 0 0 2.56-2.594 36.072 36.072 0 0 0 2.319-2.83c.72-.97 1.28-1.847 1.68-2.633 0-.288.186-.485.56-.59.399-.104.706-.13.919-.078a.621.621 0 0 1 .24-.079c.24 0 .386.184.44.55.08.341.12.59.12.747 0 .289-.04.695-.12 1.219-.054.497-.24.825-.56.982a5.25 5.25 0 0 0-.04.668v.63c0 .314.013.838.04 1.571.053.708.146 1.454.28 2.24.133.786.346 1.468.64 2.044.293.55.693.825 1.2.825.48 0 .892-.13 1.239-.393.373-.262.693-.563.96-.904.266-.34.48-.642.64-.904.16-.262.28-.393.36-.393.133 0 .2.079.2.236 0 .367-.2.813-.6 1.336-.374.524-.694.918-.96 1.18-.294.314-.64.589-1.04.825s-.826.354-1.28.354c-.8 0-1.426-.276-1.88-.826-.452-.576-.799-1.27-1.039-2.083a16.578 16.578 0 0 1-.44-2.515 35.845 35.845 0 0 1-.08-2.122v-1.454l.08-1.415c-.426.733-.92 1.44-1.48 2.122-.56.681-1.106 1.35-1.639 2.004-.8.891-1.586 1.86-2.36 2.909a4.994 4.994 0 0 0-.399.668 2.071 2.071 0 0 1-.44.629l-.08.078c-.187.498-.306.878-.36 1.14-.053.262-.32.55-.8.864a8.88 8.88 0 0 1-.52.315 1.206 1.206 0 0 1-.6.157zm17.659 0c-.213 0-.32-.078-.32-.236l.52-1.493a3.53 3.53 0 0 0 .24-.983 7.09 7.09 0 0 1 .24-1.021c.16-.682.333-1.363.52-2.044a44.1 44.1 0 0 1 .6-2.005 31.76 31.76 0 0 0 .68-2.358c.133-.471.2-.825.2-1.06 0-.132-.094-.184-.28-.158-.16.026-.254 0-.28-.079.186-.471.346-.956.48-1.454.133-.498.292-.982.479-1.454.08-.21.293-.406.64-.59.346-.209.626-.314.84-.314.373 0 .56.236.56.708 0 .419-.107 1.06-.32 1.925a34.886 34.886 0 0 1-.84 2.83 202.31 202.31 0 0 1-.96 2.987 65.47 65.47 0 0 1-.76 2.319 40.063 40.063 0 0 0 2.56-2.594 36.048 36.048 0 0 0 2.319-2.83c.72-.97 1.28-1.847 1.68-2.633 0-.288.186-.485.56-.59.4-.104.706-.13.919-.078a.622.622 0 0 1 .24-.079c.24 0 .386.184.44.55.08.341.12.59.12.747 0 .289-.04.695-.12 1.219-.053.497-.24.825-.56.982a5.25 5.25 0 0 0-.04.668v.63c0 .314.013.838.04 1.571.053.708.147 1.454.28 2.24.133.786.347 1.468.64 2.044.293.55.693.825 1.2.825.48 0 .892-.13 1.24-.393a4.47 4.47 0 0 0 .959-.904c.266-.34.48-.642.64-.904.16-.262.28-.393.36-.393.133 0 .2.079.2.236 0 .367-.2.813-.6 1.336-.374.524-.694.918-.96 1.18-.293.314-.64.589-1.04.825s-.826.354-1.28.354c-.8 0-1.426-.276-1.879-.826-.453-.576-.8-1.27-1.04-2.083a16.578 16.578 0 0 1-.44-2.515 35.858 35.858 0 0 1-.08-2.122v-1.454l.08-1.415c-.426.733-.92 1.44-1.48 2.122-.559.681-1.106 1.35-1.639 2.004-.8.891-1.586 1.86-2.359 2.909a4.994 4.994 0 0 0-.4.668 2.07 2.07 0 0 1-.44.629l-.08.078c-.186.498-.306.878-.36 1.14-.053.262-.32.55-.8.864a8.88 8.88 0 0 1-.52.315 1.205 1.205 0 0 1-.6.157zm26.697-9.393c-.134 0-.2-.065-.2-.196 0-.079.013-.145.04-.197.16-.42.28-.812.36-1.179.106-.393.16-.799.16-1.218 0-.157-.014-.367-.04-.63 0-.287-.054-.55-.16-.785-.08-.236-.24-.354-.48-.354a.9.9 0 0 0-.28.04h-.28c-.267 0-.4-.105-.4-.315 0-.105.12-.196.36-.275a7.85 7.85 0 0 1 .84-.197 4.16 4.16 0 0 1 .6-.078c.666 0 1.08.249 1.239.747.187.471.28.969.28 1.493 0 .498-.093 1.022-.28 1.572-.16.55-.467.97-.92 1.258-.106.078-.24.157-.4.236a1.43 1.43 0 0 1-.44.078zm-5.959 8.96c-.773 0-1.32-.183-1.64-.55-.293-.366-.44-.903-.44-1.61 0-.787.094-1.573.28-2.359a20.85 20.85 0 0 1 .68-2.28l-.36.119c-.133-.079-.2-.21-.2-.393 0-.236.107-.459.32-.669.24-.235.48-.366.72-.393.16-.393.387-.903.68-1.532.293-.63.627-1.258 1-1.887a7.18 7.18 0 0 1 1.32-1.572c.48-.419 1-.629 1.56-.629.239 0 .359.105.359.315 0 .078-.053.183-.16.314l-.24.236c-.346.314-.68.76-1 1.336-.32.55-.613 1.127-.88 1.73a46.599 46.599 0 0 0-.68 1.532 33.43 33.43 0 0 1 2.2-.236 31.968 31.968 0 0 1 2.24-.078c.08 0 .28.013.6.04.32 0 .68.025 1.08.078.399.026.732.078.999.157.293.079.44.183.44.314 0 .105-.067.17-.2.197-.107.026-.187.04-.24.04a6.11 6.11 0 0 1-1-.08 6.179 6.179 0 0 0-1-.078c-.906 0-1.826.066-2.759.197a46.54 46.54 0 0 0-2.76.471 33.453 33.453 0 0 0-.799 2.319c-.24.864-.36 1.677-.36 2.437 0 .419.08.825.24 1.218.16.367.493.55 1 .55.72 0 1.4-.275 2.04-.825a14.128 14.128 0 0 0 1.839-1.926c.56-.734 1.026-1.336 1.4-1.808h.04c.106 0 .16.053.16.157.026.105.04.184.04.236a2.6 2.6 0 0 1-.32 1.258c-.214.367-.48.707-.8 1.022a14.95 14.95 0 0 1-2.48 1.808 5.53 5.53 0 0 1-2.919.825zm13.934.001c-.747 0-1.28-.184-1.6-.55-.32-.367-.48-.904-.48-1.612v-.51l.08-.55c.053-.446.16-1.049.32-1.809.187-.76.413-1.572.68-2.436.293-.891.613-1.743.96-2.555.373-.838.773-1.533 1.2-2.083.452-.576.932-.93 1.439-1.061a9.479 9.479 0 0 0 1.92-.708 4.398 4.398 0 0 1 1.959-.471c.639 0 1.039.21 1.199.629.16.419.24.89.24 1.415 0 .602-.24 1.035-.72 1.296a2.597 2.597 0 0 1-.399.236c-.134.053-.28.079-.44.079-.187 0-.28-.079-.28-.236 0-.157.026-.314.08-.471a1.59 1.59 0 0 0 .08-.511c0-.289-.067-.63-.2-1.022-.107-.42-.36-.63-.76-.63-.293 0-.613.132-.96.394a9.58 9.58 0 0 0-.84.629c-.4.34-.826.956-1.28 1.847a26.867 26.867 0 0 0-1.199 2.869 31.88 31.88 0 0 0-.92 3.026c-.213.97-.32 1.73-.32 2.28 0 .419.08.825.24 1.218.16.367.494.55 1 .55.72 0 1.4-.275 2.04-.825a14.128 14.128 0 0 0 1.84-1.926c.559-.734 1.025-1.336 1.399-1.808h.04c.106 0 .16.053.16.157.026.105.04.184.04.236a2.6 2.6 0 0 1-.32 1.258 3.82 3.82 0 0 1-.8 1.022 14.953 14.953 0 0 1-2.48 1.808 5.528 5.528 0 0 1-2.919.825zm11.905-.315c-.213 0-.427-.065-.64-.196-.187-.131-.28-.328-.28-.59 0-.21.04-.432.12-.668.08-.262.133-.484.16-.668a160.7 160.7 0 0 1 1.44-5.148c.533-1.73 1.053-3.446 1.559-5.149h-1.119c-.08 0-.16.013-.24.04h-.4c-.027 0-.04.013-.04.039-.16-.079-.24-.197-.24-.354 0-.13.026-.236.08-.314a1.6 1.6 0 0 1 .24-.197.83.83 0 0 1 .48-.236c.213-.026.413-.039.599-.039.16 0 .32.013.48.04h.52c.08-.236.187-.564.32-.983.133-.446.253-.891.36-1.336.107-.446.16-.773.16-.983 0-.13-.093-.183-.28-.157-.16.026-.253 0-.28-.079.187-.471.347-.943.48-1.415.16-.497.306-.995.44-1.493.053-.236.253-.432.6-.59.346-.183.639-.275.879-.275s.4.079.48.236a.97.97 0 0 1 .12.511c0 .288-.08.734-.24 1.336-.16.603-.346 1.258-.56 1.965a55.383 55.383 0 0 1-.639 1.926 29.882 29.882 0 0 1-.44 1.336h4.478c.027 0 .08.04.16.118 0 .105-.186.197-.559.275a7.657 7.657 0 0 1-.6.079c-.613.105-1.24.197-1.88.275l-1.919.157c-.16.498-.4 1.206-.72 2.123a288.7 288.7 0 0 1-.96 2.947c-.32 1.048-.6 2.03-.839 2.948-.24.89-.36 1.559-.36 2.004 0 .236.04.485.12.747.106.236.306.354.599.354.4 0 .814-.145 1.24-.433.453-.288.88-.615 1.28-.982.426-.367.786-.695 1.079-.983.294-.288.494-.432.6-.432.134 0 .2.092.2.275 0 .052-.013.17-.04.354 0 .183-.066.275-.2.275-.266.262-.653.59-1.159.982a20.44 20.44 0 0 1-1.6 1.1c-.56.341-1.12.643-1.679.905-.534.235-.987.353-1.36.353zM131.22 28c-.374 0-.574-.223-.6-.668a31.27 31.27 0 0 0-.12-1.415 125.63 125.63 0 0 0-.48-5.58 155.567 155.567 0 0 0-.68-6.053 186.62 186.62 0 0 0-.84-5.777 69.178 69.178 0 0 0-.919-4.795c-.134-.446-.307-.616-.52-.511h-.08c-.107 0-.2-.053-.28-.157-.054-.105-.027-.197.08-.275.453-.236.8-.433 1.04-.59.266-.183.493-.288.679-.314a.904.904 0 0 1 .28-.04c.267 0 .44.105.52.315.107.21.213.576.32 1.1.4 2.044.76 4.297 1.08 6.76.346 2.437.653 4.886.919 7.35.267 2.462.48 4.742.64 6.838a179.83 179.83 0 0 0 5.119-8.293 80.13 80.13 0 0 0 4.159-8.253c.266-.603.4-1.022.4-1.258 0-.262-.08-.419-.24-.471-.134-.079-.2-.236-.2-.472 0-.183.08-.42.24-.707.186-.289.4-.55.639-.786.24-.236.454-.354.64-.354a.38.38 0 0 1 .32.157c.08.079.133.17.16.275a99.945 99.945 0 0 1 3.559 10.18c1.013 3.484 1.773 6.864 2.279 10.139.027.105.067.157.12.157.107 0 .24-.223.4-.668a456.042 456.042 0 0 1 2.04-4.795 448.046 448.046 0 0 1 2.359-5.188c.8-1.729 1.573-3.366 2.319-4.912a102.826 102.826 0 0 1 2.04-4.087c.613-1.18 1.106-2.057 1.479-2.634.347-.497.6-.746.76-.746.214 0 .334.104.36.314.053.183.08.328.08.432 0 .262-.053.524-.16.786-.08.236-.2.485-.36.747a65.13 65.13 0 0 0-1.319 2.437 149.434 149.434 0 0 0-1.88 3.655 224.662 224.662 0 0 0-2.119 4.284 662.924 662.924 0 0 0-2.12 4.44 318.691 318.691 0 0 0-1.839 4.049 79.05 79.05 0 0 0-1.28 3.105c-.133.366-.36.746-.68 1.14-.319.392-.706.589-1.159.589-.427 0-.667-.21-.72-.629a7.802 7.802 0 0 1-.08-1.022c0-.393-.08-1.035-.24-1.926-.16-.89-.373-1.925-.64-3.104a93.286 93.286 0 0 0-.92-3.773 63.898 63.898 0 0 0-1.039-3.773 41.632 41.632 0 0 0-1.04-3.184c-.32-.917-.626-1.585-.92-2.004a3658.135 3658.135 0 0 1-3.159 6.052 268.05 268.05 0 0 1-2.999 5.503 209.411 209.411 0 0 1-3.319 5.62c-.4.655-.667 1.179-.8 1.572-.133.419-.28.72-.44.904-.133.21-.413.314-.839.314zm39.019-1.454c-.746 0-1.306-.262-1.68-.786a4.593 4.593 0 0 1-.759-1.808 12.765 12.765 0 0 1-.16-1.887c0-.55.026-1.087.08-1.61.08-.551.16-1.088.24-1.612-.267.34-.64.825-1.12 1.454-.48.603-1.026 1.27-1.64 2.004a46.432 46.432 0 0 1-1.879 2.044 13.887 13.887 0 0 1-1.88 1.572c-.586.393-1.093.59-1.519.59-.373 0-.613-.17-.72-.511a4.01 4.01 0 0 1-.12-.904c0-1.18.24-2.424.72-3.734s.973-2.489 1.479-3.537a26 26 0 0 1 .6-1.18c.267-.497.573-1.008.92-1.532a7.11 7.11 0 0 1 1.16-1.297c.4-.34.8-.484 1.199-.432.294-.184.574-.34.84-.472a2 2 0 0 1 .96-.236c.213 0 .56.066 1.04.197.506.131.866.223 1.079.275a1.04 1.04 0 0 1 .48-.472 1.44 1.44 0 0 1 .64-.157c.213 0 .36.013.44.04a.615.615 0 0 1 .24-.079c.16 0 .266.118.32.354.053.21.08.38.08.51 0 .341-.04.643-.12.905a8.96 8.96 0 0 1-.32.864c-.107.262-.2.511-.28.747-.053.21-.2.406-.44.59a33.83 33.83 0 0 0-.44 2.868c-.08.944-.12 1.9-.12 2.87 0 .34.013.746.04 1.218.053.471.173.89.36 1.257.213.367.533.55.96.55.666 0 1.253-.235 1.759-.707.533-.498.973-.97 1.32-1.415.053-.078.12-.157.2-.235a.787.787 0 0 1 .28-.236l.12.236c0 .261-.134.576-.4.943-.267.367-.56.72-.88 1.06-.32.315-.586.551-.8.708-.32.262-.679.498-1.079.708a2.686 2.686 0 0 1-1.2.275zm-8.958-1.65c.16 0 .334-.066.52-.197a3.47 3.47 0 0 0 .44-.354 20.47 20.47 0 0 0 3.319-3.616 28.278 28.278 0 0 0 2.56-4.166c.08-.13.16-.275.239-.432.08-.157.134-.314.16-.472.054-.21.107-.432.16-.668a9.12 9.12 0 0 0 .12-.707c-.026-.131-.173-.25-.44-.354a4.281 4.281 0 0 0-.879-.236c-.294-.078-.507-.118-.64-.118-.507 0-.96.21-1.36.63a11.23 11.23 0 0 0-.959 1.139 26.22 26.22 0 0 0-1.12 1.847 53 53 0 0 0-1.2 2.437c-.373.838-.693 1.65-.96 2.436-.239.787-.359 1.455-.359 2.005 0 .13.013.301.04.51.053.21.173.315.359.315zm15.487 1.335c-.24 0-.453-.065-.639-.196-.16-.131-.24-.328-.24-.59 0-.366.026-.825.08-1.375.053-.55.106-1.022.16-1.415.213-1.258.453-2.515.719-3.773a79.8 79.8 0 0 1 .96-3.773 80 80 0 0 1 1.12-3.812 29.934 29.934 0 0 1 1.559-3.97 15.542 15.542 0 0 1 2.24-3.458 9.037 9.037 0 0 1 3.239-2.397 6.36 6.36 0 0 1 1-.315A3.571 3.571 0 0 1 188.005 1c.32 0 .693.065 1.12.197a3.2 3.2 0 0 1 1.16.589c.32.236.479.55.479.943 0 .157-.04.275-.119.354-.054.079-.267.249-.64.51a10.33 10.33 0 0 1-.6.394c-.053-.053-.08-.092-.08-.118 0-.079.04-.157.12-.236.08-.078.12-.17.12-.275 0-.262-.147-.498-.44-.707a3.354 3.354 0 0 0-1-.55c-.373-.158-.68-.236-.92-.236-.879 0-1.692.366-2.439 1.1-.72.734-1.373 1.677-1.959 2.83a27.92 27.92 0 0 0-1.56 3.615 54.692 54.692 0 0 0-1.16 3.577c-.319 1.127-.573 2.03-.759 2.712-.214.76-.44 1.611-.68 2.554-.24.944-.453 1.9-.64 2.87-.16.942-.24 1.82-.24 2.633 0 .235.04.484.12.746.107.236.307.354.6.354.4 0 .813-.131 1.24-.393a8.645 8.645 0 0 0 1.279-.904c.427-.367.787-.681 1.08-.943.32-.262.533-.393.64-.393.053 0 .08.026.08.078 0 .184-.054.367-.16.55a2.231 2.231 0 0 1-.36.472c-.347.34-.84.747-1.48 1.218-.64.446-1.319.839-2.039 1.18-.72.34-1.386.51-2 .51zm8.951 0c-.24 0-.453-.065-.64-.196-.16-.131-.24-.328-.24-.59 0-.366.027-.825.08-1.375.054-.55.107-1.022.16-1.415.213-1.258.453-2.515.72-3.773.293-1.284.613-2.541.96-3.773a81.12 81.12 0 0 1 1.119-3.812 30.077 30.077 0 0 1 1.56-3.97 15.539 15.539 0 0 1 2.239-3.458 9.046 9.046 0 0 1 3.239-2.397 6.35 6.35 0 0 1 1-.315 3.578 3.578 0 0 1 1.04-.157c.32 0 .693.065 1.12.197.453.13.839.327 1.159.589.32.236.48.55.48.943 0 .157-.04.275-.12.354-.053.079-.266.249-.64.51a9.608 9.608 0 0 1-.6.394c-.053-.053-.079-.092-.079-.118 0-.079.039-.157.119-.236.08-.078.12-.17.12-.275 0-.262-.146-.498-.439-.707a3.367 3.367 0 0 0-1-.55c-.373-.158-.68-.236-.92-.236-.88 0-1.693.366-2.439 1.1-.72.734-1.373 1.677-1.96 2.83a28.056 28.056 0 0 0-1.559 3.615 54.692 54.692 0 0 0-1.16 3.577c-.32 1.127-.573 2.03-.76 2.712-.213.76-.44 1.611-.68 2.554-.239.944-.453 1.9-.639 2.87-.16.942-.24 1.82-.24 2.633 0 .235.04.484.12.746.106.236.306.354.6.354.399 0 .813-.131 1.239-.393.453-.262.88-.563 1.28-.904a86.89 86.89 0 0 0 1.08-.943c.319-.262.533-.393.639-.393.054 0 .08.026.08.078 0 .184-.053.367-.16.55a2.167 2.167 0 0 1-.36.472c-.346.34-.839.747-1.479 1.218-.64.446-1.32.839-2.04 1.18-.719.34-1.386.51-1.999.51zm17.108-8.646c-.133 0-.2-.065-.2-.196a.44.44 0 0 1 .04-.197c.16-.42.28-.812.36-1.179.107-.393.16-.799.16-1.218 0-.157-.013-.367-.04-.63 0-.287-.053-.55-.16-.785-.08-.236-.24-.354-.48-.354a.897.897 0 0 0-.279.04h-.28c-.267 0-.4-.105-.4-.315 0-.105.12-.196.36-.275a7.82 7.82 0 0 1 .839-.197c.294-.052.494-.078.6-.078.667 0 1.08.249 1.24.747.186.471.28.969.28 1.493a4.91 4.91 0 0 1-.28 1.572c-.16.55-.467.97-.92 1.258-.107.078-.24.157-.4.236a1.42 1.42 0 0 1-.44.078zm-5.958 8.96c-.773 0-1.32-.183-1.64-.55-.293-.366-.439-.903-.439-1.61 0-.787.093-1.573.28-2.359a20.63 20.63 0 0 1 .679-2.28l-.36.119c-.133-.079-.2-.21-.2-.393 0-.236.107-.459.32-.669.24-.235.48-.366.72-.393.16-.393.387-.903.68-1.532.293-.63.627-1.258 1-1.887.4-.629.84-1.153 1.319-1.572.48-.419 1-.629 1.56-.629.24 0 .36.105.36.315 0 .078-.053.183-.16.314a78.49 78.49 0 0 0-.24.236c-.347.314-.68.76-1 1.336-.32.55-.613 1.127-.88 1.73a46.427 46.427 0 0 0-.679 1.532 33.057 33.057 0 0 1 2.199-.236 31.98 31.98 0 0 1 2.239-.078c.08 0 .28.013.6.04.32 0 .68.025 1.08.078.4.026.733.078 1 .157.293.079.44.183.44.314 0 .105-.067.17-.2.197-.107.026-.187.04-.24.04a6.11 6.11 0 0 1-1-.08 6.179 6.179 0 0 0-1-.078c-.906 0-1.826.066-2.759.197-.933.13-1.853.288-2.759.471a33.448 33.448 0 0 0-.8 2.319c-.24.864-.36 1.677-.36 2.437 0 .419.08.825.24 1.218.16.367.493.55 1 .55.72 0 1.399-.275 2.039-.825a14.113 14.113 0 0 0 1.84-1.926 138.25 138.25 0 0 1 1.399-1.808h.04c.107 0 .16.053.16.157.027.105.04.184.04.236 0 .446-.106.865-.32 1.258-.213.367-.48.707-.799 1.022a14.967 14.967 0 0 1-2.48 1.808 5.526 5.526 0 0 1-2.919.825zm13.373-.314a1.21 1.21 0 0 1-.639-.196c-.187-.131-.28-.328-.28-.59 0-.21.04-.432.12-.668.08-.262.133-.484.16-.668.453-1.73.933-3.445 1.439-5.148a565.75 565.75 0 0 0 1.56-5.149h-1.12c-.08 0-.16.013-.24.04h-.4c-.026 0-.04.013-.04.039-.16-.079-.24-.197-.24-.354 0-.13.027-.236.08-.314a1.6 1.6 0 0 1 .24-.197.837.837 0 0 1 .48-.236c.213-.026.413-.039.6-.039.16 0 .32.013.48.04h.52c.08-.236.186-.564.32-.983.133-.446.253-.891.36-1.336.106-.446.159-.773.159-.983 0-.13-.093-.183-.279-.157-.16.026-.254 0-.28-.079.186-.471.346-.943.479-1.415.16-.497.307-.995.44-1.493.054-.236.254-.432.6-.59.347-.183.64-.275.88-.275s.4.079.48.236a.97.97 0 0 1 .12.511c0 .288-.08.734-.24 1.336-.16.603-.347 1.258-.56 1.965a55.322 55.322 0 0 1-.64 1.926 27.452 27.452 0 0 1-.44 1.336h4.479c.027 0 .08.04.16.118 0 .105-.187.197-.56.275a7.53 7.53 0 0 1-.6.079c-.613.105-1.239.197-1.879.275l-1.92.157c-.16.498-.399 1.206-.719 2.123-.294.917-.614 1.9-.96 2.947-.32 1.048-.6 2.03-.84 2.948-.24.89-.36 1.559-.36 2.004 0 .236.04.485.12.747.107.236.307.354.6.354.4 0 .813-.145 1.24-.433a9.174 9.174 0 0 0 1.279-.982c.427-.367.787-.695 1.08-.983.293-.288.493-.432.6-.432.133 0 .2.092.2.275 0 .052-.014.17-.04.354 0 .183-.067.275-.2.275-.267.262-.653.59-1.16.982-.48.367-1.013.734-1.599 1.1-.56.341-1.12.643-1.68.905-.533.235-.986.353-1.36.353z" stroke="#fff" stroke-width="2" mask="url(#a)"/></svg>