<svg width="28" height="28" viewBox="0 0 28 28" fill="none" xmlns="http://www.w3.org/2000/svg"><path d="M3.34 8.897v10.205c0 .652.349 1.254.913 1.579l8.838 5.103a1.826 1.826 0 0 0 1.822 0l8.837-5.103c.564-.325.913-.927.913-1.579V8.897c0-.651-.349-1.254-.913-1.578l-8.837-5.104a1.826 1.826 0 0 0-1.822 0L4.25 7.32a1.82 1.82 0 0 0-.91 1.578z" fill="#213147"/><path d="m15.93 15.979-1.26 3.457a.442.442 0 0 0 0 .296l2.167 5.948 2.508-1.449-3.01-8.252a.216.216 0 0 0-.405 0zm2.527-5.813a.216.216 0 0 0-.406 0l-1.26 3.457a.442.442 0 0 0 0 .297l3.552 9.737 2.508-1.448-4.394-12.043z" fill="#12AAFF"/><path d="M14 2.598a.38.38 0 0 1 .18.047l9.564 5.522a.36.36 0 0 1 .18.31v11.042a.357.357 0 0 1-.18.31L14.18 25.35a.352.352 0 0 1-.18.047.381.381 0 0 1-.179-.047l-9.564-5.518a.36.36 0 0 1-.18-.31V8.48a.36.36 0 0 1 .18-.31l9.564-5.522a.36.36 0 0 1 .18-.05zm0-1.613c-.34 0-.68.087-.986.265L3.452 6.77a1.973 1.973 0 0 0-.987 1.709V19.52c0 .705.376 1.357.987 1.709l9.564 5.522a1.966 1.966 0 0 0 1.974 0l9.564-5.522a1.973 1.973 0 0 0 .987-1.709V8.479c0-.705-.376-1.357-.987-1.71l-9.566-5.52A1.966 1.966 0 0 0 14 .986z" fill="#9DCCED"/><path d="m7.675 23.67.88-2.41 1.77 1.472-1.655 1.512-.995-.575z" fill="#213147"/><path d="M13.195 7.688H10.77a.431.431 0 0 0-.405.285L5.166 22.22l2.508 1.449 5.723-15.691a.215.215 0 0 0-.203-.29zm4.243 0h-2.425a.431.431 0 0 0-.406.285l-5.934 16.27 2.508 1.448 6.46-17.712a.217.217 0 0 0-.203-.29z" fill="#fff"/></svg>