<svg width="16" height="16" viewBox="0 0 16 16" fill="none" xmlns="http://www.w3.org/2000/svg">
    <path
        d="M2.66667 13.3333C3.03485 13.3333 3.33333 13.0348 3.33333 12.6667C3.33333 12.2985 3.03485 12 2.66667 12C2.29848 12 2 12.2985 2 12.6667C2 13.0348 2.29848 13.3333 2.66667 13.3333Z"
        fill="#A2A4A6" />
    <path
        d="M2.66667 3.99984C3.03486 3.99984 3.33333 3.70137 3.33333 3.33317C3.33333 2.96498 3.03486 2.6665 2.66667 2.6665C2.29848 2.6665 2 2.96498 2 3.33317C2 3.70137 2.29848 3.99984 2.66667 3.99984Z"
        fill="#A2A4A6" />
    <path
        d="M2.66667 8.66683C3.03486 8.66683 3.33333 8.36836 3.33333 8.00016C3.33333 7.63196 3.03486 7.3335 2.66667 7.3335C2.29848 7.3335 2 7.63196 2 8.00016C2 8.36836 2.29848 8.66683 2.66667 8.66683Z"
        fill="#A2A4A6" />
    <path d="M6 8H14" stroke="#A2A4A6" />
    <path d="M6 12.6665H14" stroke="#A2A4A6" />
    <path d="M6 3.3335H14" stroke="#A2A4A6" />
</svg>