<svg width="20" height="20" viewBox="0 0 20 20" fill="none" xmlns="http://www.w3.org/2000/svg">
<g id="Frame">
<path id="Vector" d="M3.53315 18.1656C3.16831 18.1656 2.88086 17.8671 2.88086 17.5134C2.88086 17.1485 3.17936 16.8611 3.53315 16.8611H17.0211C17.386 16.8611 17.6734 17.1596 17.6734 17.5134C17.6734 17.8782 17.3749 18.1656 17.0211 18.1656H3.53315ZM16.6342 3.57208L14.6884 1.62627C14.4452 1.38304 14.0472 1.38304 13.8039 1.62627L11.836 3.59419L14.6663 6.42446L16.6342 4.45654C16.8774 4.21331 16.8774 3.82636 16.6342 3.57208ZM11.2501 4.18014L4.694 10.7362C4.51711 10.9131 4.36233 11.3 4.36233 11.3L3.3452 14.5283C3.26781 14.7715 3.49998 14.9926 3.74321 14.9263L6.94937 13.9092C6.94937 13.9092 7.33632 13.7655 7.52427 13.5665L14.0803 7.01041L11.2501 4.18014Z" fill="#5a1ddd"/>
</g>
</svg>
