<svg width="48" height="54" viewBox="0 0 48 54" fill="none" xmlns="http://www.w3.org/2000/svg">
    <path
        d="M4.55615 13.2904V15.3158L6.96489 16.591L11.2554 18.9164L15.546 21.2417L19.8366 23.5671L24.1271 25.8925L28.4177 23.5671L43.0959 15.6158V13.5905M34.5148 8.93975V10.9651L21.685 18.0244M25.8584 4.36401V6.38934L13.3144 13.2904"
        stroke="white" />
    <path fill-rule="evenodd" clip-rule="evenodd"
        d="M23.525 1L4.55615 11.2745V13.2995L6.96489 14.5744L11.2554 16.8993L15.546 19.2242L19.8366 21.5491L24.1271 23.874L28.4177 21.5491L43.0959 13.5994V11.5745L40.6872 10.2996L24.1271 19.2992L19.8366 16.9743L34.5148 8.94965V6.92474L32.1061 5.64979L15.546 14.6494L11.2554 12.3245L25.9337 4.37485V2.34994L23.525 1Z"
        stroke="white" />
    <path
        d="M21.2017 31.9589L23.0091 30.7591V27.9097L4.6336 18.0115L2.82617 19.2113M5.16076 45.6814L6.96819 44.4816L6.96819 26.4654M21.2017 52.1302L23.0091 50.9305V48.081L15.2522 43.8817V41.0709M21.2017 42.0821L23.0091 40.8823V38.0328L12.9176 32.5588L11.1102 33.7586"
        stroke="white" />
    <path fill-rule="evenodd" clip-rule="evenodd"
        d="M2.80743 19.165L21.1829 29.0911V31.9486L19.3755 33.227L5.14202 25.4816L5.14202 45.7098L1 43.4538L1 23.2257L1 20.4434L2.80743 19.165ZM9.28404 37.814V42.8523L9.28404 47.8905L13.4261 50.1464L19.3755 53.3799L21.1829 52.1767V49.3192L13.4261 45.1082V40.0699L19.3755 43.3034L21.1829 42.1003V39.2428L11.0915 33.7534L9.28404 34.9565V37.814Z"
        stroke="white" />
    <path
        d="M45.3065 19.2105L43.499 18.0115L41.1644 19.2855L25.1235 27.9035V30.7512L26.931 31.9503M42.9719 45.6642L41.1644 44.4652V26.5179M26.931 41.9922L25.1235 40.7932V37.9455L37.0224 31.5006L38.8299 32.7746M38.8299 42.7416L37.0224 41.5426L25.1235 47.9874V50.8351L26.931 52.0341"
        stroke="white" />
    <path fill-rule="evenodd" clip-rule="evenodd"
        d="M26.9492 29.0909L42.9901 20.4432L45.3247 19.1648L47.1321 20.368V43.4536L42.9901 45.7095V25.4814L28.7566 33.1515L26.9492 31.9484V29.0909ZM38.8481 32.7755L26.9492 39.2425V42.1L28.7566 43.3032L38.8481 37.8138V32.7755ZM26.9492 49.319L38.8481 42.852V47.8902L28.7566 53.3797L26.9492 52.1765V49.319Z"
        stroke="white" />
</svg>