<svg width="398" height="356" viewBox="0 0 398 356" fill="none" xmlns="http://www.w3.org/2000/svg">
<g clip-path="url(#clip0_2431_189)">
<path d="M388.37 306.35L199 356.01V176.65L388.37 127.32V306.35Z" fill="url(#paint0_linear_2431_189)"/>
<path d="M198.999 356L9.53906 306.35V126.91L198.999 176.59V356.01V356Z" fill="url(#paint1_linear_2431_189)"/>
<path d="M199 176.64L398 124.8V87.8799L199 139.7V176.64Z" fill="url(#paint2_linear_2431_189)"/>
<path d="M199 176.64L0.93 124.62L0 88.1699L199 139.7V176.64Z" fill="url(#paint3_linear_2431_189)"/>
<path d="M0 88.2098L199 46.0098L398 88.2098L199 139.71L0 88.2098Z" fill="url(#paint4_linear_2431_189)"/>
<path opacity="0.2" d="M9.53906 126.91V139.67L198.999 189.71L388.369 140.56V127.32L198.999 176.65L9.53906 126.91Z" fill="black"/>
<path d="M109.881 332.64L78.2207 324.35V108.41L109.881 116.61V332.65V332.64Z" fill="white"/>
<path d="M288.15 332.71L319.81 324.42V108.41L288.15 116.6V332.71Z" fill="white"/>
<path d="M109.881 116.61L78.2207 108.41L261.011 59.1299L293.651 66.0599L109.871 116.61H109.881Z" fill="white"/>
<path d="M288.15 116.6L319.81 108.41L136.97 59.1299L104.35 66.0599L288.15 116.6Z" fill="white"/>
<path d="M321.26 17.4402C286.23 -42.4398 189.74 71.0902 189.74 71.0902L199.21 82.6802C199.21 82.6802 368.84 98.7702 321.26 17.4202V17.4402ZM210.7 75.1302C210.7 75.1302 293.69 16.5002 310.35 36.6202C340.49 73.0302 210.7 75.1302 210.7 75.1302Z" fill="white"/>
<path d="M199.32 82.72C199.32 82.72 199.51 82.72 199.64 82.76H199.79C199.89 82.76 200 82.76 200.13 82.8C200.24 82.8 200.36 82.8 200.47 82.84C200.58 82.84 200.7 82.84 200.81 82.86C200.96 82.86 201.11 82.88 201.28 82.9C201.41 82.9 201.54 82.92 201.68 82.94C201.87 82.94 202.08 82.98 202.28 82.98C202.43 82.98 202.62 83 202.77 83.02C202.98 83.02 203.2 83.06 203.43 83.08C203.54 83.08 203.7 83.08 203.83 83.1C204.44 83.14 205.12 83.19 205.84 83.23C205.95 83.23 206.05 83.23 206.16 83.25C206.52 83.27 206.9 83.29 207.3 83.33C207.45 83.33 207.6 83.33 207.77 83.35C208.17 83.37 208.59 83.39 209 83.43C209.17 83.43 209.34 83.45 209.53 83.47C209.97 83.49 210.4 83.51 210.86 83.55C211.03 83.55 211.2 83.55 211.39 83.57C211.88 83.59 212.38 83.63 212.89 83.65H213.29C213.86 83.67 214.43 83.71 215.01 83.73H215.12C217.81 83.84 220.76 83.92 223.91 83.98H224.16C224.88 83.98 225.6 84 226.34 84.02H226.74C227.48 84.02 228.24 84.02 229.01 84.04H231.83C237.13 84.04 242.83 83.91 248.72 83.62H248.87C249.82 83.58 250.76 83.53 251.73 83.47H251.86C258.79 83.07 265.93 82.41 272.92 81.43H273.01C273.99 81.28 274.98 81.13 275.96 80.98C281.94 80.03 287.81 78.84 293.32 77.31C294.21 77.06 295.1 76.8 295.97 76.53C296.01 76.53 296.06 76.51 296.1 76.49C296.97 76.23 297.84 75.94 298.69 75.66H298.71C303.92 73.92 308.73 71.84 312.91 69.34C312.97 69.3 313.02 69.28 313.06 69.25C313.7 68.87 314.35 68.47 314.95 68.06C315.03 68.02 315.08 67.97 315.16 67.93C315.78 67.51 316.37 67.1 316.96 66.66C317 66.64 317.04 66.6 317.07 66.58C320.16 64.29 322.77 61.71 324.8 58.82C324.84 58.78 324.86 58.73 324.89 58.69C325.25 58.16 325.59 57.63 325.91 57.08C325.97 56.99 326.02 56.87 326.1 56.78C326.4 56.25 326.69 55.72 326.95 55.17C327.01 55.06 327.06 54.92 327.12 54.81C327.38 54.26 327.63 53.69 327.84 53.13C327.88 53.04 327.92 52.94 327.94 52.85C328.92 50.2 329.49 47.34 329.59 44.25C313.1 31.24 301.23 32.63 301.23 32.63C305.09 32.95 308.22 34.24 310.3 36.76C317.46 45.39 315.58 52.11 308.6 57.32C307.77 57.94 306.88 58.53 305.91 59.12C283.34 72.54 225.04 74.87 212.89 75.21C212.3 75.21 211.83 75.23 211.47 75.25H210.64L199.15 82.8H199.32V82.72Z" fill="#D1D1D1"/>
<path d="M210.679 75.1502C210.679 75.1502 234.819 58.1102 259.679 45.5402C259.679 45.5402 248.229 44.2302 242.599 39.9702C236.239 35.1602 233.079 30.1802 233.169 28.9102C208.839 48.6002 189.699 71.1302 189.699 71.1302L199.169 82.7202L210.659 75.1702L210.679 75.1502Z" fill="#D1D1D1"/>
<path d="M200.711 82.6999L210.181 71.1099C210.181 71.1099 113.681 -42.4401 78.651 17.4399C31.091 98.7899 200.701 82.6999 200.701 82.6999H200.711ZM89.561 36.6399C106.221 16.5199 189.211 75.1499 189.211 75.1499C189.211 75.1499 59.401 73.0499 89.561 36.6399Z" fill="white"/>
<path d="M200.59 82.72C200.59 82.72 200.4 82.72 200.27 82.76H200.12C200.02 82.76 199.91 82.76 199.78 82.8C199.67 82.8 199.55 82.8 199.44 82.84C199.33 82.84 199.21 82.84 199.1 82.86C198.95 82.86 198.8 82.88 198.63 82.9C198.5 82.9 198.37 82.92 198.23 82.94C198.04 82.94 197.83 82.98 197.62 82.98C197.47 82.98 197.28 83 197.13 83.02C196.92 83.02 196.69 83.06 196.47 83.08C196.36 83.08 196.21 83.08 196.07 83.1C195.46 83.14 194.78 83.19 194.06 83.23C193.95 83.23 193.85 83.23 193.74 83.25C193.38 83.27 193 83.29 192.6 83.33C192.45 83.33 192.3 83.33 192.13 83.35C191.73 83.37 191.32 83.39 190.9 83.43C190.73 83.43 190.56 83.45 190.37 83.47C189.94 83.49 189.5 83.51 189.05 83.55C188.88 83.55 188.71 83.55 188.52 83.57C188.03 83.59 187.53 83.63 187.02 83.65H186.62C186.05 83.67 185.48 83.71 184.9 83.73H184.79C182.1 83.84 179.15 83.92 176 83.98H175.75C175.03 83.98 174.31 84 173.57 84.02H173.17C172.43 84.02 171.67 84.02 170.9 84.04H168.08C162.78 84.04 157.08 83.91 151.19 83.62H151.04C150.09 83.58 149.15 83.53 148.18 83.47H148.05C141.12 83.07 133.98 82.41 127 81.43H126.9C125.92 81.28 124.93 81.13 123.95 80.98C117.97 80.03 112.1 78.84 106.59 77.31C105.7 77.06 104.81 76.8 103.94 76.53C103.9 76.53 103.84 76.51 103.81 76.49C102.94 76.23 102.07 75.94 101.22 75.66H101.2C95.9901 73.92 91.1801 71.84 87.0001 69.34C86.9401 69.3 86.8901 69.28 86.8501 69.25C86.2101 68.87 85.5601 68.47 84.9601 68.06C84.8801 68.02 84.8301 67.97 84.7501 67.93C84.1301 67.51 83.5401 67.1 82.9501 66.66C82.9101 66.64 82.8701 66.6 82.8401 66.58C79.7501 64.29 77.1401 61.71 75.1101 58.82C75.0701 58.78 75.0501 58.73 75.0201 58.69C74.6601 58.16 74.3201 57.63 74.0001 57.08C73.9401 56.99 73.8901 56.87 73.8101 56.78C73.5101 56.25 73.2201 55.72 72.9601 55.17C72.9001 55.06 72.8501 54.92 72.7901 54.81C72.5201 54.26 72.2801 53.69 72.0701 53.13C72.0301 53.04 71.9901 52.94 71.9801 52.85C71.0001 50.2 70.4301 47.34 70.3301 44.25C86.8201 31.24 98.6901 32.63 98.6901 32.63C94.8301 32.95 91.7001 34.24 89.6201 36.76C82.4601 45.39 84.3401 52.11 91.3201 57.32C92.1501 57.94 93.0401 58.53 94.0101 59.12C116.58 72.54 174.88 74.87 187.03 75.21C187.62 75.21 188.09 75.23 188.45 75.25H189.28L200.77 82.8H200.6L200.59 82.72Z" fill="#D1D1D1"/>
<path d="M189.211 75.1502C189.211 75.1502 165.071 58.1102 140.211 45.5402C140.211 45.5402 151.671 44.2302 157.291 39.9702C163.651 35.1602 166.811 30.1802 166.721 28.9102C191.051 48.6002 210.191 71.1302 210.191 71.1302L200.721 82.7202L189.231 75.1702L189.211 75.1502Z" fill="#D1D1D1"/>
<path d="M169.561 83.9698L187.321 88.8398C194.951 90.9398 202.981 90.9398 210.611 88.8398L227.231 84.2798C227.231 84.2798 226.021 58.5498 198.961 58.5498C171.901 58.5498 169.561 83.9798 169.561 83.9798V83.9698Z" fill="white"/>
</g>
<defs>
<linearGradient id="paint0_linear_2431_189" x1="388.37" y1="241.65" x2="199" y2="241.65" gradientUnits="userSpaceOnUse">
<stop stop-color="#630BFA"/>
<stop offset="1" stop-color="#7E56FC"/>
</linearGradient>
<linearGradient id="paint1_linear_2431_189" x1="9.53906" y1="241.45" x2="198.999" y2="241.45" gradientUnits="userSpaceOnUse">
<stop stop-color="#A6C3FE"/>
<stop offset="1" stop-color="#8C71FF"/>
</linearGradient>
<linearGradient id="paint2_linear_2431_189" x1="199" y1="132.26" x2="398" y2="132.26" gradientUnits="userSpaceOnUse">
<stop stop-color="#7E56FC"/>
<stop offset="1" stop-color="#630BFA"/>
</linearGradient>
<linearGradient id="paint3_linear_2431_189" x1="0" y1="132.4" x2="199" y2="132.4" gradientUnits="userSpaceOnUse">
<stop stop-color="#99BBFF"/>
<stop offset="1" stop-color="#8C71FF"/>
</linearGradient>
<linearGradient id="paint4_linear_2431_189" x1="0" y1="92.8498" x2="398" y2="92.8498" gradientUnits="userSpaceOnUse">
<stop stop-color="#A6C3FE"/>
<stop offset="1" stop-color="#735DF9"/>
</linearGradient>
<clipPath id="clip0_2431_189">
<rect width="398" height="356" fill="white"/>
</clipPath>
</defs>
</svg>
