<svg width="192" height="192" viewBox="0 0 192 192" fill="none" xmlns="http://www.w3.org/2000/svg">
<g clip-path="url(#clip0_2431_324)">
<path d="M153.632 66.7043L154.789 129.325L99.3209 163.199L98.1634 100.578L153.632 66.7043Z" fill="#FFCD5C"/>
<path d="M98.1631 100.579L99.3205 163.2L42.0545 131.779L40.8971 69.1585L98.1631 100.579Z" fill="#F99E53"/>
<path d="M153.632 66.7042L98.1643 100.578L40.8984 69.1579L96.3718 35.2905L153.632 66.7042Z" fill="#FFED7C"/>
<path d="M153.997 83.5694L98.5397 117.797L41.1903 86.4962L40.9536 75.2765L98.3451 108.563L153.77 75.9385L153.997 83.5694Z" fill="#F27441"/>
<path d="M155.176 66.5745L155.309 81.9747L98.3118 116.778L98.1905 101.38L155.176 66.5745Z" fill="#FDCB5A"/>
<path d="M98.191 101.38L98.3123 116.779L39.4807 84.4955L39.3526 69.1022L98.191 101.38Z" fill="#F99E53"/>
<path d="M155.176 66.5748L98.1901 101.38L39.3517 69.1021L96.3493 34.2984L155.176 66.5748Z" fill="#FFED7C"/>
<path d="M71.9946 87.3124L73.1366 149.09L62.4613 143.106L61.3194 81.3285L71.9946 87.3124Z" fill="#D3393D"/>
<path d="M61.1145 81.3883L118.577 46.335L129.258 52.3257L71.7897 87.3722L61.1145 81.3883Z" fill="#F76973"/>
<path d="M124.418 85.3597L125.979 147.296L136.381 140.85L134.825 78.9199L124.418 85.3597Z" fill="url(#paint0_linear_2431_324)"/>
<path d="M66.3098 52.2663L124.624 85.3552L135.031 78.9154L76.7187 45.8143L66.3098 52.2663Z" fill="#F76973"/>
<mask id="mask0_2431_324" style="mask-type:luminance" maskUnits="userSpaceOnUse" x="105" y="26" width="19" height="11">
<path d="M105.932 26.3474L123.664 36.1438C123.664 36.1438 123.583 36.0964 123.536 36.078L105.804 26.2816C105.804 26.2816 105.885 26.329 105.932 26.3474Z" fill="white"/>
</mask>
<g mask="url(#mask0_2431_324)">
<path d="M123.541 36.085L105.809 26.2886C105.809 26.2886 105.861 26.3139 105.884 26.3292L123.616 36.1256C123.616 36.1256 123.564 36.1003 123.541 36.085Z" fill="#9C571E"/>
<path d="M123.616 36.1257L105.883 26.3293C105.883 26.3293 105.918 26.3461 105.924 26.353L123.656 36.1494C123.656 36.1494 123.621 36.1325 123.616 36.1257Z" fill="#97541D"/>
</g>
<path d="M124.987 43.2785C124.987 43.2785 124.986 43.2352 124.99 43.2108C125.006 43.0336 125.016 42.8616 125.031 42.6965C125.035 42.6167 125.04 42.5246 125.051 42.4394C125.065 42.1876 125.067 41.9342 125.06 41.6982C125.007 39.6998 124.391 38.0929 123.003 37.3335L105.271 27.5371C106.657 28.3087 107.275 29.9034 107.328 31.9018C107.334 32.1378 107.333 32.3912 107.319 32.643C107.315 32.7229 107.309 32.8149 107.299 32.9001C107.289 33.0721 107.279 33.244 107.257 33.4144C107.229 33.6335 107.206 33.8594 107.171 34.0838C107.171 34.0838 107.171 34.0838 107.17 34.096C107.135 34.3203 107.093 34.55 107.044 34.785C106.979 35.0983 106.914 35.4116 106.83 35.7287C106.807 35.8123 106.784 35.8959 106.76 35.9917C106.702 36.2008 106.644 36.4099 106.581 36.6121C106.548 36.7254 106.508 36.844 106.475 36.9572C106.423 37.1176 106.365 37.2833 106.307 37.449C106.238 37.6444 106.177 37.8344 106.096 38.0282C105.957 38.3877 105.813 38.7403 105.65 39.0967C105.642 39.1142 105.633 39.1316 105.625 39.1491C105.471 39.4758 105.318 39.8025 105.146 40.133C105.097 40.2257 105.048 40.3184 104.992 40.4164C104.862 40.6594 104.718 40.9131 104.576 41.1547C104.513 41.258 104.457 41.3559 104.394 41.4592C104.238 41.7114 104.082 41.9635 103.914 42.2141C103.846 42.3105 103.79 42.4085 103.727 42.5118C103.613 42.6765 103.493 42.8466 103.379 43.0114C103.234 43.2217 103.097 43.4267 102.947 43.6301C102.715 43.9406 102.47 44.2617 102.226 44.5706C102.173 44.6443 102.108 44.7164 102.05 44.7831C101.846 45.029 101.634 45.2802 101.429 45.5261C101.342 45.6263 101.248 45.7318 101.161 45.8319C100.871 46.1658 100.575 46.4928 100.268 46.8183C100.045 47.0557 99.8058 47.2848 99.5714 47.5207C99.4088 47.6792 99.2515 47.8446 99.0889 48.0031C98.892 48.1881 98.695 48.3732 98.4981 48.5582C98.3302 48.7098 98.1676 48.8684 97.9928 49.0253C97.7837 49.2088 97.5746 49.3923 97.3655 49.5757C97.1908 49.7327 97.0175 49.8775 96.8375 50.0276C96.6162 50.2095 96.3949 50.3914 96.1668 50.5786C95.9814 50.7218 95.8135 50.8735 95.6281 51.0167C95.3947 51.1971 95.1544 51.3827 94.9141 51.5684C94.7355 51.7063 94.557 51.8442 94.3717 51.9874C94.1176 52.1837 93.8477 52.3594 93.5815 52.5541C93.4045 52.6798 93.2344 52.8003 93.0575 52.926C92.7585 53.1351 92.4542 53.3373 92.1499 53.5395C91.9951 53.6371 91.8456 53.7416 91.6962 53.8462C91.2371 54.146 90.7658 54.4443 90.284 54.7289C89.1967 55.3935 88.0638 56.0275 86.9044 56.6272C86.5134 56.8306 86.1292 57.0288 85.7329 57.2253L103.465 67.0217C105.044 66.2408 106.568 65.4033 108.016 64.5253C108.493 64.2339 108.957 63.9409 109.428 63.6426C109.583 63.5449 109.733 63.4404 109.882 63.3359C110.186 63.1337 110.491 62.9315 110.79 62.7224C110.967 62.5967 111.137 62.4762 111.314 62.3505C111.578 62.1679 111.845 61.9732 112.104 61.7838C112.282 61.6459 112.461 61.508 112.646 61.3648C112.887 61.1791 113.127 60.9935 113.36 60.8131C113.546 60.6699 113.719 60.5251 113.899 60.375C114.126 60.2 114.354 60.0128 114.57 59.824C114.75 59.6739 114.918 59.5222 115.098 59.3722C115.307 59.1887 115.516 59.0052 115.725 58.8217C115.9 58.6648 116.062 58.5063 116.23 58.3546C116.427 58.1696 116.624 57.9845 116.821 57.7995C116.984 57.641 117.146 57.4825 117.304 57.3171C117.439 57.1798 117.579 57.0494 117.708 56.9174C117.807 56.8188 117.901 56.7133 118 56.6147C118.308 56.2892 118.603 55.9622 118.893 55.6283C118.987 55.5228 119.074 55.4227 119.156 55.3157C119.286 55.1715 119.411 55.0205 119.54 54.8763C119.628 54.7761 119.702 54.6744 119.783 54.5795C119.848 54.5075 119.9 54.4338 119.958 54.367C120.194 54.0756 120.424 53.7773 120.64 53.4896C120.661 53.4737 120.664 53.4493 120.684 53.4334C120.834 53.23 120.979 53.0196 121.116 52.8146C121.222 52.6673 121.334 52.5147 121.434 52.3606C121.448 52.35 121.451 52.3256 121.472 52.3097C121.54 52.2133 121.596 52.1153 121.658 52.012C121.796 51.807 121.928 51.5951 122.054 51.3886C122.084 51.343 122.103 51.2959 122.133 51.2503C122.196 51.147 122.252 51.0491 122.315 50.9458C122.394 50.8075 122.481 50.664 122.56 50.5257C122.618 50.4156 122.674 50.3176 122.731 50.2075C122.78 50.1148 122.836 50.0168 122.885 49.9241C122.919 49.8542 122.958 49.7912 122.991 49.7213C123.123 49.466 123.243 49.2092 123.362 48.9524C123.362 48.9524 123.369 48.9471 123.376 48.9418C123.384 48.9243 123.393 48.9068 123.401 48.8893C123.499 48.6606 123.601 48.4387 123.699 48.21C123.752 48.0808 123.806 47.9516 123.848 47.8209C123.896 47.6848 123.95 47.5556 123.998 47.4196C124.018 47.3603 124.038 47.301 124.058 47.2417C124.116 47.076 124.168 46.9156 124.226 46.7499C124.248 46.6784 124.276 46.6017 124.303 46.5371C124.315 46.4953 124.326 46.4534 124.338 46.4116C124.395 46.2025 124.453 45.9935 124.511 45.7844C124.526 45.7182 124.547 45.6468 124.569 45.5753C124.577 45.5578 124.573 45.5388 124.582 45.5213C124.666 45.2043 124.731 44.891 124.796 44.5777C124.799 44.5533 124.807 44.5358 124.809 44.5237C124.854 44.313 124.888 44.1008 124.914 43.8939C124.914 43.8939 124.914 43.8939 124.916 43.8818C124.948 43.6817 124.973 43.487 124.992 43.2854L124.987 43.2785Z" fill="#D3393D"/>
<mask id="mask1_2431_324" style="mask-type:luminance" maskUnits="userSpaceOnUse" x="85" y="57" width="18" height="12">
<path d="M102.912 68.2932L85.18 58.4968C85.18 58.4968 85.1397 58.4731 85.1291 58.4593C85.0639 58.3891 85.0277 58.2855 85.0343 58.1379C85.0352 58.0823 85.043 58.0215 85.063 57.9622L102.795 67.7586C102.775 67.8179 102.768 67.8787 102.767 67.9343C102.755 68.075 102.796 68.1855 102.861 68.2557C102.877 68.2763 102.888 68.2901 102.912 68.2932Z" fill="white"/>
</mask>
<g mask="url(#mask1_2431_324)">
<path d="M102.911 68.2927L85.1786 58.4963C85.1786 58.4963 85.1384 58.4726 85.1278 58.4588C85.0626 58.3886 85.0264 58.285 85.0329 58.1374C85.0329 58.1374 85.0361 58.113 85.0376 58.1009L102.77 67.8973C102.77 67.8973 102.767 67.9216 102.765 67.9338C102.753 68.0745 102.795 68.185 102.86 68.2552C102.876 68.2758 102.887 68.2896 102.911 68.2927Z" fill="#7F4718"/>
<path d="M102.762 67.9034L85.0302 58.107C85.0302 58.107 85.0365 58.0583 85.0396 58.034L102.772 67.8304C102.772 67.8304 102.766 67.8791 102.762 67.9034Z" fill="#844919"/>
<path d="M102.772 67.8302L85.0401 58.0338C85.0401 58.0338 85.0448 57.9973 85.0533 57.9798L102.786 67.7762C102.786 67.7762 102.781 67.8127 102.772 67.8302Z" fill="#894C1A"/>
<path d="M102.786 67.7761L85.0536 57.9797C85.0536 57.9797 85.0536 57.9797 85.0552 57.9676L102.787 67.764C102.787 67.764 102.787 67.764 102.786 67.7761Z" fill="#8E4F1B"/>
</g>
<mask id="mask2_2431_324" style="mask-type:luminance" maskUnits="userSpaceOnUse" x="84" y="57" width="19" height="11">
<path d="M84.9666 57.9374C84.9666 57.9374 85.019 57.9627 85.0555 57.9674C90.2771 60.8517 95.4986 63.7359 100.715 66.6133L102.782 67.7569C102.782 67.7569 102.716 67.7422 102.694 67.727C97.374 64.7868 90.2808 60.8707 84.9613 57.9306L84.9666 57.9374Z" fill="white"/>
</mask>
<g mask="url(#mask2_2431_324)">
<path d="M102.698 67.7337L84.9654 57.9373L84.9707 57.9442L102.698 67.7337Z" fill="#97541D"/>
<path d="M102.699 67.7341L84.9663 57.9377C84.9663 57.9377 84.9769 57.9515 84.9891 57.953L102.721 67.7494C102.721 67.7494 102.711 67.7357 102.699 67.7341Z" fill="#9C571E"/>
<path d="M102.729 67.7433L84.9966 57.9469C84.9966 57.9469 85.014 57.9554 85.0262 57.9569L102.758 67.7533C102.758 67.7533 102.741 67.7449 102.729 67.7433Z" fill="#A15A1F"/>
<path d="M102.758 67.7536L85.0258 57.9572C85.0258 57.9572 85.0433 57.9656 85.0502 57.9603L102.782 67.7567C102.782 67.7567 102.765 67.7483 102.758 67.7536Z" fill="#A65C20"/>
<path d="M102.783 67.7566L85.0503 57.9602L85.0556 57.967L102.795 67.7581L102.783 67.7566Z" fill="#AB5F21"/>
</g>
<path d="M123.541 36.0853C125.202 36.9292 125.954 38.8257 126.011 41.1278C126.06 43.2062 125.555 45.6031 124.67 47.9205C123.403 51.2342 121.22 54.4673 118.387 57.4563C115.547 60.4507 112.05 63.2184 108.079 65.6284C106.523 66.567 104.893 67.465 103.211 68.2821C103.066 68.3501 102.944 68.3345 102.861 68.2559C102.796 68.1856 102.76 68.082 102.767 67.9344C102.768 67.8789 102.775 67.818 102.795 67.7587C102.594 67.7391 102.502 67.4922 102.598 67.1767C102.666 66.938 102.742 66.6818 102.816 66.3944C103.083 65.4205 103.424 64.1591 103.847 62.6918C104.4 60.7957 105.099 58.5783 106.007 56.1773C107.821 51.3876 110.442 45.9095 114.304 41.1165C115.738 39.3397 117.359 37.6488 119.036 36.6269C119.8 36.1682 120.572 35.8466 121.334 35.7402C122.09 35.627 122.838 35.7291 123.541 36.0853ZM123.853 47.828C124.654 45.7288 125.107 43.5478 125.065 41.7054C125.013 39.6514 124.369 38.0223 122.905 37.2779C122.283 36.9692 121.657 36.8827 121.015 36.9735C120.377 37.0711 119.725 37.3338 119.068 37.7319C117.619 38.61 116.13 40.1446 114.776 41.8265C112.027 45.2221 109.925 49.0164 108.3 52.6736C106.681 56.3256 105.538 59.8284 104.723 62.6186C104.193 64.431 103.802 65.9395 103.498 67.0077C105.076 66.2267 106.6 65.3893 108.049 64.5112C111.932 62.158 115.328 59.4576 118.031 56.6128C120.729 53.7611 122.725 50.7823 123.854 47.8159" fill="#FF9999"/>
<path d="M120.121 36.0733C120.121 36.0733 120.187 36.0446 120.22 36.0302C120.382 35.9707 120.544 35.9111 120.71 35.8705C120.781 35.8487 120.857 35.8337 120.933 35.8187C121.067 35.7925 121.201 35.7542 121.333 35.7401C121.491 35.717 121.659 35.7077 121.82 35.7037C121.87 35.6977 121.919 35.704 121.969 35.6981C122.136 35.7009 122.296 35.709 122.447 35.7346C122.447 35.7346 122.447 35.7346 122.459 35.7362C122.623 35.7633 122.785 35.8027 122.94 35.8473C122.982 35.8589 123.029 35.8773 123.071 35.8888C123.224 35.9456 123.378 36.0024 123.535 36.0783L105.803 26.2819C105.698 26.2313 105.598 26.1876 105.499 26.1439C105.452 26.1255 105.398 26.1124 105.351 26.094C105.303 26.0756 105.262 26.064 105.22 26.0525C105.19 26.0425 105.155 26.0256 105.119 26.0209C104.993 25.9863 104.866 25.9638 104.739 25.9413C104.739 25.9413 104.739 25.9413 104.727 25.9398C104.605 25.9241 104.484 25.9085 104.36 25.9051C104.324 25.9004 104.286 25.9079 104.249 25.9032C104.201 25.897 104.15 25.9029 104.1 25.9088C104.05 25.9147 104.001 25.9085 103.946 25.9076C103.84 25.9125 103.727 25.9228 103.62 25.94C103.57 25.9459 103.532 25.9534 103.481 25.9593C103.393 25.9727 103.308 26.0052 103.22 26.0186C103.144 26.0336 103.068 26.0485 102.997 26.0704C102.983 26.081 102.966 26.0726 102.952 26.0832C102.81 26.1268 102.662 26.1758 102.512 26.237C102.479 26.2513 102.446 26.2657 102.413 26.28C102.355 26.3034 102.303 26.3215 102.244 26.3449C102.172 26.3789 102.093 26.4182 102.013 26.4575C101.96 26.4878 101.908 26.5059 101.855 26.5362C101.682 26.6254 101.503 26.72 101.335 26.8282C101.106 26.9721 100.876 27.1281 100.639 27.2894C100.563 27.3477 100.494 27.4008 100.419 27.4591C100.261 27.5811 100.11 27.6978 99.952 27.8198C99.8627 27.8888 99.7856 27.9593 99.7017 28.0352C99.5559 28.1587 99.4155 28.2891 99.275 28.4196C99.1911 28.4954 99.1071 28.5712 99.0285 28.6539C98.8743 28.795 98.7323 28.9376 98.5888 29.0923C98.5391 29.1416 98.4895 29.1909 98.433 29.2455C98.4124 29.2615 98.3903 29.2895 98.375 29.3123C98.1528 29.5498 97.9237 29.7925 97.6999 30.0422C97.664 30.0809 97.6281 30.1196 97.5975 30.1651C97.4097 30.3761 97.2202 30.5992 97.0376 30.817C97.0102 30.8382 96.9864 30.8785 96.9643 30.9065C96.8535 31.047 96.7305 31.1858 96.6197 31.3262C96.2889 31.7353 95.9702 32.146 95.6569 32.5635C95.6194 32.6144 95.582 32.6652 95.5445 32.7161C95.5139 32.7616 95.4902 32.8019 95.4543 32.8406C95.0935 33.3386 94.7381 33.8435 94.3947 34.35C94.371 34.3902 94.3489 34.4183 94.3198 34.4517C94.2892 34.4972 94.264 34.5497 94.2265 34.6005C93.8885 35.1138 93.5573 35.6219 93.2505 36.133C93.2352 36.1558 93.22 36.1786 93.2047 36.2013C93.1809 36.2416 93.1504 36.2872 93.1319 36.3343C92.8014 36.8857 92.4777 37.4318 92.1716 37.9863C92.1578 37.9969 92.1563 38.009 92.1478 38.0265C92.131 38.0615 92.1157 38.0842 92.0988 38.1192C91.7674 38.7261 91.4428 39.3278 91.1356 39.9378C91.1219 39.9484 91.1188 39.9728 91.1119 39.9781C91.0629 40.0708 91.0124 40.1756 90.9687 40.2752C90.8538 40.4955 90.7511 40.7173 90.6484 40.9392C90.581 41.079 90.5204 41.2135 90.453 41.3533C90.3588 41.5577 90.2576 41.7674 90.1702 41.9665C90.1381 42.0242 90.1181 42.0835 90.086 42.1412C90.0523 42.2111 90.0254 42.2757 89.9917 42.3456C89.8637 42.6199 89.7479 42.8958 89.6268 43.1648C89.5763 43.2696 89.531 43.3813 89.4873 43.4809C89.3294 43.8441 89.1767 44.2142 89.031 44.579C89.031 44.579 89.0241 44.5843 89.0225 44.5965C89.0088 44.6071 89.0126 44.6261 89.0041 44.6436C88.7678 45.2318 88.5384 45.8147 88.3174 46.3802C88.1854 46.7344 88.0549 47.0764 87.9297 47.4253C87.9129 47.4602 87.9082 47.4967 87.8913 47.5317C87.8614 47.6206 87.8314 47.7095 87.7961 47.7916C87.7293 47.9748 87.6679 48.1648 87.6011 48.348C87.5595 48.4788 87.5127 48.6026 87.4712 48.7334C87.4113 48.9113 87.3513 49.0891 87.2914 49.267C87.2446 49.3909 87.2099 49.5163 87.1631 49.6402C87.1032 49.8181 87.0501 49.9907 86.9902 50.1685C86.9571 50.2818 86.9171 50.4004 86.884 50.5137C86.8241 50.6916 86.7695 50.8763 86.7164 51.0489C86.688 51.1256 86.6718 51.204 86.6434 51.2807C86.6334 51.3104 86.6303 51.3347 86.615 51.3575C86.555 51.5354 86.5073 51.7148 86.4542 51.8874C86.4242 51.9763 86.3996 52.0721 86.3696 52.161C86.2934 52.4172 86.2173 52.6734 86.1427 52.9175C85.7141 54.3779 85.3782 55.6461 85.111 56.62C85.037 56.9074 84.9539 57.1689 84.8931 57.4024C84.8931 57.4024 84.8846 57.4198 84.8831 57.432C84.8747 57.4495 84.8784 57.4685 84.87 57.486C84.8668 57.5103 84.8637 57.5347 84.8606 57.559C84.8606 57.559 84.8659 57.5659 84.8643 57.5781C84.8628 57.5902 84.8665 57.6093 84.865 57.6214C84.8603 57.6579 84.8678 57.696 84.8699 57.7272C84.8806 57.741 84.8721 57.7584 84.8827 57.7722C84.8918 57.7981 84.9008 57.824 84.9152 57.8567C84.9205 57.8636 84.9311 57.8773 84.9364 57.8842C84.9576 57.9117 84.9788 57.9391 85.0138 57.956L102.746 67.7524C102.746 67.7524 102.69 67.7081 102.669 67.6806C102.663 67.6737 102.653 67.66 102.647 67.6531C102.632 67.6325 102.622 67.6066 102.62 67.5754C102.61 67.5617 102.611 67.5495 102.608 67.5305C102.605 67.4993 102.598 67.4612 102.603 67.4247C102.604 67.4125 102.6 67.3935 102.602 67.3813C102.603 67.3258 102.616 67.2718 102.631 67.2056C102.698 66.9669 102.775 66.7107 102.849 66.4233C103.116 65.4494 103.457 64.188 103.88 62.7207C103.95 62.4698 104.031 62.2205 104.102 61.9574C104.125 61.8738 104.148 61.7902 104.176 61.7134C104.231 61.5287 104.291 61.3508 104.346 61.1661C104.377 61.065 104.409 60.9638 104.44 60.8627C104.493 60.6902 104.553 60.5123 104.608 60.3276C104.641 60.2143 104.681 60.0957 104.721 59.9771C104.774 59.8046 104.834 59.6267 104.894 59.4488C104.934 59.3302 104.974 59.2116 105.015 59.0809C105.075 58.903 105.135 58.7251 105.202 58.542C105.249 58.4181 105.283 58.2926 105.33 58.1687C105.397 57.9856 105.459 57.7955 105.525 57.6124C105.565 57.4938 105.612 57.3699 105.659 57.246C105.784 56.8971 105.915 56.5551 106.047 56.2009C106.262 55.6286 106.492 55.0457 106.728 54.4575C106.736 54.44 106.74 54.4157 106.748 54.3982C106.894 54.0334 107.052 53.6702 107.211 53.2948C107.262 53.1899 107.3 53.0835 107.351 52.9786C107.466 52.7028 107.594 52.4285 107.716 52.1595C107.769 52.0303 107.835 51.9027 107.889 51.7735C107.983 51.5691 108.077 51.3647 108.178 51.155C108.239 51.0205 108.306 50.8807 108.367 50.7462C108.47 50.5243 108.585 50.304 108.694 50.0769C108.751 49.9667 108.804 49.8497 108.861 49.7395C109.168 49.1295 109.487 48.521 109.824 47.9209C109.848 47.8806 109.866 47.8335 109.897 47.788C110.203 47.2335 110.527 46.6874 110.857 46.136C110.896 46.0729 110.937 45.9977 110.976 45.9347C111.29 45.4183 111.621 44.9103 111.952 44.4022C112.006 44.3164 112.066 44.2375 112.113 44.157C112.457 43.6505 112.812 43.1456 113.173 42.6476C113.241 42.5512 113.307 42.4669 113.375 42.3705C113.689 41.953 114.007 41.5423 114.338 41.1333C114.478 40.9594 114.623 40.7925 114.756 40.624C114.939 40.4062 115.121 40.1884 115.316 39.9721C115.352 39.9334 115.388 39.8948 115.418 39.8492C115.642 39.5996 115.864 39.3621 116.094 39.1193C116.165 39.0419 116.236 38.9767 116.307 38.8993C116.456 38.7514 116.598 38.6088 116.747 38.4609C116.831 38.3851 116.91 38.3024 116.994 38.2266C117.134 38.0962 117.28 37.9726 117.42 37.8422C117.509 37.7732 117.593 37.6974 117.671 37.6269C117.828 37.5049 117.986 37.3829 118.137 37.2662C118.213 37.2078 118.288 37.1495 118.357 37.0964C118.589 36.9282 118.819 36.7722 119.053 36.6352C119.227 36.5338 119.401 36.4324 119.573 36.3432C119.627 36.3129 119.685 36.2895 119.732 36.2646C119.87 36.2018 119.996 36.1376 120.132 36.087L120.121 36.0733Z" fill="#F76973"/>
<mask id="mask3_2431_324" style="mask-type:luminance" maskUnits="userSpaceOnUse" x="76" y="48" width="27" height="20">
<path d="M76.8995 48.2619L94.6318 58.0583C96.1396 58.8889 97.3906 60.0823 98.4137 61.3641C99.3785 62.5703 100.147 63.8626 100.765 65.0183C101.37 66.1411 101.823 67.1395 102.169 67.8148L84.4372 58.0184C84.0909 57.3431 83.6307 56.35 83.0332 55.2219C82.4144 54.0662 81.6462 52.7739 80.6814 51.5677C79.653 50.2791 78.4073 49.0925 76.8995 48.2619Z" fill="white"/>
</mask>
<g mask="url(#mask3_2431_324)">
<path d="M102.177 67.8094L84.445 58.013C84.0987 57.3377 83.6385 56.3447 83.041 55.2165C82.4222 54.0609 81.6541 52.7685 80.6893 51.5623C79.6608 50.2737 78.4151 49.0871 76.9073 48.2566L94.6396 58.053C96.1474 58.8835 97.3984 60.077 98.4215 61.3587C99.3863 62.5649 100.155 63.8573 100.773 65.0129C101.378 66.1358 101.831 67.1341 102.177 67.8094Z" fill="#D3393D"/>
</g>
<path d="M94.3954 72.637C94.5677 72.5478 94.7384 72.4707 94.9175 72.3762C95.2156 72.2227 95.5152 72.057 95.8148 71.8913C95.9611 71.8112 96.1075 71.731 96.2607 71.6455C96.7135 71.3943 97.1695 71.1188 97.6392 70.8327C99.0947 69.9493 100.616 68.9384 102.184 67.8035L84.4521 58.0071C82.8839 59.142 81.3625 60.1529 79.9069 61.0363C79.4372 61.3224 78.9828 61.5857 78.5284 61.8491C78.3752 61.9346 78.2357 62.0094 78.0825 62.0949C77.7829 62.2606 77.4833 62.4263 77.1852 62.5798C77.013 62.669 76.8476 62.753 76.6753 62.8422C76.4169 62.9761 76.1463 63.1084 75.8895 63.23C75.7119 63.3124 75.5343 63.3948 75.3636 63.4718C75.1015 63.5867 74.8378 63.7136 74.5825 63.8232C74.4979 63.8556 74.4118 63.9002 74.3272 63.9327C73.9546 64.089 73.5957 64.2347 73.2331 64.3613C73.2072 64.3704 73.1744 64.3847 73.1485 64.3938C72.8171 64.5183 72.4819 64.6237 72.1658 64.7254C72.0949 64.7473 72.0172 64.7744 71.9464 64.7963C71.663 64.8836 71.3812 64.9588 71.1063 65.0287C71.0301 65.0436 70.9524 65.0708 70.8763 65.0857C70.5252 65.1706 70.1757 65.2433 69.8468 65.3001C69.613 65.3381 69.393 65.3655 69.173 65.393C69.1037 65.4027 69.0292 65.4055 68.9667 65.4098C68.816 65.4276 68.6668 65.4332 68.523 65.4457C68.4606 65.45 68.3981 65.4544 68.3304 65.4519C68.1813 65.4575 68.039 65.4578 67.8967 65.4581C67.8411 65.4572 67.7856 65.4562 67.73 65.4553C67.6623 65.4528 67.5893 65.4434 67.5147 65.4462C67.3306 65.4349 67.1411 65.4168 66.9708 65.395C66.8977 65.3856 66.8125 65.3747 66.7395 65.3653C66.6003 65.3413 66.468 65.3119 66.3357 65.2826C66.2642 65.261 66.1912 65.2517 66.1198 65.2301C66.0065 65.197 65.8879 65.1571 65.7762 65.1118C65.7116 65.085 65.6401 65.0634 65.5687 65.0419C65.4691 64.9982 65.3696 64.9545 65.2647 64.9039C65.1895 64.8634 65.1128 64.835 65.0376 64.7944L82.7698 74.5908C82.7698 74.5908 82.8048 74.6076 82.8223 74.6161C82.8747 74.6414 82.9393 74.6682 82.9917 74.6935C83.0913 74.7372 83.1892 74.793 83.2956 74.8314C83.301 74.8383 83.3184 74.8467 83.3359 74.8552C83.3883 74.8804 83.4492 74.8882 83.4963 74.9067C83.608 74.9519 83.7213 74.985 83.8467 75.0197C83.8711 75.0228 83.8939 75.0381 83.9182 75.0412C83.9722 75.0543 84.0209 75.0606 84.0696 75.0668C84.2019 75.0961 84.3342 75.1255 84.4734 75.1495C84.5099 75.1542 84.5448 75.1711 84.5882 75.1705C84.6247 75.1751 84.6681 75.1745 84.7046 75.1792C84.8872 75.2026 85.0644 75.2192 85.2485 75.2304C85.2919 75.2298 85.3337 75.2414 85.3824 75.2476C85.4067 75.2507 85.438 75.2485 85.4623 75.2517C85.5178 75.2526 85.5734 75.2536 85.6289 75.2545C85.7712 75.2542 85.9135 75.2539 86.0627 75.2483C86.1251 75.2439 86.1875 75.2396 86.2553 75.2421C86.2986 75.2414 86.3367 75.234 86.3801 75.2333C86.4859 75.2284 86.5932 75.2112 86.7059 75.2009C86.7752 75.1912 86.8429 75.1938 86.9122 75.1841C87.1322 75.1566 87.3522 75.1292 87.5859 75.0912C87.6171 75.089 87.6499 75.0746 87.6811 75.0724C87.991 75.0194 88.3024 74.9542 88.6154 74.8768C88.6916 74.8619 88.7693 74.8347 88.8454 74.8198C89.0633 74.7611 89.2864 74.7093 89.5111 74.6454C89.5629 74.6273 89.6269 74.6107 89.6787 74.5927C89.7495 74.5708 89.8272 74.5437 89.8981 74.5218C90.2142 74.4201 90.5441 74.3078 90.8808 74.1902C90.9135 74.1758 90.9395 74.1668 90.9654 74.1577C91.3227 74.0242 91.6816 73.8785 92.0542 73.7222C92.1388 73.6898 92.2249 73.6451 92.3095 73.6127C92.4009 73.5749 92.4924 73.5372 92.5838 73.4994C92.7476 73.4277 92.9252 73.3453 93.0906 73.2614C93.2682 73.179 93.4389 73.1019 93.6233 73.0143C93.8802 72.8926 94.1386 72.7587 94.4023 72.6317L94.3954 72.637Z" fill="#D3393D"/>
<path d="M86.7835 56.3146C86.8559 56.2806 86.9336 56.2535 87.0044 56.2316C87.1218 56.1848 87.2513 56.1396 87.3618 56.0981C87.4395 56.0709 87.5103 56.0491 87.5812 56.0273C87.716 55.9889 87.8386 55.949 87.9666 55.9159C88.0237 55.9047 88.0755 55.8866 88.1326 55.8753C88.3177 55.831 88.4958 55.7921 88.6793 55.7599C88.7052 55.7509 88.7296 55.754 88.7486 55.7503C88.9131 55.7219 89.0707 55.6988 89.2336 55.6826C89.296 55.6782 89.3584 55.6739 89.4208 55.6695C89.5335 55.6592 89.6461 55.6489 89.7519 55.6439C89.9757 55.6355 90.1941 55.6203 90.4163 55.624C90.6073 55.63 90.7983 55.6359 90.9824 55.6472C91.0623 55.6512 91.1422 55.6553 91.2221 55.6594C91.3628 55.6712 91.4914 55.6815 91.6253 55.6987C91.6983 55.7081 91.7713 55.7175 91.8443 55.7268C91.9904 55.7456 92.1295 55.7696 92.274 55.8005C92.3349 55.8083 92.3889 55.8214 92.4497 55.8292C92.6429 55.8664 92.8345 55.9157 93.0261 55.965C93.0679 55.9766 93.0976 55.9866 93.1394 55.9981C93.2945 56.0428 93.4496 56.0874 93.5978 56.1373C93.6692 56.1589 93.7338 56.1857 93.7931 56.2057C93.9117 56.2457 94.0234 56.2909 94.142 56.3309C94.2362 56.3677 94.3236 56.4098 94.4179 56.4467C94.5121 56.4835 94.6048 56.5325 94.699 56.5693C94.7864 56.6115 94.8738 56.6536 94.9611 56.6958C95.0713 56.7532 95.1815 56.8106 95.2916 56.868L77.5593 47.0716C77.5593 47.0716 77.4788 47.0242 77.4317 47.0058C77.3618 46.9721 77.2919 46.9384 77.222 46.9047C77.1346 46.8625 77.0473 46.8204 76.9546 46.7714C76.8672 46.7292 76.7677 46.6855 76.6734 46.6487C76.586 46.6066 76.4918 46.5697 76.3976 46.5329C76.3801 46.5245 76.3573 46.5092 76.333 46.5061C76.2387 46.4692 76.1376 46.4377 76.0434 46.4009C75.9788 46.374 75.9073 46.3525 75.8427 46.3256C75.6945 46.2757 75.5394 46.2311 75.3843 46.1864C75.3425 46.1749 75.3128 46.1649 75.271 46.1533C75.0863 46.0987 74.8931 46.0616 74.7068 46.0191C74.6528 46.006 74.592 45.9982 74.5311 45.9904C74.4163 45.9695 74.3136 45.9501 74.1988 45.9292C74.1692 45.9192 74.1379 45.9214 74.1014 45.9167C74.0284 45.9073 73.9554 45.8979 73.8824 45.8886C73.7485 45.8714 73.6146 45.8542 73.4792 45.8492C73.3993 45.8452 73.3194 45.8411 73.2395 45.837C73.184 45.8361 73.1231 45.8283 73.0676 45.8273C72.9321 45.8223 72.802 45.8242 72.6666 45.8192C72.4497 45.8223 72.2328 45.8254 72.0022 45.8391C71.9778 45.836 71.9519 45.845 71.9276 45.8419C71.8461 45.85 71.7525 45.8566 71.6711 45.8647C71.6087 45.869 71.5462 45.8734 71.4838 45.8778C71.3209 45.894 71.1633 45.917 70.9989 45.9454C70.973 45.9545 70.9486 45.9514 70.9296 45.9551C70.753 45.9819 70.5679 46.0262 70.3897 46.0652C70.3326 46.0764 70.2808 46.0945 70.2237 46.1058C70.1338 46.1313 70.0508 46.1516 69.9609 46.1772C69.916 46.19 69.8763 46.2096 69.8314 46.2224C69.7606 46.2443 69.6829 46.2714 69.612 46.2933C69.4894 46.3332 69.372 46.38 69.2547 46.4268C69.177 46.4539 69.1046 46.4879 69.0337 46.5098C68.9941 46.5294 68.956 46.5369 68.9164 46.5566C68.825 46.5943 68.732 46.6443 68.639 46.6942C68.5734 46.7229 68.5079 46.7516 68.4477 46.7872C68.2495 46.8854 68.0566 46.9906 67.8622 47.1079C67.6815 47.2146 67.4924 47.3388 67.3154 47.4645C67.2605 47.507 67.1987 47.5547 67.1369 47.6025C67.0133 47.698 66.8966 47.7881 66.773 47.8836C66.6975 47.942 66.6341 48.0019 66.5639 48.0671C66.4472 48.1573 66.3411 48.2612 66.2297 48.3582C66.1526 48.4287 66.0808 48.5061 66.0037 48.5766C65.9335 48.6419 65.8633 48.7071 65.7915 48.7845C65.7266 48.8565 65.6564 48.9217 65.5983 48.9885C65.441 49.1539 65.289 49.3262 65.1355 49.5106C65.1149 49.5265 65.1049 49.5561 65.0911 49.5667C65.0247 49.651 64.9582 49.7352 64.8917 49.8195C64.8099 49.9265 64.7229 50.0267 64.6411 50.1337C64.6121 50.1671 64.5883 50.2074 64.5593 50.2408C64.5066 50.3144 64.447 50.3933 64.3926 50.4792C64.3315 50.5703 64.265 50.6545 64.2038 50.7456C64.1579 50.814 64.1105 50.8945 64.0646 50.9628C64.0172 51.0433 63.9576 51.1223 63.9101 51.2028C63.878 51.2605 63.8405 51.3114 63.8084 51.3691C63.6982 51.5529 63.5812 51.742 63.4747 51.9449C63.4579 51.9798 63.4426 52.0026 63.4257 52.0375C63.304 52.2631 63.1823 52.4888 63.0674 52.7091C63.0406 52.7737 63.0016 52.8367 62.9747 52.9013C62.941 52.9712 62.9073 53.0411 62.8805 53.1057C62.8383 53.1931 62.7962 53.2804 62.754 53.3678C62.6514 53.5897 62.5555 53.8062 62.4719 54.0244C62.3814 54.2478 62.2977 54.4659 62.2194 54.6909C62.191 54.7677 62.1694 54.8391 62.1463 54.9228C62.1232 55.0064 62.0879 55.0885 62.0648 55.1721C62.0364 55.2489 62.008 55.3256 61.9918 55.404C61.9403 55.5644 61.901 55.7263 61.8563 55.8814C61.8348 55.9529 61.8132 56.0243 61.797 56.1027C61.7939 56.127 61.7786 56.1498 61.7755 56.1741C61.7146 56.4075 61.6659 56.6425 61.6241 56.8722C61.6109 56.9262 61.5963 56.9924 61.5832 57.0463C61.5832 57.0463 61.5832 57.0463 61.5816 57.0585C61.57 57.1003 61.5707 57.1437 61.566 57.1802C61.5079 57.4882 61.4636 57.7856 61.4314 58.0846C61.4283 58.1089 61.4236 58.1454 61.4205 58.1698C61.4055 58.3348 61.3973 58.4946 61.3824 58.6597C61.3767 58.7518 61.3642 58.8491 61.3586 58.9412C61.347 59.2242 61.3423 59.502 61.3498 59.7813C61.3986 61.8596 62.0064 63.5829 62.9727 64.777C63.3737 65.2676 63.8495 65.6564 64.3866 65.9542L82.1189 75.7506C81.5818 75.4528 81.106 75.064 80.705 74.5734C79.7318 73.3846 79.1309 71.656 79.0821 69.5777C79.0799 69.3052 79.0793 69.0206 79.0909 68.7376C79.0965 68.6455 79.109 68.5482 79.1146 68.4561C79.1328 68.2667 79.1387 68.0757 79.1637 67.881C79.1958 67.582 79.247 67.2793 79.2983 66.9766C79.3045 66.9279 79.3092 66.8914 79.3154 66.8427C79.3285 66.7888 79.3432 66.7226 79.3563 66.6686C79.4135 66.4162 79.4653 66.1568 79.5293 65.8991C79.5508 65.8276 79.5671 65.7493 79.5955 65.6725C79.6563 65.4391 79.7294 65.2072 79.804 64.9632C79.8271 64.8796 79.8624 64.7975 79.8855 64.7139C79.9853 64.4174 80.0974 64.1225 80.2163 63.8223C80.2163 63.8223 80.2163 63.8223 80.2232 63.817C80.349 63.5115 80.4869 63.2076 80.6318 62.8983C80.6655 62.8284 80.6992 62.7585 80.7329 62.6886C80.8915 62.3688 81.05 62.0489 81.2329 61.7322C81.3768 61.4785 81.526 61.2317 81.6736 60.997C81.7211 60.9165 81.7754 60.8307 81.8281 60.7571C81.9367 60.5854 82.0438 60.426 82.163 60.2681C82.2226 60.1891 82.2701 60.1086 82.3297 60.0297C82.4352 59.8824 82.546 59.742 82.6499 59.6069C82.7164 59.5226 82.7828 59.4383 82.8493 59.3541C83.0182 59.1469 83.1855 58.9519 83.358 58.7637C83.4947 58.6142 83.6283 58.4891 83.7634 58.3518C83.8405 58.2813 83.9123 58.2039 83.9894 58.1334C84.0955 58.0295 84.2122 57.9393 84.3237 57.8423C84.3992 57.7839 84.4694 57.7187 84.5328 57.6588C84.6563 57.5633 84.7799 57.4678 84.8966 57.3777C84.9584 57.3299 85.0134 57.2875 85.0752 57.2397C85.259 57.1087 85.4412 56.9898 85.6219 56.8831C85.8164 56.7658 86.0092 56.6606 86.2074 56.5623C86.2729 56.5336 86.3332 56.4981 86.3987 56.4694C86.5245 56.4051 86.6624 56.3424 86.7866 56.2903L86.7835 56.3146Z" fill="#F76973"/>
<path d="M102.76 67.9397C102.748 68.0805 102.79 68.1909 102.855 68.2612C102.783 68.4375 102.663 68.5954 102.521 68.6946C100.843 69.9143 99.2199 70.9927 97.6629 71.9434C93.692 74.3534 90.1592 75.8548 87.2576 76.3423C84.356 76.8298 82.0854 76.3034 80.6953 74.6035C79.7221 73.4147 79.1212 71.6861 79.0724 69.6078C79.0083 67.311 79.6511 64.5667 81.2232 61.7623C81.8884 60.5796 82.6031 59.5889 83.3484 58.7938C84.0883 57.9919 84.8604 57.3734 85.6191 56.9079C87.295 55.8982 88.9465 55.6091 90.4304 55.6139C93.4224 55.6266 95.7569 56.8601 97.5664 58.5211C99.3881 60.1836 100.69 62.2805 101.633 64.0407C102.117 64.9501 102.507 65.7671 102.816 66.3944C102.742 66.6818 102.659 66.9433 102.598 67.1767C102.507 67.4991 102.601 67.7337 102.796 67.7587C102.776 67.818 102.768 67.8789 102.767 67.9344L102.76 67.9397ZM97.6315 70.8384C99.087 69.955 100.608 68.9441 102.177 67.8092C101.83 67.1339 101.37 66.1408 100.773 65.0127C100.154 63.857 99.3857 62.5647 98.4209 61.3585C96.486 58.9392 93.789 56.8674 90.0055 56.8521C88.6084 56.8461 87.0939 57.128 85.6521 58.0008C84.9811 58.4095 84.3395 58.9272 83.7156 59.5956C83.0901 60.2761 82.4825 61.1074 81.897 62.1518C80.5162 64.622 79.9667 66.9762 80.0065 69.0287C80.0484 70.8711 80.6003 72.4512 81.4765 73.5285C82.7165 75.0484 84.7908 75.5619 87.5592 75.1006C90.3154 74.6377 93.7482 73.1916 97.6315 70.8384Z" fill="#FF9999"/>
</g>
<defs>
<linearGradient id="paint0_linear_2431_324" x1="129.464" y1="84.7715" x2="131.625" y2="150.073" gradientUnits="userSpaceOnUse">
<stop stop-color="#F76973"/>
<stop offset="1" stop-color="#D3393D"/>
</linearGradient>
<clipPath id="clip0_2431_324">
<rect width="137.954" height="135.351" fill="white" transform="matrix(-0.79134 0.611377 0.611377 0.79134 109.168 0)"/>
</clipPath>
</defs>
</svg>
