<svg width="368" height="181" viewBox="0 0 368 181" fill="none" xmlns="http://www.w3.org/2000/svg">
<g clip-path="url(#clip0_2431_490)">
<path d="M88.0525 134.884C81.5192 134.884 76.1953 129.557 76.1953 123.02C76.1953 116.483 81.5192 111.156 88.0525 111.156C94.5858 111.156 99.9097 116.483 99.9097 123.02C99.9097 129.557 94.5858 134.884 88.0525 134.884ZM88.0525 114.715C83.4756 114.715 79.7525 118.44 79.7525 123.02C79.7525 127.6 83.4756 131.325 88.0525 131.325C92.6294 131.325 96.3525 127.6 96.3525 123.02C96.3525 118.44 92.6294 114.715 88.0525 114.715Z" fill="#EF9926"/>
<path d="M345.127 69.5481C342.838 69.5481 340.977 67.6854 340.977 65.3956C340.977 63.1058 342.838 61.2432 345.127 61.2432C347.415 61.2432 349.277 63.1058 349.277 65.3956C349.277 67.6854 347.415 69.5481 345.127 69.5481ZM345.127 62.4296C343.49 62.4296 342.162 63.7584 342.162 65.3956C342.162 67.0329 343.49 68.3617 345.127 68.3617C346.763 68.3617 348.091 67.0329 348.091 65.3956C348.091 63.7584 346.763 62.4296 345.127 62.4296Z" fill="#FFEB97"/>
<path d="M128.438 178.674C125.758 178.674 123.576 176.491 123.576 173.81C123.576 171.129 125.758 168.946 128.438 168.946C131.117 168.946 133.299 171.129 133.299 173.81C133.299 176.491 131.117 178.674 128.438 178.674ZM128.438 170.37C126.54 170.37 124.999 171.912 124.999 173.81C124.999 175.708 126.54 177.251 128.438 177.251C130.335 177.251 131.876 175.708 131.876 173.81C131.876 171.912 130.335 170.37 128.438 170.37Z" fill="#EA3F3F"/>
<path d="M299.619 119.093C302.566 119.093 304.955 116.703 304.955 113.754C304.955 110.805 302.566 108.415 299.619 108.415C296.672 108.415 294.283 110.805 294.283 113.754C294.283 116.703 296.672 119.093 299.619 119.093Z" fill="#FFAE1F"/>
<path d="M78.7438 58.2292C81.0358 58.2292 82.8938 56.3701 82.8938 54.0768C82.8938 51.7834 81.0358 49.9243 78.7438 49.9243C76.4518 49.9243 74.5938 51.7834 74.5938 54.0768C74.5938 56.3701 76.4518 58.2292 78.7438 58.2292Z" fill="#FFAE1F"/>
<path d="M258.796 33.1012C261.415 33.1012 263.538 30.9765 263.538 28.3555C263.538 25.7346 261.415 23.6099 258.796 23.6099C256.176 23.6099 254.053 25.7346 254.053 28.3555C254.053 30.9765 256.176 33.1012 258.796 33.1012Z" fill="#FFD522"/>
<path d="M14.489 152.573C17.1084 152.573 19.2319 150.449 19.2319 147.828C19.2319 145.207 17.1084 143.082 14.489 143.082C11.8696 143.082 9.74609 145.207 9.74609 147.828C9.74609 150.449 11.8696 152.573 14.489 152.573Z" fill="#FFD522"/>
<path d="M348.258 160.499C350.223 160.499 351.815 158.905 351.815 156.94C351.815 154.974 350.223 153.38 348.258 153.38C346.294 153.38 344.701 154.974 344.701 156.94C344.701 158.905 346.294 160.499 348.258 160.499Z" fill="#FFD522"/>
<path d="M108.672 102.981C111.619 102.981 114.007 100.591 114.007 97.6421C114.007 94.6935 111.619 92.3032 108.672 92.3032C105.725 92.3032 103.336 94.6935 103.336 97.6421C103.336 100.591 105.725 102.981 108.672 102.981Z" fill="#E54242"/>
<path d="M145.336 110.678C148.283 110.678 150.671 108.287 150.671 105.339C150.671 102.39 148.283 100 145.336 100C142.389 100 140 102.39 140 105.339C140 108.287 142.389 110.678 145.336 110.678Z" fill="white" fill-opacity="0.8"/>
<path d="M227.197 3.55926C228.179 3.55926 228.975 2.76249 228.975 1.77963C228.975 0.796766 228.179 0 227.197 0C226.214 0 225.418 0.796766 225.418 1.77963C225.418 2.76249 226.214 3.55926 227.197 3.55926Z" fill="#E54242"/>
<path d="M39.1165 138.194C40.0988 138.194 40.8951 137.397 40.8951 136.414C40.8951 135.432 40.0988 134.635 39.1165 134.635C38.1342 134.635 37.3379 135.432 37.3379 136.414C37.3379 137.397 38.1342 138.194 39.1165 138.194Z" fill="#E54242"/>
<path d="M124.286 127.172C125.269 127.172 126.065 126.375 126.065 125.392C126.065 124.41 125.269 123.613 124.286 123.613C123.304 123.613 122.508 124.41 122.508 125.392C122.508 126.375 123.304 127.172 124.286 127.172Z" fill="#E54242"/>
<path d="M264.142 107.561C265.124 107.561 265.92 106.764 265.92 105.781C265.92 104.798 265.124 104.001 264.142 104.001C263.16 104.001 262.363 104.798 262.363 105.781C262.363 106.764 263.16 107.561 264.142 107.561Z" fill="#FFAE1F"/>
<path d="M127.749 14.1657C128.732 14.1657 129.528 13.3689 129.528 12.3861C129.528 11.4032 128.732 10.6064 127.749 10.6064C126.767 10.6064 125.971 11.4032 125.971 12.3861C125.971 13.3689 126.767 14.1657 127.749 14.1657Z" fill="#FFC91F"/>
<path d="M193.39 27.6909C195.027 27.6909 196.354 26.3629 196.354 24.7248C196.354 23.0867 195.027 21.7588 193.39 21.7588C191.753 21.7588 190.426 23.0867 190.426 24.7248C190.426 26.3629 191.753 27.6909 193.39 27.6909Z" fill="#EF4B4B"/>
<path d="M360.921 131.325C362.558 131.325 363.886 129.997 363.886 128.359C363.886 126.721 362.558 125.393 360.921 125.393C359.284 125.393 357.957 126.721 357.957 128.359C357.957 129.997 359.284 131.325 360.921 131.325Z" fill="#EF4B4B"/>
<path d="M284.999 94.3442C286.637 94.3442 287.964 93.0163 287.964 91.3782C287.964 89.7401 286.637 88.4121 284.999 88.4121C283.362 88.4121 282.035 89.7401 282.035 91.3782C282.035 93.0163 283.362 94.3442 284.999 94.3442Z" fill="#E54242"/>
<path d="M318.614 159.431L306.508 146.76L294.164 153.475L292.469 150.355L307.195 142.323L318.768 154.436L337.989 136.569L340.407 139.179L318.614 159.431Z" fill="#FFAE1F"/>
<path d="M301.921 67.2816L300.344 49.7107L317.821 49.687L312.45 30.7399L332.524 29.589L327.058 15.6012L331.481 13.8809L339.318 33.9432L318.628 35.1415L324.094 54.4326L305.537 54.4564L306.64 66.8544L301.921 67.2816Z" fill="#EF4B4B"/>
<path d="M109.099 61.7411L105.708 60.6377L111.66 42.2482L95.4039 35.0823L102.293 17.8555L82.8945 13.0742L83.7364 9.60986L107.107 15.3759L99.9807 33.2077L116.035 40.2906L109.099 61.7411Z" fill="#FFAE1F"/>
<path d="M25.9435 112.71L16.1258 92.0187L3.91288 109.851L0 107.169L16.8609 82.5273L27.2123 104.31L38.0972 92.4695L48.0217 108.961L43.9546 111.405L37.3027 100.347L25.9435 112.71Z" fill="#FFE669"/>
<path d="M52.7639 63.485C42.3533 56.5801 45.7207 42.3668 45.863 41.7617L49.3135 42.6159C49.2779 42.7346 46.4203 55.014 54.7204 60.519L52.7521 63.485H52.7639Z" fill="#FFAE1F"/>
<path d="M349.788 103.408L346.717 101.617C353.013 90.8202 367.396 93.3828 368 93.4896L367.348 96.9895C367.218 96.9658 354.815 94.7947 349.788 103.408Z" fill="#FFAE1F"/>
<path d="M98.9002 157.402L95.5684 156.168C95.6158 156.05 100.335 143.841 114.777 145.395L114.398 148.931C102.671 147.673 98.9477 157.307 98.9121 157.402H98.9002Z" fill="#FFAE1F"/>
<path d="M262.909 181L259.612 179.671C261.106 175.958 261.249 172.743 260.016 170.109C258.166 166.146 253.874 164.699 253.826 164.687L254.929 161.306C255.166 161.377 260.751 163.251 263.241 168.614C264.901 172.185 264.794 176.349 262.909 181.012V181Z" fill="#CC3232"/>
<path d="M139.524 27.4892L137.816 24.3689C141.314 22.4469 143.449 20.0504 144.172 17.2504C145.251 13.0386 142.832 9.13532 142.808 9.09973L145.808 7.17773C145.939 7.39129 149.081 12.3742 147.634 18.0928C146.662 21.9012 143.947 25.0689 139.536 27.4892H139.524Z" fill="#CC3232"/>
<path d="M288.414 139.582C273.249 136.711 269.621 122.818 269.479 122.225L272.929 121.371L271.198 121.798L272.929 121.359C273.059 121.857 276.19 133.65 289.078 136.082L288.414 139.582Z" fill="#EF4B4B"/>
<path d="M264.688 48.2989C262.696 49.6514 285.296 46.5548 295.327 19.635C296.157 17.4164 285.853 10.0962 283.339 13.0978C280.838 16.0876 288.059 32.4602 264.688 48.2989Z" fill="#FFAE1F"/>
<path d="M172.767 130.106L173.369 128.419C173.567 127.871 174.11 127.505 174.712 127.512L176.576 127.54C177.934 127.562 178.522 125.903 177.435 125.129L175.945 124.061C175.461 123.716 175.262 123.105 175.461 122.557L176.063 120.869C176.496 119.639 175.042 118.592 173.934 119.344L172.414 120.37C171.922 120.708 171.254 120.694 170.77 120.349L169.265 119.274C168.179 118.494 166.689 119.506 167.092 120.743L167.643 122.444C167.819 122.999 167.606 123.604 167.114 123.934L165.595 124.961C164.486 125.706 165.03 127.379 166.38 127.393L168.245 127.414C168.854 127.421 169.383 127.801 169.559 128.356L170.109 130.057C170.513 131.294 172.334 131.322 172.774 130.092L172.767 130.106Z" fill="white"/>
<g clip-path="url(#clip1_2431_490)">
<path d="M207.413 41.5756C205.134 42.7415 203.469 45.1244 203.001 48C202.531 45.1244 200.868 42.7415 198.588 41.5756C198.145 41.3488 197.039 41 197.039 41C197.039 41 198.143 40.6512 198.588 40.4244C200.868 39.2585 202.532 36.8756 203.001 34C203.47 36.8756 205.134 39.2585 207.413 40.4244C207.857 40.6512 208.962 41 208.962 41C208.962 41 207.858 41.3488 207.413 41.5756Z" fill="white"/>
<path d="M196.079 46.845C195.744 46.517 196.583 45.695 196.583 45.695L197.422 44.8731C197.422 44.8731 198.262 44.0511 198.597 44.3792C198.931 44.7072 198.092 45.5292 198.092 45.5292L197.253 46.3511C197.253 46.3511 196.414 47.1731 196.079 46.845Z" fill="white"/>
<path d="M209.921 46.845C210.256 46.517 209.417 45.695 209.417 45.695L208.577 44.8731C208.577 44.8731 207.738 44.0511 207.403 44.3792C207.068 44.7072 207.907 45.5292 207.907 45.5292L208.747 46.3511C208.747 46.3511 209.586 47.1731 209.921 46.845Z" fill="white"/>
<path d="M196.079 34.7205C195.744 35.0485 196.583 35.8705 196.583 35.8705L197.422 36.6924C197.422 36.6924 198.262 37.5144 198.597 37.1864C198.931 36.8583 198.092 36.0364 198.092 36.0364L197.253 35.2144C197.253 35.2144 196.414 34.3924 196.079 34.7205Z" fill="white"/>
<path d="M209.921 34.7205C210.256 35.0485 209.417 35.8705 209.417 35.8705L208.577 36.6924C208.577 36.6924 207.738 37.5144 207.403 37.1864C207.068 36.8583 207.907 36.0364 207.907 36.0364L208.747 35.2144C208.747 35.2144 209.586 34.3924 209.921 34.7205Z" fill="white"/>
</g>
<path d="M251.074 65.3878L251 65L250.894 65.6721C250.558 67.8109 249.522 69.7186 248 70.9995C249.481 72.4501 250.508 74.4222 250.926 76.6122L251 77L251.106 76.3279C251.442 74.1891 252.478 72.2814 254 71.0005C252.519 69.5499 251.492 67.5778 251.074 65.3878Z" fill="white"/>
<path d="M257.109 71.1036C257.148 71.6248 256.762 72.0803 256.245 72.1181C255.729 72.1579 255.278 71.768 255.241 71.2448C255.202 70.7236 255.587 70.2681 256.105 70.2303C256.621 70.1905 257.071 70.5824 257.109 71.1036Z" fill="white"/>
<path d="M258.666 67.6023C258.684 67.843 258.506 68.0518 258.268 68.0697C258.03 68.0876 257.824 67.9086 257.806 67.6679C257.788 67.4272 257.965 67.2184 258.203 67.2005C258.442 67.1825 258.648 67.3616 258.666 67.6023Z" fill="white"/>
<path d="M230.926 93.322C230.874 93.2683 230.805 93.2365 230.731 93.2365L228.633 93.1967L229.749 92.1126C229.796 92.0668 229.823 92.0051 229.823 91.9375C229.823 91.8719 229.8 91.8082 229.755 91.7605C229.709 91.7127 229.648 91.6849 229.581 91.6849C229.515 91.6849 229.453 91.7087 229.406 91.7545L228.29 92.8386L228.34 90.2884C228.34 90.2128 228.314 90.1412 228.263 90.0875C228.212 90.0318 228.141 90 228.068 90C227.909 90 227.787 90.1213 227.785 90.2765L227.735 92.8267L226.37 91.3925C226.324 91.3447 226.263 91.3169 226.197 91.3169C226.128 91.3169 226.069 91.3407 226.021 91.3865C225.974 91.4322 225.947 91.4939 225.947 91.5615C225.947 91.6272 225.97 91.6908 226.015 91.7386L227.381 93.1728L225.283 93.131H225.278C225.128 93.131 225.004 93.2524 225 93.4056C224.998 93.5607 225.12 93.69 225.274 93.692L227.371 93.7318L226.256 94.8159C226.159 94.9114 226.155 95.0685 226.25 95.166C226.295 95.2138 226.356 95.2416 226.423 95.2416C226.488 95.2416 226.551 95.2177 226.598 95.172L227.714 94.0879L227.665 96.638C227.663 96.7932 227.785 96.9225 227.938 96.9245H227.944C228.017 96.9245 228.084 96.8966 228.137 96.8469C228.19 96.7952 228.222 96.7236 228.222 96.65L228.271 94.0998L229.637 95.534C229.682 95.5818 229.743 95.6096 229.81 95.6096C229.869 95.6136 229.938 95.5857 229.985 95.54C230.083 95.4445 230.085 95.2874 229.991 95.1879L228.625 93.7537L230.723 93.7935C230.87 93.7935 231.004 93.6721 231.006 93.5169C231.006 93.4414 230.981 93.3697 230.929 93.316L230.926 93.322Z" fill="white"/>
</g>
<defs>
<clipPath id="clip0_2431_490">
<rect width="368" height="181" fill="white"/>
</clipPath>
<clipPath id="clip1_2431_490">
<rect width="14" height="14" fill="white" transform="matrix(1 0 0 -1 196 48)"/>
</clipPath>
</defs>
</svg>
