<svg width="193" height="61" viewBox="0 0 193 61" fill="none" xmlns="http://www.w3.org/2000/svg">
<mask id="path-1-outside-1_2420_668" maskUnits="userSpaceOnUse" x="-2" y="-1" width="196" height="73" fill="black">
<rect fill="white" x="-2" y="-1" width="196" height="73"/>
<path d="M46.0781 58.1875V70H9.75V58.1875H46.0781ZM14.9531 1.75V70H-0.328125V1.75H14.9531ZM41.3906 29.2188V40.6562H9.75V29.2188H41.3906ZM46.125 1.75V13.6094H9.75V1.75H46.125ZM60.8906 1.75H73.5469L89.9531 50.5469L106.312 1.75H118.969L95.0625 70H84.7969L60.8906 1.75ZM53.5781 1.75H66.4688L68.8594 52.3281V70H53.5781V1.75ZM113.391 1.75H126.328V70H111V52.3281L113.391 1.75ZM176.906 47.125H192.094C191.844 51.8125 190.562 55.9531 188.25 59.5469C185.969 63.1094 182.797 65.9062 178.734 67.9375C174.672 69.9375 169.844 70.9375 164.25 70.9375C159.781 70.9375 155.781 70.1719 152.25 68.6406C148.719 67.1094 145.719 64.9219 143.25 62.0781C140.812 59.2031 138.938 55.75 137.625 51.7188C136.344 47.6562 135.703 43.0781 135.703 37.9844V33.8125C135.703 28.7188 136.375 24.1406 137.719 20.0781C139.062 16.0156 140.984 12.5469 143.484 9.67188C145.984 6.79688 148.984 4.59375 152.484 3.0625C155.984 1.53125 159.891 0.765625 164.203 0.765625C170.016 0.765625 174.922 1.8125 178.922 3.90625C182.922 6 186.016 8.875 188.203 12.5312C190.422 16.1875 191.75 20.3594 192.188 25.0469H176.953C176.828 22.3906 176.328 20.1563 175.453 18.3438C174.578 16.5 173.234 15.1094 171.422 14.1719C169.609 13.2344 167.203 12.7656 164.203 12.7656C162.016 12.7656 160.094 13.1719 158.438 13.9844C156.812 14.7969 155.453 16.0625 154.359 17.7812C153.297 19.5 152.5 21.6875 151.969 24.3438C151.438 26.9688 151.172 30.0938 151.172 33.7188V37.9844C151.172 41.5781 151.406 44.6875 151.875 47.3125C152.344 49.9375 153.094 52.1094 154.125 53.8281C155.188 55.5469 156.547 56.8281 158.203 57.6719C159.859 58.5156 161.875 58.9375 164.25 58.9375C166.969 58.9375 169.234 58.5156 171.047 57.6719C172.859 56.7969 174.25 55.4844 175.219 53.7344C176.188 51.9844 176.75 49.7812 176.906 47.125Z"/>
</mask>
<path d="M46.0781 58.1875H47.0781V57.1875H46.0781V58.1875ZM46.0781 70V71H47.0781V70H46.0781ZM9.75 70H8.75V71H9.75V70ZM9.75 58.1875V57.1875H8.75V58.1875H9.75ZM14.9531 1.75H15.9531V0.75H14.9531V1.75ZM14.9531 70V71H15.9531V70H14.9531ZM-0.328125 70H-1.32812V71H-0.328125V70ZM-0.328125 1.75V0.75H-1.32812V1.75H-0.328125ZM41.3906 29.2188H42.3906V28.2188H41.3906V29.2188ZM41.3906 40.6562V41.6562H42.3906V40.6562H41.3906ZM9.75 40.6562H8.75V41.6562H9.75V40.6562ZM9.75 29.2188V28.2188H8.75V29.2188H9.75ZM46.125 1.75H47.125V0.75H46.125V1.75ZM46.125 13.6094V14.6094H47.125V13.6094H46.125ZM9.75 13.6094H8.75V14.6094H9.75V13.6094ZM9.75 1.75V0.75H8.75V1.75H9.75ZM45.0781 58.1875V70H47.0781V58.1875H45.0781ZM46.0781 69H9.75V71H46.0781V69ZM10.75 70V58.1875H8.75V70H10.75ZM9.75 59.1875H46.0781V57.1875H9.75V59.1875ZM13.9531 1.75V70H15.9531V1.75H13.9531ZM14.9531 69H-0.328125V71H14.9531V69ZM0.671875 70V1.75H-1.32812V70H0.671875ZM-0.328125 2.75H14.9531V0.75H-0.328125V2.75ZM40.3906 29.2188V40.6562H42.3906V29.2188H40.3906ZM41.3906 39.6562H9.75V41.6562H41.3906V39.6562ZM10.75 40.6562V29.2188H8.75V40.6562H10.75ZM9.75 30.2188H41.3906V28.2188H9.75V30.2188ZM45.125 1.75V13.6094H47.125V1.75H45.125ZM46.125 12.6094H9.75V14.6094H46.125V12.6094ZM10.75 13.6094V1.75H8.75V13.6094H10.75ZM9.75 2.75H46.125V0.75H9.75V2.75ZM60.8906 1.75V0.75H59.4808L59.9468 2.08058L60.8906 1.75ZM73.5469 1.75L74.4947 1.43131L74.2657 0.75H73.5469V1.75ZM89.9531 50.5469L89.0053 50.8656L89.9545 53.6888L90.9013 50.8647L89.9531 50.5469ZM106.312 1.75V0.75H105.593L105.364 1.43213L106.312 1.75ZM118.969 1.75L119.913 2.08058L120.379 0.75H118.969V1.75ZM95.0625 70V71H95.7718L96.0063 70.3306L95.0625 70ZM84.7969 70L83.8531 70.3306L84.0876 71H84.7969V70ZM53.5781 1.75V0.75H52.5781V1.75H53.5781ZM66.4688 1.75L67.4676 1.70279L67.4226 0.75H66.4688V1.75ZM68.8594 52.3281H69.8594V52.3045L69.8583 52.2809L68.8594 52.3281ZM68.8594 70V71H69.8594V70H68.8594ZM53.5781 70H52.5781V71H53.5781V70ZM113.391 1.75V0.75H112.437L112.392 1.70279L113.391 1.75ZM126.328 1.75H127.328V0.75H126.328V1.75ZM126.328 70V71H127.328V70H126.328ZM111 70H110V71H111V70ZM111 52.3281L110.001 52.2809L110 52.3045V52.3281H111ZM60.8906 2.75H73.5469V0.75H60.8906V2.75ZM72.599 2.06869L89.0053 50.8656L90.901 50.2282L74.4947 1.43131L72.599 2.06869ZM90.9013 50.8647L107.261 2.06787L105.364 1.43213L89.005 50.229L90.9013 50.8647ZM106.312 2.75H118.969V0.75H106.312V2.75ZM118.025 1.41942L94.1187 69.6694L96.0063 70.3306L119.913 2.08058L118.025 1.41942ZM95.0625 69H84.7969V71H95.0625V69ZM85.7407 69.6694L61.8344 1.41942L59.9468 2.08058L83.8531 70.3306L85.7407 69.6694ZM53.5781 2.75H66.4688V0.75H53.5781V2.75ZM65.4699 1.79721L67.8605 52.3753L69.8583 52.2809L67.4676 1.70279L65.4699 1.79721ZM67.8594 52.3281V70H69.8594V52.3281H67.8594ZM68.8594 69H53.5781V71H68.8594V69ZM54.5781 70V1.75H52.5781V70H54.5781ZM113.391 2.75H126.328V0.75H113.391V2.75ZM125.328 1.75V70H127.328V1.75H125.328ZM126.328 69H111V71H126.328V69ZM112 70V52.3281H110V70H112ZM111.999 52.3753L114.39 1.79721L112.392 1.70279L110.001 52.2809L111.999 52.3753ZM176.906 47.125V46.125H175.963L175.908 47.0663L176.906 47.125ZM192.094 47.125L193.092 47.1783L193.148 46.125H192.094V47.125ZM188.25 59.5469L187.409 59.0057L187.408 59.0076L188.25 59.5469ZM178.734 67.9375L179.176 68.8347L179.182 68.8319L178.734 67.9375ZM143.25 62.0781L142.487 62.7249L142.495 62.7337L143.25 62.0781ZM137.625 51.7188L136.671 52.0195L136.674 52.0283L137.625 51.7188ZM188.203 12.5312L187.345 13.0447L187.348 13.05L188.203 12.5312ZM192.188 25.0469V26.0469H193.285L193.183 24.9539L192.188 25.0469ZM176.953 25.0469L175.954 25.0939L175.999 26.0469H176.953V25.0469ZM175.453 18.3438L174.55 18.7725L174.553 18.7785L175.453 18.3438ZM158.438 13.9844L157.997 13.0866L157.99 13.0899L158.438 13.9844ZM154.359 17.7812L153.516 17.2443L153.509 17.2554L154.359 17.7812ZM151.969 24.3438L152.949 24.5421L152.949 24.5399L151.969 24.3438ZM154.125 53.8281L153.267 54.3427L153.274 54.3539L154.125 53.8281ZM171.047 57.6719L171.469 58.5785L171.482 58.5724L171.047 57.6719ZM176.906 48.125H192.094V46.125H176.906V48.125ZM191.095 47.0717C190.853 51.6032 189.618 55.5723 187.409 59.0057L189.091 60.088C191.507 56.334 192.834 52.0218 193.092 47.1783L191.095 47.0717ZM187.408 59.0076C185.231 62.4071 182.201 65.0863 178.287 67.0431L179.182 68.8319C183.393 66.7262 186.706 63.8117 189.092 60.0861L187.408 59.0076ZM178.293 67.0403C174.396 68.9586 169.726 69.9375 164.25 69.9375V71.9375C169.962 71.9375 174.948 70.9164 179.176 68.8347L178.293 67.0403ZM164.25 69.9375C159.896 69.9375 156.035 69.1919 152.648 67.7232L151.852 69.5581C155.528 71.1518 159.666 71.9375 164.25 71.9375V69.9375ZM152.648 67.7232C149.251 66.25 146.374 64.1509 144.005 61.4226L142.495 62.7337C145.064 65.6929 148.187 67.9687 151.852 69.5581L152.648 67.7232ZM144.013 61.4314C141.669 58.6671 139.853 55.3323 138.576 51.4092L136.674 52.0283C138.022 56.1677 139.956 59.7391 142.487 62.7248L144.013 61.4314ZM138.579 51.418C137.333 47.4697 136.703 42.9954 136.703 37.9844H134.703C134.703 43.1608 135.354 47.8428 136.671 52.0195L138.579 51.418ZM136.703 37.9844V33.8125H134.703V37.9844H136.703ZM136.703 33.8125C136.703 28.8057 137.364 24.3362 138.668 20.3922L136.769 19.7641C135.386 23.9451 134.703 28.6318 134.703 33.8125H136.703ZM138.668 20.3922C139.975 16.44 141.836 13.0914 144.239 10.3281L142.73 9.0157C140.133 12.0023 138.15 15.5912 136.769 19.7641L138.668 20.3922ZM144.239 10.3281C146.641 7.56517 149.521 5.45069 152.885 3.97866L152.084 2.14634C148.448 3.73681 145.327 6.02858 142.73 9.0157L144.239 10.3281ZM152.885 3.97866C156.243 2.50941 160.011 1.76562 164.203 1.76562V-0.234375C159.77 -0.234375 155.725 0.553094 152.084 2.14634L152.885 3.97866ZM164.203 1.76562C169.899 1.76562 174.636 2.7918 178.458 4.79222L179.386 3.02028C175.207 0.833197 170.132 -0.234375 164.203 -0.234375V1.76562ZM178.458 4.79222C182.305 6.80582 185.258 9.55613 187.345 13.0447L189.061 12.0178C186.773 8.19387 183.539 5.19418 179.386 3.02028L178.458 4.79222ZM187.348 13.05C189.481 16.5642 190.767 20.5877 191.192 25.1398L193.183 24.9539C192.733 20.1311 191.363 15.8108 189.058 12.0125L187.348 13.05ZM192.188 24.0469H176.953V26.0469H192.188V24.0469ZM177.952 24.9999C177.823 22.2501 177.303 19.875 176.354 17.909L174.553 18.7785C175.353 20.4375 175.834 22.5311 175.954 25.0939L177.952 24.9999ZM176.357 17.915C175.388 15.8737 173.888 14.3217 171.881 13.2837L170.962 15.0601C172.581 15.8971 173.768 17.1263 174.55 18.7725L176.357 17.915ZM171.881 13.2837C169.876 12.2463 167.293 11.7656 164.203 11.7656V13.7656C167.113 13.7656 169.343 14.2224 170.962 15.0601L171.881 13.2837ZM164.203 11.7656C161.891 11.7656 159.814 12.1955 157.997 13.0866L158.878 14.8822C160.374 14.1483 162.14 13.7656 164.203 13.7656V11.7656ZM157.99 13.0899C156.184 13.993 154.695 15.3917 153.516 17.2444L155.203 18.3181C156.212 16.7333 157.441 15.6007 158.885 14.8788L157.99 13.0899ZM153.509 17.2554C152.366 19.1035 151.535 21.4119 150.988 24.1476L152.949 24.5399C153.465 21.9631 154.227 19.8965 155.21 18.3071L153.509 17.2554ZM150.989 24.1454C150.44 26.854 150.172 30.0488 150.172 33.7188H152.172C152.172 30.1387 152.435 27.0835 152.949 24.5421L150.989 24.1454ZM150.172 33.7188V37.9844H152.172V33.7188H150.172ZM150.172 37.9844C150.172 41.6182 150.409 44.7893 150.891 47.4883L152.859 47.1367C152.404 44.5857 152.172 41.538 152.172 37.9844H150.172ZM150.891 47.4883C151.374 50.1957 152.157 52.4915 153.268 54.3426L154.982 53.3136C154.031 51.7273 153.313 49.6793 152.859 47.1367L150.891 47.4883ZM153.274 54.3539C154.425 56.2144 155.916 57.6289 157.749 58.5629L158.657 56.7808C157.178 56.0274 155.95 54.8793 154.976 53.3023L153.274 54.3539ZM157.749 58.5629C159.58 59.4954 161.76 59.9375 164.25 59.9375V57.9375C161.99 57.9375 160.139 57.5359 158.657 56.7808L157.749 58.5629ZM164.25 59.9375C167.065 59.9375 169.486 59.5017 171.469 58.5785L170.625 56.7653C168.983 57.5295 166.873 57.9375 164.25 57.9375V59.9375ZM171.482 58.5724C173.479 57.6081 175.024 56.1508 176.094 54.2187L174.344 53.2501C173.476 54.8179 172.24 55.9856 170.612 56.7713L171.482 58.5724ZM176.094 54.2187C177.155 52.3021 177.742 49.9422 177.905 47.1837L175.908 47.0663C175.758 49.6203 175.22 51.6667 174.344 53.2501L176.094 54.2187Z" fill="#622BFF" fill-opacity="0.18" mask="url(#path-1-outside-1_2420_668)"/>
</svg>
