<svg width="837" height="242" viewBox="0 0 837 242" fill="none" xmlns="http://www.w3.org/2000/svg">
<path d="M775.527 6.7826C619.961 78.8704 549.391 229.695 549.391 229.695L583.785 221.09C583.785 221.09 661.702 85.1772 833.16 24.554C843.314 20.9606 828.277 15.0694 800.474 11.7938C791.735 10.7671 787.927 1.0625 775.551 6.80703L775.527 6.7826Z" fill="#FDD14E"/>
<path d="M561.204 137.562C522.783 175.916 506.77 225.295 500.496 241.917L524.223 235.977C548.047 184.619 563.841 169.39 593.206 142.476C601.774 134.629 588.007 136.976 580.244 135.167C572.848 133.456 572.189 126.587 561.204 137.538V137.562Z" fill="#1C81E6"/>
<path d="M60.9651 1.91831C216.531 74.0061 287.101 224.831 287.101 224.831L252.707 216.226C252.707 216.226 174.79 80.3129 3.33252 19.6897C-6.82213 16.0963 8.21457 10.2051 36.0178 6.92951C44.7567 5.90283 48.5647 -3.80175 60.9407 1.94278L60.9651 1.91831Z" fill="#1C81E6"/>
<path d="M307.019 159.905C337.215 190.046 349.811 228.864 354.717 241.918L336.068 237.249C317.345 196.89 304.945 184.912 281.853 163.767C275.115 157.607 285.929 159.441 292.032 158.023C297.841 156.678 298.378 151.276 306.995 159.905H307.019Z" fill="#FDD14E"/>
</svg>
