<svg width="15" height="15" viewBox="0 0 15 15" fill="none" xmlns="http://www.w3.org/2000/svg">
<g clip-path="url(#clip0_2455_693)">
<path d="M11.2839 6.88251C8.80375 5.63446 6.99336 3.08094 6.48325 0C5.97315 3.08094 4.16411 5.63446 1.6826 6.88251C1.19956 7.12533 -0.00195312 7.49869 -0.00195312 7.49869C-0.00195312 7.49869 1.19956 7.87206 1.6826 8.11488C4.16276 9.36423 5.97315 11.9178 6.48325 14.9974C6.99336 11.9164 8.80239 9.36292 11.2825 8.11488C11.7656 7.87206 12.9671 7.49869 12.9671 7.49869C12.9671 7.49869 11.7656 7.12533 11.2825 6.88251H11.2839Z" fill="white"/>
<path d="M14.4717 2.15666C13.695 1.76501 13.1281 0.966057 12.9684 0C12.8088 0.964752 12.2418 1.76501 11.4652 2.15666C11.3137 2.23238 10.9375 2.34987 10.9375 2.34987C10.9375 2.34987 11.3137 2.46736 11.4652 2.54308C12.2418 2.93473 12.8088 3.73368 12.9684 4.69974C13.1281 3.73499 13.695 2.93473 14.4717 2.54308C14.6232 2.46736 14.9994 2.34987 14.9994 2.34987C14.9994 2.34987 14.6232 2.23238 14.4717 2.15666Z" fill="white"/>
</g>
<defs>
<clipPath id="clip0_2455_693">
<rect width="15" height="15" fill="white"/>
</clipPath>
</defs>
</svg>
