<svg width="20" height="20" viewBox="0 0 20 20" fill="none" xmlns="http://www.w3.org/2000/svg">
    <path
        d="M15.7198 3.06686C15.7198 2.68432 15.4097 2.37402 15.027 2.37402H14.4993C14.2348 2.37402 13.9812 2.51919 13.8789 2.76316C13.7191 3.1443 13.3435 3.41206 12.9044 3.41206C12.4653 3.41206 12.0895 3.1443 11.9299 2.76316C11.8276 2.51919 11.5739 2.3742 11.3095 2.3742H10.9591C10.6946 2.3742 10.4409 2.51936 10.3387 2.76316C10.1789 3.1443 9.80332 3.41206 9.36417 3.41206C8.92503 3.41206 8.54927 3.1443 8.38969 2.76316C8.28759 2.51936 8.03373 2.3742 7.76927 2.3742H7.43292C7.16847 2.3742 6.91477 2.51936 6.8125 2.76316C6.65275 3.1443 6.27716 3.41206 5.83802 3.41206C5.39888 3.41206 5.02311 3.1443 4.86354 2.76316C4.76144 2.51919 4.50757 2.37402 4.24311 2.37402H3.7109C3.32837 2.37402 3.01807 2.68415 3.01807 3.06686V6.1794H15.7195V3.06686H15.7198ZM10.024 13.9825C10.2155 12.3302 11.5206 10.9561 13.1614 10.6823C13.8902 10.5606 14.5856 10.6502 15.2027 10.8955C15.4517 10.9945 15.72 10.8167 15.72 10.5488V6.81701H3.01928V16.9775C3.01928 17.3267 3.3051 17.6125 3.65429 17.6125H10.6946C11.0273 17.6125 11.1888 17.2222 10.9667 16.9742C10.2716 16.1975 9.89048 15.1341 10.024 13.9825ZM8.74253 10.2452C8.74253 10.4569 8.57097 10.6283 8.35948 10.6283H5.31553C5.10386 10.6283 4.93247 10.4567 4.93247 10.2452V9.74132C4.93247 9.52965 5.10403 9.35827 5.31553 9.35827H8.35948C8.57115 9.35827 8.74253 9.52982 8.74253 9.74132V10.2452Z"
        fill="#6EA6BF" />
    <path
        d="M13.8249 11.2622C12.0713 11.2622 10.6497 12.6838 10.6497 14.4374C10.6497 16.191 12.0713 17.6127 13.8249 17.6127C15.5785 17.6127 17.0001 16.191 17.0001 14.4374C17.0001 12.6838 15.5785 11.2622 13.8249 11.2622ZM15.3026 14.0952L13.8499 15.7663C13.757 15.8733 13.5945 15.8834 13.4891 15.7889L12.4111 14.8231C12.3067 14.7295 12.2979 14.5691 12.3915 14.4647L12.6884 14.1332C12.782 14.0289 12.9423 14.02 13.0468 14.1136L13.5967 14.6062L14.5839 13.4701C14.6759 13.3643 14.8362 13.353 14.9419 13.4451L15.2776 13.7371C15.3835 13.8292 15.3946 13.9894 15.3026 14.0952Z"
        fill="#6EA6BF" />
</svg>