<svg width="24" height="24" viewBox="0 0 24 24" fill="none" xmlns="http://www.w3.org/2000/svg">
<path d="M18.8637 3.68028C18.8637 3.22124 18.4915 2.84888 18.0323 2.84888H17.3991C17.0817 2.84888 16.7773 3.02308 16.6546 3.31584C16.4628 3.77321 16.0121 4.09452 15.4852 4.09452C14.9583 4.09452 14.5073 3.77321 14.3158 3.31584C14.193 3.02308 13.8886 2.84909 13.5713 2.84909H13.1508C12.8334 2.84909 12.529 3.02328 12.4063 3.31584C12.2146 3.77321 11.7639 4.09452 11.2369 4.09452C10.7099 4.09452 10.259 3.77321 10.0675 3.31584C9.94501 3.02328 9.64037 2.84909 9.32302 2.84909H8.9194C8.60206 2.84909 8.29762 3.02328 8.1749 3.31584C7.9832 3.77321 7.53249 4.09452 7.00552 4.09452C6.47855 4.09452 6.02763 3.77321 5.83615 3.31584C5.71363 3.02308 5.40898 2.84888 5.09163 2.84888H4.45298C3.99394 2.84888 3.62158 3.22103 3.62158 3.68028V7.41533H18.8633L18.8637 3.68028ZM12.0287 16.7791C12.2585 14.7963 13.8246 13.1474 15.7936 12.8188C16.6681 12.6728 17.5026 12.7803 18.2431 13.0747C18.5419 13.1935 18.8639 12.9801 18.8639 12.6586V8.18046H3.62303V20.3731C3.62303 20.7921 3.96602 21.1351 4.38505 21.1351H12.8334C13.2327 21.1351 13.4265 20.6667 13.1599 20.3691C12.3258 19.4371 11.8685 18.161 12.0287 16.7791ZM10.4909 12.2943C10.4909 12.5483 10.2851 12.754 10.0313 12.754H6.37853C6.12453 12.754 5.91886 12.5481 5.91886 12.2943V11.6896C5.91886 11.4356 6.12473 11.23 6.37853 11.23H10.0313C10.2853 11.23 10.4909 11.4358 10.4909 11.6896V12.2943Z" fill="#9844ED"/>
<path d="M16.5898 13.5146C14.4855 13.5146 12.7795 15.2206 12.7795 17.3249C12.7795 19.4292 14.4855 21.1352 16.5898 21.1352C18.6941 21.1352 20.4 19.4292 20.4 17.3249C20.4 15.2206 18.6941 13.5146 16.5898 13.5146ZM18.363 16.9142L16.6198 18.9196C16.5083 19.048 16.3133 19.0601 16.1868 18.9467L14.8932 17.7877C14.7679 17.6754 14.7574 17.4829 14.8697 17.3576L15.226 16.9598C15.3383 16.8347 15.5307 16.824 15.6561 16.9363L16.3159 17.5274L17.5006 16.1641C17.611 16.0372 17.8033 16.0236 17.9302 16.1341L18.333 16.4845C18.4601 16.595 18.4734 16.7873 18.363 16.9142Z" fill="#9844ED"/>
</svg>
