<svg width="24" height="24" viewBox="0 0 24 24" fill="none" xmlns="http://www.w3.org/2000/svg">
<path d="M21.8401 19.3544C21.8339 19.4876 21.8154 19.6209 21.7908 19.7481C21.7662 19.8752 21.7293 20.0004 21.6842 20.1213C21.6698 20.1624 21.6534 20.2014 21.6371 20.2403C21.5652 20.4105 21.4751 20.5725 21.3704 20.7223C21.3643 20.7325 21.356 20.7427 21.3499 20.751C21.3314 20.7756 21.3129 20.8022 21.2925 20.8268C21.2863 20.8329 21.2822 20.8412 21.2761 20.8473C21.2269 20.9089 21.1755 20.9683 21.1223 21.0258C21.1202 21.0278 21.1202 21.0278 21.1182 21.0299C21.0033 21.1508 20.8761 21.2616 20.7387 21.3579C20.7101 21.3785 20.6814 21.3969 20.6527 21.4175C20.6219 21.438 20.5911 21.4565 20.5583 21.477C20.5419 21.4872 20.5235 21.4975 20.507 21.5077C20.4824 21.5221 20.4599 21.5343 20.4353 21.5467C20.4229 21.5528 20.4107 21.5589 20.3963 21.5672C20.3717 21.5795 20.345 21.5918 20.3184 21.6041C20.2692 21.6266 20.2178 21.6492 20.1666 21.6697C20.1379 21.6821 20.1072 21.6923 20.0784 21.7025C20.0333 21.7189 19.9861 21.7333 19.9389 21.7455C19.8775 21.764 19.8139 21.7784 19.7503 21.7927C19.6436 21.8153 19.535 21.8297 19.4243 21.8378C19.3566 21.842 19.2909 21.8461 19.2233 21.8461C19.1556 21.8461 19.0879 21.8441 19.0223 21.8378C18.9115 21.8297 18.8028 21.8132 18.6962 21.7927C18.6326 21.7805 18.569 21.764 18.5076 21.7455C18.4603 21.7333 18.4152 21.7169 18.368 21.7025C18.3393 21.6923 18.3086 21.6821 18.2799 21.6697C18.2286 21.6492 18.1773 21.6287 18.1281 21.6041C18.1015 21.5918 18.0769 21.5795 18.0501 21.5672C18.0379 21.561 18.0255 21.5549 18.0113 21.5467C17.9867 21.5343 17.9621 21.5199 17.9395 21.5077C17.921 21.4975 17.9046 21.4872 17.8881 21.477C17.8574 21.4585 17.8247 21.438 17.7938 21.4175C17.7651 21.399 17.7365 21.3785 17.7077 21.3579C17.5703 21.2616 17.4432 21.1508 17.3283 21.0299C17.3263 21.0278 17.3263 21.0278 17.3243 21.0258C17.2709 20.9683 17.2196 20.9089 17.1704 20.8473C17.1643 20.8412 17.1601 20.8329 17.154 20.8268C17.1355 20.8022 17.1151 20.7776 17.0966 20.751C17.0904 20.7407 17.0822 20.7305 17.0761 20.7223C16.9715 20.5725 16.8812 20.4105 16.8095 20.2403C16.793 20.2014 16.7767 20.1603 16.7623 20.1213C16.7172 20.0004 16.6824 19.8752 16.6556 19.7481C16.629 19.6209 16.6127 19.4876 16.6064 19.3544C16.6044 19.3093 16.6023 19.2642 16.6023 19.2191C16.6023 19.1514 16.6044 19.0837 16.6105 19.0181C16.6188 18.9073 16.6351 18.7986 16.6556 18.692C16.668 18.6284 16.6844 18.5648 16.7028 18.5033C16.8033 18.1506 16.9755 17.8286 17.2032 17.5518C17.2176 17.5353 17.2299 17.5189 17.2442 17.5046C17.3243 17.4123 17.4125 17.3241 17.5047 17.2421L15.4703 11.3399C15.4109 11.344 15.3513 11.3461 15.2919 11.3461C15.0048 11.3461 14.7279 11.2989 14.4696 11.2148C14.4572 11.2107 14.445 11.2066 14.4347 11.2025C14.406 11.1923 14.3751 11.182 14.3465 11.1697C14.3013 11.1512 14.2562 11.1328 14.2111 11.1123L11.1268 14.2376C11.1719 14.3423 11.2108 14.453 11.2437 14.5638C11.2621 14.6252 11.2765 14.6888 11.2908 14.7524C11.3134 14.8591 11.3277 14.9677 11.3359 15.0785C11.34 15.1461 11.3441 15.2118 11.3441 15.2795C11.3441 15.3246 11.3421 15.3697 11.34 15.4148C11.3339 15.5481 11.3154 15.6815 11.2908 15.8085C11.1555 16.4709 10.7699 17.0411 10.2388 17.4205C10.2224 17.4327 10.2039 17.4451 10.1875 17.4575C10.0644 17.5394 9.93526 17.6132 9.79989 17.6748C9.76093 17.6933 9.72197 17.7097 9.683 17.724C9.64404 17.7384 9.60302 17.7548 9.56201 17.7691C9.29745 17.8593 9.01445 17.9065 8.71914 17.9065C8.65146 17.9065 8.58379 17.9045 8.51816 17.8983C8.40741 17.8901 8.29873 17.8737 8.19209 17.8532C8.12851 17.8409 8.06493 17.8245 8.00341 17.8061C7.95625 17.7937 7.91113 17.7774 7.86396 17.763C7.83525 17.7527 7.80449 17.7425 7.77578 17.7301C7.72451 17.7097 7.67324 17.6892 7.62402 17.6646C7.59735 17.6522 7.57276 17.64 7.54609 17.6276C7.53379 17.6215 7.52148 17.6153 7.50713 17.6071C7.48251 17.5949 7.4579 17.5805 7.43534 17.5681C7.41689 17.5579 7.40048 17.5476 7.38408 17.5374C7.35332 17.5189 7.3205 17.4984 7.28975 17.4779C7.26103 17.4595 7.23233 17.439 7.20361 17.4185C7.06621 17.3221 6.93906 17.2113 6.82422 17.0903C6.82217 17.0882 6.82217 17.0882 6.82012 17.0862C6.7668 17.0288 6.71552 16.9693 6.66631 16.9077C6.66016 16.9016 6.65605 16.8935 6.6499 16.8873C6.63144 16.8626 6.61093 16.838 6.59247 16.8114C6.58633 16.8012 6.57812 16.7909 6.57197 16.7827C6.46738 16.6329 6.37715 16.4709 6.30536 16.3008C6.28896 16.2618 6.27255 16.2207 6.2582 16.1819C6.21308 16.0608 6.17822 15.9357 6.15156 15.8085C6.1249 15.6815 6.10849 15.5481 6.10233 15.4148C6.10029 15.3697 6.09824 15.3246 6.09824 15.2795C6.09824 15.2118 6.1003 15.1441 6.10644 15.0785C6.11465 14.9677 6.13105 14.8591 6.15156 14.7524C6.16386 14.6888 6.18028 14.6252 6.19873 14.5638C6.29922 14.211 6.47148 13.889 6.69912 13.6122C6.71347 13.5957 6.72578 13.5794 6.74014 13.565C6.75244 13.5506 6.76475 13.5363 6.77705 13.524L4.64834 7.40447C4.40839 7.39217 4.17666 7.3491 3.95928 7.27731C3.94697 7.27322 3.93467 7.26912 3.92441 7.26501C3.8957 7.25475 3.86494 7.24451 3.83623 7.23221C3.78496 7.2117 3.73369 7.19119 3.68447 7.16658C3.62089 7.13786 3.55733 7.10505 3.4958 7.07019C3.47735 7.05993 3.46093 7.04969 3.44453 7.03943C3.41377 7.02097 3.38095 7.00046 3.3502 6.97995C3.32148 6.9615 3.29278 6.94099 3.26406 6.92048C3.2292 6.89587 3.19638 6.87126 3.16357 6.84461C3.14717 6.83229 3.13076 6.81794 3.11435 6.80564C3.06514 6.76463 3.01796 6.72361 2.97284 6.68054C2.95849 6.66619 2.94209 6.65183 2.92774 6.63747C2.89902 6.60876 2.86826 6.578 2.8416 6.54723C2.81288 6.51648 2.78623 6.48367 2.75957 6.4529C2.70625 6.38727 2.65498 6.32166 2.60782 6.24987C2.51347 6.11042 2.43144 5.96072 2.36582 5.80485C2.34941 5.76589 2.333 5.72487 2.31865 5.68591C2.3043 5.64489 2.28994 5.60593 2.27764 5.56491C2.25302 5.48288 2.23046 5.3988 2.21201 5.31267C2.19355 5.22654 2.18125 5.1404 2.17304 5.05223C2.16485 4.96404 2.15869 4.8738 2.15869 4.78357C2.15869 3.33367 3.33379 2.15857 4.78369 2.15857C6.23359 2.15857 7.40869 3.33367 7.40869 4.78357C7.40869 4.8738 7.40459 4.96404 7.39434 5.05223C7.38613 5.1404 7.37178 5.22654 7.35536 5.31267C7.33896 5.3988 7.3164 5.48288 7.28975 5.56491C7.27743 5.60593 7.26308 5.64695 7.24873 5.68591C7.23437 5.72693 7.21796 5.76589 7.20156 5.80485C7.13593 5.96277 7.0539 6.11042 6.95957 6.24987C6.9124 6.31961 6.86113 6.38727 6.80782 6.4529C6.78115 6.48572 6.75449 6.51648 6.72578 6.54723C6.69707 6.578 6.66835 6.60876 6.63965 6.63747C6.6253 6.65183 6.60888 6.66619 6.59453 6.68054C6.56786 6.70721 6.53916 6.73181 6.51044 6.75642L8.55713 12.6626C8.61044 12.6585 8.66582 12.6565 8.71914 12.6565C9.03701 12.6565 9.34052 12.7119 9.62148 12.8165C9.65635 12.8288 9.68916 12.8431 9.72402 12.8575L12.8412 9.68904C12.833 9.66648 12.8249 9.64597 12.8166 9.62341C12.8023 9.58239 12.7879 9.54343 12.7755 9.50241C12.7509 9.42038 12.7284 9.3363 12.71 9.25017C12.6915 9.16404 12.6792 9.0779 12.671 8.98973C12.6627 8.90154 12.6566 8.8113 12.6566 8.72107C12.6566 7.27117 13.8318 6.09607 15.2816 6.09607C16.7316 6.09607 17.9066 7.27117 17.9066 8.72107C17.9066 8.8113 17.9025 8.90154 17.8923 8.98973C17.8841 9.0779 17.8698 9.16404 17.8533 9.25017C17.8369 9.3363 17.8143 9.42038 17.7877 9.50241C17.7753 9.54343 17.7611 9.58445 17.7467 9.62341C17.7324 9.66443 17.7159 9.70339 17.6995 9.74235C17.6339 9.90027 17.5519 10.0479 17.4576 10.1874C17.4103 10.2571 17.3591 10.3248 17.3058 10.3904C17.2853 10.4171 17.2627 10.4417 17.2401 10.4663L19.3545 16.5981C19.3771 16.6002 19.3976 16.6002 19.4201 16.6022C19.5308 16.6104 19.6395 16.6268 19.7462 16.6473C19.8098 16.6597 19.8733 16.676 19.9349 16.6945C20.2877 16.7949 20.6096 16.9673 20.8865 17.1949C20.9028 17.2093 20.9192 17.2215 20.9336 17.2359C21.0279 17.3179 21.1182 17.4081 21.2001 17.5025C21.2145 17.5189 21.2269 17.5353 21.2412 17.5497C21.4688 17.8245 21.6411 18.1485 21.7416 18.5012C21.7601 18.5628 21.7745 18.6264 21.7887 18.69C21.8113 18.7965 21.8257 18.9053 21.8339 19.016C21.8379 19.0837 21.8421 19.1493 21.8421 19.217C21.8442 19.2642 21.8421 19.3093 21.8401 19.3544Z" fill="#546CEA"/>
</svg>
