<svg width="24" height="24" viewBox="0 0 24 24" fill="none" xmlns="http://www.w3.org/2000/svg">
<path d="M17.6988 4.32158C17.5422 4.33096 17.3918 4.38594 17.2661 4.47976C17.1404 4.57358 17.0448 4.70215 16.9913 4.84961C16.9377 4.99706 16.9284 5.15697 16.9647 5.30959C17.0009 5.46223 17.0811 5.60094 17.1951 5.70861C17.3092 5.81627 17.4524 5.8882 17.6068 5.91552C17.7612 5.94284 17.9204 5.92438 18.0645 5.86237C18.2086 5.80037 18.3314 5.69756 18.4178 5.56661C18.5042 5.43566 18.5504 5.28229 18.5506 5.12542C18.5492 5.01619 18.5258 4.9084 18.4817 4.80839C18.4378 4.70839 18.3742 4.61824 18.2948 4.54327C18.2153 4.4683 18.1217 4.41005 18.0194 4.37197C17.9169 4.3339 17.8079 4.31676 17.6988 4.32158ZM14.9634 4.32158C14.8068 4.33096 14.6564 4.38594 14.5306 4.47976C14.405 4.57358 14.3094 4.70215 14.2558 4.84961C14.2023 4.99706 14.193 5.15697 14.2293 5.30959C14.2655 5.46223 14.3456 5.60094 14.4597 5.70861C14.5738 5.81627 14.717 5.8882 14.8714 5.91552C15.0258 5.94284 15.185 5.92438 15.3291 5.86237C15.4732 5.80037 15.596 5.69756 15.6824 5.56661C15.7688 5.43566 15.815 5.28229 15.8152 5.12542C15.8138 5.01619 15.7904 4.9084 15.7463 4.80839C15.7024 4.70839 15.6388 4.61824 15.5594 4.54327C15.4799 4.4683 15.3863 4.41005 15.2838 4.37197C15.1815 4.3339 15.0725 4.31676 14.9634 4.32158ZM5.2095 5.91725H10.0085V4.32158H5.2095V5.91725ZM3.91378 7.83684H2.47409V3.36179C2.47546 3.22998 2.50363 3.09983 2.5569 2.97924C2.61017 2.85866 2.68741 2.75018 2.78393 2.6604C2.88044 2.57062 2.99423 2.50141 3.11833 2.45699C3.24245 2.41256 3.37429 2.39386 3.50586 2.402H20.6022C20.733 2.39718 20.8635 2.4182 20.9861 2.46384C21.1088 2.50949 21.2212 2.57887 21.3171 2.66801C21.4128 2.75716 21.4902 2.8643 21.5446 2.98336C21.599 3.1024 21.6293 3.231 21.634 3.36179V7.83684H3.91378ZM17.7348 18.0707C17.51 18.0535 17.2872 18.1238 17.1129 18.2669C16.9386 18.4099 16.8262 18.6146 16.799 18.8384C16.8076 19.0532 16.896 19.257 17.0469 19.4101C17.1977 19.5632 17.4003 19.6546 17.6148 19.6663C17.8317 19.6709 18.0424 19.5949 18.2064 19.4531C18.3704 19.3112 18.476 19.1136 18.5026 18.8984C18.5004 18.6898 18.4205 18.4894 18.2786 18.3362C18.1366 18.1832 17.9428 18.0886 17.7348 18.0707ZM14.9994 18.0707C14.8461 18.0648 14.6937 18.0967 14.5556 18.1637C14.4174 18.2306 14.2979 18.3306 14.2076 18.4546C14.132 18.575 14.0919 18.7142 14.0919 18.8564C14.0919 18.9986 14.132 19.138 14.2076 19.2584C14.3036 19.41 14.4437 19.5286 14.6092 19.5979C14.7748 19.6673 14.9576 19.6841 15.133 19.6462C15.3083 19.6082 15.4679 19.5173 15.5898 19.3858C15.7119 19.2541 15.7906 19.0883 15.8152 18.9104C15.8219 18.8005 15.8056 18.6902 15.7673 18.5869C15.729 18.4836 15.6696 18.3894 15.5928 18.3103C15.516 18.2312 15.4236 18.1691 15.3214 18.1279C15.2193 18.0866 15.1096 18.0671 14.9994 18.0707ZM5.2095 19.6783H10.0085V18.0707H5.2095V19.6783ZM20.1943 21.5978H3.93778C3.56947 21.6077 3.21209 21.4723 2.94275 21.2209C2.67341 20.9695 2.51369 20.6222 2.49808 20.2542V16.151H21.694V20.2542C21.6663 20.6286 21.4946 20.9778 21.215 21.2284C20.9354 21.4789 20.5695 21.6113 20.1943 21.5978ZM5.2095 12.6358H10.0085V11.0402H5.2095V12.6358ZM14.9274 12.6358C15.0914 12.6392 15.2529 12.5959 15.393 12.511C15.5333 12.4259 15.6464 12.3028 15.7192 12.1559C15.7868 12.0128 15.8069 11.8518 15.7767 11.6965C15.7464 11.5412 15.6675 11.3995 15.5513 11.2921C15.4263 11.1843 15.2759 11.1101 15.1143 11.0765C14.9526 11.0429 14.7851 11.051 14.6274 11.1001C14.4744 11.1555 14.3409 11.2542 14.2428 11.3841C14.1449 11.5141 14.0868 11.6696 14.0756 11.832C14.0907 12.0485 14.1867 12.2514 14.3445 12.4003C14.5023 12.5492 14.7104 12.6334 14.9274 12.6358ZM17.6628 12.6358C17.8796 12.6404 18.0904 12.5645 18.2544 12.4226C18.4184 12.2808 18.524 12.0832 18.5506 11.868C18.542 11.6532 18.4536 11.4494 18.3028 11.2963C18.152 11.1433 17.9494 11.0519 17.7348 11.0402C17.518 11.0355 17.3073 11.1115 17.1432 11.2533C16.9792 11.3952 16.8737 11.5928 16.847 11.808C16.85 12.0246 16.9366 12.2316 17.0886 12.3858C17.2406 12.5401 17.4464 12.6296 17.6628 12.6358ZM2.47409 9.12056H21.598V14.5554H2.4021L2.47409 9.12056Z" fill="#7FC8FC"/>
</svg>
